;TYPE=PLATED
;Layer: PTH_Through
;EasyEDA Pro v3.2.148, 2026-08-12 11:35:12
;Gerber Generator version 0.3
M48
METRIC,LZ,0000.00000
;Hole size 1 = 0.30500 METRIC
T01C0.30500
;Hole size 2 = 0.60000 METRIC
T02C0.60000
;Hole size 3 = 0.70002 METRIC
T03C0.70002
%
G05
G90
T01
X41.91Y55.90319
X42.926Y55.88
X44.09783Y56.007
X45.339Y56.007
X41.91Y58.42
X42.926Y58.42
X44.577Y58.42
X45.974Y58.293
X30.353Y67.36004
X37.211Y62.73495
X59.309Y62.611
X53.594Y55.245
X52.705Y54.356
X51.56505Y52.578
X51.56505Y48.26
X49.46802Y47.625
X49.41147Y42.418
X46.61969Y54.95877
X39.243Y9.779
X36.83Y9.779
T02
X73.28996Y49.52307G85X74.18996Y49.52307
X73.28997Y58.17309G85X74.19Y58.17309
X77.63998Y49.52307G85X78.23998Y49.52307
X77.63998Y58.17309G85X78.23998Y58.17309
X42.15707Y8.11704G85X42.15707Y7.21704
X50.80709Y8.11703G85X50.80709Y7.217
X42.15707Y3.76702G85X42.15707Y3.16702
X50.80709Y3.76702G85X50.80709Y3.16702
X19.70788Y58.14497G85X18.80788Y58.14497
X19.70787Y49.49495G85X18.80784Y49.49495
X15.35786Y58.14497G85X14.75786Y58.14497
X15.35786Y49.49495G85X14.75786Y49.49495
T03
X29.364Y75.50005G85X29.364Y76.80002
X42.264Y75.50005G85X42.264Y76.80002
X51.208Y75.50005G85X51.208Y76.80002
X64.108Y75.50005G85X64.108Y76.80002
M30