;TYPE=PLATED
;Layer: PTH_Through_Via
;EasyEDA Pro v3.2.148, 2026-08-12 11:35:12
;Gerber Generator version 0.3
M48
METRIC,LZ,0000.00000
;Hole size 1 = 0.30500 METRIC
T01C0.30500
%
G05
G90
T01
X41.91Y55.90319
X42.926Y55.88
X44.09783Y56.007
X45.339Y56.007
X41.91Y58.42
X42.926Y58.42
X44.577Y58.42
X45.974Y58.293
X30.353Y67.36004
X37.211Y62.73495
X59.309Y62.611
X53.594Y55.245
X52.705Y54.356
X51.56505Y52.578
X51.56505Y48.26
X49.46802Y47.625
X49.41147Y42.418
X46.61969Y54.95877
X39.243Y9.779
X36.83Y9.779
M30