G04 Layer: DrillDrawingLayer*
G04 EasyEDA Pro v3.2.148, 2026-08-12 11:35:12*
G04 Gerber Generator version 0.3*
G04 Scale: 100 percent, Rotated: No, Reflected: No*
G04 Dimensions in millimeters*
G04 Leading zeros omitted, absolute positions, 4 integers and 5 decimals*
G04 Generated by one-click*
G04 Object Configs: Pad,Via,Track,Text,Image,Dimension,BoardOutline,BoardCutout,CopperFilled,SolidRegion,FPCStiffener,Line,PlaneZone,ComponentProperty,ComponentSilkscreen,TearDrop*
G04 Layer Configs: 1,2,3,4,5,6,7,8,9,10,11,13,14,56*
G04 Copper Areas: 0*
%FSLAX45Y45*%
%MOMM*%
%AMIconRect*4,1,4,0.28,-0.28,-0.28,-0.28,-0.28,0.28,0.28,0.28,0.28,-0.28,0*4,0,4,0.233333,-0.233333,0.233333,0.233333,-0.233333,0.233333,-0.233333,-0.233333,0.233333,-0.233333,0*%
%AMIconTriangle*4,1,3,-0.339593,0.240473,0.339593,0.240473,0,-0.37884,-0.339593,0.240473,0*4,0,3,-0.265673,0.19404,0,-0.27342,0.266233,0.19404,-0.265673,0.19404,0*%
%AMIconStar6*4,1,12,0.12068,0.20888,0.298527,0.172713,0.241313,0,0.298527,-0.17206,0.12068,-0.208227,0,-0.344073,-0.120073,-0.208227,-0.298573,-0.17206,-0.240707,0,-0.298573,0.17206,-0.120073,0.20888,0,0.344073,0.12068,0.20888,0*4,0,12,-0.000467,0.273467,-0.090067,0.171733,-0.237533,0.136733,-0.193667,-0.007467,-0.237533,-0.1372,-0.090067,-0.171733,-0.000467,-0.273933,0.090067,-0.171733,0.237533,-0.1372,0.194133,0.007,0.237533,0.1372,0.090067,0.171267,-0.000467,0.273467,0*%
%AMIconStar4*4,1,8,-0.311733,0.311733,0,0.202533,0.311733,0.311733,0.202533,0,0.311733,-0.311733,0,-0.202533,-0.304407,-0.311733,-0.202533,0,-0.311733,0.311733,0*4,0,8,0.233333,-0.233333,0.1512,0,0.233333,0.233333,0,0.1512,-0.233333,0.233333,-0.1512,0,-0.233333,-0.233333,0,-0.1512,0.233333,-0.233333,0*%
%AMIconPlus*4,1,12,0.1736,-0.28,-0.1736,-0.28,-0.1736,-0.1736,-0.28,-0.1736,-0.28,0.1736,-0.1736,0.1736,-0.1736,0.28,0.1736,0.28,0.1736,0.1736,0.28,0.1736,0.28,-0.1736,0.1736,-0.1736,0.1736,-0.28,0*4,0,12,0.126933,-0.233333,0.126933,-0.126933,0.233333,-0.126933,0.233333,0.126933,0.126933,0.126933,0.126933,0.233333,-0.126933,0.233333,-0.126933,0.126933,-0.233333,0.126933,-0.233333,-0.126933,-0.126933,-0.126933,-0.126933,-0.233333,0.126933,-0.233333,0*%
%AMIconX*4,1,16,0.28,-0.28,0.076347,-0.28,0,-0.203653,-0.076347,-0.28,-0.28,-0.28,-0.28,-0.076347,-0.203653,0,-0.28,0.076347,-0.28,0.28,-0.076347,0.28,0,0.203653,0.076347,0.28,0.28,0.28,0.28,0.076347,0.203653,0,0.28,-0.076347,0.28,-0.28,0*4,0,16,0.23352,-0.23296,0.23352,-0.095853,0.137107,0.000093,0.23352,0.095853,0.23352,0.2331,0.095853,0.2331,0,0.137107,-0.095853,0.2331,-0.23352,0.2331,-0.23352,0.095853,-0.137107,0.000093,-0.23352,-0.095853,-0.23352,-0.23296,-0.095853,-0.23296,0,-0.137107,0.095853,-0.23296,0.23352,-0.23296,0*%
%ADD10IconRect*%
%ADD11C,0.616X0.522667*%
%ADD12IconTriangle*%
%ADD13IconStar6*%
%ADD14IconStar4*%
%ADD15IconPlus*%
%ADD16IconX*%
%ADD17C,0.2032*%
%ADD18C,0.254*%
G75*


G04 Drill Drawing Start*
G54D10*
G01X2247900Y7708900D03*
G54D11*
G01X2936400Y7615004D03*
G01X4226400Y7615004D03*
G01X5120800Y7615004D03*
G01X6410800Y7615004D03*
G54D12*
G01X1925786Y4949495D03*
G01X1925788Y5814497D03*
G01X4215707Y766704D03*
G01X5080709Y766702D03*
G01X7373996Y4952307D03*
G01X7373998Y5817309D03*
G54D13*
G01X1505786Y5814497D03*
G01X1505786Y4949495D03*
G01X4215707Y346702D03*
G01X5080709Y346702D03*
G01X7793998Y4952307D03*
G01X7793998Y5817309D03*
G54D14*
G01X1873777Y5092989D03*
G01X1873777Y5670992D03*
G01X4359212Y714693D03*
G01X4937214Y714693D03*
G01X7426008Y5095812D03*
G01X7426008Y5673814D03*
G54D15*
G01X2012308Y6464300D03*
G01X2037708Y1955800D03*
G01X2533008Y3759200D03*
G01X3752208Y1676400D03*
G01X5542908Y1663700D03*
G01X6845300Y3759200D03*
G01X7282808Y6464300D03*
G54D16*
G01X3035300Y6736004D03*
G01X3683000Y977900D03*
G01X3721100Y6273495D03*
G01X3924300Y977900D03*
G01X4191000Y5590319D03*
G01X4191000Y5842000D03*
G01X4292600Y5588000D03*
G01X4292600Y5842000D03*
G01X4409783Y5600700D03*
G01X4457700Y5842000D03*
G01X4533900Y5600700D03*
G01X4597400Y5829300D03*
G01X4661969Y5495877D03*
G01X4941147Y4241800D03*
G01X4946802Y4762500D03*
G01X5156505Y4826000D03*
G01X5156505Y5257800D03*
G01X5270500Y5435600D03*
G01X5359400Y5524500D03*
G01X5930900Y6261100D03*
G04 Drill Drawing End*

G04 Text Start*
G54D17*
G01X10248696Y7980700D02*
G01X10248696Y7860558D01*
G01X10248696Y7980700D02*
G01X10294416Y7860558D01*
G01X10340136Y7980700D02*
G01X10294416Y7860558D01*
G01X10340136Y7980700D02*
G01X10340136Y7860558D01*
G01X10456468Y7940568D02*
G01X10456468Y7860558D01*
G01X10456468Y7923550D02*
G01X10445038Y7934980D01*
G01X10433608Y7940568D01*
G01X10416590Y7940568D01*
G01X10405160Y7934980D01*
G01X10393730Y7923550D01*
G01X10387888Y7906278D01*
G01X10387888Y7894848D01*
G01X10393730Y7877830D01*
G01X10405160Y7866400D01*
G01X10416590Y7860558D01*
G01X10433608Y7860558D01*
G01X10445038Y7866400D01*
G01X10456468Y7877830D01*
G01X10504220Y7940568D02*
G01X10504220Y7860558D01*
G01X10504220Y7906278D02*
G01X10510062Y7923550D01*
G01X10521492Y7934980D01*
G01X10532922Y7940568D01*
G01X10549940Y7940568D01*
G01X10597692Y7980700D02*
G01X10597692Y7860558D01*
G01X10654842Y7940568D02*
G01X10597692Y7883418D01*
G01X10620552Y7906278D02*
G01X10660684Y7860558D01*
G01X11785977Y7951998D02*
G01X11780135Y7963428D01*
G01X11768705Y7974858D01*
G01X11757275Y7980700D01*
G01X11734415Y7980700D01*
G01X11722985Y7974858D01*
G01X11711555Y7963428D01*
G01X11705967Y7951998D01*
G01X11700125Y7934980D01*
G01X11700125Y7906278D01*
G01X11705967Y7889260D01*
G01X11711555Y7877830D01*
G01X11722985Y7866400D01*
G01X11734415Y7860558D01*
G01X11757275Y7860558D01*
G01X11768705Y7866400D01*
G01X11780135Y7877830D01*
G01X11785977Y7889260D01*
G01X11862431Y7940568D02*
G01X11851001Y7934980D01*
G01X11839571Y7923550D01*
G01X11833729Y7906278D01*
G01X11833729Y7894848D01*
G01X11839571Y7877830D01*
G01X11851001Y7866400D01*
G01X11862431Y7860558D01*
G01X11879449Y7860558D01*
G01X11890879Y7866400D01*
G01X11902309Y7877830D01*
G01X11908151Y7894848D01*
G01X11908151Y7906278D01*
G01X11902309Y7923550D01*
G01X11890879Y7934980D01*
G01X11879449Y7940568D01*
G01X11862431Y7940568D01*
G01X11955903Y7940568D02*
G01X11955903Y7883418D01*
G01X11961745Y7866400D01*
G01X11973175Y7860558D01*
G01X11990193Y7860558D01*
G01X12001623Y7866400D01*
G01X12018895Y7883418D01*
G01X12018895Y7940568D02*
G01X12018895Y7860558D01*
G01X12066647Y7940568D02*
G01X12066647Y7860558D01*
G01X12066647Y7917708D02*
G01X12083919Y7934980D01*
G01X12095349Y7940568D01*
G01X12112367Y7940568D01*
G01X12123797Y7934980D01*
G01X12129639Y7917708D01*
G01X12129639Y7860558D01*
G01X12194663Y7980700D02*
G01X12194663Y7883418D01*
G01X12200251Y7866400D01*
G01X12211681Y7860558D01*
G01X12223111Y7860558D01*
G01X12177391Y7940568D02*
G01X12217523Y7940568D01*
G01X13194298Y7963428D02*
G01X13182868Y7974858D01*
G01X13165850Y7980700D01*
G01X13142990Y7980700D01*
G01X13125718Y7974858D01*
G01X13114288Y7963428D01*
G01X13114288Y7951998D01*
G01X13120130Y7940568D01*
G01X13125718Y7934980D01*
G01X13137148Y7929138D01*
G01X13171438Y7917708D01*
G01X13182868Y7912120D01*
G01X13188710Y7906278D01*
G01X13194298Y7894848D01*
G01X13194298Y7877830D01*
G01X13182868Y7866400D01*
G01X13165850Y7860558D01*
G01X13142990Y7860558D01*
G01X13125718Y7866400D01*
G01X13114288Y7877830D01*
G01X13242050Y7980700D02*
G01X13247892Y7974858D01*
G01X13253480Y7980700D01*
G01X13247892Y7986288D01*
G01X13242050Y7980700D01*
G01X13247892Y7940568D02*
G01X13247892Y7860558D01*
G01X13364224Y7940568D02*
G01X13301232Y7860558D01*
G01X13301232Y7940568D02*
G01X13364224Y7940568D01*
G01X13301232Y7860558D02*
G01X13364224Y7860558D01*
G01X13411976Y7906278D02*
G01X13480556Y7906278D01*
G01X13480556Y7917708D01*
G01X13474968Y7929138D01*
G01X13469126Y7934980D01*
G01X13457696Y7940568D01*
G01X13440678Y7940568D01*
G01X13429248Y7934980D01*
G01X13417818Y7923550D01*
G01X13411976Y7906278D01*
G01X13411976Y7894848D01*
G01X13417818Y7877830D01*
G01X13429248Y7866400D01*
G01X13440678Y7860558D01*
G01X13457696Y7860558D01*
G01X13469126Y7866400D01*
G01X13480556Y7877830D01*
G01X17002157Y7980700D02*
G01X17002157Y7860558D01*
G01X17002157Y7980700D02*
G01X17053719Y7980700D01*
G01X17070737Y7974858D01*
G01X17076579Y7969270D01*
G01X17082167Y7957840D01*
G01X17082167Y7940568D01*
G01X17076579Y7929138D01*
G01X17070737Y7923550D01*
G01X17053719Y7917708D01*
G01X17002157Y7917708D01*
G01X17129919Y7980700D02*
G01X17129919Y7860558D01*
G01X17246251Y7940568D02*
G01X17246251Y7860558D01*
G01X17246251Y7923550D02*
G01X17234821Y7934980D01*
G01X17223391Y7940568D01*
G01X17206373Y7940568D01*
G01X17194943Y7934980D01*
G01X17183513Y7923550D01*
G01X17177671Y7906278D01*
G01X17177671Y7894848D01*
G01X17183513Y7877830D01*
G01X17194943Y7866400D01*
G01X17206373Y7860558D01*
G01X17223391Y7860558D01*
G01X17234821Y7866400D01*
G01X17246251Y7877830D01*
G01X17311275Y7980700D02*
G01X17311275Y7883418D01*
G01X17316863Y7866400D01*
G01X17328293Y7860558D01*
G01X17339723Y7860558D01*
G01X17294003Y7940568D02*
G01X17334135Y7940568D01*
G01X17387475Y7906278D02*
G01X17456055Y7906278D01*
G01X17456055Y7917708D01*
G01X17450467Y7929138D01*
G01X17444625Y7934980D01*
G01X17433195Y7940568D01*
G01X17416177Y7940568D01*
G01X17404747Y7934980D01*
G01X17393317Y7923550D01*
G01X17387475Y7906278D01*
G01X17387475Y7894848D01*
G01X17393317Y7877830D01*
G01X17404747Y7866400D01*
G01X17416177Y7860558D01*
G01X17433195Y7860558D01*
G01X17444625Y7866400D01*
G01X17456055Y7877830D01*
G01X17572387Y7980700D02*
G01X17572387Y7860558D01*
G01X17572387Y7923550D02*
G01X17560957Y7934980D01*
G01X17549527Y7940568D01*
G01X17532509Y7940568D01*
G01X17521079Y7934980D01*
G01X17509649Y7923550D01*
G01X17503807Y7906278D01*
G01X17503807Y7894848D01*
G01X17509649Y7877830D01*
G01X17521079Y7866400D01*
G01X17532509Y7860558D01*
G01X17549527Y7860558D01*
G01X17560957Y7866400D01*
G01X17572387Y7877830D01*
G01X18543574Y7963428D02*
G01X18532144Y7974858D01*
G01X18515126Y7980700D01*
G01X18492266Y7980700D01*
G01X18474994Y7974858D01*
G01X18463564Y7963428D01*
G01X18463564Y7951998D01*
G01X18469406Y7940568D01*
G01X18474994Y7934980D01*
G01X18486424Y7929138D01*
G01X18520714Y7917708D01*
G01X18532144Y7912120D01*
G01X18537986Y7906278D01*
G01X18543574Y7894848D01*
G01X18543574Y7877830D01*
G01X18532144Y7866400D01*
G01X18515126Y7860558D01*
G01X18492266Y7860558D01*
G01X18474994Y7866400D01*
G01X18463564Y7877830D01*
G01X18591326Y7980700D02*
G01X18591326Y7860558D01*
G01X18591326Y7917708D02*
G01X18608598Y7934980D01*
G01X18620028Y7940568D01*
G01X18637046Y7940568D01*
G01X18648476Y7934980D01*
G01X18654318Y7917708D01*
G01X18654318Y7860558D01*
G01X18770650Y7940568D02*
G01X18770650Y7860558D01*
G01X18770650Y7923550D02*
G01X18759220Y7934980D01*
G01X18747790Y7940568D01*
G01X18730772Y7940568D01*
G01X18719342Y7934980D01*
G01X18707912Y7923550D01*
G01X18702070Y7906278D01*
G01X18702070Y7894848D01*
G01X18707912Y7877830D01*
G01X18719342Y7866400D01*
G01X18730772Y7860558D01*
G01X18747790Y7860558D01*
G01X18759220Y7866400D01*
G01X18770650Y7877830D01*
G01X18818402Y7940568D02*
G01X18818402Y7820680D01*
G01X18818402Y7923550D02*
G01X18829832Y7934980D01*
G01X18841262Y7940568D01*
G01X18858534Y7940568D01*
G01X18869964Y7934980D01*
G01X18881394Y7923550D01*
G01X18886982Y7906278D01*
G01X18886982Y7894848D01*
G01X18881394Y7877830D01*
G01X18869964Y7866400D01*
G01X18858534Y7860558D01*
G01X18841262Y7860558D01*
G01X18829832Y7866400D01*
G01X18818402Y7877830D01*
G01X18934734Y7906278D02*
G01X19003314Y7906278D01*
G01X19003314Y7917708D01*
G01X18997726Y7929138D01*
G01X18991884Y7934980D01*
G01X18980454Y7940568D01*
G01X18963436Y7940568D01*
G01X18952006Y7934980D01*
G01X18940576Y7923550D01*
G01X18934734Y7906278D01*
G01X18934734Y7894848D01*
G01X18940576Y7877830D01*
G01X18952006Y7866400D01*
G01X18963436Y7860558D01*
G01X18980454Y7860558D01*
G01X18991884Y7866400D01*
G01X19003314Y7877830D01*
G01X19894745Y7980700D02*
G01X19940465Y7860558D01*
G01X19986185Y7980700D02*
G01X19940465Y7860558D01*
G01X20033937Y7980700D02*
G01X20039779Y7974858D01*
G01X20045367Y7980700D01*
G01X20039779Y7986288D01*
G01X20033937Y7980700D01*
G01X20039779Y7940568D02*
G01X20039779Y7860558D01*
G01X20161699Y7940568D02*
G01X20161699Y7860558D01*
G01X20161699Y7923550D02*
G01X20150269Y7934980D01*
G01X20138839Y7940568D01*
G01X20121821Y7940568D01*
G01X20110391Y7934980D01*
G01X20098961Y7923550D01*
G01X20093119Y7906278D01*
G01X20093119Y7894848D01*
G01X20098961Y7877830D01*
G01X20110391Y7866400D01*
G01X20121821Y7860558D01*
G01X20138839Y7860558D01*
G01X20150269Y7866400D01*
G01X20161699Y7877830D01*
G01X20312321Y8003560D02*
G01X20209451Y7820680D01*
G01X20360073Y7980700D02*
G01X20360073Y7860558D01*
G01X20360073Y7980700D02*
G01X20411635Y7980700D01*
G01X20428653Y7974858D01*
G01X20434495Y7969270D01*
G01X20440083Y7957840D01*
G01X20440083Y7940568D01*
G01X20434495Y7929138D01*
G01X20428653Y7923550D01*
G01X20411635Y7917708D01*
G01X20360073Y7917708D01*
G01X20556415Y7940568D02*
G01X20556415Y7860558D01*
G01X20556415Y7923550D02*
G01X20544985Y7934980D01*
G01X20533555Y7940568D01*
G01X20516537Y7940568D01*
G01X20505107Y7934980D01*
G01X20493677Y7923550D01*
G01X20487835Y7906278D01*
G01X20487835Y7894848D01*
G01X20493677Y7877830D01*
G01X20505107Y7866400D01*
G01X20516537Y7860558D01*
G01X20533555Y7860558D01*
G01X20544985Y7866400D01*
G01X20556415Y7877830D01*
G01X20672747Y7980700D02*
G01X20672747Y7860558D01*
G01X20672747Y7923550D02*
G01X20661317Y7934980D01*
G01X20649887Y7940568D01*
G01X20632869Y7940568D01*
G01X20621439Y7934980D01*
G01X20610009Y7923550D01*
G01X20604167Y7906278D01*
G01X20604167Y7894848D01*
G01X20610009Y7877830D01*
G01X20621439Y7866400D01*
G01X20632869Y7860558D01*
G01X20649887Y7860558D01*
G01X20661317Y7866400D01*
G01X20672747Y7877830D01*
G01X21563924Y7980700D02*
G01X21563924Y7860558D01*
G01X21563924Y7980700D02*
G01X21615486Y7980700D01*
G01X21632504Y7974858D01*
G01X21638346Y7969270D01*
G01X21643934Y7957840D01*
G01X21643934Y7940568D01*
G01X21638346Y7929138D01*
G01X21632504Y7923550D01*
G01X21615486Y7917708D01*
G01X21563924Y7917708D01*
G01X21760266Y7940568D02*
G01X21760266Y7860558D01*
G01X21760266Y7923550D02*
G01X21748836Y7934980D01*
G01X21737406Y7940568D01*
G01X21720388Y7940568D01*
G01X21708958Y7934980D01*
G01X21697528Y7923550D01*
G01X21691686Y7906278D01*
G01X21691686Y7894848D01*
G01X21697528Y7877830D01*
G01X21708958Y7866400D01*
G01X21720388Y7860558D01*
G01X21737406Y7860558D01*
G01X21748836Y7866400D01*
G01X21760266Y7877830D01*
G01X21876598Y7980700D02*
G01X21876598Y7860558D01*
G01X21876598Y7923550D02*
G01X21865168Y7934980D01*
G01X21853738Y7940568D01*
G01X21836720Y7940568D01*
G01X21825290Y7934980D01*
G01X21813860Y7923550D01*
G01X21808018Y7906278D01*
G01X21808018Y7894848D01*
G01X21813860Y7877830D01*
G01X21825290Y7866400D01*
G01X21836720Y7860558D01*
G01X21853738Y7860558D01*
G01X21865168Y7866400D01*
G01X21876598Y7877830D01*
G01X22132376Y7963428D02*
G01X22120946Y7974858D01*
G01X22103928Y7980700D01*
G01X22081068Y7980700D01*
G01X22063796Y7974858D01*
G01X22052366Y7963428D01*
G01X22052366Y7951998D01*
G01X22058208Y7940568D01*
G01X22063796Y7934980D01*
G01X22075226Y7929138D01*
G01X22109516Y7917708D01*
G01X22120946Y7912120D01*
G01X22126788Y7906278D01*
G01X22132376Y7894848D01*
G01X22132376Y7877830D01*
G01X22120946Y7866400D01*
G01X22103928Y7860558D01*
G01X22081068Y7860558D01*
G01X22063796Y7866400D01*
G01X22052366Y7877830D01*
G01X22180128Y7980700D02*
G01X22180128Y7860558D01*
G01X22180128Y7917708D02*
G01X22197400Y7934980D01*
G01X22208830Y7940568D01*
G01X22225848Y7940568D01*
G01X22237278Y7934980D01*
G01X22243120Y7917708D01*
G01X22243120Y7860558D01*
G01X22359452Y7940568D02*
G01X22359452Y7860558D01*
G01X22359452Y7923550D02*
G01X22348022Y7934980D01*
G01X22336592Y7940568D01*
G01X22319574Y7940568D01*
G01X22308144Y7934980D01*
G01X22296714Y7923550D01*
G01X22290872Y7906278D01*
G01X22290872Y7894848D01*
G01X22296714Y7877830D01*
G01X22308144Y7866400D01*
G01X22319574Y7860558D01*
G01X22336592Y7860558D01*
G01X22348022Y7866400D01*
G01X22359452Y7877830D01*
G01X22407204Y7940568D02*
G01X22407204Y7820680D01*
G01X22407204Y7923550D02*
G01X22418634Y7934980D01*
G01X22430064Y7940568D01*
G01X22447336Y7940568D01*
G01X22458766Y7934980D01*
G01X22470196Y7923550D01*
G01X22475784Y7906278D01*
G01X22475784Y7894848D01*
G01X22470196Y7877830D01*
G01X22458766Y7866400D01*
G01X22447336Y7860558D01*
G01X22430064Y7860558D01*
G01X22418634Y7866400D01*
G01X22407204Y7877830D01*
G01X22523536Y7906278D02*
G01X22592116Y7906278D01*
G01X22592116Y7917708D01*
G01X22586528Y7929138D01*
G01X22580686Y7934980D01*
G01X22569256Y7940568D01*
G01X22552238Y7940568D01*
G01X22540808Y7934980D01*
G01X22529378Y7923550D01*
G01X22523536Y7906278D01*
G01X22523536Y7894848D01*
G01X22529378Y7877830D01*
G01X22540808Y7866400D01*
G01X22552238Y7860558D01*
G01X22569256Y7860558D01*
G01X22580686Y7866400D01*
G01X22592116Y7877830D01*
G01X23483293Y7980700D02*
G01X23483293Y7860558D01*
G01X23483293Y7860558D02*
G01X23551873Y7860558D01*
G01X23668205Y7940568D02*
G01X23668205Y7860558D01*
G01X23668205Y7923550D02*
G01X23656775Y7934980D01*
G01X23645345Y7940568D01*
G01X23628327Y7940568D01*
G01X23616897Y7934980D01*
G01X23605467Y7923550D01*
G01X23599625Y7906278D01*
G01X23599625Y7894848D01*
G01X23605467Y7877830D01*
G01X23616897Y7866400D01*
G01X23628327Y7860558D01*
G01X23645345Y7860558D01*
G01X23656775Y7866400D01*
G01X23668205Y7877830D01*
G01X23721799Y7940568D02*
G01X23756089Y7860558D01*
G01X23790379Y7940568D02*
G01X23756089Y7860558D01*
G01X23744659Y7837698D01*
G01X23733229Y7826268D01*
G01X23721799Y7820680D01*
G01X23715957Y7820680D01*
G01X23838131Y7906278D02*
G01X23906711Y7906278D01*
G01X23906711Y7917708D01*
G01X23901123Y7929138D01*
G01X23895281Y7934980D01*
G01X23883851Y7940568D01*
G01X23866833Y7940568D01*
G01X23855403Y7934980D01*
G01X23843973Y7923550D01*
G01X23838131Y7906278D01*
G01X23838131Y7894848D01*
G01X23843973Y7877830D01*
G01X23855403Y7866400D01*
G01X23866833Y7860558D01*
G01X23883851Y7860558D01*
G01X23895281Y7866400D01*
G01X23906711Y7877830D01*
G01X23954463Y7940568D02*
G01X23954463Y7860558D01*
G01X23954463Y7906278D02*
G01X23960305Y7923550D01*
G01X23971735Y7934980D01*
G01X23983165Y7940568D01*
G01X24000183Y7940568D01*
G01X24175951Y7980700D02*
G01X24175951Y7860558D01*
G01X24175951Y7980700D02*
G01X24227513Y7980700D01*
G01X24244531Y7974858D01*
G01X24250373Y7969270D01*
G01X24255961Y7957840D01*
G01X24255961Y7940568D01*
G01X24250373Y7929138D01*
G01X24244531Y7923550D01*
G01X24227513Y7917708D01*
G01X24175951Y7917708D01*
G01X24372293Y7940568D02*
G01X24372293Y7860558D01*
G01X24372293Y7923550D02*
G01X24360863Y7934980D01*
G01X24349433Y7940568D01*
G01X24332415Y7940568D01*
G01X24320985Y7934980D01*
G01X24309555Y7923550D01*
G01X24303713Y7906278D01*
G01X24303713Y7894848D01*
G01X24309555Y7877830D01*
G01X24320985Y7866400D01*
G01X24332415Y7860558D01*
G01X24349433Y7860558D01*
G01X24360863Y7866400D01*
G01X24372293Y7877830D01*
G01X24420045Y7980700D02*
G01X24425887Y7974858D01*
G01X24431475Y7980700D01*
G01X24425887Y7986288D01*
G01X24420045Y7980700D01*
G01X24425887Y7940568D02*
G01X24425887Y7860558D01*
G01X24479227Y7940568D02*
G01X24479227Y7860558D01*
G01X24479227Y7906278D02*
G01X24485069Y7923550D01*
G01X24496499Y7934980D01*
G01X24507929Y7940568D01*
G01X24524947Y7940568D01*
G01X11700125Y7377269D02*
G01X11711555Y7382857D01*
G01X11728827Y7400129D01*
G01X11728827Y7279987D01*
G01X13120130Y7371427D02*
G01X13120130Y7377269D01*
G01X13125718Y7388699D01*
G01X13131560Y7394287D01*
G01X13142990Y7400129D01*
G01X13165850Y7400129D01*
G01X13177280Y7394287D01*
G01X13182868Y7388699D01*
G01X13188710Y7377269D01*
G01X13188710Y7365839D01*
G01X13182868Y7354409D01*
G01X13171438Y7337137D01*
G01X13114288Y7279987D01*
G01X13194298Y7279987D01*
G01X13276340Y7400129D02*
G01X13259322Y7394287D01*
G01X13247892Y7377269D01*
G01X13242050Y7348567D01*
G01X13242050Y7331549D01*
G01X13247892Y7302847D01*
G01X13259322Y7285829D01*
G01X13276340Y7279987D01*
G01X13287770Y7279987D01*
G01X13305042Y7285829D01*
G01X13316472Y7302847D01*
G01X13322060Y7331549D01*
G01X13322060Y7348567D01*
G01X13316472Y7377269D01*
G01X13305042Y7394287D01*
G01X13287770Y7400129D01*
G01X13276340Y7400129D01*
G01X13404102Y7400129D02*
G01X13387084Y7394287D01*
G01X13375654Y7377269D01*
G01X13369812Y7348567D01*
G01X13369812Y7331549D01*
G01X13375654Y7302847D01*
G01X13387084Y7285829D01*
G01X13404102Y7279987D01*
G01X13415532Y7279987D01*
G01X13432804Y7285829D01*
G01X13444234Y7302847D01*
G01X13449822Y7331549D01*
G01X13449822Y7348567D01*
G01X13444234Y7377269D01*
G01X13432804Y7394287D01*
G01X13415532Y7400129D01*
G01X13404102Y7400129D01*
G01X13503416Y7308689D02*
G01X13497574Y7302847D01*
G01X13503416Y7297259D01*
G01X13509004Y7302847D01*
G01X13503416Y7308689D01*
G01X13591046Y7400129D02*
G01X13574028Y7394287D01*
G01X13562598Y7377269D01*
G01X13556756Y7348567D01*
G01X13556756Y7331549D01*
G01X13562598Y7302847D01*
G01X13574028Y7285829D01*
G01X13591046Y7279987D01*
G01X13602476Y7279987D01*
G01X13619748Y7285829D01*
G01X13631178Y7302847D01*
G01X13636766Y7331549D01*
G01X13636766Y7348567D01*
G01X13631178Y7377269D01*
G01X13619748Y7394287D01*
G01X13602476Y7400129D01*
G01X13591046Y7400129D01*
G01X13684518Y7359997D02*
G01X13684518Y7279987D01*
G01X13684518Y7337137D02*
G01X13701790Y7354409D01*
G01X13713220Y7359997D01*
G01X13730238Y7359997D01*
G01X13741668Y7354409D01*
G01X13747510Y7337137D01*
G01X13747510Y7279987D01*
G01X13747510Y7337137D02*
G01X13764528Y7354409D01*
G01X13775958Y7359997D01*
G01X13793230Y7359997D01*
G01X13804660Y7354409D01*
G01X13810248Y7337137D01*
G01X13810248Y7279987D01*
G01X13858000Y7400129D02*
G01X13863842Y7394287D01*
G01X13869430Y7400129D01*
G01X13863842Y7405717D01*
G01X13858000Y7400129D01*
G01X13863842Y7359997D02*
G01X13863842Y7279987D01*
G01X13917182Y7400129D02*
G01X13917182Y7279987D01*
G01X14005066Y7422989D02*
G01X13993636Y7411559D01*
G01X13982206Y7394287D01*
G01X13970776Y7371427D01*
G01X13964934Y7342979D01*
G01X13964934Y7320119D01*
G01X13970776Y7291417D01*
G01X13982206Y7268557D01*
G01X13993636Y7251539D01*
G01X14005066Y7240109D01*
G01X14121398Y7400129D02*
G01X14064248Y7400129D01*
G01X14058660Y7348567D01*
G01X14064248Y7354409D01*
G01X14081520Y7359997D01*
G01X14098538Y7359997D01*
G01X14115810Y7354409D01*
G01X14127240Y7342979D01*
G01X14132828Y7325707D01*
G01X14132828Y7314277D01*
G01X14127240Y7297259D01*
G01X14115810Y7285829D01*
G01X14098538Y7279987D01*
G01X14081520Y7279987D01*
G01X14064248Y7285829D01*
G01X14058660Y7291417D01*
G01X14052818Y7302847D01*
G01X14186422Y7308689D02*
G01X14180580Y7302847D01*
G01X14186422Y7297259D01*
G01X14192010Y7302847D01*
G01X14186422Y7308689D01*
G01X14274052Y7400129D02*
G01X14257034Y7394287D01*
G01X14245604Y7377269D01*
G01X14239762Y7348567D01*
G01X14239762Y7331549D01*
G01X14245604Y7302847D01*
G01X14257034Y7285829D01*
G01X14274052Y7279987D01*
G01X14285482Y7279987D01*
G01X14302754Y7285829D01*
G01X14314184Y7302847D01*
G01X14319772Y7331549D01*
G01X14319772Y7348567D01*
G01X14314184Y7377269D01*
G01X14302754Y7394287D01*
G01X14285482Y7400129D01*
G01X14274052Y7400129D01*
G01X14396226Y7400129D02*
G01X14378954Y7394287D01*
G01X14373366Y7382857D01*
G01X14373366Y7371427D01*
G01X14378954Y7359997D01*
G01X14390384Y7354409D01*
G01X14413244Y7348567D01*
G01X14430516Y7342979D01*
G01X14441946Y7331549D01*
G01X14447534Y7320119D01*
G01X14447534Y7302847D01*
G01X14441946Y7291417D01*
G01X14436104Y7285829D01*
G01X14419086Y7279987D01*
G01X14396226Y7279987D01*
G01X14378954Y7285829D01*
G01X14373366Y7291417D01*
G01X14367524Y7302847D01*
G01X14367524Y7320119D01*
G01X14373366Y7331549D01*
G01X14384796Y7342979D01*
G01X14401814Y7348567D01*
G01X14424674Y7354409D01*
G01X14436104Y7359997D01*
G01X14441946Y7371427D01*
G01X14441946Y7382857D01*
G01X14436104Y7394287D01*
G01X14419086Y7400129D01*
G01X14396226Y7400129D01*
G01X14529576Y7400129D02*
G01X14512558Y7394287D01*
G01X14501128Y7377269D01*
G01X14495286Y7348567D01*
G01X14495286Y7331549D01*
G01X14501128Y7302847D01*
G01X14512558Y7285829D01*
G01X14529576Y7279987D01*
G01X14541006Y7279987D01*
G01X14558278Y7285829D01*
G01X14569708Y7302847D01*
G01X14575296Y7331549D01*
G01X14575296Y7348567D01*
G01X14569708Y7377269D01*
G01X14558278Y7394287D01*
G01X14541006Y7400129D01*
G01X14529576Y7400129D01*
G01X14623048Y7359997D02*
G01X14623048Y7279987D01*
G01X14623048Y7337137D02*
G01X14640320Y7354409D01*
G01X14651750Y7359997D01*
G01X14668768Y7359997D01*
G01X14680198Y7354409D01*
G01X14686040Y7337137D01*
G01X14686040Y7279987D01*
G01X14686040Y7337137D02*
G01X14703058Y7354409D01*
G01X14714488Y7359997D01*
G01X14731760Y7359997D01*
G01X14743190Y7354409D01*
G01X14748778Y7337137D01*
G01X14748778Y7279987D01*
G01X14796530Y7359997D02*
G01X14796530Y7279987D01*
G01X14796530Y7337137D02*
G01X14813802Y7354409D01*
G01X14825232Y7359997D01*
G01X14842250Y7359997D01*
G01X14853680Y7354409D01*
G01X14859522Y7337137D01*
G01X14859522Y7279987D01*
G01X14859522Y7337137D02*
G01X14876540Y7354409D01*
G01X14887970Y7359997D01*
G01X14905242Y7359997D01*
G01X14916672Y7354409D01*
G01X14922260Y7337137D01*
G01X14922260Y7279987D01*
G01X14970012Y7422989D02*
G01X14981442Y7411559D01*
G01X14992872Y7394287D01*
G01X15004302Y7371427D01*
G01X15010144Y7342979D01*
G01X15010144Y7320119D01*
G01X15004302Y7291417D01*
G01X14992872Y7268557D01*
G01X14981442Y7251539D01*
G01X14970012Y7240109D01*
G01X17002157Y7400129D02*
G01X17002157Y7279987D01*
G01X17002157Y7400129D02*
G01X17082167Y7279987D01*
G01X17082167Y7400129D02*
G01X17082167Y7279987D01*
G01X17129919Y7400129D02*
G01X17129919Y7279987D01*
G01X17129919Y7400129D02*
G01X17181481Y7400129D01*
G01X17198499Y7394287D01*
G01X17204341Y7388699D01*
G01X17209929Y7377269D01*
G01X17209929Y7359997D01*
G01X17204341Y7348567D01*
G01X17198499Y7342979D01*
G01X17181481Y7337137D01*
G01X17129919Y7337137D01*
G01X17297813Y7400129D02*
G01X17297813Y7279987D01*
G01X17257681Y7400129D02*
G01X17337691Y7400129D01*
G01X17385443Y7400129D02*
G01X17385443Y7279987D01*
G01X17465453Y7400129D02*
G01X17465453Y7279987D01*
G01X17385443Y7342979D02*
G01X17465453Y7342979D01*
G01X18463564Y7400129D02*
G01X18463564Y7279987D01*
G01X18463564Y7400129D02*
G01X18515126Y7400129D01*
G01X18532144Y7394287D01*
G01X18537986Y7388699D01*
G01X18543574Y7377269D01*
G01X18543574Y7365839D01*
G01X18537986Y7354409D01*
G01X18532144Y7348567D01*
G01X18515126Y7342979D01*
G01X18463564Y7342979D01*
G01X18503696Y7342979D02*
G01X18543574Y7279987D01*
G01X18620028Y7359997D02*
G01X18608598Y7354409D01*
G01X18597168Y7342979D01*
G01X18591326Y7325707D01*
G01X18591326Y7314277D01*
G01X18597168Y7297259D01*
G01X18608598Y7285829D01*
G01X18620028Y7279987D01*
G01X18637046Y7279987D01*
G01X18648476Y7285829D01*
G01X18659906Y7297259D01*
G01X18665748Y7314277D01*
G01X18665748Y7325707D01*
G01X18659906Y7342979D01*
G01X18648476Y7354409D01*
G01X18637046Y7359997D01*
G01X18620028Y7359997D01*
G01X18713500Y7359997D02*
G01X18713500Y7302847D01*
G01X18719342Y7285829D01*
G01X18730772Y7279987D01*
G01X18747790Y7279987D01*
G01X18759220Y7285829D01*
G01X18776492Y7302847D01*
G01X18776492Y7359997D02*
G01X18776492Y7279987D01*
G01X18824244Y7359997D02*
G01X18824244Y7279987D01*
G01X18824244Y7337137D02*
G01X18841516Y7354409D01*
G01X18852946Y7359997D01*
G01X18869964Y7359997D01*
G01X18881394Y7354409D01*
G01X18887236Y7337137D01*
G01X18887236Y7279987D01*
G01X19003568Y7400129D02*
G01X19003568Y7279987D01*
G01X19003568Y7342979D02*
G01X18992138Y7354409D01*
G01X18980708Y7359997D01*
G01X18963690Y7359997D01*
G01X18952260Y7354409D01*
G01X18940830Y7342979D01*
G01X18934988Y7325707D01*
G01X18934988Y7314277D01*
G01X18940830Y7297259D01*
G01X18952260Y7285829D01*
G01X18963690Y7279987D01*
G01X18980708Y7279987D01*
G01X18992138Y7285829D01*
G01X19003568Y7297259D01*
G01X19894745Y7400129D02*
G01X19940465Y7279987D01*
G01X19986185Y7400129D02*
G01X19940465Y7279987D01*
G01X20033937Y7400129D02*
G01X20039779Y7394287D01*
G01X20045367Y7400129D01*
G01X20039779Y7405717D01*
G01X20033937Y7400129D01*
G01X20039779Y7359997D02*
G01X20039779Y7279987D01*
G01X20161699Y7359997D02*
G01X20161699Y7279987D01*
G01X20161699Y7342979D02*
G01X20150269Y7354409D01*
G01X20138839Y7359997D01*
G01X20121821Y7359997D01*
G01X20110391Y7354409D01*
G01X20098961Y7342979D01*
G01X20093119Y7325707D01*
G01X20093119Y7314277D01*
G01X20098961Y7297259D01*
G01X20110391Y7285829D01*
G01X20121821Y7279987D01*
G01X20138839Y7279987D01*
G01X20150269Y7285829D01*
G01X20161699Y7297259D01*
G01X23523425Y7400129D02*
G01X23523425Y7279987D01*
G01X23483293Y7400129D02*
G01X23563303Y7400129D01*
G01X23639757Y7359997D02*
G01X23628327Y7354409D01*
G01X23616897Y7342979D01*
G01X23611055Y7325707D01*
G01X23611055Y7314277D01*
G01X23616897Y7297259D01*
G01X23628327Y7285829D01*
G01X23639757Y7279987D01*
G01X23656775Y7279987D01*
G01X23668205Y7285829D01*
G01X23679635Y7297259D01*
G01X23685477Y7314277D01*
G01X23685477Y7325707D01*
G01X23679635Y7342979D01*
G01X23668205Y7354409D01*
G01X23656775Y7359997D01*
G01X23639757Y7359997D01*
G01X23733229Y7359997D02*
G01X23733229Y7240109D01*
G01X23733229Y7342979D02*
G01X23744659Y7354409D01*
G01X23756089Y7359997D01*
G01X23773361Y7359997D01*
G01X23784791Y7354409D01*
G01X23796221Y7342979D01*
G01X23801809Y7325707D01*
G01X23801809Y7314277D01*
G01X23796221Y7297259D01*
G01X23784791Y7285829D01*
G01X23773361Y7279987D01*
G01X23756089Y7279987D01*
G01X23744659Y7285829D01*
G01X23733229Y7297259D01*
G01X23977577Y7400129D02*
G01X23977577Y7279987D01*
G01X23977577Y7279987D02*
G01X24046157Y7279987D01*
G01X24162489Y7359997D02*
G01X24162489Y7279987D01*
G01X24162489Y7342979D02*
G01X24151059Y7354409D01*
G01X24139629Y7359997D01*
G01X24122611Y7359997D01*
G01X24111181Y7354409D01*
G01X24099751Y7342979D01*
G01X24093909Y7325707D01*
G01X24093909Y7314277D01*
G01X24099751Y7297259D01*
G01X24111181Y7285829D01*
G01X24122611Y7279987D01*
G01X24139629Y7279987D01*
G01X24151059Y7285829D01*
G01X24162489Y7297259D01*
G01X24216083Y7359997D02*
G01X24250373Y7279987D01*
G01X24284663Y7359997D02*
G01X24250373Y7279987D01*
G01X24238943Y7257127D01*
G01X24227513Y7245697D01*
G01X24216083Y7240109D01*
G01X24210241Y7240109D01*
G01X24332415Y7325707D02*
G01X24400995Y7325707D01*
G01X24400995Y7337137D01*
G01X24395407Y7348567D01*
G01X24389565Y7354409D01*
G01X24378135Y7359997D01*
G01X24361117Y7359997D01*
G01X24349687Y7354409D01*
G01X24338257Y7342979D01*
G01X24332415Y7325707D01*
G01X24332415Y7314277D01*
G01X24338257Y7297259D01*
G01X24349687Y7285829D01*
G01X24361117Y7279987D01*
G01X24378135Y7279987D01*
G01X24389565Y7285829D01*
G01X24400995Y7297259D01*
G01X24448747Y7359997D02*
G01X24448747Y7279987D01*
G01X24448747Y7325707D02*
G01X24454589Y7342979D01*
G01X24466019Y7354409D01*
G01X24477449Y7359997D01*
G01X24494467Y7359997D01*
G01X24542219Y7331549D02*
G01X24645089Y7331549D01*
G01X24692841Y7400129D02*
G01X24692841Y7279987D01*
G01X24692841Y7400129D02*
G01X24744403Y7400129D01*
G01X24761421Y7394287D01*
G01X24767263Y7388699D01*
G01X24772851Y7377269D01*
G01X24772851Y7365839D01*
G01X24767263Y7354409D01*
G01X24761421Y7348567D01*
G01X24744403Y7342979D01*
G01X24692841Y7342979D02*
G01X24744403Y7342979D01*
G01X24761421Y7337137D01*
G01X24767263Y7331549D01*
G01X24772851Y7320119D01*
G01X24772851Y7302847D01*
G01X24767263Y7291417D01*
G01X24761421Y7285829D01*
G01X24744403Y7279987D01*
G01X24692841Y7279987D01*
G01X24849305Y7359997D02*
G01X24837875Y7354409D01*
G01X24826445Y7342979D01*
G01X24820603Y7325707D01*
G01X24820603Y7314277D01*
G01X24826445Y7297259D01*
G01X24837875Y7285829D01*
G01X24849305Y7279987D01*
G01X24866323Y7279987D01*
G01X24877753Y7285829D01*
G01X24889183Y7297259D01*
G01X24895025Y7314277D01*
G01X24895025Y7325707D01*
G01X24889183Y7342979D01*
G01X24877753Y7354409D01*
G01X24866323Y7359997D01*
G01X24849305Y7359997D01*
G01X24960049Y7400129D02*
G01X24960049Y7302847D01*
G01X24965637Y7285829D01*
G01X24977067Y7279987D01*
G01X24988497Y7279987D01*
G01X24942777Y7359997D02*
G01X24982909Y7359997D01*
G01X25053521Y7400129D02*
G01X25053521Y7302847D01*
G01X25059109Y7285829D01*
G01X25070539Y7279987D01*
G01X25081969Y7279987D01*
G01X25036249Y7359997D02*
G01X25076381Y7359997D01*
G01X25158423Y7359997D02*
G01X25146993Y7354409D01*
G01X25135563Y7342979D01*
G01X25129721Y7325707D01*
G01X25129721Y7314277D01*
G01X25135563Y7297259D01*
G01X25146993Y7285829D01*
G01X25158423Y7279987D01*
G01X25175441Y7279987D01*
G01X25186871Y7285829D01*
G01X25198301Y7297259D01*
G01X25204143Y7314277D01*
G01X25204143Y7325707D01*
G01X25198301Y7342979D01*
G01X25186871Y7354409D01*
G01X25175441Y7359997D01*
G01X25158423Y7359997D01*
G01X25251895Y7359997D02*
G01X25251895Y7279987D01*
G01X25251895Y7337137D02*
G01X25269167Y7354409D01*
G01X25280597Y7359997D01*
G01X25297615Y7359997D01*
G01X25309045Y7354409D01*
G01X25314887Y7337137D01*
G01X25314887Y7279987D01*
G01X25314887Y7337137D02*
G01X25331905Y7354409D01*
G01X25343335Y7359997D01*
G01X25360607Y7359997D01*
G01X25372037Y7354409D01*
G01X25377625Y7337137D01*
G01X25377625Y7279987D01*
G01X25553393Y7400129D02*
G01X25553393Y7279987D01*
G01X25553393Y7279987D02*
G01X25621973Y7279987D01*
G01X25738305Y7359997D02*
G01X25738305Y7279987D01*
G01X25738305Y7342979D02*
G01X25726875Y7354409D01*
G01X25715445Y7359997D01*
G01X25698427Y7359997D01*
G01X25686997Y7354409D01*
G01X25675567Y7342979D01*
G01X25669725Y7325707D01*
G01X25669725Y7314277D01*
G01X25675567Y7297259D01*
G01X25686997Y7285829D01*
G01X25698427Y7279987D01*
G01X25715445Y7279987D01*
G01X25726875Y7285829D01*
G01X25738305Y7297259D01*
G01X25791899Y7359997D02*
G01X25826189Y7279987D01*
G01X25860479Y7359997D02*
G01X25826189Y7279987D01*
G01X25814759Y7257127D01*
G01X25803329Y7245697D01*
G01X25791899Y7240109D01*
G01X25786057Y7240109D01*
G01X25908231Y7325707D02*
G01X25976811Y7325707D01*
G01X25976811Y7337137D01*
G01X25971223Y7348567D01*
G01X25965381Y7354409D01*
G01X25953951Y7359997D01*
G01X25936933Y7359997D01*
G01X25925503Y7354409D01*
G01X25914073Y7342979D01*
G01X25908231Y7325707D01*
G01X25908231Y7314277D01*
G01X25914073Y7297259D01*
G01X25925503Y7285829D01*
G01X25936933Y7279987D01*
G01X25953951Y7279987D01*
G01X25965381Y7285829D01*
G01X25976811Y7297259D01*
G01X26024563Y7359997D02*
G01X26024563Y7279987D01*
G01X26024563Y7325707D02*
G01X26030405Y7342979D01*
G01X26041835Y7354409D01*
G01X26053265Y7359997D01*
G01X26070283Y7359997D01*
G01X11757275Y6819557D02*
G01X11700125Y6739547D01*
G01X11785977Y6739547D01*
G01X11757275Y6819557D02*
G01X11757275Y6699415D01*
G01X13120130Y6790855D02*
G01X13120130Y6796697D01*
G01X13125718Y6808127D01*
G01X13131560Y6813715D01*
G01X13142990Y6819557D01*
G01X13165850Y6819557D01*
G01X13177280Y6813715D01*
G01X13182868Y6808127D01*
G01X13188710Y6796697D01*
G01X13188710Y6785267D01*
G01X13182868Y6773837D01*
G01X13171438Y6756565D01*
G01X13114288Y6699415D01*
G01X13194298Y6699415D01*
G01X13322060Y6819557D02*
G01X13264910Y6699415D01*
G01X13242050Y6819557D02*
G01X13322060Y6819557D01*
G01X13375654Y6728117D02*
G01X13369812Y6722275D01*
G01X13375654Y6716687D01*
G01X13381242Y6722275D01*
G01X13375654Y6728117D01*
G01X13497574Y6802285D02*
G01X13491986Y6813715D01*
G01X13474714Y6819557D01*
G01X13463284Y6819557D01*
G01X13446266Y6813715D01*
G01X13434836Y6796697D01*
G01X13428994Y6767995D01*
G01X13428994Y6739547D01*
G01X13434836Y6716687D01*
G01X13446266Y6705257D01*
G01X13463284Y6699415D01*
G01X13469126Y6699415D01*
G01X13486144Y6705257D01*
G01X13497574Y6716687D01*
G01X13503416Y6733705D01*
G01X13503416Y6739547D01*
G01X13497574Y6756565D01*
G01X13486144Y6767995D01*
G01X13469126Y6773837D01*
G01X13463284Y6773837D01*
G01X13446266Y6767995D01*
G01X13434836Y6756565D01*
G01X13428994Y6739547D01*
G01X13551168Y6779425D02*
G01X13614160Y6699415D01*
G01X13614160Y6779425D02*
G01X13551168Y6699415D01*
G01X13741922Y6819557D02*
G01X13684772Y6699415D01*
G01X13661912Y6819557D02*
G01X13741922Y6819557D01*
G01X13818376Y6819557D02*
G01X13801104Y6813715D01*
G01X13795516Y6802285D01*
G01X13795516Y6790855D01*
G01X13801104Y6779425D01*
G01X13812534Y6773837D01*
G01X13835394Y6767995D01*
G01X13852666Y6762407D01*
G01X13864096Y6750977D01*
G01X13869684Y6739547D01*
G01X13869684Y6722275D01*
G01X13864096Y6710845D01*
G01X13858254Y6705257D01*
G01X13841236Y6699415D01*
G01X13818376Y6699415D01*
G01X13801104Y6705257D01*
G01X13795516Y6710845D01*
G01X13789674Y6722275D01*
G01X13789674Y6739547D01*
G01X13795516Y6750977D01*
G01X13806946Y6762407D01*
G01X13823964Y6767995D01*
G01X13846824Y6773837D01*
G01X13858254Y6779425D01*
G01X13864096Y6790855D01*
G01X13864096Y6802285D01*
G01X13858254Y6813715D01*
G01X13841236Y6819557D01*
G01X13818376Y6819557D01*
G01X13923278Y6728117D02*
G01X13917436Y6722275D01*
G01X13923278Y6716687D01*
G01X13928866Y6722275D01*
G01X13923278Y6728117D01*
G01X14056628Y6819557D02*
G01X13999478Y6699415D01*
G01X13976618Y6819557D02*
G01X14056628Y6819557D01*
G01X14104380Y6779425D02*
G01X14104380Y6699415D01*
G01X14104380Y6756565D02*
G01X14121652Y6773837D01*
G01X14133082Y6779425D01*
G01X14150100Y6779425D01*
G01X14161530Y6773837D01*
G01X14167372Y6756565D01*
G01X14167372Y6699415D01*
G01X14167372Y6756565D02*
G01X14184390Y6773837D01*
G01X14195820Y6779425D01*
G01X14213092Y6779425D01*
G01X14224522Y6773837D01*
G01X14230110Y6756565D01*
G01X14230110Y6699415D01*
G01X14277862Y6819557D02*
G01X14283704Y6813715D01*
G01X14289292Y6819557D01*
G01X14283704Y6825145D01*
G01X14277862Y6819557D01*
G01X14283704Y6779425D02*
G01X14283704Y6699415D01*
G01X14337044Y6819557D02*
G01X14337044Y6699415D01*
G01X14424928Y6842417D02*
G01X14413498Y6830987D01*
G01X14402068Y6813715D01*
G01X14390638Y6790855D01*
G01X14384796Y6762407D01*
G01X14384796Y6739547D01*
G01X14390638Y6710845D01*
G01X14402068Y6687985D01*
G01X14413498Y6670967D01*
G01X14424928Y6659537D01*
G01X14506970Y6819557D02*
G01X14489952Y6813715D01*
G01X14478522Y6796697D01*
G01X14472680Y6767995D01*
G01X14472680Y6750977D01*
G01X14478522Y6722275D01*
G01X14489952Y6705257D01*
G01X14506970Y6699415D01*
G01X14518400Y6699415D01*
G01X14535672Y6705257D01*
G01X14547102Y6722275D01*
G01X14552690Y6750977D01*
G01X14552690Y6767995D01*
G01X14547102Y6796697D01*
G01X14535672Y6813715D01*
G01X14518400Y6819557D01*
G01X14506970Y6819557D01*
G01X14606284Y6728117D02*
G01X14600442Y6722275D01*
G01X14606284Y6716687D01*
G01X14611872Y6722275D01*
G01X14606284Y6728117D01*
G01X14739634Y6819557D02*
G01X14682484Y6699415D01*
G01X14659624Y6819557D02*
G01X14739634Y6819557D01*
G01X14821676Y6819557D02*
G01X14804658Y6813715D01*
G01X14793228Y6796697D01*
G01X14787386Y6767995D01*
G01X14787386Y6750977D01*
G01X14793228Y6722275D01*
G01X14804658Y6705257D01*
G01X14821676Y6699415D01*
G01X14833106Y6699415D01*
G01X14850378Y6705257D01*
G01X14861808Y6722275D01*
G01X14867396Y6750977D01*
G01X14867396Y6767995D01*
G01X14861808Y6796697D01*
G01X14850378Y6813715D01*
G01X14833106Y6819557D01*
G01X14821676Y6819557D01*
G01X14949438Y6819557D02*
G01X14932420Y6813715D01*
G01X14920990Y6796697D01*
G01X14915148Y6767995D01*
G01X14915148Y6750977D01*
G01X14920990Y6722275D01*
G01X14932420Y6705257D01*
G01X14949438Y6699415D01*
G01X14960868Y6699415D01*
G01X14978140Y6705257D01*
G01X14989570Y6722275D01*
G01X14995158Y6750977D01*
G01X14995158Y6767995D01*
G01X14989570Y6796697D01*
G01X14978140Y6813715D01*
G01X14960868Y6819557D01*
G01X14949438Y6819557D01*
G01X15042910Y6779425D02*
G01X15105902Y6699415D01*
G01X15105902Y6779425D02*
G01X15042910Y6699415D01*
G01X15159496Y6790855D02*
G01X15159496Y6796697D01*
G01X15165084Y6808127D01*
G01X15170926Y6813715D01*
G01X15182356Y6819557D01*
G01X15205216Y6819557D01*
G01X15216646Y6813715D01*
G01X15222234Y6808127D01*
G01X15228076Y6796697D01*
G01X15228076Y6785267D01*
G01X15222234Y6773837D01*
G01X15210804Y6756565D01*
G01X15153654Y6699415D01*
G01X15233664Y6699415D01*
G01X15287258Y6728117D02*
G01X15281416Y6722275D01*
G01X15287258Y6716687D01*
G01X15292846Y6722275D01*
G01X15287258Y6728117D01*
G01X15374888Y6819557D02*
G01X15357870Y6813715D01*
G01X15346440Y6796697D01*
G01X15340598Y6767995D01*
G01X15340598Y6750977D01*
G01X15346440Y6722275D01*
G01X15357870Y6705257D01*
G01X15374888Y6699415D01*
G01X15386318Y6699415D01*
G01X15403590Y6705257D01*
G01X15415020Y6722275D01*
G01X15420608Y6750977D01*
G01X15420608Y6767995D01*
G01X15415020Y6796697D01*
G01X15403590Y6813715D01*
G01X15386318Y6819557D01*
G01X15374888Y6819557D01*
G01X15502650Y6819557D02*
G01X15485632Y6813715D01*
G01X15474202Y6796697D01*
G01X15468360Y6767995D01*
G01X15468360Y6750977D01*
G01X15474202Y6722275D01*
G01X15485632Y6705257D01*
G01X15502650Y6699415D01*
G01X15514080Y6699415D01*
G01X15531352Y6705257D01*
G01X15542782Y6722275D01*
G01X15548370Y6750977D01*
G01X15548370Y6767995D01*
G01X15542782Y6796697D01*
G01X15531352Y6813715D01*
G01X15514080Y6819557D01*
G01X15502650Y6819557D01*
G01X15630412Y6819557D02*
G01X15613394Y6813715D01*
G01X15601964Y6796697D01*
G01X15596122Y6767995D01*
G01X15596122Y6750977D01*
G01X15601964Y6722275D01*
G01X15613394Y6705257D01*
G01X15630412Y6699415D01*
G01X15641842Y6699415D01*
G01X15659114Y6705257D01*
G01X15670544Y6722275D01*
G01X15676132Y6750977D01*
G01X15676132Y6767995D01*
G01X15670544Y6796697D01*
G01X15659114Y6813715D01*
G01X15641842Y6819557D01*
G01X15630412Y6819557D01*
G01X15723884Y6779425D02*
G01X15723884Y6699415D01*
G01X15723884Y6756565D02*
G01X15741156Y6773837D01*
G01X15752586Y6779425D01*
G01X15769604Y6779425D01*
G01X15781034Y6773837D01*
G01X15786876Y6756565D01*
G01X15786876Y6699415D01*
G01X15786876Y6756565D02*
G01X15803894Y6773837D01*
G01X15815324Y6779425D01*
G01X15832596Y6779425D01*
G01X15844026Y6773837D01*
G01X15849614Y6756565D01*
G01X15849614Y6699415D01*
G01X15897366Y6779425D02*
G01X15897366Y6699415D01*
G01X15897366Y6756565D02*
G01X15914638Y6773837D01*
G01X15926068Y6779425D01*
G01X15943086Y6779425D01*
G01X15954516Y6773837D01*
G01X15960358Y6756565D01*
G01X15960358Y6699415D01*
G01X15960358Y6756565D02*
G01X15977376Y6773837D01*
G01X15988806Y6779425D01*
G01X16006078Y6779425D01*
G01X16017508Y6773837D01*
G01X16023096Y6756565D01*
G01X16023096Y6699415D01*
G01X16070848Y6842417D02*
G01X16082278Y6830987D01*
G01X16093708Y6813715D01*
G01X16105138Y6790855D01*
G01X16110980Y6762407D01*
G01X16110980Y6739547D01*
G01X16105138Y6710845D01*
G01X16093708Y6687985D01*
G01X16082278Y6670967D01*
G01X16070848Y6659537D01*
G01X17002157Y6819557D02*
G01X17002157Y6699415D01*
G01X17002157Y6819557D02*
G01X17053719Y6819557D01*
G01X17070737Y6813715D01*
G01X17076579Y6808127D01*
G01X17082167Y6796697D01*
G01X17082167Y6779425D01*
G01X17076579Y6767995D01*
G01X17070737Y6762407D01*
G01X17053719Y6756565D01*
G01X17002157Y6756565D01*
G01X17170051Y6819557D02*
G01X17170051Y6699415D01*
G01X17129919Y6819557D02*
G01X17209929Y6819557D01*
G01X17257681Y6819557D02*
G01X17257681Y6699415D01*
G01X17337691Y6819557D02*
G01X17337691Y6699415D01*
G01X17257681Y6762407D02*
G01X17337691Y6762407D01*
G01X18543574Y6802285D02*
G01X18532144Y6813715D01*
G01X18515126Y6819557D01*
G01X18492266Y6819557D01*
G01X18474994Y6813715D01*
G01X18463564Y6802285D01*
G01X18463564Y6790855D01*
G01X18469406Y6779425D01*
G01X18474994Y6773837D01*
G01X18486424Y6767995D01*
G01X18520714Y6756565D01*
G01X18532144Y6750977D01*
G01X18537986Y6745135D01*
G01X18543574Y6733705D01*
G01X18543574Y6716687D01*
G01X18532144Y6705257D01*
G01X18515126Y6699415D01*
G01X18492266Y6699415D01*
G01X18474994Y6705257D01*
G01X18463564Y6716687D01*
G01X18591326Y6819557D02*
G01X18591326Y6699415D01*
G01X18667780Y6779425D02*
G01X18656350Y6773837D01*
G01X18644920Y6762407D01*
G01X18639078Y6745135D01*
G01X18639078Y6733705D01*
G01X18644920Y6716687D01*
G01X18656350Y6705257D01*
G01X18667780Y6699415D01*
G01X18684798Y6699415D01*
G01X18696228Y6705257D01*
G01X18707658Y6716687D01*
G01X18713500Y6733705D01*
G01X18713500Y6745135D01*
G01X18707658Y6762407D01*
G01X18696228Y6773837D01*
G01X18684798Y6779425D01*
G01X18667780Y6779425D01*
G01X18778524Y6819557D02*
G01X18778524Y6722275D01*
G01X18784112Y6705257D01*
G01X18795542Y6699415D01*
G01X18806972Y6699415D01*
G01X18761252Y6779425D02*
G01X18801384Y6779425D01*
G01X19894745Y6819557D02*
G01X19894745Y6699415D01*
G01X19894745Y6819557D02*
G01X19946307Y6819557D01*
G01X19963325Y6813715D01*
G01X19969167Y6808127D01*
G01X19974755Y6796697D01*
G01X19974755Y6779425D01*
G01X19969167Y6767995D01*
G01X19963325Y6762407D01*
G01X19946307Y6756565D01*
G01X19894745Y6756565D01*
G01X20091087Y6779425D02*
G01X20091087Y6699415D01*
G01X20091087Y6762407D02*
G01X20079657Y6773837D01*
G01X20068227Y6779425D01*
G01X20051209Y6779425D01*
G01X20039779Y6773837D01*
G01X20028349Y6762407D01*
G01X20022507Y6745135D01*
G01X20022507Y6733705D01*
G01X20028349Y6716687D01*
G01X20039779Y6705257D01*
G01X20051209Y6699415D01*
G01X20068227Y6699415D01*
G01X20079657Y6705257D01*
G01X20091087Y6716687D01*
G01X20207419Y6819557D02*
G01X20207419Y6699415D01*
G01X20207419Y6762407D02*
G01X20195989Y6773837D01*
G01X20184559Y6779425D01*
G01X20167541Y6779425D01*
G01X20156111Y6773837D01*
G01X20144681Y6762407D01*
G01X20138839Y6745135D01*
G01X20138839Y6733705D01*
G01X20144681Y6716687D01*
G01X20156111Y6705257D01*
G01X20167541Y6699415D01*
G01X20184559Y6699415D01*
G01X20195989Y6705257D01*
G01X20207419Y6716687D01*
G01X21598214Y6819557D02*
G01X21586784Y6813715D01*
G01X21575354Y6802285D01*
G01X21569766Y6790855D01*
G01X21563924Y6773837D01*
G01X21563924Y6745135D01*
G01X21569766Y6728117D01*
G01X21575354Y6716687D01*
G01X21586784Y6705257D01*
G01X21598214Y6699415D01*
G01X21621074Y6699415D01*
G01X21632504Y6705257D01*
G01X21643934Y6716687D01*
G01X21649776Y6728117D01*
G01X21655364Y6745135D01*
G01X21655364Y6773837D01*
G01X21649776Y6790855D01*
G01X21643934Y6802285D01*
G01X21632504Y6813715D01*
G01X21621074Y6819557D01*
G01X21598214Y6819557D01*
G01X21703116Y6779425D02*
G01X21737406Y6699415D01*
G01X21771696Y6779425D02*
G01X21737406Y6699415D01*
G01X21888028Y6779425D02*
G01X21888028Y6699415D01*
G01X21888028Y6762407D02*
G01X21876598Y6773837D01*
G01X21865168Y6779425D01*
G01X21848150Y6779425D01*
G01X21836720Y6773837D01*
G01X21825290Y6762407D01*
G01X21819448Y6745135D01*
G01X21819448Y6733705D01*
G01X21825290Y6716687D01*
G01X21836720Y6705257D01*
G01X21848150Y6699415D01*
G01X21865168Y6699415D01*
G01X21876598Y6705257D01*
G01X21888028Y6716687D01*
G01X21935780Y6819557D02*
G01X21935780Y6699415D01*
G01X23523425Y6819557D02*
G01X23523425Y6699415D01*
G01X23483293Y6819557D02*
G01X23563303Y6819557D01*
G01X23639757Y6779425D02*
G01X23628327Y6773837D01*
G01X23616897Y6762407D01*
G01X23611055Y6745135D01*
G01X23611055Y6733705D01*
G01X23616897Y6716687D01*
G01X23628327Y6705257D01*
G01X23639757Y6699415D01*
G01X23656775Y6699415D01*
G01X23668205Y6705257D01*
G01X23679635Y6716687D01*
G01X23685477Y6733705D01*
G01X23685477Y6745135D01*
G01X23679635Y6762407D01*
G01X23668205Y6773837D01*
G01X23656775Y6779425D01*
G01X23639757Y6779425D01*
G01X23733229Y6779425D02*
G01X23733229Y6659537D01*
G01X23733229Y6762407D02*
G01X23744659Y6773837D01*
G01X23756089Y6779425D01*
G01X23773361Y6779425D01*
G01X23784791Y6773837D01*
G01X23796221Y6762407D01*
G01X23801809Y6745135D01*
G01X23801809Y6733705D01*
G01X23796221Y6716687D01*
G01X23784791Y6705257D01*
G01X23773361Y6699415D01*
G01X23756089Y6699415D01*
G01X23744659Y6705257D01*
G01X23733229Y6716687D01*
G01X23977577Y6819557D02*
G01X23977577Y6699415D01*
G01X23977577Y6699415D02*
G01X24046157Y6699415D01*
G01X24162489Y6779425D02*
G01X24162489Y6699415D01*
G01X24162489Y6762407D02*
G01X24151059Y6773837D01*
G01X24139629Y6779425D01*
G01X24122611Y6779425D01*
G01X24111181Y6773837D01*
G01X24099751Y6762407D01*
G01X24093909Y6745135D01*
G01X24093909Y6733705D01*
G01X24099751Y6716687D01*
G01X24111181Y6705257D01*
G01X24122611Y6699415D01*
G01X24139629Y6699415D01*
G01X24151059Y6705257D01*
G01X24162489Y6716687D01*
G01X24216083Y6779425D02*
G01X24250373Y6699415D01*
G01X24284663Y6779425D02*
G01X24250373Y6699415D01*
G01X24238943Y6676555D01*
G01X24227513Y6665125D01*
G01X24216083Y6659537D01*
G01X24210241Y6659537D01*
G01X24332415Y6745135D02*
G01X24400995Y6745135D01*
G01X24400995Y6756565D01*
G01X24395407Y6767995D01*
G01X24389565Y6773837D01*
G01X24378135Y6779425D01*
G01X24361117Y6779425D01*
G01X24349687Y6773837D01*
G01X24338257Y6762407D01*
G01X24332415Y6745135D01*
G01X24332415Y6733705D01*
G01X24338257Y6716687D01*
G01X24349687Y6705257D01*
G01X24361117Y6699415D01*
G01X24378135Y6699415D01*
G01X24389565Y6705257D01*
G01X24400995Y6716687D01*
G01X24448747Y6779425D02*
G01X24448747Y6699415D01*
G01X24448747Y6745135D02*
G01X24454589Y6762407D01*
G01X24466019Y6773837D01*
G01X24477449Y6779425D01*
G01X24494467Y6779425D01*
G01X24542219Y6750977D02*
G01X24645089Y6750977D01*
G01X24692841Y6819557D02*
G01X24692841Y6699415D01*
G01X24692841Y6819557D02*
G01X24744403Y6819557D01*
G01X24761421Y6813715D01*
G01X24767263Y6808127D01*
G01X24772851Y6796697D01*
G01X24772851Y6785267D01*
G01X24767263Y6773837D01*
G01X24761421Y6767995D01*
G01X24744403Y6762407D01*
G01X24692841Y6762407D02*
G01X24744403Y6762407D01*
G01X24761421Y6756565D01*
G01X24767263Y6750977D01*
G01X24772851Y6739547D01*
G01X24772851Y6722275D01*
G01X24767263Y6710845D01*
G01X24761421Y6705257D01*
G01X24744403Y6699415D01*
G01X24692841Y6699415D01*
G01X24849305Y6779425D02*
G01X24837875Y6773837D01*
G01X24826445Y6762407D01*
G01X24820603Y6745135D01*
G01X24820603Y6733705D01*
G01X24826445Y6716687D01*
G01X24837875Y6705257D01*
G01X24849305Y6699415D01*
G01X24866323Y6699415D01*
G01X24877753Y6705257D01*
G01X24889183Y6716687D01*
G01X24895025Y6733705D01*
G01X24895025Y6745135D01*
G01X24889183Y6762407D01*
G01X24877753Y6773837D01*
G01X24866323Y6779425D01*
G01X24849305Y6779425D01*
G01X24960049Y6819557D02*
G01X24960049Y6722275D01*
G01X24965637Y6705257D01*
G01X24977067Y6699415D01*
G01X24988497Y6699415D01*
G01X24942777Y6779425D02*
G01X24982909Y6779425D01*
G01X25053521Y6819557D02*
G01X25053521Y6722275D01*
G01X25059109Y6705257D01*
G01X25070539Y6699415D01*
G01X25081969Y6699415D01*
G01X25036249Y6779425D02*
G01X25076381Y6779425D01*
G01X25158423Y6779425D02*
G01X25146993Y6773837D01*
G01X25135563Y6762407D01*
G01X25129721Y6745135D01*
G01X25129721Y6733705D01*
G01X25135563Y6716687D01*
G01X25146993Y6705257D01*
G01X25158423Y6699415D01*
G01X25175441Y6699415D01*
G01X25186871Y6705257D01*
G01X25198301Y6716687D01*
G01X25204143Y6733705D01*
G01X25204143Y6745135D01*
G01X25198301Y6762407D01*
G01X25186871Y6773837D01*
G01X25175441Y6779425D01*
G01X25158423Y6779425D01*
G01X25251895Y6779425D02*
G01X25251895Y6699415D01*
G01X25251895Y6756565D02*
G01X25269167Y6773837D01*
G01X25280597Y6779425D01*
G01X25297615Y6779425D01*
G01X25309045Y6773837D01*
G01X25314887Y6756565D01*
G01X25314887Y6699415D01*
G01X25314887Y6756565D02*
G01X25331905Y6773837D01*
G01X25343335Y6779425D01*
G01X25360607Y6779425D01*
G01X25372037Y6773837D01*
G01X25377625Y6756565D01*
G01X25377625Y6699415D01*
G01X25553393Y6819557D02*
G01X25553393Y6699415D01*
G01X25553393Y6699415D02*
G01X25621973Y6699415D01*
G01X25738305Y6779425D02*
G01X25738305Y6699415D01*
G01X25738305Y6762407D02*
G01X25726875Y6773837D01*
G01X25715445Y6779425D01*
G01X25698427Y6779425D01*
G01X25686997Y6773837D01*
G01X25675567Y6762407D01*
G01X25669725Y6745135D01*
G01X25669725Y6733705D01*
G01X25675567Y6716687D01*
G01X25686997Y6705257D01*
G01X25698427Y6699415D01*
G01X25715445Y6699415D01*
G01X25726875Y6705257D01*
G01X25738305Y6716687D01*
G01X25791899Y6779425D02*
G01X25826189Y6699415D01*
G01X25860479Y6779425D02*
G01X25826189Y6699415D01*
G01X25814759Y6676555D01*
G01X25803329Y6665125D01*
G01X25791899Y6659537D01*
G01X25786057Y6659537D01*
G01X25908231Y6745135D02*
G01X25976811Y6745135D01*
G01X25976811Y6756565D01*
G01X25971223Y6767995D01*
G01X25965381Y6773837D01*
G01X25953951Y6779425D01*
G01X25936933Y6779425D01*
G01X25925503Y6773837D01*
G01X25914073Y6762407D01*
G01X25908231Y6745135D01*
G01X25908231Y6733705D01*
G01X25914073Y6716687D01*
G01X25925503Y6705257D01*
G01X25936933Y6699415D01*
G01X25953951Y6699415D01*
G01X25965381Y6705257D01*
G01X25976811Y6716687D01*
G01X26024563Y6779425D02*
G01X26024563Y6699415D01*
G01X26024563Y6745135D02*
G01X26030405Y6762407D01*
G01X26041835Y6773837D01*
G01X26053265Y6779425D01*
G01X26070283Y6779425D01*
G01X11768705Y6221714D02*
G01X11763117Y6233144D01*
G01X11745845Y6238986D01*
G01X11734415Y6238986D01*
G01X11717397Y6233144D01*
G01X11705967Y6216126D01*
G01X11700125Y6187424D01*
G01X11700125Y6158976D01*
G01X11705967Y6136116D01*
G01X11717397Y6124686D01*
G01X11734415Y6118844D01*
G01X11740257Y6118844D01*
G01X11757275Y6124686D01*
G01X11768705Y6136116D01*
G01X11774547Y6153134D01*
G01X11774547Y6158976D01*
G01X11768705Y6175994D01*
G01X11757275Y6187424D01*
G01X11740257Y6193266D01*
G01X11734415Y6193266D01*
G01X11717397Y6187424D01*
G01X11705967Y6175994D01*
G01X11700125Y6158976D01*
G01X13120130Y6210284D02*
G01X13120130Y6216126D01*
G01X13125718Y6227556D01*
G01X13131560Y6233144D01*
G01X13142990Y6238986D01*
G01X13165850Y6238986D01*
G01X13177280Y6233144D01*
G01X13182868Y6227556D01*
G01X13188710Y6216126D01*
G01X13188710Y6204696D01*
G01X13182868Y6193266D01*
G01X13171438Y6175994D01*
G01X13114288Y6118844D01*
G01X13194298Y6118844D01*
G01X13253480Y6238986D02*
G01X13316472Y6238986D01*
G01X13282182Y6193266D01*
G01X13299200Y6193266D01*
G01X13310630Y6187424D01*
G01X13316472Y6181836D01*
G01X13322060Y6164564D01*
G01X13322060Y6153134D01*
G01X13316472Y6136116D01*
G01X13305042Y6124686D01*
G01X13287770Y6118844D01*
G01X13270752Y6118844D01*
G01X13253480Y6124686D01*
G01X13247892Y6130274D01*
G01X13242050Y6141704D01*
G01X13375654Y6147546D02*
G01X13369812Y6141704D01*
G01X13375654Y6136116D01*
G01X13381242Y6141704D01*
G01X13375654Y6147546D01*
G01X13497574Y6221714D02*
G01X13491986Y6233144D01*
G01X13474714Y6238986D01*
G01X13463284Y6238986D01*
G01X13446266Y6233144D01*
G01X13434836Y6216126D01*
G01X13428994Y6187424D01*
G01X13428994Y6158976D01*
G01X13434836Y6136116D01*
G01X13446266Y6124686D01*
G01X13463284Y6118844D01*
G01X13469126Y6118844D01*
G01X13486144Y6124686D01*
G01X13497574Y6136116D01*
G01X13503416Y6153134D01*
G01X13503416Y6158976D01*
G01X13497574Y6175994D01*
G01X13486144Y6187424D01*
G01X13469126Y6193266D01*
G01X13463284Y6193266D01*
G01X13446266Y6187424D01*
G01X13434836Y6175994D01*
G01X13428994Y6158976D01*
G01X13551168Y6198854D02*
G01X13614160Y6118844D01*
G01X13614160Y6198854D02*
G01X13551168Y6118844D01*
G01X13730492Y6238986D02*
G01X13673342Y6238986D01*
G01X13667754Y6187424D01*
G01X13673342Y6193266D01*
G01X13690614Y6198854D01*
G01X13707632Y6198854D01*
G01X13724904Y6193266D01*
G01X13736334Y6181836D01*
G01X13741922Y6164564D01*
G01X13741922Y6153134D01*
G01X13736334Y6136116D01*
G01X13724904Y6124686D01*
G01X13707632Y6118844D01*
G01X13690614Y6118844D01*
G01X13673342Y6124686D01*
G01X13667754Y6130274D01*
G01X13661912Y6141704D01*
G01X13864096Y6198854D02*
G01X13858254Y6181836D01*
G01X13846824Y6170406D01*
G01X13829806Y6164564D01*
G01X13823964Y6164564D01*
G01X13806946Y6170406D01*
G01X13795516Y6181836D01*
G01X13789674Y6198854D01*
G01X13789674Y6204696D01*
G01X13795516Y6221714D01*
G01X13806946Y6233144D01*
G01X13823964Y6238986D01*
G01X13829806Y6238986D01*
G01X13846824Y6233144D01*
G01X13858254Y6221714D01*
G01X13864096Y6198854D01*
G01X13864096Y6170406D01*
G01X13858254Y6141704D01*
G01X13846824Y6124686D01*
G01X13829806Y6118844D01*
G01X13818376Y6118844D01*
G01X13801104Y6124686D01*
G01X13795516Y6136116D01*
G01X13917690Y6147546D02*
G01X13911848Y6141704D01*
G01X13917690Y6136116D01*
G01X13923278Y6141704D01*
G01X13917690Y6147546D01*
G01X13971030Y6216126D02*
G01X13982460Y6221714D01*
G01X13999732Y6238986D01*
G01X13999732Y6118844D01*
G01X14047484Y6198854D02*
G01X14047484Y6118844D01*
G01X14047484Y6175994D02*
G01X14064756Y6193266D01*
G01X14076186Y6198854D01*
G01X14093204Y6198854D01*
G01X14104634Y6193266D01*
G01X14110476Y6175994D01*
G01X14110476Y6118844D01*
G01X14110476Y6175994D02*
G01X14127494Y6193266D01*
G01X14138924Y6198854D01*
G01X14156196Y6198854D01*
G01X14167626Y6193266D01*
G01X14173214Y6175994D01*
G01X14173214Y6118844D01*
G01X14220966Y6238986D02*
G01X14226808Y6233144D01*
G01X14232396Y6238986D01*
G01X14226808Y6244574D01*
G01X14220966Y6238986D01*
G01X14226808Y6198854D02*
G01X14226808Y6118844D01*
G01X14280148Y6238986D02*
G01X14280148Y6118844D01*
G01X14368032Y6261846D02*
G01X14356602Y6250416D01*
G01X14345172Y6233144D01*
G01X14333742Y6210284D01*
G01X14327900Y6181836D01*
G01X14327900Y6158976D01*
G01X14333742Y6130274D01*
G01X14345172Y6107414D01*
G01X14356602Y6090396D01*
G01X14368032Y6078966D01*
G01X14450074Y6238986D02*
G01X14433056Y6233144D01*
G01X14421626Y6216126D01*
G01X14415784Y6187424D01*
G01X14415784Y6170406D01*
G01X14421626Y6141704D01*
G01X14433056Y6124686D01*
G01X14450074Y6118844D01*
G01X14461504Y6118844D01*
G01X14478776Y6124686D01*
G01X14490206Y6141704D01*
G01X14495794Y6170406D01*
G01X14495794Y6187424D01*
G01X14490206Y6216126D01*
G01X14478776Y6233144D01*
G01X14461504Y6238986D01*
G01X14450074Y6238986D01*
G01X14549388Y6147546D02*
G01X14543546Y6141704D01*
G01X14549388Y6136116D01*
G01X14554976Y6141704D01*
G01X14549388Y6147546D01*
G01X14671308Y6221714D02*
G01X14665720Y6233144D01*
G01X14648448Y6238986D01*
G01X14637018Y6238986D01*
G01X14620000Y6233144D01*
G01X14608570Y6216126D01*
G01X14602728Y6187424D01*
G01X14602728Y6158976D01*
G01X14608570Y6136116D01*
G01X14620000Y6124686D01*
G01X14637018Y6118844D01*
G01X14642860Y6118844D01*
G01X14659878Y6124686D01*
G01X14671308Y6136116D01*
G01X14677150Y6153134D01*
G01X14677150Y6158976D01*
G01X14671308Y6175994D01*
G01X14659878Y6187424D01*
G01X14642860Y6193266D01*
G01X14637018Y6193266D01*
G01X14620000Y6187424D01*
G01X14608570Y6175994D01*
G01X14602728Y6158976D01*
G01X14759192Y6238986D02*
G01X14742174Y6233144D01*
G01X14730744Y6216126D01*
G01X14724902Y6187424D01*
G01X14724902Y6170406D01*
G01X14730744Y6141704D01*
G01X14742174Y6124686D01*
G01X14759192Y6118844D01*
G01X14770622Y6118844D01*
G01X14787894Y6124686D01*
G01X14799324Y6141704D01*
G01X14804912Y6170406D01*
G01X14804912Y6187424D01*
G01X14799324Y6216126D01*
G01X14787894Y6233144D01*
G01X14770622Y6238986D01*
G01X14759192Y6238986D01*
G01X14886954Y6238986D02*
G01X14869936Y6233144D01*
G01X14858506Y6216126D01*
G01X14852664Y6187424D01*
G01X14852664Y6170406D01*
G01X14858506Y6141704D01*
G01X14869936Y6124686D01*
G01X14886954Y6118844D01*
G01X14898384Y6118844D01*
G01X14915656Y6124686D01*
G01X14927086Y6141704D01*
G01X14932674Y6170406D01*
G01X14932674Y6187424D01*
G01X14927086Y6216126D01*
G01X14915656Y6233144D01*
G01X14898384Y6238986D01*
G01X14886954Y6238986D01*
G01X14980426Y6198854D02*
G01X15043418Y6118844D01*
G01X15043418Y6198854D02*
G01X14980426Y6118844D01*
G01X15091170Y6216126D02*
G01X15102600Y6221714D01*
G01X15119872Y6238986D01*
G01X15119872Y6118844D01*
G01X15173466Y6147546D02*
G01X15167624Y6141704D01*
G01X15173466Y6136116D01*
G01X15179054Y6141704D01*
G01X15173466Y6147546D01*
G01X15295386Y6238986D02*
G01X15238236Y6238986D01*
G01X15232648Y6187424D01*
G01X15238236Y6193266D01*
G01X15255508Y6198854D01*
G01X15272526Y6198854D01*
G01X15289798Y6193266D01*
G01X15301228Y6181836D01*
G01X15306816Y6164564D01*
G01X15306816Y6153134D01*
G01X15301228Y6136116D01*
G01X15289798Y6124686D01*
G01X15272526Y6118844D01*
G01X15255508Y6118844D01*
G01X15238236Y6124686D01*
G01X15232648Y6130274D01*
G01X15226806Y6141704D01*
G01X15388858Y6238986D02*
G01X15371840Y6233144D01*
G01X15360410Y6216126D01*
G01X15354568Y6187424D01*
G01X15354568Y6170406D01*
G01X15360410Y6141704D01*
G01X15371840Y6124686D01*
G01X15388858Y6118844D01*
G01X15400288Y6118844D01*
G01X15417560Y6124686D01*
G01X15428990Y6141704D01*
G01X15434578Y6170406D01*
G01X15434578Y6187424D01*
G01X15428990Y6216126D01*
G01X15417560Y6233144D01*
G01X15400288Y6238986D01*
G01X15388858Y6238986D01*
G01X15516620Y6238986D02*
G01X15499602Y6233144D01*
G01X15488172Y6216126D01*
G01X15482330Y6187424D01*
G01X15482330Y6170406D01*
G01X15488172Y6141704D01*
G01X15499602Y6124686D01*
G01X15516620Y6118844D01*
G01X15528050Y6118844D01*
G01X15545322Y6124686D01*
G01X15556752Y6141704D01*
G01X15562340Y6170406D01*
G01X15562340Y6187424D01*
G01X15556752Y6216126D01*
G01X15545322Y6233144D01*
G01X15528050Y6238986D01*
G01X15516620Y6238986D01*
G01X15610092Y6198854D02*
G01X15610092Y6118844D01*
G01X15610092Y6175994D02*
G01X15627364Y6193266D01*
G01X15638794Y6198854D01*
G01X15655812Y6198854D01*
G01X15667242Y6193266D01*
G01X15673084Y6175994D01*
G01X15673084Y6118844D01*
G01X15673084Y6175994D02*
G01X15690102Y6193266D01*
G01X15701532Y6198854D01*
G01X15718804Y6198854D01*
G01X15730234Y6193266D01*
G01X15735822Y6175994D01*
G01X15735822Y6118844D01*
G01X15783574Y6198854D02*
G01X15783574Y6118844D01*
G01X15783574Y6175994D02*
G01X15800846Y6193266D01*
G01X15812276Y6198854D01*
G01X15829294Y6198854D01*
G01X15840724Y6193266D01*
G01X15846566Y6175994D01*
G01X15846566Y6118844D01*
G01X15846566Y6175994D02*
G01X15863584Y6193266D01*
G01X15875014Y6198854D01*
G01X15892286Y6198854D01*
G01X15903716Y6193266D01*
G01X15909304Y6175994D01*
G01X15909304Y6118844D01*
G01X15957056Y6261846D02*
G01X15968486Y6250416D01*
G01X15979916Y6233144D01*
G01X15991346Y6210284D01*
G01X15997188Y6181836D01*
G01X15997188Y6158976D01*
G01X15991346Y6130274D01*
G01X15979916Y6107414D01*
G01X15968486Y6090396D01*
G01X15957056Y6078966D01*
G01X17002157Y6238986D02*
G01X17002157Y6118844D01*
G01X17002157Y6238986D02*
G01X17053719Y6238986D01*
G01X17070737Y6233144D01*
G01X17076579Y6227556D01*
G01X17082167Y6216126D01*
G01X17082167Y6198854D01*
G01X17076579Y6187424D01*
G01X17070737Y6181836D01*
G01X17053719Y6175994D01*
G01X17002157Y6175994D01*
G01X17170051Y6238986D02*
G01X17170051Y6118844D01*
G01X17129919Y6238986D02*
G01X17209929Y6238986D01*
G01X17257681Y6238986D02*
G01X17257681Y6118844D01*
G01X17337691Y6238986D02*
G01X17337691Y6118844D01*
G01X17257681Y6181836D02*
G01X17337691Y6181836D01*
G01X18543574Y6221714D02*
G01X18532144Y6233144D01*
G01X18515126Y6238986D01*
G01X18492266Y6238986D01*
G01X18474994Y6233144D01*
G01X18463564Y6221714D01*
G01X18463564Y6210284D01*
G01X18469406Y6198854D01*
G01X18474994Y6193266D01*
G01X18486424Y6187424D01*
G01X18520714Y6175994D01*
G01X18532144Y6170406D01*
G01X18537986Y6164564D01*
G01X18543574Y6153134D01*
G01X18543574Y6136116D01*
G01X18532144Y6124686D01*
G01X18515126Y6118844D01*
G01X18492266Y6118844D01*
G01X18474994Y6124686D01*
G01X18463564Y6136116D01*
G01X18591326Y6238986D02*
G01X18591326Y6118844D01*
G01X18667780Y6198854D02*
G01X18656350Y6193266D01*
G01X18644920Y6181836D01*
G01X18639078Y6164564D01*
G01X18639078Y6153134D01*
G01X18644920Y6136116D01*
G01X18656350Y6124686D01*
G01X18667780Y6118844D01*
G01X18684798Y6118844D01*
G01X18696228Y6124686D01*
G01X18707658Y6136116D01*
G01X18713500Y6153134D01*
G01X18713500Y6164564D01*
G01X18707658Y6181836D01*
G01X18696228Y6193266D01*
G01X18684798Y6198854D01*
G01X18667780Y6198854D01*
G01X18778524Y6238986D02*
G01X18778524Y6141704D01*
G01X18784112Y6124686D01*
G01X18795542Y6118844D01*
G01X18806972Y6118844D01*
G01X18761252Y6198854D02*
G01X18801384Y6198854D01*
G01X19894745Y6238986D02*
G01X19894745Y6118844D01*
G01X19894745Y6238986D02*
G01X19946307Y6238986D01*
G01X19963325Y6233144D01*
G01X19969167Y6227556D01*
G01X19974755Y6216126D01*
G01X19974755Y6198854D01*
G01X19969167Y6187424D01*
G01X19963325Y6181836D01*
G01X19946307Y6175994D01*
G01X19894745Y6175994D01*
G01X20091087Y6198854D02*
G01X20091087Y6118844D01*
G01X20091087Y6181836D02*
G01X20079657Y6193266D01*
G01X20068227Y6198854D01*
G01X20051209Y6198854D01*
G01X20039779Y6193266D01*
G01X20028349Y6181836D01*
G01X20022507Y6164564D01*
G01X20022507Y6153134D01*
G01X20028349Y6136116D01*
G01X20039779Y6124686D01*
G01X20051209Y6118844D01*
G01X20068227Y6118844D01*
G01X20079657Y6124686D01*
G01X20091087Y6136116D01*
G01X20207419Y6238986D02*
G01X20207419Y6118844D01*
G01X20207419Y6181836D02*
G01X20195989Y6193266D01*
G01X20184559Y6198854D01*
G01X20167541Y6198854D01*
G01X20156111Y6193266D01*
G01X20144681Y6181836D01*
G01X20138839Y6164564D01*
G01X20138839Y6153134D01*
G01X20144681Y6136116D01*
G01X20156111Y6124686D01*
G01X20167541Y6118844D01*
G01X20184559Y6118844D01*
G01X20195989Y6124686D01*
G01X20207419Y6136116D01*
G01X21598214Y6238986D02*
G01X21586784Y6233144D01*
G01X21575354Y6221714D01*
G01X21569766Y6210284D01*
G01X21563924Y6193266D01*
G01X21563924Y6164564D01*
G01X21569766Y6147546D01*
G01X21575354Y6136116D01*
G01X21586784Y6124686D01*
G01X21598214Y6118844D01*
G01X21621074Y6118844D01*
G01X21632504Y6124686D01*
G01X21643934Y6136116D01*
G01X21649776Y6147546D01*
G01X21655364Y6164564D01*
G01X21655364Y6193266D01*
G01X21649776Y6210284D01*
G01X21643934Y6221714D01*
G01X21632504Y6233144D01*
G01X21621074Y6238986D01*
G01X21598214Y6238986D01*
G01X21703116Y6198854D02*
G01X21737406Y6118844D01*
G01X21771696Y6198854D02*
G01X21737406Y6118844D01*
G01X21888028Y6198854D02*
G01X21888028Y6118844D01*
G01X21888028Y6181836D02*
G01X21876598Y6193266D01*
G01X21865168Y6198854D01*
G01X21848150Y6198854D01*
G01X21836720Y6193266D01*
G01X21825290Y6181836D01*
G01X21819448Y6164564D01*
G01X21819448Y6153134D01*
G01X21825290Y6136116D01*
G01X21836720Y6124686D01*
G01X21848150Y6118844D01*
G01X21865168Y6118844D01*
G01X21876598Y6124686D01*
G01X21888028Y6136116D01*
G01X21935780Y6238986D02*
G01X21935780Y6118844D01*
G01X23523425Y6238986D02*
G01X23523425Y6118844D01*
G01X23483293Y6238986D02*
G01X23563303Y6238986D01*
G01X23639757Y6198854D02*
G01X23628327Y6193266D01*
G01X23616897Y6181836D01*
G01X23611055Y6164564D01*
G01X23611055Y6153134D01*
G01X23616897Y6136116D01*
G01X23628327Y6124686D01*
G01X23639757Y6118844D01*
G01X23656775Y6118844D01*
G01X23668205Y6124686D01*
G01X23679635Y6136116D01*
G01X23685477Y6153134D01*
G01X23685477Y6164564D01*
G01X23679635Y6181836D01*
G01X23668205Y6193266D01*
G01X23656775Y6198854D01*
G01X23639757Y6198854D01*
G01X23733229Y6198854D02*
G01X23733229Y6078966D01*
G01X23733229Y6181836D02*
G01X23744659Y6193266D01*
G01X23756089Y6198854D01*
G01X23773361Y6198854D01*
G01X23784791Y6193266D01*
G01X23796221Y6181836D01*
G01X23801809Y6164564D01*
G01X23801809Y6153134D01*
G01X23796221Y6136116D01*
G01X23784791Y6124686D01*
G01X23773361Y6118844D01*
G01X23756089Y6118844D01*
G01X23744659Y6124686D01*
G01X23733229Y6136116D01*
G01X23977577Y6238986D02*
G01X23977577Y6118844D01*
G01X23977577Y6118844D02*
G01X24046157Y6118844D01*
G01X24162489Y6198854D02*
G01X24162489Y6118844D01*
G01X24162489Y6181836D02*
G01X24151059Y6193266D01*
G01X24139629Y6198854D01*
G01X24122611Y6198854D01*
G01X24111181Y6193266D01*
G01X24099751Y6181836D01*
G01X24093909Y6164564D01*
G01X24093909Y6153134D01*
G01X24099751Y6136116D01*
G01X24111181Y6124686D01*
G01X24122611Y6118844D01*
G01X24139629Y6118844D01*
G01X24151059Y6124686D01*
G01X24162489Y6136116D01*
G01X24216083Y6198854D02*
G01X24250373Y6118844D01*
G01X24284663Y6198854D02*
G01X24250373Y6118844D01*
G01X24238943Y6095984D01*
G01X24227513Y6084554D01*
G01X24216083Y6078966D01*
G01X24210241Y6078966D01*
G01X24332415Y6164564D02*
G01X24400995Y6164564D01*
G01X24400995Y6175994D01*
G01X24395407Y6187424D01*
G01X24389565Y6193266D01*
G01X24378135Y6198854D01*
G01X24361117Y6198854D01*
G01X24349687Y6193266D01*
G01X24338257Y6181836D01*
G01X24332415Y6164564D01*
G01X24332415Y6153134D01*
G01X24338257Y6136116D01*
G01X24349687Y6124686D01*
G01X24361117Y6118844D01*
G01X24378135Y6118844D01*
G01X24389565Y6124686D01*
G01X24400995Y6136116D01*
G01X24448747Y6198854D02*
G01X24448747Y6118844D01*
G01X24448747Y6164564D02*
G01X24454589Y6181836D01*
G01X24466019Y6193266D01*
G01X24477449Y6198854D01*
G01X24494467Y6198854D01*
G01X24542219Y6170406D02*
G01X24645089Y6170406D01*
G01X24692841Y6238986D02*
G01X24692841Y6118844D01*
G01X24692841Y6238986D02*
G01X24744403Y6238986D01*
G01X24761421Y6233144D01*
G01X24767263Y6227556D01*
G01X24772851Y6216126D01*
G01X24772851Y6204696D01*
G01X24767263Y6193266D01*
G01X24761421Y6187424D01*
G01X24744403Y6181836D01*
G01X24692841Y6181836D02*
G01X24744403Y6181836D01*
G01X24761421Y6175994D01*
G01X24767263Y6170406D01*
G01X24772851Y6158976D01*
G01X24772851Y6141704D01*
G01X24767263Y6130274D01*
G01X24761421Y6124686D01*
G01X24744403Y6118844D01*
G01X24692841Y6118844D01*
G01X24849305Y6198854D02*
G01X24837875Y6193266D01*
G01X24826445Y6181836D01*
G01X24820603Y6164564D01*
G01X24820603Y6153134D01*
G01X24826445Y6136116D01*
G01X24837875Y6124686D01*
G01X24849305Y6118844D01*
G01X24866323Y6118844D01*
G01X24877753Y6124686D01*
G01X24889183Y6136116D01*
G01X24895025Y6153134D01*
G01X24895025Y6164564D01*
G01X24889183Y6181836D01*
G01X24877753Y6193266D01*
G01X24866323Y6198854D01*
G01X24849305Y6198854D01*
G01X24960049Y6238986D02*
G01X24960049Y6141704D01*
G01X24965637Y6124686D01*
G01X24977067Y6118844D01*
G01X24988497Y6118844D01*
G01X24942777Y6198854D02*
G01X24982909Y6198854D01*
G01X25053521Y6238986D02*
G01X25053521Y6141704D01*
G01X25059109Y6124686D01*
G01X25070539Y6118844D01*
G01X25081969Y6118844D01*
G01X25036249Y6198854D02*
G01X25076381Y6198854D01*
G01X25158423Y6198854D02*
G01X25146993Y6193266D01*
G01X25135563Y6181836D01*
G01X25129721Y6164564D01*
G01X25129721Y6153134D01*
G01X25135563Y6136116D01*
G01X25146993Y6124686D01*
G01X25158423Y6118844D01*
G01X25175441Y6118844D01*
G01X25186871Y6124686D01*
G01X25198301Y6136116D01*
G01X25204143Y6153134D01*
G01X25204143Y6164564D01*
G01X25198301Y6181836D01*
G01X25186871Y6193266D01*
G01X25175441Y6198854D01*
G01X25158423Y6198854D01*
G01X25251895Y6198854D02*
G01X25251895Y6118844D01*
G01X25251895Y6175994D02*
G01X25269167Y6193266D01*
G01X25280597Y6198854D01*
G01X25297615Y6198854D01*
G01X25309045Y6193266D01*
G01X25314887Y6175994D01*
G01X25314887Y6118844D01*
G01X25314887Y6175994D02*
G01X25331905Y6193266D01*
G01X25343335Y6198854D01*
G01X25360607Y6198854D01*
G01X25372037Y6193266D01*
G01X25377625Y6175994D01*
G01X25377625Y6118844D01*
G01X25553393Y6238986D02*
G01X25553393Y6118844D01*
G01X25553393Y6118844D02*
G01X25621973Y6118844D01*
G01X25738305Y6198854D02*
G01X25738305Y6118844D01*
G01X25738305Y6181836D02*
G01X25726875Y6193266D01*
G01X25715445Y6198854D01*
G01X25698427Y6198854D01*
G01X25686997Y6193266D01*
G01X25675567Y6181836D01*
G01X25669725Y6164564D01*
G01X25669725Y6153134D01*
G01X25675567Y6136116D01*
G01X25686997Y6124686D01*
G01X25698427Y6118844D01*
G01X25715445Y6118844D01*
G01X25726875Y6124686D01*
G01X25738305Y6136116D01*
G01X25791899Y6198854D02*
G01X25826189Y6118844D01*
G01X25860479Y6198854D02*
G01X25826189Y6118844D01*
G01X25814759Y6095984D01*
G01X25803329Y6084554D01*
G01X25791899Y6078966D01*
G01X25786057Y6078966D01*
G01X25908231Y6164564D02*
G01X25976811Y6164564D01*
G01X25976811Y6175994D01*
G01X25971223Y6187424D01*
G01X25965381Y6193266D01*
G01X25953951Y6198854D01*
G01X25936933Y6198854D01*
G01X25925503Y6193266D01*
G01X25914073Y6181836D01*
G01X25908231Y6164564D01*
G01X25908231Y6153134D01*
G01X25914073Y6136116D01*
G01X25925503Y6124686D01*
G01X25936933Y6118844D01*
G01X25953951Y6118844D01*
G01X25965381Y6124686D01*
G01X25976811Y6136116D01*
G01X26024563Y6198854D02*
G01X26024563Y6118844D01*
G01X26024563Y6164564D02*
G01X26030405Y6181836D01*
G01X26041835Y6193266D01*
G01X26053265Y6198854D01*
G01X26070283Y6198854D01*
G01X11768705Y5641142D02*
G01X11763117Y5652572D01*
G01X11745845Y5658414D01*
G01X11734415Y5658414D01*
G01X11717397Y5652572D01*
G01X11705967Y5635554D01*
G01X11700125Y5606852D01*
G01X11700125Y5578404D01*
G01X11705967Y5555544D01*
G01X11717397Y5544114D01*
G01X11734415Y5538272D01*
G01X11740257Y5538272D01*
G01X11757275Y5544114D01*
G01X11768705Y5555544D01*
G01X11774547Y5572562D01*
G01X11774547Y5578404D01*
G01X11768705Y5595422D01*
G01X11757275Y5606852D01*
G01X11740257Y5612694D01*
G01X11734415Y5612694D01*
G01X11717397Y5606852D01*
G01X11705967Y5595422D01*
G01X11700125Y5578404D01*
G01X13120130Y5629712D02*
G01X13120130Y5635554D01*
G01X13125718Y5646984D01*
G01X13131560Y5652572D01*
G01X13142990Y5658414D01*
G01X13165850Y5658414D01*
G01X13177280Y5652572D01*
G01X13182868Y5646984D01*
G01X13188710Y5635554D01*
G01X13188710Y5624124D01*
G01X13182868Y5612694D01*
G01X13171438Y5595422D01*
G01X13114288Y5538272D01*
G01X13194298Y5538272D01*
G01X13253480Y5658414D02*
G01X13316472Y5658414D01*
G01X13282182Y5612694D01*
G01X13299200Y5612694D01*
G01X13310630Y5606852D01*
G01X13316472Y5601264D01*
G01X13322060Y5583992D01*
G01X13322060Y5572562D01*
G01X13316472Y5555544D01*
G01X13305042Y5544114D01*
G01X13287770Y5538272D01*
G01X13270752Y5538272D01*
G01X13253480Y5544114D01*
G01X13247892Y5549702D01*
G01X13242050Y5561132D01*
G01X13375654Y5566974D02*
G01X13369812Y5561132D01*
G01X13375654Y5555544D01*
G01X13381242Y5561132D01*
G01X13375654Y5566974D01*
G01X13497574Y5641142D02*
G01X13491986Y5652572D01*
G01X13474714Y5658414D01*
G01X13463284Y5658414D01*
G01X13446266Y5652572D01*
G01X13434836Y5635554D01*
G01X13428994Y5606852D01*
G01X13428994Y5578404D01*
G01X13434836Y5555544D01*
G01X13446266Y5544114D01*
G01X13463284Y5538272D01*
G01X13469126Y5538272D01*
G01X13486144Y5544114D01*
G01X13497574Y5555544D01*
G01X13503416Y5572562D01*
G01X13503416Y5578404D01*
G01X13497574Y5595422D01*
G01X13486144Y5606852D01*
G01X13469126Y5612694D01*
G01X13463284Y5612694D01*
G01X13446266Y5606852D01*
G01X13434836Y5595422D01*
G01X13428994Y5578404D01*
G01X13551168Y5618282D02*
G01X13614160Y5538272D01*
G01X13614160Y5618282D02*
G01X13551168Y5538272D01*
G01X13719062Y5658414D02*
G01X13661912Y5578404D01*
G01X13747764Y5578404D01*
G01X13719062Y5658414D02*
G01X13719062Y5538272D01*
G01X13875526Y5658414D02*
G01X13818376Y5538272D01*
G01X13795516Y5658414D02*
G01X13875526Y5658414D01*
G01X13929120Y5566974D02*
G01X13923278Y5561132D01*
G01X13929120Y5555544D01*
G01X13934708Y5561132D01*
G01X13929120Y5566974D01*
G01X13988302Y5629712D02*
G01X13988302Y5635554D01*
G01X13993890Y5646984D01*
G01X13999732Y5652572D01*
G01X14011162Y5658414D01*
G01X14034022Y5658414D01*
G01X14045452Y5652572D01*
G01X14051040Y5646984D01*
G01X14056882Y5635554D01*
G01X14056882Y5624124D01*
G01X14051040Y5612694D01*
G01X14039610Y5595422D01*
G01X13982460Y5538272D01*
G01X14062470Y5538272D01*
G01X14110222Y5618282D02*
G01X14110222Y5538272D01*
G01X14110222Y5595422D02*
G01X14127494Y5612694D01*
G01X14138924Y5618282D01*
G01X14155942Y5618282D01*
G01X14167372Y5612694D01*
G01X14173214Y5595422D01*
G01X14173214Y5538272D01*
G01X14173214Y5595422D02*
G01X14190232Y5612694D01*
G01X14201662Y5618282D01*
G01X14218934Y5618282D01*
G01X14230364Y5612694D01*
G01X14235952Y5595422D01*
G01X14235952Y5538272D01*
G01X14283704Y5658414D02*
G01X14289546Y5652572D01*
G01X14295134Y5658414D01*
G01X14289546Y5664002D01*
G01X14283704Y5658414D01*
G01X14289546Y5618282D02*
G01X14289546Y5538272D01*
G01X14342886Y5658414D02*
G01X14342886Y5538272D01*
G01X14430770Y5681274D02*
G01X14419340Y5669844D01*
G01X14407910Y5652572D01*
G01X14396480Y5629712D01*
G01X14390638Y5601264D01*
G01X14390638Y5578404D01*
G01X14396480Y5549702D01*
G01X14407910Y5526842D01*
G01X14419340Y5509824D01*
G01X14430770Y5498394D01*
G01X14512812Y5658414D02*
G01X14495794Y5652572D01*
G01X14484364Y5635554D01*
G01X14478522Y5606852D01*
G01X14478522Y5589834D01*
G01X14484364Y5561132D01*
G01X14495794Y5544114D01*
G01X14512812Y5538272D01*
G01X14524242Y5538272D01*
G01X14541514Y5544114D01*
G01X14552944Y5561132D01*
G01X14558532Y5589834D01*
G01X14558532Y5606852D01*
G01X14552944Y5635554D01*
G01X14541514Y5652572D01*
G01X14524242Y5658414D01*
G01X14512812Y5658414D01*
G01X14612126Y5566974D02*
G01X14606284Y5561132D01*
G01X14612126Y5555544D01*
G01X14617714Y5561132D01*
G01X14612126Y5566974D01*
G01X14734046Y5641142D02*
G01X14728458Y5652572D01*
G01X14711186Y5658414D01*
G01X14699756Y5658414D01*
G01X14682738Y5652572D01*
G01X14671308Y5635554D01*
G01X14665466Y5606852D01*
G01X14665466Y5578404D01*
G01X14671308Y5555544D01*
G01X14682738Y5544114D01*
G01X14699756Y5538272D01*
G01X14705598Y5538272D01*
G01X14722616Y5544114D01*
G01X14734046Y5555544D01*
G01X14739888Y5572562D01*
G01X14739888Y5578404D01*
G01X14734046Y5595422D01*
G01X14722616Y5606852D01*
G01X14705598Y5612694D01*
G01X14699756Y5612694D01*
G01X14682738Y5606852D01*
G01X14671308Y5595422D01*
G01X14665466Y5578404D01*
G01X14821930Y5658414D02*
G01X14804912Y5652572D01*
G01X14793482Y5635554D01*
G01X14787640Y5606852D01*
G01X14787640Y5589834D01*
G01X14793482Y5561132D01*
G01X14804912Y5544114D01*
G01X14821930Y5538272D01*
G01X14833360Y5538272D01*
G01X14850632Y5544114D01*
G01X14862062Y5561132D01*
G01X14867650Y5589834D01*
G01X14867650Y5606852D01*
G01X14862062Y5635554D01*
G01X14850632Y5652572D01*
G01X14833360Y5658414D01*
G01X14821930Y5658414D01*
G01X14949692Y5658414D02*
G01X14932674Y5652572D01*
G01X14921244Y5635554D01*
G01X14915402Y5606852D01*
G01X14915402Y5589834D01*
G01X14921244Y5561132D01*
G01X14932674Y5544114D01*
G01X14949692Y5538272D01*
G01X14961122Y5538272D01*
G01X14978394Y5544114D01*
G01X14989824Y5561132D01*
G01X14995412Y5589834D01*
G01X14995412Y5606852D01*
G01X14989824Y5635554D01*
G01X14978394Y5652572D01*
G01X14961122Y5658414D01*
G01X14949692Y5658414D01*
G01X15043164Y5618282D02*
G01X15106156Y5538272D01*
G01X15106156Y5618282D02*
G01X15043164Y5538272D01*
G01X15153908Y5635554D02*
G01X15165338Y5641142D01*
G01X15182610Y5658414D01*
G01X15182610Y5538272D01*
G01X15236204Y5566974D02*
G01X15230362Y5561132D01*
G01X15236204Y5555544D01*
G01X15241792Y5561132D01*
G01X15236204Y5566974D01*
G01X15295386Y5629712D02*
G01X15295386Y5635554D01*
G01X15300974Y5646984D01*
G01X15306816Y5652572D01*
G01X15318246Y5658414D01*
G01X15341106Y5658414D01*
G01X15352536Y5652572D01*
G01X15358124Y5646984D01*
G01X15363966Y5635554D01*
G01X15363966Y5624124D01*
G01X15358124Y5612694D01*
G01X15346694Y5595422D01*
G01X15289544Y5538272D01*
G01X15369554Y5538272D01*
G01X15451596Y5658414D02*
G01X15434578Y5652572D01*
G01X15423148Y5635554D01*
G01X15417306Y5606852D01*
G01X15417306Y5589834D01*
G01X15423148Y5561132D01*
G01X15434578Y5544114D01*
G01X15451596Y5538272D01*
G01X15463026Y5538272D01*
G01X15480298Y5544114D01*
G01X15491728Y5561132D01*
G01X15497316Y5589834D01*
G01X15497316Y5606852D01*
G01X15491728Y5635554D01*
G01X15480298Y5652572D01*
G01X15463026Y5658414D01*
G01X15451596Y5658414D01*
G01X15579358Y5658414D02*
G01X15562340Y5652572D01*
G01X15550910Y5635554D01*
G01X15545068Y5606852D01*
G01X15545068Y5589834D01*
G01X15550910Y5561132D01*
G01X15562340Y5544114D01*
G01X15579358Y5538272D01*
G01X15590788Y5538272D01*
G01X15608060Y5544114D01*
G01X15619490Y5561132D01*
G01X15625078Y5589834D01*
G01X15625078Y5606852D01*
G01X15619490Y5635554D01*
G01X15608060Y5652572D01*
G01X15590788Y5658414D01*
G01X15579358Y5658414D01*
G01X15672830Y5618282D02*
G01X15672830Y5538272D01*
G01X15672830Y5595422D02*
G01X15690102Y5612694D01*
G01X15701532Y5618282D01*
G01X15718550Y5618282D01*
G01X15729980Y5612694D01*
G01X15735822Y5595422D01*
G01X15735822Y5538272D01*
G01X15735822Y5595422D02*
G01X15752840Y5612694D01*
G01X15764270Y5618282D01*
G01X15781542Y5618282D01*
G01X15792972Y5612694D01*
G01X15798560Y5595422D01*
G01X15798560Y5538272D01*
G01X15846312Y5618282D02*
G01X15846312Y5538272D01*
G01X15846312Y5595422D02*
G01X15863584Y5612694D01*
G01X15875014Y5618282D01*
G01X15892032Y5618282D01*
G01X15903462Y5612694D01*
G01X15909304Y5595422D01*
G01X15909304Y5538272D01*
G01X15909304Y5595422D02*
G01X15926322Y5612694D01*
G01X15937752Y5618282D01*
G01X15955024Y5618282D01*
G01X15966454Y5612694D01*
G01X15972042Y5595422D01*
G01X15972042Y5538272D01*
G01X16019794Y5681274D02*
G01X16031224Y5669844D01*
G01X16042654Y5652572D01*
G01X16054084Y5629712D01*
G01X16059926Y5601264D01*
G01X16059926Y5578404D01*
G01X16054084Y5549702D01*
G01X16042654Y5526842D01*
G01X16031224Y5509824D01*
G01X16019794Y5498394D01*
G01X17002157Y5658414D02*
G01X17002157Y5538272D01*
G01X17002157Y5658414D02*
G01X17053719Y5658414D01*
G01X17070737Y5652572D01*
G01X17076579Y5646984D01*
G01X17082167Y5635554D01*
G01X17082167Y5618282D01*
G01X17076579Y5606852D01*
G01X17070737Y5601264D01*
G01X17053719Y5595422D01*
G01X17002157Y5595422D01*
G01X17170051Y5658414D02*
G01X17170051Y5538272D01*
G01X17129919Y5658414D02*
G01X17209929Y5658414D01*
G01X17257681Y5658414D02*
G01X17257681Y5538272D01*
G01X17337691Y5658414D02*
G01X17337691Y5538272D01*
G01X17257681Y5601264D02*
G01X17337691Y5601264D01*
G01X18543574Y5641142D02*
G01X18532144Y5652572D01*
G01X18515126Y5658414D01*
G01X18492266Y5658414D01*
G01X18474994Y5652572D01*
G01X18463564Y5641142D01*
G01X18463564Y5629712D01*
G01X18469406Y5618282D01*
G01X18474994Y5612694D01*
G01X18486424Y5606852D01*
G01X18520714Y5595422D01*
G01X18532144Y5589834D01*
G01X18537986Y5583992D01*
G01X18543574Y5572562D01*
G01X18543574Y5555544D01*
G01X18532144Y5544114D01*
G01X18515126Y5538272D01*
G01X18492266Y5538272D01*
G01X18474994Y5544114D01*
G01X18463564Y5555544D01*
G01X18591326Y5658414D02*
G01X18591326Y5538272D01*
G01X18667780Y5618282D02*
G01X18656350Y5612694D01*
G01X18644920Y5601264D01*
G01X18639078Y5583992D01*
G01X18639078Y5572562D01*
G01X18644920Y5555544D01*
G01X18656350Y5544114D01*
G01X18667780Y5538272D01*
G01X18684798Y5538272D01*
G01X18696228Y5544114D01*
G01X18707658Y5555544D01*
G01X18713500Y5572562D01*
G01X18713500Y5583992D01*
G01X18707658Y5601264D01*
G01X18696228Y5612694D01*
G01X18684798Y5618282D01*
G01X18667780Y5618282D01*
G01X18778524Y5658414D02*
G01X18778524Y5561132D01*
G01X18784112Y5544114D01*
G01X18795542Y5538272D01*
G01X18806972Y5538272D01*
G01X18761252Y5618282D02*
G01X18801384Y5618282D01*
G01X19894745Y5658414D02*
G01X19894745Y5538272D01*
G01X19894745Y5658414D02*
G01X19946307Y5658414D01*
G01X19963325Y5652572D01*
G01X19969167Y5646984D01*
G01X19974755Y5635554D01*
G01X19974755Y5618282D01*
G01X19969167Y5606852D01*
G01X19963325Y5601264D01*
G01X19946307Y5595422D01*
G01X19894745Y5595422D01*
G01X20091087Y5618282D02*
G01X20091087Y5538272D01*
G01X20091087Y5601264D02*
G01X20079657Y5612694D01*
G01X20068227Y5618282D01*
G01X20051209Y5618282D01*
G01X20039779Y5612694D01*
G01X20028349Y5601264D01*
G01X20022507Y5583992D01*
G01X20022507Y5572562D01*
G01X20028349Y5555544D01*
G01X20039779Y5544114D01*
G01X20051209Y5538272D01*
G01X20068227Y5538272D01*
G01X20079657Y5544114D01*
G01X20091087Y5555544D01*
G01X20207419Y5658414D02*
G01X20207419Y5538272D01*
G01X20207419Y5601264D02*
G01X20195989Y5612694D01*
G01X20184559Y5618282D01*
G01X20167541Y5618282D01*
G01X20156111Y5612694D01*
G01X20144681Y5601264D01*
G01X20138839Y5583992D01*
G01X20138839Y5572562D01*
G01X20144681Y5555544D01*
G01X20156111Y5544114D01*
G01X20167541Y5538272D01*
G01X20184559Y5538272D01*
G01X20195989Y5544114D01*
G01X20207419Y5555544D01*
G01X21598214Y5658414D02*
G01X21586784Y5652572D01*
G01X21575354Y5641142D01*
G01X21569766Y5629712D01*
G01X21563924Y5612694D01*
G01X21563924Y5583992D01*
G01X21569766Y5566974D01*
G01X21575354Y5555544D01*
G01X21586784Y5544114D01*
G01X21598214Y5538272D01*
G01X21621074Y5538272D01*
G01X21632504Y5544114D01*
G01X21643934Y5555544D01*
G01X21649776Y5566974D01*
G01X21655364Y5583992D01*
G01X21655364Y5612694D01*
G01X21649776Y5629712D01*
G01X21643934Y5641142D01*
G01X21632504Y5652572D01*
G01X21621074Y5658414D01*
G01X21598214Y5658414D01*
G01X21703116Y5618282D02*
G01X21737406Y5538272D01*
G01X21771696Y5618282D02*
G01X21737406Y5538272D01*
G01X21888028Y5618282D02*
G01X21888028Y5538272D01*
G01X21888028Y5601264D02*
G01X21876598Y5612694D01*
G01X21865168Y5618282D01*
G01X21848150Y5618282D01*
G01X21836720Y5612694D01*
G01X21825290Y5601264D01*
G01X21819448Y5583992D01*
G01X21819448Y5572562D01*
G01X21825290Y5555544D01*
G01X21836720Y5544114D01*
G01X21848150Y5538272D01*
G01X21865168Y5538272D01*
G01X21876598Y5544114D01*
G01X21888028Y5555544D01*
G01X21935780Y5658414D02*
G01X21935780Y5538272D01*
G01X23523425Y5658414D02*
G01X23523425Y5538272D01*
G01X23483293Y5658414D02*
G01X23563303Y5658414D01*
G01X23639757Y5618282D02*
G01X23628327Y5612694D01*
G01X23616897Y5601264D01*
G01X23611055Y5583992D01*
G01X23611055Y5572562D01*
G01X23616897Y5555544D01*
G01X23628327Y5544114D01*
G01X23639757Y5538272D01*
G01X23656775Y5538272D01*
G01X23668205Y5544114D01*
G01X23679635Y5555544D01*
G01X23685477Y5572562D01*
G01X23685477Y5583992D01*
G01X23679635Y5601264D01*
G01X23668205Y5612694D01*
G01X23656775Y5618282D01*
G01X23639757Y5618282D01*
G01X23733229Y5618282D02*
G01X23733229Y5498394D01*
G01X23733229Y5601264D02*
G01X23744659Y5612694D01*
G01X23756089Y5618282D01*
G01X23773361Y5618282D01*
G01X23784791Y5612694D01*
G01X23796221Y5601264D01*
G01X23801809Y5583992D01*
G01X23801809Y5572562D01*
G01X23796221Y5555544D01*
G01X23784791Y5544114D01*
G01X23773361Y5538272D01*
G01X23756089Y5538272D01*
G01X23744659Y5544114D01*
G01X23733229Y5555544D01*
G01X23977577Y5658414D02*
G01X23977577Y5538272D01*
G01X23977577Y5538272D02*
G01X24046157Y5538272D01*
G01X24162489Y5618282D02*
G01X24162489Y5538272D01*
G01X24162489Y5601264D02*
G01X24151059Y5612694D01*
G01X24139629Y5618282D01*
G01X24122611Y5618282D01*
G01X24111181Y5612694D01*
G01X24099751Y5601264D01*
G01X24093909Y5583992D01*
G01X24093909Y5572562D01*
G01X24099751Y5555544D01*
G01X24111181Y5544114D01*
G01X24122611Y5538272D01*
G01X24139629Y5538272D01*
G01X24151059Y5544114D01*
G01X24162489Y5555544D01*
G01X24216083Y5618282D02*
G01X24250373Y5538272D01*
G01X24284663Y5618282D02*
G01X24250373Y5538272D01*
G01X24238943Y5515412D01*
G01X24227513Y5503982D01*
G01X24216083Y5498394D01*
G01X24210241Y5498394D01*
G01X24332415Y5583992D02*
G01X24400995Y5583992D01*
G01X24400995Y5595422D01*
G01X24395407Y5606852D01*
G01X24389565Y5612694D01*
G01X24378135Y5618282D01*
G01X24361117Y5618282D01*
G01X24349687Y5612694D01*
G01X24338257Y5601264D01*
G01X24332415Y5583992D01*
G01X24332415Y5572562D01*
G01X24338257Y5555544D01*
G01X24349687Y5544114D01*
G01X24361117Y5538272D01*
G01X24378135Y5538272D01*
G01X24389565Y5544114D01*
G01X24400995Y5555544D01*
G01X24448747Y5618282D02*
G01X24448747Y5538272D01*
G01X24448747Y5583992D02*
G01X24454589Y5601264D01*
G01X24466019Y5612694D01*
G01X24477449Y5618282D01*
G01X24494467Y5618282D01*
G01X24542219Y5589834D02*
G01X24645089Y5589834D01*
G01X24692841Y5658414D02*
G01X24692841Y5538272D01*
G01X24692841Y5658414D02*
G01X24744403Y5658414D01*
G01X24761421Y5652572D01*
G01X24767263Y5646984D01*
G01X24772851Y5635554D01*
G01X24772851Y5624124D01*
G01X24767263Y5612694D01*
G01X24761421Y5606852D01*
G01X24744403Y5601264D01*
G01X24692841Y5601264D02*
G01X24744403Y5601264D01*
G01X24761421Y5595422D01*
G01X24767263Y5589834D01*
G01X24772851Y5578404D01*
G01X24772851Y5561132D01*
G01X24767263Y5549702D01*
G01X24761421Y5544114D01*
G01X24744403Y5538272D01*
G01X24692841Y5538272D01*
G01X24849305Y5618282D02*
G01X24837875Y5612694D01*
G01X24826445Y5601264D01*
G01X24820603Y5583992D01*
G01X24820603Y5572562D01*
G01X24826445Y5555544D01*
G01X24837875Y5544114D01*
G01X24849305Y5538272D01*
G01X24866323Y5538272D01*
G01X24877753Y5544114D01*
G01X24889183Y5555544D01*
G01X24895025Y5572562D01*
G01X24895025Y5583992D01*
G01X24889183Y5601264D01*
G01X24877753Y5612694D01*
G01X24866323Y5618282D01*
G01X24849305Y5618282D01*
G01X24960049Y5658414D02*
G01X24960049Y5561132D01*
G01X24965637Y5544114D01*
G01X24977067Y5538272D01*
G01X24988497Y5538272D01*
G01X24942777Y5618282D02*
G01X24982909Y5618282D01*
G01X25053521Y5658414D02*
G01X25053521Y5561132D01*
G01X25059109Y5544114D01*
G01X25070539Y5538272D01*
G01X25081969Y5538272D01*
G01X25036249Y5618282D02*
G01X25076381Y5618282D01*
G01X25158423Y5618282D02*
G01X25146993Y5612694D01*
G01X25135563Y5601264D01*
G01X25129721Y5583992D01*
G01X25129721Y5572562D01*
G01X25135563Y5555544D01*
G01X25146993Y5544114D01*
G01X25158423Y5538272D01*
G01X25175441Y5538272D01*
G01X25186871Y5544114D01*
G01X25198301Y5555544D01*
G01X25204143Y5572562D01*
G01X25204143Y5583992D01*
G01X25198301Y5601264D01*
G01X25186871Y5612694D01*
G01X25175441Y5618282D01*
G01X25158423Y5618282D01*
G01X25251895Y5618282D02*
G01X25251895Y5538272D01*
G01X25251895Y5595422D02*
G01X25269167Y5612694D01*
G01X25280597Y5618282D01*
G01X25297615Y5618282D01*
G01X25309045Y5612694D01*
G01X25314887Y5595422D01*
G01X25314887Y5538272D01*
G01X25314887Y5595422D02*
G01X25331905Y5612694D01*
G01X25343335Y5618282D01*
G01X25360607Y5618282D01*
G01X25372037Y5612694D01*
G01X25377625Y5595422D01*
G01X25377625Y5538272D01*
G01X25553393Y5658414D02*
G01X25553393Y5538272D01*
G01X25553393Y5538272D02*
G01X25621973Y5538272D01*
G01X25738305Y5618282D02*
G01X25738305Y5538272D01*
G01X25738305Y5601264D02*
G01X25726875Y5612694D01*
G01X25715445Y5618282D01*
G01X25698427Y5618282D01*
G01X25686997Y5612694D01*
G01X25675567Y5601264D01*
G01X25669725Y5583992D01*
G01X25669725Y5572562D01*
G01X25675567Y5555544D01*
G01X25686997Y5544114D01*
G01X25698427Y5538272D01*
G01X25715445Y5538272D01*
G01X25726875Y5544114D01*
G01X25738305Y5555544D01*
G01X25791899Y5618282D02*
G01X25826189Y5538272D01*
G01X25860479Y5618282D02*
G01X25826189Y5538272D01*
G01X25814759Y5515412D01*
G01X25803329Y5503982D01*
G01X25791899Y5498394D01*
G01X25786057Y5498394D01*
G01X25908231Y5583992D02*
G01X25976811Y5583992D01*
G01X25976811Y5595422D01*
G01X25971223Y5606852D01*
G01X25965381Y5612694D01*
G01X25953951Y5618282D01*
G01X25936933Y5618282D01*
G01X25925503Y5612694D01*
G01X25914073Y5601264D01*
G01X25908231Y5583992D01*
G01X25908231Y5572562D01*
G01X25914073Y5555544D01*
G01X25925503Y5544114D01*
G01X25936933Y5538272D01*
G01X25953951Y5538272D01*
G01X25965381Y5544114D01*
G01X25976811Y5555544D01*
G01X26024563Y5618282D02*
G01X26024563Y5538272D01*
G01X26024563Y5583992D02*
G01X26030405Y5601264D01*
G01X26041835Y5612694D01*
G01X26053265Y5618282D01*
G01X26070283Y5618282D01*
G01X11768705Y5060571D02*
G01X11763117Y5072001D01*
G01X11745845Y5077843D01*
G01X11734415Y5077843D01*
G01X11717397Y5072001D01*
G01X11705967Y5054983D01*
G01X11700125Y5026281D01*
G01X11700125Y4997833D01*
G01X11705967Y4974973D01*
G01X11717397Y4963543D01*
G01X11734415Y4957701D01*
G01X11740257Y4957701D01*
G01X11757275Y4963543D01*
G01X11768705Y4974973D01*
G01X11774547Y4991991D01*
G01X11774547Y4997833D01*
G01X11768705Y5014851D01*
G01X11757275Y5026281D01*
G01X11740257Y5032123D01*
G01X11734415Y5032123D01*
G01X11717397Y5026281D01*
G01X11705967Y5014851D01*
G01X11700125Y4997833D01*
G01X13120130Y5049141D02*
G01X13120130Y5054983D01*
G01X13125718Y5066413D01*
G01X13131560Y5072001D01*
G01X13142990Y5077843D01*
G01X13165850Y5077843D01*
G01X13177280Y5072001D01*
G01X13182868Y5066413D01*
G01X13188710Y5054983D01*
G01X13188710Y5043553D01*
G01X13182868Y5032123D01*
G01X13171438Y5014851D01*
G01X13114288Y4957701D01*
G01X13194298Y4957701D01*
G01X13322060Y5077843D02*
G01X13264910Y4957701D01*
G01X13242050Y5077843D02*
G01X13322060Y5077843D01*
G01X13375654Y4986403D02*
G01X13369812Y4980561D01*
G01X13375654Y4974973D01*
G01X13381242Y4980561D01*
G01X13375654Y4986403D01*
G01X13497574Y5060571D02*
G01X13491986Y5072001D01*
G01X13474714Y5077843D01*
G01X13463284Y5077843D01*
G01X13446266Y5072001D01*
G01X13434836Y5054983D01*
G01X13428994Y5026281D01*
G01X13428994Y4997833D01*
G01X13434836Y4974973D01*
G01X13446266Y4963543D01*
G01X13463284Y4957701D01*
G01X13469126Y4957701D01*
G01X13486144Y4963543D01*
G01X13497574Y4974973D01*
G01X13503416Y4991991D01*
G01X13503416Y4997833D01*
G01X13497574Y5014851D01*
G01X13486144Y5026281D01*
G01X13469126Y5032123D01*
G01X13463284Y5032123D01*
G01X13446266Y5026281D01*
G01X13434836Y5014851D01*
G01X13428994Y4997833D01*
G01X13551168Y5037711D02*
G01X13551168Y4957701D01*
G01X13551168Y5014851D02*
G01X13568440Y5032123D01*
G01X13579870Y5037711D01*
G01X13596888Y5037711D01*
G01X13608318Y5032123D01*
G01X13614160Y5014851D01*
G01X13614160Y4957701D01*
G01X13614160Y5014851D02*
G01X13631178Y5032123D01*
G01X13642608Y5037711D01*
G01X13659880Y5037711D01*
G01X13671310Y5032123D01*
G01X13676898Y5014851D01*
G01X13676898Y4957701D01*
G01X13724650Y5077843D02*
G01X13730492Y5072001D01*
G01X13736080Y5077843D01*
G01X13730492Y5083431D01*
G01X13724650Y5077843D01*
G01X13730492Y5037711D02*
G01X13730492Y4957701D01*
G01X13783832Y5077843D02*
G01X13783832Y4957701D01*
G01X13871716Y5100703D02*
G01X13860286Y5089273D01*
G01X13848856Y5072001D01*
G01X13837426Y5049141D01*
G01X13831584Y5020693D01*
G01X13831584Y4997833D01*
G01X13837426Y4969131D01*
G01X13848856Y4946271D01*
G01X13860286Y4929253D01*
G01X13871716Y4917823D01*
G01X13953758Y5077843D02*
G01X13936740Y5072001D01*
G01X13925310Y5054983D01*
G01X13919468Y5026281D01*
G01X13919468Y5009263D01*
G01X13925310Y4980561D01*
G01X13936740Y4963543D01*
G01X13953758Y4957701D01*
G01X13965188Y4957701D01*
G01X13982460Y4963543D01*
G01X13993890Y4980561D01*
G01X13999478Y5009263D01*
G01X13999478Y5026281D01*
G01X13993890Y5054983D01*
G01X13982460Y5072001D01*
G01X13965188Y5077843D01*
G01X13953758Y5077843D01*
G01X14053072Y4986403D02*
G01X14047230Y4980561D01*
G01X14053072Y4974973D01*
G01X14058660Y4980561D01*
G01X14053072Y4986403D01*
G01X14186422Y5077843D02*
G01X14129272Y4957701D01*
G01X14106412Y5077843D02*
G01X14186422Y5077843D01*
G01X14268464Y5077843D02*
G01X14251446Y5072001D01*
G01X14240016Y5054983D01*
G01X14234174Y5026281D01*
G01X14234174Y5009263D01*
G01X14240016Y4980561D01*
G01X14251446Y4963543D01*
G01X14268464Y4957701D01*
G01X14279894Y4957701D01*
G01X14297166Y4963543D01*
G01X14308596Y4980561D01*
G01X14314184Y5009263D01*
G01X14314184Y5026281D01*
G01X14308596Y5054983D01*
G01X14297166Y5072001D01*
G01X14279894Y5077843D01*
G01X14268464Y5077843D01*
G01X14396226Y5077843D02*
G01X14379208Y5072001D01*
G01X14367778Y5054983D01*
G01X14361936Y5026281D01*
G01X14361936Y5009263D01*
G01X14367778Y4980561D01*
G01X14379208Y4963543D01*
G01X14396226Y4957701D01*
G01X14407656Y4957701D01*
G01X14424928Y4963543D01*
G01X14436358Y4980561D01*
G01X14441946Y5009263D01*
G01X14441946Y5026281D01*
G01X14436358Y5054983D01*
G01X14424928Y5072001D01*
G01X14407656Y5077843D01*
G01X14396226Y5077843D01*
G01X14489698Y5037711D02*
G01X14489698Y4957701D01*
G01X14489698Y5014851D02*
G01X14506970Y5032123D01*
G01X14518400Y5037711D01*
G01X14535418Y5037711D01*
G01X14546848Y5032123D01*
G01X14552690Y5014851D01*
G01X14552690Y4957701D01*
G01X14552690Y5014851D02*
G01X14569708Y5032123D01*
G01X14581138Y5037711D01*
G01X14598410Y5037711D01*
G01X14609840Y5032123D01*
G01X14615428Y5014851D01*
G01X14615428Y4957701D01*
G01X14663180Y5037711D02*
G01X14663180Y4957701D01*
G01X14663180Y5014851D02*
G01X14680452Y5032123D01*
G01X14691882Y5037711D01*
G01X14708900Y5037711D01*
G01X14720330Y5032123D01*
G01X14726172Y5014851D01*
G01X14726172Y4957701D01*
G01X14726172Y5014851D02*
G01X14743190Y5032123D01*
G01X14754620Y5037711D01*
G01X14771892Y5037711D01*
G01X14783322Y5032123D01*
G01X14788910Y5014851D01*
G01X14788910Y4957701D01*
G01X14836662Y5100703D02*
G01X14848092Y5089273D01*
G01X14859522Y5072001D01*
G01X14870952Y5049141D01*
G01X14876794Y5020693D01*
G01X14876794Y4997833D01*
G01X14870952Y4969131D01*
G01X14859522Y4946271D01*
G01X14848092Y4929253D01*
G01X14836662Y4917823D01*
G01X17002157Y5077843D02*
G01X17002157Y4957701D01*
G01X17002157Y5077843D02*
G01X17082167Y4957701D01*
G01X17082167Y5077843D02*
G01X17082167Y4957701D01*
G01X17129919Y5077843D02*
G01X17129919Y4957701D01*
G01X17129919Y5077843D02*
G01X17181481Y5077843D01*
G01X17198499Y5072001D01*
G01X17204341Y5066413D01*
G01X17209929Y5054983D01*
G01X17209929Y5037711D01*
G01X17204341Y5026281D01*
G01X17198499Y5020693D01*
G01X17181481Y5014851D01*
G01X17129919Y5014851D01*
G01X17297813Y5077843D02*
G01X17297813Y4957701D01*
G01X17257681Y5077843D02*
G01X17337691Y5077843D01*
G01X17385443Y5077843D02*
G01X17385443Y4957701D01*
G01X17465453Y5077843D02*
G01X17465453Y4957701D01*
G01X17385443Y5020693D02*
G01X17465453Y5020693D01*
G01X18463564Y5077843D02*
G01X18463564Y4957701D01*
G01X18463564Y5077843D02*
G01X18515126Y5077843D01*
G01X18532144Y5072001D01*
G01X18537986Y5066413D01*
G01X18543574Y5054983D01*
G01X18543574Y5043553D01*
G01X18537986Y5032123D01*
G01X18532144Y5026281D01*
G01X18515126Y5020693D01*
G01X18463564Y5020693D01*
G01X18503696Y5020693D02*
G01X18543574Y4957701D01*
G01X18620028Y5037711D02*
G01X18608598Y5032123D01*
G01X18597168Y5020693D01*
G01X18591326Y5003421D01*
G01X18591326Y4991991D01*
G01X18597168Y4974973D01*
G01X18608598Y4963543D01*
G01X18620028Y4957701D01*
G01X18637046Y4957701D01*
G01X18648476Y4963543D01*
G01X18659906Y4974973D01*
G01X18665748Y4991991D01*
G01X18665748Y5003421D01*
G01X18659906Y5020693D01*
G01X18648476Y5032123D01*
G01X18637046Y5037711D01*
G01X18620028Y5037711D01*
G01X18713500Y5037711D02*
G01X18713500Y4980561D01*
G01X18719342Y4963543D01*
G01X18730772Y4957701D01*
G01X18747790Y4957701D01*
G01X18759220Y4963543D01*
G01X18776492Y4980561D01*
G01X18776492Y5037711D02*
G01X18776492Y4957701D01*
G01X18824244Y5037711D02*
G01X18824244Y4957701D01*
G01X18824244Y5014851D02*
G01X18841516Y5032123D01*
G01X18852946Y5037711D01*
G01X18869964Y5037711D01*
G01X18881394Y5032123D01*
G01X18887236Y5014851D01*
G01X18887236Y4957701D01*
G01X19003568Y5077843D02*
G01X19003568Y4957701D01*
G01X19003568Y5020693D02*
G01X18992138Y5032123D01*
G01X18980708Y5037711D01*
G01X18963690Y5037711D01*
G01X18952260Y5032123D01*
G01X18940830Y5020693D01*
G01X18934988Y5003421D01*
G01X18934988Y4991991D01*
G01X18940830Y4974973D01*
G01X18952260Y4963543D01*
G01X18963690Y4957701D01*
G01X18980708Y4957701D01*
G01X18992138Y4963543D01*
G01X19003568Y4974973D01*
G01X19894745Y5077843D02*
G01X19940465Y4957701D01*
G01X19986185Y5077843D02*
G01X19940465Y4957701D01*
G01X20033937Y5077843D02*
G01X20039779Y5072001D01*
G01X20045367Y5077843D01*
G01X20039779Y5083431D01*
G01X20033937Y5077843D01*
G01X20039779Y5037711D02*
G01X20039779Y4957701D01*
G01X20161699Y5037711D02*
G01X20161699Y4957701D01*
G01X20161699Y5020693D02*
G01X20150269Y5032123D01*
G01X20138839Y5037711D01*
G01X20121821Y5037711D01*
G01X20110391Y5032123D01*
G01X20098961Y5020693D01*
G01X20093119Y5003421D01*
G01X20093119Y4991991D01*
G01X20098961Y4974973D01*
G01X20110391Y4963543D01*
G01X20121821Y4957701D01*
G01X20138839Y4957701D01*
G01X20150269Y4963543D01*
G01X20161699Y4974973D01*
G01X23523425Y5077843D02*
G01X23523425Y4957701D01*
G01X23483293Y5077843D02*
G01X23563303Y5077843D01*
G01X23639757Y5037711D02*
G01X23628327Y5032123D01*
G01X23616897Y5020693D01*
G01X23611055Y5003421D01*
G01X23611055Y4991991D01*
G01X23616897Y4974973D01*
G01X23628327Y4963543D01*
G01X23639757Y4957701D01*
G01X23656775Y4957701D01*
G01X23668205Y4963543D01*
G01X23679635Y4974973D01*
G01X23685477Y4991991D01*
G01X23685477Y5003421D01*
G01X23679635Y5020693D01*
G01X23668205Y5032123D01*
G01X23656775Y5037711D01*
G01X23639757Y5037711D01*
G01X23733229Y5037711D02*
G01X23733229Y4917823D01*
G01X23733229Y5020693D02*
G01X23744659Y5032123D01*
G01X23756089Y5037711D01*
G01X23773361Y5037711D01*
G01X23784791Y5032123D01*
G01X23796221Y5020693D01*
G01X23801809Y5003421D01*
G01X23801809Y4991991D01*
G01X23796221Y4974973D01*
G01X23784791Y4963543D01*
G01X23773361Y4957701D01*
G01X23756089Y4957701D01*
G01X23744659Y4963543D01*
G01X23733229Y4974973D01*
G01X23977577Y5077843D02*
G01X23977577Y4957701D01*
G01X23977577Y4957701D02*
G01X24046157Y4957701D01*
G01X24162489Y5037711D02*
G01X24162489Y4957701D01*
G01X24162489Y5020693D02*
G01X24151059Y5032123D01*
G01X24139629Y5037711D01*
G01X24122611Y5037711D01*
G01X24111181Y5032123D01*
G01X24099751Y5020693D01*
G01X24093909Y5003421D01*
G01X24093909Y4991991D01*
G01X24099751Y4974973D01*
G01X24111181Y4963543D01*
G01X24122611Y4957701D01*
G01X24139629Y4957701D01*
G01X24151059Y4963543D01*
G01X24162489Y4974973D01*
G01X24216083Y5037711D02*
G01X24250373Y4957701D01*
G01X24284663Y5037711D02*
G01X24250373Y4957701D01*
G01X24238943Y4934841D01*
G01X24227513Y4923411D01*
G01X24216083Y4917823D01*
G01X24210241Y4917823D01*
G01X24332415Y5003421D02*
G01X24400995Y5003421D01*
G01X24400995Y5014851D01*
G01X24395407Y5026281D01*
G01X24389565Y5032123D01*
G01X24378135Y5037711D01*
G01X24361117Y5037711D01*
G01X24349687Y5032123D01*
G01X24338257Y5020693D01*
G01X24332415Y5003421D01*
G01X24332415Y4991991D01*
G01X24338257Y4974973D01*
G01X24349687Y4963543D01*
G01X24361117Y4957701D01*
G01X24378135Y4957701D01*
G01X24389565Y4963543D01*
G01X24400995Y4974973D01*
G01X24448747Y5037711D02*
G01X24448747Y4957701D01*
G01X24448747Y5003421D02*
G01X24454589Y5020693D01*
G01X24466019Y5032123D01*
G01X24477449Y5037711D01*
G01X24494467Y5037711D01*
G01X24542219Y5009263D02*
G01X24645089Y5009263D01*
G01X24692841Y5077843D02*
G01X24692841Y4957701D01*
G01X24692841Y5077843D02*
G01X24744403Y5077843D01*
G01X24761421Y5072001D01*
G01X24767263Y5066413D01*
G01X24772851Y5054983D01*
G01X24772851Y5043553D01*
G01X24767263Y5032123D01*
G01X24761421Y5026281D01*
G01X24744403Y5020693D01*
G01X24692841Y5020693D02*
G01X24744403Y5020693D01*
G01X24761421Y5014851D01*
G01X24767263Y5009263D01*
G01X24772851Y4997833D01*
G01X24772851Y4980561D01*
G01X24767263Y4969131D01*
G01X24761421Y4963543D01*
G01X24744403Y4957701D01*
G01X24692841Y4957701D01*
G01X24849305Y5037711D02*
G01X24837875Y5032123D01*
G01X24826445Y5020693D01*
G01X24820603Y5003421D01*
G01X24820603Y4991991D01*
G01X24826445Y4974973D01*
G01X24837875Y4963543D01*
G01X24849305Y4957701D01*
G01X24866323Y4957701D01*
G01X24877753Y4963543D01*
G01X24889183Y4974973D01*
G01X24895025Y4991991D01*
G01X24895025Y5003421D01*
G01X24889183Y5020693D01*
G01X24877753Y5032123D01*
G01X24866323Y5037711D01*
G01X24849305Y5037711D01*
G01X24960049Y5077843D02*
G01X24960049Y4980561D01*
G01X24965637Y4963543D01*
G01X24977067Y4957701D01*
G01X24988497Y4957701D01*
G01X24942777Y5037711D02*
G01X24982909Y5037711D01*
G01X25053521Y5077843D02*
G01X25053521Y4980561D01*
G01X25059109Y4963543D01*
G01X25070539Y4957701D01*
G01X25081969Y4957701D01*
G01X25036249Y5037711D02*
G01X25076381Y5037711D01*
G01X25158423Y5037711D02*
G01X25146993Y5032123D01*
G01X25135563Y5020693D01*
G01X25129721Y5003421D01*
G01X25129721Y4991991D01*
G01X25135563Y4974973D01*
G01X25146993Y4963543D01*
G01X25158423Y4957701D01*
G01X25175441Y4957701D01*
G01X25186871Y4963543D01*
G01X25198301Y4974973D01*
G01X25204143Y4991991D01*
G01X25204143Y5003421D01*
G01X25198301Y5020693D01*
G01X25186871Y5032123D01*
G01X25175441Y5037711D01*
G01X25158423Y5037711D01*
G01X25251895Y5037711D02*
G01X25251895Y4957701D01*
G01X25251895Y5014851D02*
G01X25269167Y5032123D01*
G01X25280597Y5037711D01*
G01X25297615Y5037711D01*
G01X25309045Y5032123D01*
G01X25314887Y5014851D01*
G01X25314887Y4957701D01*
G01X25314887Y5014851D02*
G01X25331905Y5032123D01*
G01X25343335Y5037711D01*
G01X25360607Y5037711D01*
G01X25372037Y5032123D01*
G01X25377625Y5014851D01*
G01X25377625Y4957701D01*
G01X25553393Y5077843D02*
G01X25553393Y4957701D01*
G01X25553393Y4957701D02*
G01X25621973Y4957701D01*
G01X25738305Y5037711D02*
G01X25738305Y4957701D01*
G01X25738305Y5020693D02*
G01X25726875Y5032123D01*
G01X25715445Y5037711D01*
G01X25698427Y5037711D01*
G01X25686997Y5032123D01*
G01X25675567Y5020693D01*
G01X25669725Y5003421D01*
G01X25669725Y4991991D01*
G01X25675567Y4974973D01*
G01X25686997Y4963543D01*
G01X25698427Y4957701D01*
G01X25715445Y4957701D01*
G01X25726875Y4963543D01*
G01X25738305Y4974973D01*
G01X25791899Y5037711D02*
G01X25826189Y4957701D01*
G01X25860479Y5037711D02*
G01X25826189Y4957701D01*
G01X25814759Y4934841D01*
G01X25803329Y4923411D01*
G01X25791899Y4917823D01*
G01X25786057Y4917823D01*
G01X25908231Y5003421D02*
G01X25976811Y5003421D01*
G01X25976811Y5014851D01*
G01X25971223Y5026281D01*
G01X25965381Y5032123D01*
G01X25953951Y5037711D01*
G01X25936933Y5037711D01*
G01X25925503Y5032123D01*
G01X25914073Y5020693D01*
G01X25908231Y5003421D01*
G01X25908231Y4991991D01*
G01X25914073Y4974973D01*
G01X25925503Y4963543D01*
G01X25936933Y4957701D01*
G01X25953951Y4957701D01*
G01X25965381Y4963543D01*
G01X25976811Y4974973D01*
G01X26024563Y5037711D02*
G01X26024563Y4957701D01*
G01X26024563Y5003421D02*
G01X26030405Y5020693D01*
G01X26041835Y5032123D01*
G01X26053265Y5037711D01*
G01X26070283Y5037711D01*
G01X11780135Y4497272D02*
G01X11722985Y4377130D01*
G01X11700125Y4497272D02*
G01X11780135Y4497272D01*
G01X13142990Y4497272D02*
G01X13125718Y4491430D01*
G01X13120130Y4480000D01*
G01X13120130Y4468570D01*
G01X13125718Y4457140D01*
G01X13137148Y4451552D01*
G01X13160008Y4445710D01*
G01X13177280Y4440122D01*
G01X13188710Y4428692D01*
G01X13194298Y4417262D01*
G01X13194298Y4399990D01*
G01X13188710Y4388560D01*
G01X13182868Y4382972D01*
G01X13165850Y4377130D01*
G01X13142990Y4377130D01*
G01X13125718Y4382972D01*
G01X13120130Y4388560D01*
G01X13114288Y4399990D01*
G01X13114288Y4417262D01*
G01X13120130Y4428692D01*
G01X13131560Y4440122D01*
G01X13148578Y4445710D01*
G01X13171438Y4451552D01*
G01X13182868Y4457140D01*
G01X13188710Y4468570D01*
G01X13188710Y4480000D01*
G01X13182868Y4491430D01*
G01X13165850Y4497272D01*
G01X13142990Y4497272D01*
G01X13310630Y4480000D02*
G01X13305042Y4491430D01*
G01X13287770Y4497272D01*
G01X13276340Y4497272D01*
G01X13259322Y4491430D01*
G01X13247892Y4474412D01*
G01X13242050Y4445710D01*
G01X13242050Y4417262D01*
G01X13247892Y4394402D01*
G01X13259322Y4382972D01*
G01X13276340Y4377130D01*
G01X13282182Y4377130D01*
G01X13299200Y4382972D01*
G01X13310630Y4394402D01*
G01X13316472Y4411420D01*
G01X13316472Y4417262D01*
G01X13310630Y4434280D01*
G01X13299200Y4445710D01*
G01X13282182Y4451552D01*
G01X13276340Y4451552D01*
G01X13259322Y4445710D01*
G01X13247892Y4434280D01*
G01X13242050Y4417262D01*
G01X13370066Y4405832D02*
G01X13364224Y4399990D01*
G01X13370066Y4394402D01*
G01X13375654Y4399990D01*
G01X13370066Y4405832D01*
G01X13491986Y4480000D02*
G01X13486398Y4491430D01*
G01X13469126Y4497272D01*
G01X13457696Y4497272D01*
G01X13440678Y4491430D01*
G01X13429248Y4474412D01*
G01X13423406Y4445710D01*
G01X13423406Y4417262D01*
G01X13429248Y4394402D01*
G01X13440678Y4382972D01*
G01X13457696Y4377130D01*
G01X13463538Y4377130D01*
G01X13480556Y4382972D01*
G01X13491986Y4394402D01*
G01X13497828Y4411420D01*
G01X13497828Y4417262D01*
G01X13491986Y4434280D01*
G01X13480556Y4445710D01*
G01X13463538Y4451552D01*
G01X13457696Y4451552D01*
G01X13440678Y4445710D01*
G01X13429248Y4434280D01*
G01X13423406Y4417262D01*
G01X13545580Y4457140D02*
G01X13545580Y4377130D01*
G01X13545580Y4434280D02*
G01X13562852Y4451552D01*
G01X13574282Y4457140D01*
G01X13591300Y4457140D01*
G01X13602730Y4451552D01*
G01X13608572Y4434280D01*
G01X13608572Y4377130D01*
G01X13608572Y4434280D02*
G01X13625590Y4451552D01*
G01X13637020Y4457140D01*
G01X13654292Y4457140D01*
G01X13665722Y4451552D01*
G01X13671310Y4434280D01*
G01X13671310Y4377130D01*
G01X13719062Y4497272D02*
G01X13724904Y4491430D01*
G01X13730492Y4497272D01*
G01X13724904Y4502860D01*
G01X13719062Y4497272D01*
G01X13724904Y4457140D02*
G01X13724904Y4377130D01*
G01X13778244Y4497272D02*
G01X13778244Y4377130D01*
G01X13866128Y4520132D02*
G01X13854698Y4508702D01*
G01X13843268Y4491430D01*
G01X13831838Y4468570D01*
G01X13825996Y4440122D01*
G01X13825996Y4417262D01*
G01X13831838Y4388560D01*
G01X13843268Y4365700D01*
G01X13854698Y4348682D01*
G01X13866128Y4337252D01*
G01X13919722Y4468570D02*
G01X13919722Y4474412D01*
G01X13925310Y4485842D01*
G01X13931152Y4491430D01*
G01X13942582Y4497272D01*
G01X13965442Y4497272D01*
G01X13976872Y4491430D01*
G01X13982460Y4485842D01*
G01X13988302Y4474412D01*
G01X13988302Y4462982D01*
G01X13982460Y4451552D01*
G01X13971030Y4434280D01*
G01X13913880Y4377130D01*
G01X13993890Y4377130D01*
G01X14047484Y4405832D02*
G01X14041642Y4399990D01*
G01X14047484Y4394402D01*
G01X14053072Y4399990D01*
G01X14047484Y4405832D01*
G01X14106666Y4468570D02*
G01X14106666Y4474412D01*
G01X14112254Y4485842D01*
G01X14118096Y4491430D01*
G01X14129526Y4497272D01*
G01X14152386Y4497272D01*
G01X14163816Y4491430D01*
G01X14169404Y4485842D01*
G01X14175246Y4474412D01*
G01X14175246Y4462982D01*
G01X14169404Y4451552D01*
G01X14157974Y4434280D01*
G01X14100824Y4377130D01*
G01X14180834Y4377130D01*
G01X14262876Y4497272D02*
G01X14245858Y4491430D01*
G01X14234428Y4474412D01*
G01X14228586Y4445710D01*
G01X14228586Y4428692D01*
G01X14234428Y4399990D01*
G01X14245858Y4382972D01*
G01X14262876Y4377130D01*
G01X14274306Y4377130D01*
G01X14291578Y4382972D01*
G01X14303008Y4399990D01*
G01X14308596Y4428692D01*
G01X14308596Y4445710D01*
G01X14303008Y4474412D01*
G01X14291578Y4491430D01*
G01X14274306Y4497272D01*
G01X14262876Y4497272D01*
G01X14390638Y4497272D02*
G01X14373620Y4491430D01*
G01X14362190Y4474412D01*
G01X14356348Y4445710D01*
G01X14356348Y4428692D01*
G01X14362190Y4399990D01*
G01X14373620Y4382972D01*
G01X14390638Y4377130D01*
G01X14402068Y4377130D01*
G01X14419340Y4382972D01*
G01X14430770Y4399990D01*
G01X14436358Y4428692D01*
G01X14436358Y4445710D01*
G01X14430770Y4474412D01*
G01X14419340Y4491430D01*
G01X14402068Y4497272D01*
G01X14390638Y4497272D01*
G01X14484110Y4457140D02*
G01X14484110Y4377130D01*
G01X14484110Y4434280D02*
G01X14501382Y4451552D01*
G01X14512812Y4457140D01*
G01X14529830Y4457140D01*
G01X14541260Y4451552D01*
G01X14547102Y4434280D01*
G01X14547102Y4377130D01*
G01X14547102Y4434280D02*
G01X14564120Y4451552D01*
G01X14575550Y4457140D01*
G01X14592822Y4457140D01*
G01X14604252Y4451552D01*
G01X14609840Y4434280D01*
G01X14609840Y4377130D01*
G01X14657592Y4457140D02*
G01X14657592Y4377130D01*
G01X14657592Y4434280D02*
G01X14674864Y4451552D01*
G01X14686294Y4457140D01*
G01X14703312Y4457140D01*
G01X14714742Y4451552D01*
G01X14720584Y4434280D01*
G01X14720584Y4377130D01*
G01X14720584Y4434280D02*
G01X14737602Y4451552D01*
G01X14749032Y4457140D01*
G01X14766304Y4457140D01*
G01X14777734Y4451552D01*
G01X14783322Y4434280D01*
G01X14783322Y4377130D01*
G01X14831074Y4520132D02*
G01X14842504Y4508702D01*
G01X14853934Y4491430D01*
G01X14865364Y4468570D01*
G01X14871206Y4440122D01*
G01X14871206Y4417262D01*
G01X14865364Y4388560D01*
G01X14853934Y4365700D01*
G01X14842504Y4348682D01*
G01X14831074Y4337252D01*
G01X17002157Y4497272D02*
G01X17002157Y4377130D01*
G01X17002157Y4497272D02*
G01X17082167Y4377130D01*
G01X17082167Y4497272D02*
G01X17082167Y4377130D01*
G01X17129919Y4497272D02*
G01X17129919Y4377130D01*
G01X17129919Y4497272D02*
G01X17181481Y4497272D01*
G01X17198499Y4491430D01*
G01X17204341Y4485842D01*
G01X17209929Y4474412D01*
G01X17209929Y4457140D01*
G01X17204341Y4445710D01*
G01X17198499Y4440122D01*
G01X17181481Y4434280D01*
G01X17129919Y4434280D01*
G01X17297813Y4497272D02*
G01X17297813Y4377130D01*
G01X17257681Y4497272D02*
G01X17337691Y4497272D01*
G01X17385443Y4497272D02*
G01X17385443Y4377130D01*
G01X17465453Y4497272D02*
G01X17465453Y4377130D01*
G01X17385443Y4440122D02*
G01X17465453Y4440122D01*
G01X18463564Y4497272D02*
G01X18463564Y4377130D01*
G01X18463564Y4497272D02*
G01X18515126Y4497272D01*
G01X18532144Y4491430D01*
G01X18537986Y4485842D01*
G01X18543574Y4474412D01*
G01X18543574Y4462982D01*
G01X18537986Y4451552D01*
G01X18532144Y4445710D01*
G01X18515126Y4440122D01*
G01X18463564Y4440122D01*
G01X18503696Y4440122D02*
G01X18543574Y4377130D01*
G01X18620028Y4457140D02*
G01X18608598Y4451552D01*
G01X18597168Y4440122D01*
G01X18591326Y4422850D01*
G01X18591326Y4411420D01*
G01X18597168Y4394402D01*
G01X18608598Y4382972D01*
G01X18620028Y4377130D01*
G01X18637046Y4377130D01*
G01X18648476Y4382972D01*
G01X18659906Y4394402D01*
G01X18665748Y4411420D01*
G01X18665748Y4422850D01*
G01X18659906Y4440122D01*
G01X18648476Y4451552D01*
G01X18637046Y4457140D01*
G01X18620028Y4457140D01*
G01X18713500Y4457140D02*
G01X18713500Y4399990D01*
G01X18719342Y4382972D01*
G01X18730772Y4377130D01*
G01X18747790Y4377130D01*
G01X18759220Y4382972D01*
G01X18776492Y4399990D01*
G01X18776492Y4457140D02*
G01X18776492Y4377130D01*
G01X18824244Y4457140D02*
G01X18824244Y4377130D01*
G01X18824244Y4434280D02*
G01X18841516Y4451552D01*
G01X18852946Y4457140D01*
G01X18869964Y4457140D01*
G01X18881394Y4451552D01*
G01X18887236Y4434280D01*
G01X18887236Y4377130D01*
G01X19003568Y4497272D02*
G01X19003568Y4377130D01*
G01X19003568Y4440122D02*
G01X18992138Y4451552D01*
G01X18980708Y4457140D01*
G01X18963690Y4457140D01*
G01X18952260Y4451552D01*
G01X18940830Y4440122D01*
G01X18934988Y4422850D01*
G01X18934988Y4411420D01*
G01X18940830Y4394402D01*
G01X18952260Y4382972D01*
G01X18963690Y4377130D01*
G01X18980708Y4377130D01*
G01X18992138Y4382972D01*
G01X19003568Y4394402D01*
G01X19894745Y4497272D02*
G01X19940465Y4377130D01*
G01X19986185Y4497272D02*
G01X19940465Y4377130D01*
G01X20033937Y4497272D02*
G01X20039779Y4491430D01*
G01X20045367Y4497272D01*
G01X20039779Y4502860D01*
G01X20033937Y4497272D01*
G01X20039779Y4457140D02*
G01X20039779Y4377130D01*
G01X20161699Y4457140D02*
G01X20161699Y4377130D01*
G01X20161699Y4440122D02*
G01X20150269Y4451552D01*
G01X20138839Y4457140D01*
G01X20121821Y4457140D01*
G01X20110391Y4451552D01*
G01X20098961Y4440122D01*
G01X20093119Y4422850D01*
G01X20093119Y4411420D01*
G01X20098961Y4394402D01*
G01X20110391Y4382972D01*
G01X20121821Y4377130D01*
G01X20138839Y4377130D01*
G01X20150269Y4382972D01*
G01X20161699Y4394402D01*
G01X23523425Y4497272D02*
G01X23523425Y4377130D01*
G01X23483293Y4497272D02*
G01X23563303Y4497272D01*
G01X23639757Y4457140D02*
G01X23628327Y4451552D01*
G01X23616897Y4440122D01*
G01X23611055Y4422850D01*
G01X23611055Y4411420D01*
G01X23616897Y4394402D01*
G01X23628327Y4382972D01*
G01X23639757Y4377130D01*
G01X23656775Y4377130D01*
G01X23668205Y4382972D01*
G01X23679635Y4394402D01*
G01X23685477Y4411420D01*
G01X23685477Y4422850D01*
G01X23679635Y4440122D01*
G01X23668205Y4451552D01*
G01X23656775Y4457140D01*
G01X23639757Y4457140D01*
G01X23733229Y4457140D02*
G01X23733229Y4337252D01*
G01X23733229Y4440122D02*
G01X23744659Y4451552D01*
G01X23756089Y4457140D01*
G01X23773361Y4457140D01*
G01X23784791Y4451552D01*
G01X23796221Y4440122D01*
G01X23801809Y4422850D01*
G01X23801809Y4411420D01*
G01X23796221Y4394402D01*
G01X23784791Y4382972D01*
G01X23773361Y4377130D01*
G01X23756089Y4377130D01*
G01X23744659Y4382972D01*
G01X23733229Y4394402D01*
G01X23977577Y4497272D02*
G01X23977577Y4377130D01*
G01X23977577Y4377130D02*
G01X24046157Y4377130D01*
G01X24162489Y4457140D02*
G01X24162489Y4377130D01*
G01X24162489Y4440122D02*
G01X24151059Y4451552D01*
G01X24139629Y4457140D01*
G01X24122611Y4457140D01*
G01X24111181Y4451552D01*
G01X24099751Y4440122D01*
G01X24093909Y4422850D01*
G01X24093909Y4411420D01*
G01X24099751Y4394402D01*
G01X24111181Y4382972D01*
G01X24122611Y4377130D01*
G01X24139629Y4377130D01*
G01X24151059Y4382972D01*
G01X24162489Y4394402D01*
G01X24216083Y4457140D02*
G01X24250373Y4377130D01*
G01X24284663Y4457140D02*
G01X24250373Y4377130D01*
G01X24238943Y4354270D01*
G01X24227513Y4342840D01*
G01X24216083Y4337252D01*
G01X24210241Y4337252D01*
G01X24332415Y4422850D02*
G01X24400995Y4422850D01*
G01X24400995Y4434280D01*
G01X24395407Y4445710D01*
G01X24389565Y4451552D01*
G01X24378135Y4457140D01*
G01X24361117Y4457140D01*
G01X24349687Y4451552D01*
G01X24338257Y4440122D01*
G01X24332415Y4422850D01*
G01X24332415Y4411420D01*
G01X24338257Y4394402D01*
G01X24349687Y4382972D01*
G01X24361117Y4377130D01*
G01X24378135Y4377130D01*
G01X24389565Y4382972D01*
G01X24400995Y4394402D01*
G01X24448747Y4457140D02*
G01X24448747Y4377130D01*
G01X24448747Y4422850D02*
G01X24454589Y4440122D01*
G01X24466019Y4451552D01*
G01X24477449Y4457140D01*
G01X24494467Y4457140D01*
G01X24542219Y4428692D02*
G01X24645089Y4428692D01*
G01X24692841Y4497272D02*
G01X24692841Y4377130D01*
G01X24692841Y4497272D02*
G01X24744403Y4497272D01*
G01X24761421Y4491430D01*
G01X24767263Y4485842D01*
G01X24772851Y4474412D01*
G01X24772851Y4462982D01*
G01X24767263Y4451552D01*
G01X24761421Y4445710D01*
G01X24744403Y4440122D01*
G01X24692841Y4440122D02*
G01X24744403Y4440122D01*
G01X24761421Y4434280D01*
G01X24767263Y4428692D01*
G01X24772851Y4417262D01*
G01X24772851Y4399990D01*
G01X24767263Y4388560D01*
G01X24761421Y4382972D01*
G01X24744403Y4377130D01*
G01X24692841Y4377130D01*
G01X24849305Y4457140D02*
G01X24837875Y4451552D01*
G01X24826445Y4440122D01*
G01X24820603Y4422850D01*
G01X24820603Y4411420D01*
G01X24826445Y4394402D01*
G01X24837875Y4382972D01*
G01X24849305Y4377130D01*
G01X24866323Y4377130D01*
G01X24877753Y4382972D01*
G01X24889183Y4394402D01*
G01X24895025Y4411420D01*
G01X24895025Y4422850D01*
G01X24889183Y4440122D01*
G01X24877753Y4451552D01*
G01X24866323Y4457140D01*
G01X24849305Y4457140D01*
G01X24960049Y4497272D02*
G01X24960049Y4399990D01*
G01X24965637Y4382972D01*
G01X24977067Y4377130D01*
G01X24988497Y4377130D01*
G01X24942777Y4457140D02*
G01X24982909Y4457140D01*
G01X25053521Y4497272D02*
G01X25053521Y4399990D01*
G01X25059109Y4382972D01*
G01X25070539Y4377130D01*
G01X25081969Y4377130D01*
G01X25036249Y4457140D02*
G01X25076381Y4457140D01*
G01X25158423Y4457140D02*
G01X25146993Y4451552D01*
G01X25135563Y4440122D01*
G01X25129721Y4422850D01*
G01X25129721Y4411420D01*
G01X25135563Y4394402D01*
G01X25146993Y4382972D01*
G01X25158423Y4377130D01*
G01X25175441Y4377130D01*
G01X25186871Y4382972D01*
G01X25198301Y4394402D01*
G01X25204143Y4411420D01*
G01X25204143Y4422850D01*
G01X25198301Y4440122D01*
G01X25186871Y4451552D01*
G01X25175441Y4457140D01*
G01X25158423Y4457140D01*
G01X25251895Y4457140D02*
G01X25251895Y4377130D01*
G01X25251895Y4434280D02*
G01X25269167Y4451552D01*
G01X25280597Y4457140D01*
G01X25297615Y4457140D01*
G01X25309045Y4451552D01*
G01X25314887Y4434280D01*
G01X25314887Y4377130D01*
G01X25314887Y4434280D02*
G01X25331905Y4451552D01*
G01X25343335Y4457140D01*
G01X25360607Y4457140D01*
G01X25372037Y4451552D01*
G01X25377625Y4434280D01*
G01X25377625Y4377130D01*
G01X25553393Y4497272D02*
G01X25553393Y4377130D01*
G01X25553393Y4377130D02*
G01X25621973Y4377130D01*
G01X25738305Y4457140D02*
G01X25738305Y4377130D01*
G01X25738305Y4440122D02*
G01X25726875Y4451552D01*
G01X25715445Y4457140D01*
G01X25698427Y4457140D01*
G01X25686997Y4451552D01*
G01X25675567Y4440122D01*
G01X25669725Y4422850D01*
G01X25669725Y4411420D01*
G01X25675567Y4394402D01*
G01X25686997Y4382972D01*
G01X25698427Y4377130D01*
G01X25715445Y4377130D01*
G01X25726875Y4382972D01*
G01X25738305Y4394402D01*
G01X25791899Y4457140D02*
G01X25826189Y4377130D01*
G01X25860479Y4457140D02*
G01X25826189Y4377130D01*
G01X25814759Y4354270D01*
G01X25803329Y4342840D01*
G01X25791899Y4337252D01*
G01X25786057Y4337252D01*
G01X25908231Y4422850D02*
G01X25976811Y4422850D01*
G01X25976811Y4434280D01*
G01X25971223Y4445710D01*
G01X25965381Y4451552D01*
G01X25953951Y4457140D01*
G01X25936933Y4457140D01*
G01X25925503Y4451552D01*
G01X25914073Y4440122D01*
G01X25908231Y4422850D01*
G01X25908231Y4411420D01*
G01X25914073Y4394402D01*
G01X25925503Y4382972D01*
G01X25936933Y4377130D01*
G01X25953951Y4377130D01*
G01X25965381Y4382972D01*
G01X25976811Y4394402D01*
G01X26024563Y4457140D02*
G01X26024563Y4377130D01*
G01X26024563Y4422850D02*
G01X26030405Y4440122D01*
G01X26041835Y4451552D01*
G01X26053265Y4457140D01*
G01X26070283Y4457140D01*
G01X11705967Y3887998D02*
G01X11705967Y3893840D01*
G01X11711555Y3905270D01*
G01X11717397Y3910858D01*
G01X11728827Y3916700D01*
G01X11751687Y3916700D01*
G01X11763117Y3910858D01*
G01X11768705Y3905270D01*
G01X11774547Y3893840D01*
G01X11774547Y3882410D01*
G01X11768705Y3870980D01*
G01X11757275Y3853708D01*
G01X11700125Y3796558D01*
G01X11780135Y3796558D01*
G01X11862177Y3916700D02*
G01X11845159Y3910858D01*
G01X11833729Y3893840D01*
G01X11827887Y3865138D01*
G01X11827887Y3848120D01*
G01X11833729Y3819418D01*
G01X11845159Y3802400D01*
G01X11862177Y3796558D01*
G01X11873607Y3796558D01*
G01X11890879Y3802400D01*
G01X11902309Y3819418D01*
G01X11907897Y3848120D01*
G01X11907897Y3865138D01*
G01X11902309Y3893840D01*
G01X11890879Y3910858D01*
G01X11873607Y3916700D01*
G01X11862177Y3916700D01*
G01X13114288Y3893840D02*
G01X13125718Y3899428D01*
G01X13142990Y3916700D01*
G01X13142990Y3796558D01*
G01X13196584Y3887998D02*
G01X13196584Y3893840D01*
G01X13202172Y3905270D01*
G01X13208014Y3910858D01*
G01X13219444Y3916700D01*
G01X13242304Y3916700D01*
G01X13253734Y3910858D01*
G01X13259322Y3905270D01*
G01X13265164Y3893840D01*
G01X13265164Y3882410D01*
G01X13259322Y3870980D01*
G01X13247892Y3853708D01*
G01X13190742Y3796558D01*
G01X13270752Y3796558D01*
G01X13324346Y3825260D02*
G01X13318504Y3819418D01*
G01X13324346Y3813830D01*
G01X13329934Y3819418D01*
G01X13324346Y3825260D01*
G01X13411976Y3916700D02*
G01X13394958Y3910858D01*
G01X13383528Y3893840D01*
G01X13377686Y3865138D01*
G01X13377686Y3848120D01*
G01X13383528Y3819418D01*
G01X13394958Y3802400D01*
G01X13411976Y3796558D01*
G01X13423406Y3796558D01*
G01X13440678Y3802400D01*
G01X13452108Y3819418D01*
G01X13457696Y3848120D01*
G01X13457696Y3865138D01*
G01X13452108Y3893840D01*
G01X13440678Y3910858D01*
G01X13423406Y3916700D01*
G01X13411976Y3916700D01*
G01X13505448Y3876568D02*
G01X13505448Y3796558D01*
G01X13505448Y3853708D02*
G01X13522720Y3870980D01*
G01X13534150Y3876568D01*
G01X13551168Y3876568D01*
G01X13562598Y3870980D01*
G01X13568440Y3853708D01*
G01X13568440Y3796558D01*
G01X13568440Y3853708D02*
G01X13585458Y3870980D01*
G01X13596888Y3876568D01*
G01X13614160Y3876568D01*
G01X13625590Y3870980D01*
G01X13631178Y3853708D01*
G01X13631178Y3796558D01*
G01X13678930Y3916700D02*
G01X13684772Y3910858D01*
G01X13690360Y3916700D01*
G01X13684772Y3922288D01*
G01X13678930Y3916700D01*
G01X13684772Y3876568D02*
G01X13684772Y3796558D01*
G01X13738112Y3916700D02*
G01X13738112Y3796558D01*
G01X13825996Y3939560D02*
G01X13814566Y3928130D01*
G01X13803136Y3910858D01*
G01X13791706Y3887998D01*
G01X13785864Y3859550D01*
G01X13785864Y3836690D01*
G01X13791706Y3807988D01*
G01X13803136Y3785128D01*
G01X13814566Y3768110D01*
G01X13825996Y3756680D01*
G01X13908038Y3916700D02*
G01X13891020Y3910858D01*
G01X13879590Y3893840D01*
G01X13873748Y3865138D01*
G01X13873748Y3848120D01*
G01X13879590Y3819418D01*
G01X13891020Y3802400D01*
G01X13908038Y3796558D01*
G01X13919468Y3796558D01*
G01X13936740Y3802400D01*
G01X13948170Y3819418D01*
G01X13953758Y3848120D01*
G01X13953758Y3865138D01*
G01X13948170Y3893840D01*
G01X13936740Y3910858D01*
G01X13919468Y3916700D01*
G01X13908038Y3916700D01*
G01X14007352Y3825260D02*
G01X14001510Y3819418D01*
G01X14007352Y3813830D01*
G01X14012940Y3819418D01*
G01X14007352Y3825260D01*
G01X14072122Y3916700D02*
G01X14135114Y3916700D01*
G01X14100824Y3870980D01*
G01X14117842Y3870980D01*
G01X14129272Y3865138D01*
G01X14135114Y3859550D01*
G01X14140702Y3842278D01*
G01X14140702Y3830848D01*
G01X14135114Y3813830D01*
G01X14123684Y3802400D01*
G01X14106412Y3796558D01*
G01X14089394Y3796558D01*
G01X14072122Y3802400D01*
G01X14066534Y3807988D01*
G01X14060692Y3819418D01*
G01X14222744Y3916700D02*
G01X14205726Y3910858D01*
G01X14194296Y3893840D01*
G01X14188454Y3865138D01*
G01X14188454Y3848120D01*
G01X14194296Y3819418D01*
G01X14205726Y3802400D01*
G01X14222744Y3796558D01*
G01X14234174Y3796558D01*
G01X14251446Y3802400D01*
G01X14262876Y3819418D01*
G01X14268464Y3848120D01*
G01X14268464Y3865138D01*
G01X14262876Y3893840D01*
G01X14251446Y3910858D01*
G01X14234174Y3916700D01*
G01X14222744Y3916700D01*
G01X14384796Y3916700D02*
G01X14327646Y3916700D01*
G01X14322058Y3865138D01*
G01X14327646Y3870980D01*
G01X14344918Y3876568D01*
G01X14361936Y3876568D01*
G01X14379208Y3870980D01*
G01X14390638Y3859550D01*
G01X14396226Y3842278D01*
G01X14396226Y3830848D01*
G01X14390638Y3813830D01*
G01X14379208Y3802400D01*
G01X14361936Y3796558D01*
G01X14344918Y3796558D01*
G01X14327646Y3802400D01*
G01X14322058Y3807988D01*
G01X14316216Y3819418D01*
G01X14443978Y3876568D02*
G01X14443978Y3796558D01*
G01X14443978Y3853708D02*
G01X14461250Y3870980D01*
G01X14472680Y3876568D01*
G01X14489698Y3876568D01*
G01X14501128Y3870980D01*
G01X14506970Y3853708D01*
G01X14506970Y3796558D01*
G01X14506970Y3853708D02*
G01X14523988Y3870980D01*
G01X14535418Y3876568D01*
G01X14552690Y3876568D01*
G01X14564120Y3870980D01*
G01X14569708Y3853708D01*
G01X14569708Y3796558D01*
G01X14617460Y3876568D02*
G01X14617460Y3796558D01*
G01X14617460Y3853708D02*
G01X14634732Y3870980D01*
G01X14646162Y3876568D01*
G01X14663180Y3876568D01*
G01X14674610Y3870980D01*
G01X14680452Y3853708D01*
G01X14680452Y3796558D01*
G01X14680452Y3853708D02*
G01X14697470Y3870980D01*
G01X14708900Y3876568D01*
G01X14726172Y3876568D01*
G01X14737602Y3870980D01*
G01X14743190Y3853708D01*
G01X14743190Y3796558D01*
G01X14790942Y3939560D02*
G01X14802372Y3928130D01*
G01X14813802Y3910858D01*
G01X14825232Y3887998D01*
G01X14831074Y3859550D01*
G01X14831074Y3836690D01*
G01X14825232Y3807988D01*
G01X14813802Y3785128D01*
G01X14802372Y3768110D01*
G01X14790942Y3756680D01*
G01X17002157Y3916700D02*
G01X17002157Y3796558D01*
G01X17002157Y3916700D02*
G01X17053719Y3916700D01*
G01X17070737Y3910858D01*
G01X17076579Y3905270D01*
G01X17082167Y3893840D01*
G01X17082167Y3876568D01*
G01X17076579Y3865138D01*
G01X17070737Y3859550D01*
G01X17053719Y3853708D01*
G01X17002157Y3853708D01*
G01X17170051Y3916700D02*
G01X17170051Y3796558D01*
G01X17129919Y3916700D02*
G01X17209929Y3916700D01*
G01X17257681Y3916700D02*
G01X17257681Y3796558D01*
G01X17337691Y3916700D02*
G01X17337691Y3796558D01*
G01X17257681Y3859550D02*
G01X17337691Y3859550D01*
G01X18463564Y3916700D02*
G01X18463564Y3796558D01*
G01X18463564Y3916700D02*
G01X18515126Y3916700D01*
G01X18532144Y3910858D01*
G01X18537986Y3905270D01*
G01X18543574Y3893840D01*
G01X18543574Y3882410D01*
G01X18537986Y3870980D01*
G01X18532144Y3865138D01*
G01X18515126Y3859550D01*
G01X18463564Y3859550D01*
G01X18503696Y3859550D02*
G01X18543574Y3796558D01*
G01X18620028Y3876568D02*
G01X18608598Y3870980D01*
G01X18597168Y3859550D01*
G01X18591326Y3842278D01*
G01X18591326Y3830848D01*
G01X18597168Y3813830D01*
G01X18608598Y3802400D01*
G01X18620028Y3796558D01*
G01X18637046Y3796558D01*
G01X18648476Y3802400D01*
G01X18659906Y3813830D01*
G01X18665748Y3830848D01*
G01X18665748Y3842278D01*
G01X18659906Y3859550D01*
G01X18648476Y3870980D01*
G01X18637046Y3876568D01*
G01X18620028Y3876568D01*
G01X18713500Y3876568D02*
G01X18713500Y3819418D01*
G01X18719342Y3802400D01*
G01X18730772Y3796558D01*
G01X18747790Y3796558D01*
G01X18759220Y3802400D01*
G01X18776492Y3819418D01*
G01X18776492Y3876568D02*
G01X18776492Y3796558D01*
G01X18824244Y3876568D02*
G01X18824244Y3796558D01*
G01X18824244Y3853708D02*
G01X18841516Y3870980D01*
G01X18852946Y3876568D01*
G01X18869964Y3876568D01*
G01X18881394Y3870980D01*
G01X18887236Y3853708D01*
G01X18887236Y3796558D01*
G01X19003568Y3916700D02*
G01X19003568Y3796558D01*
G01X19003568Y3859550D02*
G01X18992138Y3870980D01*
G01X18980708Y3876568D01*
G01X18963690Y3876568D01*
G01X18952260Y3870980D01*
G01X18940830Y3859550D01*
G01X18934988Y3842278D01*
G01X18934988Y3830848D01*
G01X18940830Y3813830D01*
G01X18952260Y3802400D01*
G01X18963690Y3796558D01*
G01X18980708Y3796558D01*
G01X18992138Y3802400D01*
G01X19003568Y3813830D01*
G01X19894745Y3916700D02*
G01X19940465Y3796558D01*
G01X19986185Y3916700D02*
G01X19940465Y3796558D01*
G01X20033937Y3916700D02*
G01X20039779Y3910858D01*
G01X20045367Y3916700D01*
G01X20039779Y3922288D01*
G01X20033937Y3916700D01*
G01X20039779Y3876568D02*
G01X20039779Y3796558D01*
G01X20161699Y3876568D02*
G01X20161699Y3796558D01*
G01X20161699Y3859550D02*
G01X20150269Y3870980D01*
G01X20138839Y3876568D01*
G01X20121821Y3876568D01*
G01X20110391Y3870980D01*
G01X20098961Y3859550D01*
G01X20093119Y3842278D01*
G01X20093119Y3830848D01*
G01X20098961Y3813830D01*
G01X20110391Y3802400D01*
G01X20121821Y3796558D01*
G01X20138839Y3796558D01*
G01X20150269Y3802400D01*
G01X20161699Y3813830D01*
G01X23523425Y3916700D02*
G01X23523425Y3796558D01*
G01X23483293Y3916700D02*
G01X23563303Y3916700D01*
G01X23639757Y3876568D02*
G01X23628327Y3870980D01*
G01X23616897Y3859550D01*
G01X23611055Y3842278D01*
G01X23611055Y3830848D01*
G01X23616897Y3813830D01*
G01X23628327Y3802400D01*
G01X23639757Y3796558D01*
G01X23656775Y3796558D01*
G01X23668205Y3802400D01*
G01X23679635Y3813830D01*
G01X23685477Y3830848D01*
G01X23685477Y3842278D01*
G01X23679635Y3859550D01*
G01X23668205Y3870980D01*
G01X23656775Y3876568D01*
G01X23639757Y3876568D01*
G01X23733229Y3876568D02*
G01X23733229Y3756680D01*
G01X23733229Y3859550D02*
G01X23744659Y3870980D01*
G01X23756089Y3876568D01*
G01X23773361Y3876568D01*
G01X23784791Y3870980D01*
G01X23796221Y3859550D01*
G01X23801809Y3842278D01*
G01X23801809Y3830848D01*
G01X23796221Y3813830D01*
G01X23784791Y3802400D01*
G01X23773361Y3796558D01*
G01X23756089Y3796558D01*
G01X23744659Y3802400D01*
G01X23733229Y3813830D01*
G01X23977577Y3916700D02*
G01X23977577Y3796558D01*
G01X23977577Y3796558D02*
G01X24046157Y3796558D01*
G01X24162489Y3876568D02*
G01X24162489Y3796558D01*
G01X24162489Y3859550D02*
G01X24151059Y3870980D01*
G01X24139629Y3876568D01*
G01X24122611Y3876568D01*
G01X24111181Y3870980D01*
G01X24099751Y3859550D01*
G01X24093909Y3842278D01*
G01X24093909Y3830848D01*
G01X24099751Y3813830D01*
G01X24111181Y3802400D01*
G01X24122611Y3796558D01*
G01X24139629Y3796558D01*
G01X24151059Y3802400D01*
G01X24162489Y3813830D01*
G01X24216083Y3876568D02*
G01X24250373Y3796558D01*
G01X24284663Y3876568D02*
G01X24250373Y3796558D01*
G01X24238943Y3773698D01*
G01X24227513Y3762268D01*
G01X24216083Y3756680D01*
G01X24210241Y3756680D01*
G01X24332415Y3842278D02*
G01X24400995Y3842278D01*
G01X24400995Y3853708D01*
G01X24395407Y3865138D01*
G01X24389565Y3870980D01*
G01X24378135Y3876568D01*
G01X24361117Y3876568D01*
G01X24349687Y3870980D01*
G01X24338257Y3859550D01*
G01X24332415Y3842278D01*
G01X24332415Y3830848D01*
G01X24338257Y3813830D01*
G01X24349687Y3802400D01*
G01X24361117Y3796558D01*
G01X24378135Y3796558D01*
G01X24389565Y3802400D01*
G01X24400995Y3813830D01*
G01X24448747Y3876568D02*
G01X24448747Y3796558D01*
G01X24448747Y3842278D02*
G01X24454589Y3859550D01*
G01X24466019Y3870980D01*
G01X24477449Y3876568D01*
G01X24494467Y3876568D01*
G01X24542219Y3848120D02*
G01X24645089Y3848120D01*
G01X24692841Y3916700D02*
G01X24692841Y3796558D01*
G01X24692841Y3916700D02*
G01X24744403Y3916700D01*
G01X24761421Y3910858D01*
G01X24767263Y3905270D01*
G01X24772851Y3893840D01*
G01X24772851Y3882410D01*
G01X24767263Y3870980D01*
G01X24761421Y3865138D01*
G01X24744403Y3859550D01*
G01X24692841Y3859550D02*
G01X24744403Y3859550D01*
G01X24761421Y3853708D01*
G01X24767263Y3848120D01*
G01X24772851Y3836690D01*
G01X24772851Y3819418D01*
G01X24767263Y3807988D01*
G01X24761421Y3802400D01*
G01X24744403Y3796558D01*
G01X24692841Y3796558D01*
G01X24849305Y3876568D02*
G01X24837875Y3870980D01*
G01X24826445Y3859550D01*
G01X24820603Y3842278D01*
G01X24820603Y3830848D01*
G01X24826445Y3813830D01*
G01X24837875Y3802400D01*
G01X24849305Y3796558D01*
G01X24866323Y3796558D01*
G01X24877753Y3802400D01*
G01X24889183Y3813830D01*
G01X24895025Y3830848D01*
G01X24895025Y3842278D01*
G01X24889183Y3859550D01*
G01X24877753Y3870980D01*
G01X24866323Y3876568D01*
G01X24849305Y3876568D01*
G01X24960049Y3916700D02*
G01X24960049Y3819418D01*
G01X24965637Y3802400D01*
G01X24977067Y3796558D01*
G01X24988497Y3796558D01*
G01X24942777Y3876568D02*
G01X24982909Y3876568D01*
G01X25053521Y3916700D02*
G01X25053521Y3819418D01*
G01X25059109Y3802400D01*
G01X25070539Y3796558D01*
G01X25081969Y3796558D01*
G01X25036249Y3876568D02*
G01X25076381Y3876568D01*
G01X25158423Y3876568D02*
G01X25146993Y3870980D01*
G01X25135563Y3859550D01*
G01X25129721Y3842278D01*
G01X25129721Y3830848D01*
G01X25135563Y3813830D01*
G01X25146993Y3802400D01*
G01X25158423Y3796558D01*
G01X25175441Y3796558D01*
G01X25186871Y3802400D01*
G01X25198301Y3813830D01*
G01X25204143Y3830848D01*
G01X25204143Y3842278D01*
G01X25198301Y3859550D01*
G01X25186871Y3870980D01*
G01X25175441Y3876568D01*
G01X25158423Y3876568D01*
G01X25251895Y3876568D02*
G01X25251895Y3796558D01*
G01X25251895Y3853708D02*
G01X25269167Y3870980D01*
G01X25280597Y3876568D01*
G01X25297615Y3876568D01*
G01X25309045Y3870980D01*
G01X25314887Y3853708D01*
G01X25314887Y3796558D01*
G01X25314887Y3853708D02*
G01X25331905Y3870980D01*
G01X25343335Y3876568D01*
G01X25360607Y3876568D01*
G01X25372037Y3870980D01*
G01X25377625Y3853708D01*
G01X25377625Y3796558D01*
G01X25553393Y3916700D02*
G01X25553393Y3796558D01*
G01X25553393Y3796558D02*
G01X25621973Y3796558D01*
G01X25738305Y3876568D02*
G01X25738305Y3796558D01*
G01X25738305Y3859550D02*
G01X25726875Y3870980D01*
G01X25715445Y3876568D01*
G01X25698427Y3876568D01*
G01X25686997Y3870980D01*
G01X25675567Y3859550D01*
G01X25669725Y3842278D01*
G01X25669725Y3830848D01*
G01X25675567Y3813830D01*
G01X25686997Y3802400D01*
G01X25698427Y3796558D01*
G01X25715445Y3796558D01*
G01X25726875Y3802400D01*
G01X25738305Y3813830D01*
G01X25791899Y3876568D02*
G01X25826189Y3796558D01*
G01X25860479Y3876568D02*
G01X25826189Y3796558D01*
G01X25814759Y3773698D01*
G01X25803329Y3762268D01*
G01X25791899Y3756680D01*
G01X25786057Y3756680D01*
G01X25908231Y3842278D02*
G01X25976811Y3842278D01*
G01X25976811Y3853708D01*
G01X25971223Y3865138D01*
G01X25965381Y3870980D01*
G01X25953951Y3876568D01*
G01X25936933Y3876568D01*
G01X25925503Y3870980D01*
G01X25914073Y3859550D01*
G01X25908231Y3842278D01*
G01X25908231Y3830848D01*
G01X25914073Y3813830D01*
G01X25925503Y3802400D01*
G01X25936933Y3796558D01*
G01X25953951Y3796558D01*
G01X25965381Y3802400D01*
G01X25976811Y3813830D01*
G01X26024563Y3876568D02*
G01X26024563Y3796558D01*
G01X26024563Y3842278D02*
G01X26030405Y3859550D01*
G01X26041835Y3870980D01*
G01X26053265Y3876568D01*
G01X26070283Y3876568D01*

G04 Image Start*
G36*
G01X10535513Y5477802D02*
G01X10429900Y5489283D01*
G01X10387024Y5392077D01*
G01X10344149Y5489283D01*
G01X10238536Y5477802D01*
G01X10301299Y5563527D01*
G01X10261577Y5617782D01*
G01X10293070Y5617782D01*
G01X10332770Y5563527D01*
G01X10293070Y5509273D01*
G01X10359897Y5516537D01*
G01X10359897Y5516537D01*
G01X10387024Y5455044D01*
G01X10414152Y5516537D01*
G01X10480979Y5509273D01*
G01X10441279Y5563527D01*
G01X10480954Y5617756D01*
G01X10414126Y5610492D01*
G01X10387024Y5672011D01*
G01X10359897Y5610517D01*
G01X10293070Y5617782D01*
G01X10261577Y5617782D01*
G01X10238536Y5649252D01*
G01X10344175Y5637772D01*
G01X10387024Y5734977D01*
G01X10429900Y5637772D01*
G01X10535513Y5649252D01*
G01X10472749Y5563527D01*
G01X10535513Y5477802D01*
G37*
G36*
G01X10406519Y6592107D02*
G01X10398779Y6591518D01*
G01X10390936Y6591320D01*
G01X10383093Y6591518D01*
G01X10375353Y6592107D01*
G01X10367725Y6593076D01*
G01X10360220Y6594416D01*
G01X10345614Y6598171D01*
G01X10331612Y6603296D01*
G01X10318290Y6609713D01*
G01X10305725Y6617346D01*
G01X10293992Y6626119D01*
G01X10283170Y6635954D01*
G01X10273334Y6646777D01*
G01X10264562Y6658509D01*
G01X10256928Y6671074D01*
G01X10250511Y6684396D01*
G01X10245387Y6698398D01*
G01X10241632Y6713004D01*
G01X10240292Y6720509D01*
G01X10239323Y6728137D01*
G01X10238734Y6735877D01*
G01X10238536Y6743720D01*
G01X10263936Y6743720D01*
G01X10264593Y6730754D01*
G01X10266521Y6718158D01*
G01X10269655Y6705996D01*
G01X10273932Y6694333D01*
G01X10279287Y6683234D01*
G01X10285655Y6672763D01*
G01X10292973Y6662983D01*
G01X10301176Y6653960D01*
G01X10310199Y6645757D01*
G01X10319979Y6638439D01*
G01X10330450Y6632071D01*
G01X10341549Y6626716D01*
G01X10353212Y6622440D01*
G01X10365373Y6619305D01*
G01X10365373Y6619305D01*
G01X10377970Y6617377D01*
G01X10390936Y6616720D01*
G01X10403903Y6617377D01*
G01X10416499Y6619305D01*
G01X10428660Y6622440D01*
G01X10440323Y6626716D01*
G01X10451422Y6632071D01*
G01X10461894Y6638439D01*
G01X10471673Y6645757D01*
G01X10480696Y6653960D01*
G01X10488899Y6662983D01*
G01X10496217Y6672763D01*
G01X10502585Y6683234D01*
G01X10507940Y6694333D01*
G01X10512217Y6705996D01*
G01X10515351Y6718158D01*
G01X10517279Y6730754D01*
G01X10517936Y6743720D01*
G01X10517279Y6756687D01*
G01X10515351Y6769283D01*
G01X10512217Y6781444D01*
G01X10507940Y6793107D01*
G01X10502585Y6804206D01*
G01X10496217Y6814678D01*
G01X10488899Y6824457D01*
G01X10480696Y6833481D01*
G01X10471673Y6841683D01*
G01X10461894Y6849001D01*
G01X10451422Y6855369D01*
G01X10440323Y6860724D01*
G01X10428660Y6865001D01*
G01X10416499Y6868135D01*
G01X10403903Y6870063D01*
G01X10390936Y6870720D01*
G01X10377970Y6870063D01*
G01X10365373Y6868135D01*
G01X10353212Y6865001D01*
G01X10341549Y6860724D01*
G01X10330450Y6855369D01*
G01X10319979Y6849001D01*
G01X10310199Y6841683D01*
G01X10301176Y6833481D01*
G01X10292973Y6824457D01*
G01X10285655Y6814678D01*
G01X10279287Y6804206D01*
G01X10273932Y6793107D01*
G01X10269655Y6781444D01*
G01X10266521Y6769283D01*
G01X10264593Y6756687D01*
G01X10263936Y6743720D01*
G01X10238536Y6743720D01*
G01X10238734Y6751563D01*
G01X10239323Y6759303D01*
G01X10240292Y6766931D01*
G01X10241632Y6774436D01*
G01X10245387Y6789042D01*
G01X10250511Y6803044D01*
G01X10256928Y6816366D01*
G01X10264562Y6828932D01*
G01X10273334Y6840664D01*
G01X10283170Y6851486D01*
G01X10293992Y6861322D01*
G01X10305725Y6870095D01*
G01X10318290Y6877728D01*
G01X10331612Y6884145D01*
G01X10345614Y6889269D01*
G01X10360220Y6893024D01*
G01X10367725Y6894364D01*
G01X10375353Y6895333D01*
G01X10383093Y6895922D01*
G01X10390936Y6896120D01*
G01X10398779Y6895922D01*
G01X10406519Y6895333D01*
G01X10414147Y6894364D01*
G01X10421652Y6893024D01*
G01X10436258Y6889269D01*
G01X10450260Y6884145D01*
G01X10463582Y6877728D01*
G01X10476148Y6870095D01*
G01X10487880Y6861322D01*
G01X10498702Y6851486D01*
G01X10508538Y6840664D01*
G01X10517310Y6828932D01*
G01X10524944Y6816366D01*
G01X10531361Y6803044D01*
G01X10536485Y6789042D01*
G01X10540240Y6774436D01*
G01X10541580Y6766931D01*
G01X10542549Y6759303D01*
G01X10543138Y6751563D01*
G01X10543336Y6743720D01*
G01X10543138Y6735877D01*
G01X10542549Y6728137D01*
G01X10541580Y6720509D01*
G01X10540240Y6713004D01*
G01X10536485Y6698398D01*
G01X10531361Y6684396D01*
G01X10524944Y6671074D01*
G01X10517310Y6658509D01*
G01X10508538Y6646777D01*
G01X10498702Y6635954D01*
G01X10487880Y6626119D01*
G01X10476148Y6617346D01*
G01X10463582Y6609713D01*
G01X10450260Y6603296D01*
G01X10436258Y6598171D01*
G01X10421652Y6594416D01*
G01X10414147Y6593076D01*
G01X10406519Y6592107D01*
G37*
G36*
G01X10543336Y4352169D02*
G01X10460227Y4352169D01*
G01X10460227Y4269034D01*
G01X10321670Y4269034D01*
G01X10321670Y4352143D01*
G01X10238536Y4352143D01*
G01X10238536Y4465300D01*
G01X10263936Y4465300D01*
G01X10263936Y4377569D01*
G01X10347070Y4377569D01*
G01X10347070Y4294434D01*
G01X10347070Y4294434D01*
G01X10434802Y4294434D01*
G01X10434802Y4377543D01*
G01X10517936Y4377543D01*
G01X10517936Y4465300D01*
G01X10434802Y4465300D01*
G01X10434802Y4548434D01*
G01X10347070Y4548434D01*
G01X10347070Y4465300D01*
G01X10263936Y4465300D01*
G01X10238536Y4465300D01*
G01X10238536Y4490700D01*
G01X10321670Y4490700D01*
G01X10321670Y4573834D01*
G01X10460202Y4573834D01*
G01X10460202Y4490700D01*
G01X10543336Y4490700D01*
G01X10543336Y4352169D01*
G37*
G36*
G01X10543336Y5154406D02*
G01X10473308Y5002006D01*
G01X10543336Y4849606D01*
G01X10390936Y4919634D01*
G01X10238536Y4849606D01*
G01X10262299Y4901320D01*
G01X10290250Y4901320D01*
G01X10380319Y4942722D01*
G01X10390936Y4947599D01*
G01X10401553Y4942722D01*
G01X10491622Y4901320D01*
G01X10450220Y4991389D01*
G01X10445343Y5002006D01*
G01X10450220Y5012623D01*
G01X10491622Y5102692D01*
G01X10401553Y5061290D01*
G01X10390936Y5056413D01*
G01X10380319Y5061290D01*
G01X10290250Y5102692D01*
G01X10331652Y5012623D01*
G01X10336529Y5002006D01*
G01X10336529Y5002006D01*
G01X10331652Y4991389D01*
G01X10290250Y4901320D01*
G01X10262299Y4901320D01*
G01X10308564Y5002006D01*
G01X10238536Y5154406D01*
G01X10390936Y5084378D01*
G01X10543336Y5154406D01*
G37*
G36*
G01X10238536Y6315549D02*
G01X10543336Y6315549D01*
G01X10390936Y6051592D01*
G01X10253201Y6290149D01*
G01X10282529Y6290149D01*
G01X10390936Y6102392D01*
G01X10499343Y6290149D01*
G01X10499343Y6290149D01*
G01X10282529Y6290149D01*
G01X10253201Y6290149D01*
G01X10238536Y6315549D01*
G37*
G36*
G01X10238536Y7476692D02*
G01X10517936Y7476692D01*
G01X10517936Y7197292D01*
G01X10238536Y7197292D01*
G01X10238536Y7451292D01*
G01X10263936Y7451292D01*
G01X10263936Y7222692D01*
G01X10492536Y7222692D01*
G01X10492536Y7451292D01*
G01X10492536Y7451292D01*
G01X10263936Y7451292D01*
G01X10238536Y7451292D01*
G01X10238536Y7476692D01*
G37*
G36*
G01X10517936Y3713863D02*
G01X10416336Y3713863D01*
G01X10378236Y3790063D01*
G01X10340136Y3713863D01*
G01X10238536Y3713863D01*
G01X10238536Y3739263D01*
G01X10263936Y3739263D01*
G01X10324439Y3739263D01*
G01X10355503Y3801417D01*
G01X10378236Y3846857D01*
G01X10400969Y3801417D01*
G01X10432033Y3739263D01*
G01X10492536Y3739263D01*
G01X10492536Y3799766D01*
G01X10430382Y3830855D01*
G01X10384942Y3853563D01*
G01X10430382Y3876271D01*
G01X10492536Y3907360D01*
G01X10492536Y3967863D01*
G01X10432033Y3967863D01*
G01X10400969Y3905709D01*
G01X10378236Y3860269D01*
G01X10355503Y3905709D01*
G01X10324439Y3967863D01*
G01X10263936Y3967863D01*
G01X10263936Y3907360D01*
G01X10326090Y3876271D01*
G01X10371530Y3853563D01*
G01X10326090Y3830855D01*
G01X10263936Y3799766D01*
G01X10263936Y3739263D01*
G01X10263936Y3739263D01*
G01X10238536Y3739263D01*
G01X10238536Y3815463D01*
G01X10314736Y3853563D01*
G01X10238536Y3891663D01*
G01X10238536Y3993263D01*
G01X10340136Y3993263D01*
G01X10378236Y3917063D01*
G01X10416336Y3993263D01*
G01X10517936Y3993263D01*
G01X10517936Y3891663D01*
G01X10441736Y3853563D01*
G01X10517936Y3815463D01*
G01X10517936Y3713863D01*
G37*

G04 PolygonModel Start*
G54D18*
G01X9948250Y3557834D02*
G01X26661015Y3557834D01*
G01X9948250Y4138406D02*
G01X26661015Y4138406D01*
G01X9948250Y4718977D02*
G01X26661015Y4718977D01*
G01X9948250Y5299549D02*
G01X26661015Y5299549D01*
G01X9948250Y5880120D02*
G01X26661015Y5880120D01*
G01X9948250Y6460692D02*
G01X26661015Y6460692D01*
G01X9948250Y7041263D02*
G01X26661015Y7041263D01*
G01X9948250Y7621834D02*
G01X26661015Y7621834D01*
G01X9948250Y8202406D02*
G01X26661015Y8202406D01*
G01X9948250Y8202406D02*
G01X9948250Y3583234D01*
G01X11399679Y8202406D02*
G01X11399679Y3583234D01*
G01X12813842Y8202406D02*
G01X12813842Y3583234D01*
G01X16701711Y8202406D02*
G01X16701711Y3583234D01*
G01X18163118Y8202406D02*
G01X18163118Y3583234D01*
G01X19594299Y8202406D02*
G01X19594299Y3583234D01*
G01X21263479Y8202406D02*
G01X21263479Y3583234D01*
G01X23182848Y8202406D02*
G01X23182848Y3583234D01*
G01X26661015Y8202406D02*
G01X26661015Y3583234D01*

M02*

