G04 Layer: TopSolderMaskLayer*
G04 EasyEDA Pro v3.2.148, 2026-08-12 11:35:12*
G04 Gerber Generator version 0.3*
G04 Scale: 100 percent, Rotated: No, Reflected: No*
G04 Dimensions in millimeters*
G04 Leading zeros omitted, absolute positions, 4 integers and 5 decimals*
G04 Generated by one-click*
G04 Object Configs: Pad,Via,Track,Text,Image,Dimension,BoardOutline,BoardCutout,CopperFilled,SolidRegion,FPCStiffener,Line,PlaneZone,ComponentProperty,ComponentSilkscreen,TearDrop*
G04 Layer Configs: 1,2,3,4,5,6,7,8,9,10,11,13,14,56*
G04 Copper Areas: 0*
%FSLAX45Y45*%
%MOMM*%
%AMRoundRect*1,1,$1,$2,$3*1,1,$1,$4,$5*1,1,$1,0-$2,0-$3*1,1,$1,0-$4,0-$5*20,1,$1,$2,$3,$4,$5,0*20,1,$1,$4,$5,0-$2,0-$3,0*20,1,$1,0-$2,0-$3,0-$4,0-$5,0*20,1,$1,0-$4,0-$5,$2,$3,0*4,1,4,$2,$3,$4,$5,0-$2,0-$3,0-$4,0-$5,$2,$3,0*%
%ADD10RoundRect,0.1016X-0.45X-0.4X-0.45X0.4*%
%ADD11RoundRect,0.1016X-0.4X0.45X0.4X0.45*%
%ADD12RoundRect,0.1016X-0.40324X0.432X0.40324X0.432*%
%ADD13RoundRect,0.1016X-0.432X-0.40324X-0.432X0.40324*%
%ADD14RoundRect,0.10003X-0.12501X-0.6X-0.12501X0.6*%
%ADD15RoundRect,0.1029X-0.55X-0.27501X-0.55X0.27501*%
%ADD16RoundRect,0.10003X-0.55X-0.27501X-0.55X0.27501*%
%ADD17RoundRect,0.10003X-0.55X-0.15X-0.55X0.15*%
%ADD18O,2.10002X1.20002*%
%ADD19O,1.90002X1.30002*%
%ADD20RoundRect,0.10003X-0.27501X0.55X0.27501X0.55*%
%ADD21RoundRect,0.10003X-0.15X0.55X0.15X0.55*%
%ADD22O,1.20002X2.10002*%
%ADD23O,1.30002X1.90002*%
%ADD24RoundRect,0.1016X-0.55999X1.44X0.55999X1.44*%
%ADD25O,1.3016X2.6016*%
G75*


G04 Pad Start*
G54D10*
G01X6115202Y6282596D03*
G01X6115202Y6422601D03*
G01X3943502Y6273495D03*
G01X3943502Y6413500D03*
G54D11*
G01X2203298Y4851400D03*
G01X2343302Y4851400D03*
G01X6914998Y5803900D03*
G01X7055002Y5803900D03*
G54D10*
G01X4082898Y1117905D03*
G01X4082898Y977900D03*
G54D11*
G01X5156505Y5150002D03*
G01X5016500Y5150002D03*
G01X5156505Y4946802D03*
G01X5016500Y4946802D03*
G01X5067852Y5365340D03*
G01X4927848Y5365340D03*
G01X5067852Y5582042D03*
G01X4927848Y5582042D03*
G54D12*
G01X4469536Y1117600D03*
G01X4318864Y1117600D03*
G54D13*
G01X4737100Y1118464D03*
G01X4737100Y1269136D03*
G01X2451100Y5625236D03*
G01X2451100Y5474564D03*
G54D12*
G01X2260600Y5144364D03*
G01X2411273Y5144364D03*
G54D13*
G01X6907936Y5005527D03*
G01X6907936Y5156200D03*
G01X6911503Y5426389D03*
G01X6911503Y5577062D03*
G54D14*
G01X4297604Y4899990D03*
G01X4350614Y4899990D03*
G01X4403598Y4899990D03*
G01X4456608Y4899990D03*
G01X4509592Y4899990D03*
G01X4562602Y4899990D03*
G01X4615612Y4899990D03*
G01X4668596Y4899990D03*
G01X4668596Y5260010D03*
G01X4615612Y5260010D03*
G01X4562602Y5260010D03*
G01X4509592Y5260010D03*
G01X4456608Y5260010D03*
G01X4403598Y5260010D03*
G01X4350614Y5260010D03*
G01X4297604Y5260010D03*
G54D16*
G01X7318997Y5064798D03*
G01X7318997Y5144808D03*
G54D17*
G01X7318997Y5209807D03*
G01X7318997Y5259819D03*
G01X7318997Y5309807D03*
G01X7318997Y5359794D03*
G01X7318997Y5409806D03*
G01X7318997Y5459794D03*
G01X7318997Y5509806D03*
G01X7318997Y5559819D03*
G54D16*
G01X7318997Y5624817D03*
G01X7318997Y5704802D03*
G54D18*
G01X7373988Y4952302D03*
G01X7373988Y5817299D03*
G54D19*
G01X7794003Y4952302D03*
G01X7794003Y5817299D03*
G54D20*
G01X4328198Y821703D03*
G01X4408208Y821703D03*
G54D21*
G01X4473207Y821703D03*
G01X4523219Y821703D03*
G01X4573207Y821703D03*
G01X4623194Y821703D03*
G01X4673206Y821703D03*
G01X4723194Y821703D03*
G01X4773206Y821703D03*
G01X4823219Y821703D03*
G54D20*
G01X4888217Y821703D03*
G01X4968202Y821703D03*
G54D22*
G01X4215702Y766712D03*
G01X5080699Y766712D03*
G54D23*
G01X4215702Y346697D03*
G01X5080699Y346697D03*
G54D16*
G01X1980787Y5702005D03*
G01X1980787Y5621995D03*
G54D17*
G01X1980787Y5556997D03*
G01X1980787Y5506984D03*
G01X1980787Y5456997D03*
G01X1980787Y5407010D03*
G01X1980787Y5356997D03*
G01X1980787Y5307010D03*
G01X1980787Y5256997D03*
G01X1980787Y5206985D03*
G54D16*
G01X1980787Y5141986D03*
G01X1980787Y5062001D03*
G54D18*
G01X1925796Y5814502D03*
G01X1925796Y4949505D03*
G54D19*
G01X1505781Y5814502D03*
G01X1505781Y4949505D03*
G54D24*
G01X3231413Y6736004D03*
G01X3481400Y6736004D03*
G01X3681400Y6736004D03*
G01X3931387Y6736004D03*
G54D25*
G01X2936392Y7614996D03*
G01X4226408Y7614996D03*
G54D24*
G01X5415813Y6736004D03*
G01X5665800Y6736004D03*
G01X5865800Y6736004D03*
G01X6115787Y6736004D03*
G54D25*
G01X5120792Y7614996D03*
G01X6410808Y7614996D03*
G54D11*
G01X4946802Y4597400D03*
G01X4806798Y4597400D03*
G01X4941147Y4417892D03*
G01X4801143Y4417892D03*
G04 Pad End*

M02*

