G04 Layer: TopSilkscreenLayer*
G04 EasyEDA Pro v3.2.148, 2026-08-12 11:35:12*
G04 Gerber Generator version 0.3*
G04 Scale: 100 percent, Rotated: No, Reflected: No*
G04 Dimensions in millimeters*
G04 Leading zeros omitted, absolute positions, 4 integers and 5 decimals*
G04 Generated by one-click*
G04 Object Configs: Pad,Via,Track,Text,Image,Dimension,BoardOutline,BoardCutout,CopperFilled,SolidRegion,FPCStiffener,Line,PlaneZone,ComponentProperty,ComponentSilkscreen,TearDrop*
G04 Layer Configs: 1,2,3,4,5,6,7,8,9,10,11,13,14,56*
G04 Copper Areas: 0*
%FSLAX45Y45*%
%MOMM*%
%ADD10C,0.1524*%
%ADD11C,0.254*%
%ADD12C,0.2503*%
G75*


G04 Text Start*
G54D10*
G01X6277102Y6272741D02*
G01X6274054Y6279091D01*
G01X6267704Y6285187D01*
G01X6261608Y6288235D01*
G01X6249162Y6288235D01*
G01X6243066Y6285187D01*
G01X6236716Y6279091D01*
G01X6233668Y6272741D01*
G01X6230620Y6263597D01*
G01X6230620Y6248103D01*
G01X6233668Y6238705D01*
G01X6236716Y6232609D01*
G01X6243066Y6226259D01*
G01X6249162Y6223211D01*
G01X6261608Y6223211D01*
G01X6267704Y6226259D01*
G01X6274054Y6232609D01*
G01X6277102Y6238705D01*
G01X6307328Y6275789D02*
G01X6313424Y6279091D01*
G01X6322568Y6288235D01*
G01X6322568Y6223211D01*
G01X4105402Y6276340D02*
G01X4102354Y6282690D01*
G01X4096004Y6288786D01*
G01X4089908Y6291834D01*
G01X4077462Y6291834D01*
G01X4071366Y6288786D01*
G01X4065016Y6282690D01*
G01X4061968Y6276340D01*
G01X4058920Y6267196D01*
G01X4058920Y6251702D01*
G01X4061968Y6242304D01*
G01X4065016Y6236208D01*
G01X4071366Y6229858D01*
G01X4077462Y6226810D01*
G01X4089908Y6226810D01*
G01X4096004Y6229858D01*
G01X4102354Y6236208D01*
G01X4105402Y6242304D01*
G01X4138676Y6276340D02*
G01X4138676Y6279388D01*
G01X4141724Y6285738D01*
G01X4144772Y6288786D01*
G01X4150868Y6291834D01*
G01X4163314Y6291834D01*
G01X4169664Y6288786D01*
G01X4172712Y6285738D01*
G01X4175760Y6279388D01*
G01X4175760Y6273292D01*
G01X4172712Y6267196D01*
G01X4166362Y6257798D01*
G01X4135628Y6226810D01*
G01X4178808Y6226810D01*
G01X2504440Y4860798D02*
G01X2510790Y4863846D01*
G01X2516886Y4870196D01*
G01X2519934Y4876292D01*
G01X2519934Y4888738D01*
G01X2516886Y4894834D01*
G01X2510790Y4901184D01*
G01X2504440Y4904232D01*
G01X2495296Y4907280D01*
G01X2479802Y4907280D01*
G01X2470404Y4904232D01*
G01X2464308Y4901184D01*
G01X2457958Y4894834D01*
G01X2454910Y4888738D01*
G01X2454910Y4876292D01*
G01X2457958Y4870196D01*
G01X2464308Y4863846D01*
G01X2470404Y4860798D01*
G01X2519934Y4824476D02*
G01X2519934Y4790440D01*
G01X2495296Y4808982D01*
G01X2495296Y4799838D01*
G01X2492248Y4793488D01*
G01X2488946Y4790440D01*
G01X2479802Y4787392D01*
G01X2473452Y4787392D01*
G01X2464308Y4790440D01*
G01X2457958Y4796536D01*
G01X2454910Y4805934D01*
G01X2454910Y4815332D01*
G01X2457958Y4824476D01*
G01X2461260Y4827524D01*
G01X2467356Y4830572D01*
G01X6728460Y5794502D02*
G01X6722110Y5791454D01*
G01X6716014Y5785104D01*
G01X6712966Y5779008D01*
G01X6712966Y5766562D01*
G01X6716014Y5760466D01*
G01X6722110Y5754116D01*
G01X6728460Y5751068D01*
G01X6737604Y5748020D01*
G01X6753098Y5748020D01*
G01X6762496Y5751068D01*
G01X6768592Y5754116D01*
G01X6774942Y5760466D01*
G01X6777990Y5766562D01*
G01X6777990Y5779008D01*
G01X6774942Y5785104D01*
G01X6768592Y5791454D01*
G01X6762496Y5794502D01*
G01X6712966Y5855462D02*
G01X6756146Y5824728D01*
G01X6756146Y5870956D01*
G01X6712966Y5855462D02*
G01X6777990Y5855462D01*
G01X4067302Y1297940D02*
G01X4064254Y1304290D01*
G01X4057904Y1310386D01*
G01X4051808Y1313434D01*
G01X4039362Y1313434D01*
G01X4033266Y1310386D01*
G01X4026916Y1304290D01*
G01X4023868Y1297940D01*
G01X4020820Y1288796D01*
G01X4020820Y1273302D01*
G01X4023868Y1263904D01*
G01X4026916Y1257808D01*
G01X4033266Y1251458D01*
G01X4039362Y1248410D01*
G01X4051808Y1248410D01*
G01X4057904Y1251458D01*
G01X4064254Y1257808D01*
G01X4067302Y1263904D01*
G01X4134612Y1313434D02*
G01X4103624Y1313434D01*
G01X4100576Y1285748D01*
G01X4103624Y1288796D01*
G01X4112768Y1291844D01*
G01X4122166Y1291844D01*
G01X4131564Y1288796D01*
G01X4137660Y1282446D01*
G01X4140708Y1273302D01*
G01X4140708Y1266952D01*
G01X4137660Y1257808D01*
G01X4131564Y1251458D01*
G01X4122166Y1248410D01*
G01X4112768Y1248410D01*
G01X4103624Y1251458D01*
G01X4100576Y1254760D01*
G01X4097528Y1260856D01*
G01X5311902Y5171440D02*
G01X5308854Y5177790D01*
G01X5302504Y5183886D01*
G01X5296408Y5186934D01*
G01X5283962Y5186934D01*
G01X5277866Y5183886D01*
G01X5271516Y5177790D01*
G01X5268468Y5171440D01*
G01X5265420Y5162296D01*
G01X5265420Y5146802D01*
G01X5268468Y5137404D01*
G01X5271516Y5131308D01*
G01X5277866Y5124958D01*
G01X5283962Y5121910D01*
G01X5296408Y5121910D01*
G01X5302504Y5124958D01*
G01X5308854Y5131308D01*
G01X5311902Y5137404D01*
G01X5379212Y5177790D02*
G01X5376164Y5183886D01*
G01X5366766Y5186934D01*
G01X5360670Y5186934D01*
G01X5351272Y5183886D01*
G01X5345176Y5174488D01*
G01X5342128Y5159248D01*
G01X5342128Y5143754D01*
G01X5345176Y5131308D01*
G01X5351272Y5124958D01*
G01X5360670Y5121910D01*
G01X5363718Y5121910D01*
G01X5372862Y5124958D01*
G01X5379212Y5131308D01*
G01X5382260Y5140452D01*
G01X5382260Y5143754D01*
G01X5379212Y5152898D01*
G01X5372862Y5159248D01*
G01X5363718Y5162296D01*
G01X5360670Y5162296D01*
G01X5351272Y5159248D01*
G01X5345176Y5152898D01*
G01X5342128Y5143754D01*
G01X5311902Y4968240D02*
G01X5308854Y4974590D01*
G01X5302504Y4980686D01*
G01X5296408Y4983734D01*
G01X5283962Y4983734D01*
G01X5277866Y4980686D01*
G01X5271516Y4974590D01*
G01X5268468Y4968240D01*
G01X5265420Y4959096D01*
G01X5265420Y4943602D01*
G01X5268468Y4934204D01*
G01X5271516Y4928108D01*
G01X5277866Y4921758D01*
G01X5283962Y4918710D01*
G01X5296408Y4918710D01*
G01X5302504Y4921758D01*
G01X5308854Y4928108D01*
G01X5311902Y4934204D01*
G01X5385308Y4983734D02*
G01X5354320Y4918710D01*
G01X5342128Y4983734D02*
G01X5385308Y4983734D01*
G01X5223002Y5374640D02*
G01X5219954Y5380990D01*
G01X5213604Y5387086D01*
G01X5207508Y5390134D01*
G01X5195062Y5390134D01*
G01X5188966Y5387086D01*
G01X5182616Y5380990D01*
G01X5179568Y5374640D01*
G01X5176520Y5365496D01*
G01X5176520Y5350002D01*
G01X5179568Y5340604D01*
G01X5182616Y5334508D01*
G01X5188966Y5328158D01*
G01X5195062Y5325110D01*
G01X5207508Y5325110D01*
G01X5213604Y5328158D01*
G01X5219954Y5334508D01*
G01X5223002Y5340604D01*
G01X5268468Y5390134D02*
G01X5259324Y5387086D01*
G01X5256276Y5380990D01*
G01X5256276Y5374640D01*
G01X5259324Y5368544D01*
G01X5265420Y5365496D01*
G01X5277866Y5362448D01*
G01X5287264Y5359146D01*
G01X5293360Y5353050D01*
G01X5296408Y5346954D01*
G01X5296408Y5337556D01*
G01X5293360Y5331460D01*
G01X5290312Y5328158D01*
G01X5280914Y5325110D01*
G01X5268468Y5325110D01*
G01X5259324Y5328158D01*
G01X5256276Y5331460D01*
G01X5253228Y5337556D01*
G01X5253228Y5346954D01*
G01X5256276Y5353050D01*
G01X5262372Y5359146D01*
G01X5271770Y5362448D01*
G01X5283962Y5365496D01*
G01X5290312Y5368544D01*
G01X5293360Y5374640D01*
G01X5293360Y5380990D01*
G01X5290312Y5387086D01*
G01X5280914Y5390134D01*
G01X5268468Y5390134D01*
G01X5223002Y5603240D02*
G01X5219954Y5609590D01*
G01X5213604Y5615686D01*
G01X5207508Y5618734D01*
G01X5195062Y5618734D01*
G01X5188966Y5615686D01*
G01X5182616Y5609590D01*
G01X5179568Y5603240D01*
G01X5176520Y5594096D01*
G01X5176520Y5578602D01*
G01X5179568Y5569204D01*
G01X5182616Y5563108D01*
G01X5188966Y5556758D01*
G01X5195062Y5553710D01*
G01X5207508Y5553710D01*
G01X5213604Y5556758D01*
G01X5219954Y5563108D01*
G01X5223002Y5569204D01*
G01X5293360Y5597144D02*
G01X5290312Y5587746D01*
G01X5283962Y5581650D01*
G01X5274818Y5578602D01*
G01X5271770Y5578602D01*
G01X5262372Y5581650D01*
G01X5256276Y5587746D01*
G01X5253228Y5597144D01*
G01X5253228Y5600192D01*
G01X5256276Y5609590D01*
G01X5262372Y5615686D01*
G01X5271770Y5618734D01*
G01X5274818Y5618734D01*
G01X5283962Y5615686D01*
G01X5290312Y5609590D01*
G01X5293360Y5597144D01*
G01X5293360Y5581650D01*
G01X5290312Y5566156D01*
G01X5283962Y5556758D01*
G01X5274818Y5553710D01*
G01X5268468Y5553710D01*
G01X5259324Y5556758D01*
G01X5256276Y5563108D01*
G01X4255691Y1298214D02*
G01X4255691Y1233190D01*
G01X4255691Y1298214D02*
G01X4283631Y1298214D01*
G01X4292775Y1295166D01*
G01X4295823Y1292118D01*
G01X4299125Y1285768D01*
G01X4299125Y1279672D01*
G01X4295823Y1273576D01*
G01X4292775Y1270528D01*
G01X4283631Y1267226D01*
G01X4255691Y1267226D01*
G01X4277281Y1267226D02*
G01X4299125Y1233190D01*
G01X4329351Y1285768D02*
G01X4335447Y1289070D01*
G01X4344591Y1298214D01*
G01X4344591Y1233190D01*
G01X4681220Y1453134D02*
G01X4681220Y1388110D01*
G01X4681220Y1453134D02*
G01X4709160Y1453134D01*
G01X4718304Y1450086D01*
G01X4721352Y1447038D01*
G01X4724654Y1440688D01*
G01X4724654Y1434592D01*
G01X4721352Y1428496D01*
G01X4718304Y1425448D01*
G01X4709160Y1422146D01*
G01X4681220Y1422146D01*
G01X4702810Y1422146D02*
G01X4724654Y1388110D01*
G01X4757928Y1437640D02*
G01X4757928Y1440688D01*
G01X4760976Y1447038D01*
G01X4764024Y1450086D01*
G01X4770120Y1453134D01*
G01X4782566Y1453134D01*
G01X4788916Y1450086D01*
G01X4791964Y1447038D01*
G01X4795012Y1440688D01*
G01X4795012Y1434592D01*
G01X4791964Y1428496D01*
G01X4785614Y1419098D01*
G01X4754880Y1388110D01*
G01X4798060Y1388110D01*
G01X2395220Y5796534D02*
G01X2395220Y5731510D01*
G01X2395220Y5796534D02*
G01X2423160Y5796534D01*
G01X2432304Y5793486D01*
G01X2435352Y5790438D01*
G01X2438654Y5784088D01*
G01X2438654Y5777992D01*
G01X2435352Y5771896D01*
G01X2432304Y5768848D01*
G01X2423160Y5765546D01*
G01X2395220Y5765546D01*
G01X2416810Y5765546D02*
G01X2438654Y5731510D01*
G01X2474976Y5796534D02*
G01X2509012Y5796534D01*
G01X2490470Y5771896D01*
G01X2499614Y5771896D01*
G01X2505964Y5768848D01*
G01X2509012Y5765546D01*
G01X2512060Y5756402D01*
G01X2512060Y5750052D01*
G01X2509012Y5740908D01*
G01X2502916Y5734558D01*
G01X2493518Y5731510D01*
G01X2484120Y5731510D01*
G01X2474976Y5734558D01*
G01X2471928Y5737860D01*
G01X2468880Y5743956D01*
G01X2583434Y5199380D02*
G01X2518410Y5199380D01*
G01X2583434Y5199380D02*
G01X2583434Y5171440D01*
G01X2580386Y5162296D01*
G01X2577338Y5159248D01*
G01X2570988Y5155946D01*
G01X2564892Y5155946D01*
G01X2558796Y5159248D01*
G01X2555748Y5162296D01*
G01X2552446Y5171440D01*
G01X2552446Y5199380D01*
G01X2552446Y5177790D02*
G01X2518410Y5155946D01*
G01X2583434Y5094986D02*
G01X2540254Y5125720D01*
G01X2540254Y5079492D01*
G01X2583434Y5094986D02*
G01X2518410Y5094986D01*
G01X6712966Y5100320D02*
G01X6777990Y5100320D01*
G01X6712966Y5100320D02*
G01X6712966Y5128260D01*
G01X6716014Y5137404D01*
G01X6719062Y5140452D01*
G01X6725412Y5143754D01*
G01X6731508Y5143754D01*
G01X6737604Y5140452D01*
G01X6740652Y5137404D01*
G01X6743954Y5128260D01*
G01X6743954Y5100320D01*
G01X6743954Y5121910D02*
G01X6777990Y5143754D01*
G01X6712966Y5211064D02*
G01X6712966Y5180076D01*
G01X6740652Y5177028D01*
G01X6737604Y5180076D01*
G01X6734556Y5189220D01*
G01X6734556Y5198618D01*
G01X6737604Y5208016D01*
G01X6743954Y5214112D01*
G01X6753098Y5217160D01*
G01X6759448Y5217160D01*
G01X6768592Y5214112D01*
G01X6774942Y5208016D01*
G01X6777990Y5198618D01*
G01X6777990Y5189220D01*
G01X6774942Y5180076D01*
G01X6771640Y5177028D01*
G01X6765544Y5173980D01*
G01X6712966Y5532120D02*
G01X6777990Y5532120D01*
G01X6712966Y5532120D02*
G01X6712966Y5560060D01*
G01X6716014Y5569204D01*
G01X6719062Y5572252D01*
G01X6725412Y5575554D01*
G01X6731508Y5575554D01*
G01X6737604Y5572252D01*
G01X6740652Y5569204D01*
G01X6743954Y5560060D01*
G01X6743954Y5532120D01*
G01X6743954Y5553710D02*
G01X6777990Y5575554D01*
G01X6722110Y5642864D02*
G01X6716014Y5639816D01*
G01X6712966Y5630418D01*
G01X6712966Y5624322D01*
G01X6716014Y5614924D01*
G01X6725412Y5608828D01*
G01X6740652Y5605780D01*
G01X6756146Y5605780D01*
G01X6768592Y5608828D01*
G01X6774942Y5614924D01*
G01X6777990Y5624322D01*
G01X6777990Y5627370D01*
G01X6774942Y5636514D01*
G01X6768592Y5642864D01*
G01X6759448Y5645912D01*
G01X6756146Y5645912D01*
G01X6747002Y5642864D01*
G01X6740652Y5636514D01*
G01X6737604Y5627370D01*
G01X6737604Y5624322D01*
G01X6740652Y5614924D01*
G01X6747002Y5608828D01*
G01X6756146Y5605780D01*
G01X4134866Y5036820D02*
G01X4181348Y5036820D01*
G01X4190492Y5039868D01*
G01X4196842Y5046218D01*
G01X4199890Y5055362D01*
G01X4199890Y5061712D01*
G01X4196842Y5070856D01*
G01X4190492Y5076952D01*
G01X4181348Y5080254D01*
G01X4134866Y5080254D01*
G01X4147312Y5110480D02*
G01X4144010Y5116576D01*
G01X4134866Y5125720D01*
G01X4199890Y5125720D01*
G01X7297420Y6037834D02*
G01X7297420Y5991352D01*
G01X7300468Y5982208D01*
G01X7306818Y5975858D01*
G01X7315962Y5972810D01*
G01X7322312Y5972810D01*
G01X7331456Y5975858D01*
G01X7337552Y5982208D01*
G01X7340854Y5991352D01*
G01X7340854Y6037834D01*
G01X7414260Y6028690D02*
G01X7408164Y6034786D01*
G01X7398766Y6037834D01*
G01X7386320Y6037834D01*
G01X7377176Y6034786D01*
G01X7371080Y6028690D01*
G01X7371080Y6022340D01*
G01X7374128Y6016244D01*
G01X7377176Y6013196D01*
G01X7383272Y6010148D01*
G01X7401814Y6003798D01*
G01X7408164Y6000750D01*
G01X7411212Y5997702D01*
G01X7414260Y5991352D01*
G01X7414260Y5982208D01*
G01X7408164Y5975858D01*
G01X7398766Y5972810D01*
G01X7386320Y5972810D01*
G01X7377176Y5975858D01*
G01X7371080Y5982208D01*
G01X7444486Y6037834D02*
G01X7444486Y5972810D01*
G01X7444486Y6037834D02*
G01X7472172Y6037834D01*
G01X7481570Y6034786D01*
G01X7484618Y6031738D01*
G01X7487666Y6025388D01*
G01X7487666Y6019292D01*
G01X7484618Y6013196D01*
G01X7481570Y6010148D01*
G01X7472172Y6006846D01*
G01X7444486Y6006846D02*
G01X7472172Y6006846D01*
G01X7481570Y6003798D01*
G01X7484618Y6000750D01*
G01X7487666Y5994654D01*
G01X7487666Y5985256D01*
G01X7484618Y5979160D01*
G01X7481570Y5975858D01*
G01X7472172Y5972810D01*
G01X7444486Y5972810D01*
G01X7517892Y6025388D02*
G01X7523988Y6028690D01*
G01X7533132Y6037834D01*
G01X7533132Y5972810D01*
G01X4107434Y843280D02*
G01X4060952Y843280D01*
G01X4051808Y840232D01*
G01X4045458Y833882D01*
G01X4042410Y824738D01*
G01X4042410Y818388D01*
G01X4045458Y809244D01*
G01X4051808Y803148D01*
G01X4060952Y799846D01*
G01X4107434Y799846D01*
G01X4098290Y726440D02*
G01X4104386Y732536D01*
G01X4107434Y741934D01*
G01X4107434Y754380D01*
G01X4104386Y763524D01*
G01X4098290Y769620D01*
G01X4091940Y769620D01*
G01X4085844Y766572D01*
G01X4082796Y763524D01*
G01X4079748Y757428D01*
G01X4073398Y738886D01*
G01X4070350Y732536D01*
G01X4067302Y729488D01*
G01X4060952Y726440D01*
G01X4051808Y726440D01*
G01X4045458Y732536D01*
G01X4042410Y741934D01*
G01X4042410Y754380D01*
G01X4045458Y763524D01*
G01X4051808Y769620D01*
G01X4107434Y696214D02*
G01X4042410Y696214D01*
G01X4107434Y696214D02*
G01X4107434Y668528D01*
G01X4104386Y659130D01*
G01X4101338Y656082D01*
G01X4094988Y653034D01*
G01X4088892Y653034D01*
G01X4082796Y656082D01*
G01X4079748Y659130D01*
G01X4076446Y668528D01*
G01X4076446Y696214D02*
G01X4076446Y668528D01*
G01X4073398Y659130D01*
G01X4070350Y656082D01*
G01X4064254Y653034D01*
G01X4054856Y653034D01*
G01X4048760Y656082D01*
G01X4045458Y659130D01*
G01X4042410Y668528D01*
G01X4042410Y696214D01*
G01X4091940Y619760D02*
G01X4094988Y619760D01*
G01X4101338Y616712D01*
G01X4104386Y613664D01*
G01X4107434Y607568D01*
G01X4107434Y595122D01*
G01X4104386Y588772D01*
G01X4101338Y585724D01*
G01X4094988Y582676D01*
G01X4088892Y582676D01*
G01X4082796Y585724D01*
G01X4073398Y592074D01*
G01X4042410Y622808D01*
G01X4042410Y579628D01*
G01X1480820Y5961634D02*
G01X1480820Y5915152D01*
G01X1483868Y5906008D01*
G01X1490218Y5899658D01*
G01X1499362Y5896610D01*
G01X1505712Y5896610D01*
G01X1514856Y5899658D01*
G01X1520952Y5906008D01*
G01X1524254Y5915152D01*
G01X1524254Y5961634D01*
G01X1597660Y5952490D02*
G01X1591564Y5958586D01*
G01X1582166Y5961634D01*
G01X1569720Y5961634D01*
G01X1560576Y5958586D01*
G01X1554480Y5952490D01*
G01X1554480Y5946140D01*
G01X1557528Y5940044D01*
G01X1560576Y5936996D01*
G01X1566672Y5933948D01*
G01X1585214Y5927598D01*
G01X1591564Y5924550D01*
G01X1594612Y5921502D01*
G01X1597660Y5915152D01*
G01X1597660Y5906008D01*
G01X1591564Y5899658D01*
G01X1582166Y5896610D01*
G01X1569720Y5896610D01*
G01X1560576Y5899658D01*
G01X1554480Y5906008D01*
G01X1627886Y5961634D02*
G01X1627886Y5896610D01*
G01X1627886Y5961634D02*
G01X1655572Y5961634D01*
G01X1664970Y5958586D01*
G01X1668018Y5955538D01*
G01X1671066Y5949188D01*
G01X1671066Y5943092D01*
G01X1668018Y5936996D01*
G01X1664970Y5933948D01*
G01X1655572Y5930646D01*
G01X1627886Y5930646D02*
G01X1655572Y5930646D01*
G01X1664970Y5927598D01*
G01X1668018Y5924550D01*
G01X1671066Y5918454D01*
G01X1671066Y5909056D01*
G01X1668018Y5902960D01*
G01X1664970Y5899658D01*
G01X1655572Y5896610D01*
G01X1627886Y5896610D01*
G01X1707388Y5961634D02*
G01X1741424Y5961634D01*
G01X1722882Y5936996D01*
G01X1732026Y5936996D01*
G01X1738376Y5933948D01*
G01X1741424Y5930646D01*
G01X1744472Y5921502D01*
G01X1744472Y5915152D01*
G01X1741424Y5906008D01*
G01X1735328Y5899658D01*
G01X1725930Y5896610D01*
G01X1716532Y5896610D01*
G01X1707388Y5899658D01*
G01X1704340Y5902960D01*
G01X1701292Y5909056D01*
G01X4348734Y7447280D02*
G01X4302252Y7447280D01*
G01X4293108Y7444232D01*
G01X4286758Y7437882D01*
G01X4283710Y7428738D01*
G01X4283710Y7422388D01*
G01X4286758Y7413244D01*
G01X4293108Y7407148D01*
G01X4302252Y7403846D01*
G01X4348734Y7403846D01*
G01X4339590Y7330440D02*
G01X4345686Y7336536D01*
G01X4348734Y7345934D01*
G01X4348734Y7358380D01*
G01X4345686Y7367524D01*
G01X4339590Y7373620D01*
G01X4333240Y7373620D01*
G01X4327144Y7370572D01*
G01X4324096Y7367524D01*
G01X4321048Y7361428D01*
G01X4314698Y7342886D01*
G01X4311650Y7336536D01*
G01X4308602Y7333488D01*
G01X4302252Y7330440D01*
G01X4293108Y7330440D01*
G01X4286758Y7336536D01*
G01X4283710Y7345934D01*
G01X4283710Y7358380D01*
G01X4286758Y7367524D01*
G01X4293108Y7373620D01*
G01X4348734Y7300214D02*
G01X4283710Y7300214D01*
G01X4348734Y7300214D02*
G01X4348734Y7272528D01*
G01X4345686Y7263130D01*
G01X4342638Y7260082D01*
G01X4336288Y7257034D01*
G01X4330192Y7257034D01*
G01X4324096Y7260082D01*
G01X4321048Y7263130D01*
G01X4317746Y7272528D01*
G01X4317746Y7300214D02*
G01X4317746Y7272528D01*
G01X4314698Y7263130D01*
G01X4311650Y7260082D01*
G01X4305554Y7257034D01*
G01X4296156Y7257034D01*
G01X4290060Y7260082D01*
G01X4286758Y7263130D01*
G01X4283710Y7272528D01*
G01X4283710Y7300214D01*
G01X4348734Y7196074D02*
G01X4305554Y7226808D01*
G01X4305554Y7180580D01*
G01X4348734Y7196074D02*
G01X4283710Y7196074D01*
G01X4985766Y7183120D02*
G01X5032248Y7183120D01*
G01X5041392Y7186168D01*
G01X5047742Y7192518D01*
G01X5050790Y7201662D01*
G01X5050790Y7208012D01*
G01X5047742Y7217156D01*
G01X5041392Y7223252D01*
G01X5032248Y7226554D01*
G01X4985766Y7226554D01*
G01X4994910Y7299960D02*
G01X4988814Y7293864D01*
G01X4985766Y7284466D01*
G01X4985766Y7272020D01*
G01X4988814Y7262876D01*
G01X4994910Y7256780D01*
G01X5001260Y7256780D01*
G01X5007356Y7259828D01*
G01X5010404Y7262876D01*
G01X5013452Y7268972D01*
G01X5019802Y7287514D01*
G01X5022850Y7293864D01*
G01X5025898Y7296912D01*
G01X5032248Y7299960D01*
G01X5041392Y7299960D01*
G01X5047742Y7293864D01*
G01X5050790Y7284466D01*
G01X5050790Y7272020D01*
G01X5047742Y7262876D01*
G01X5041392Y7256780D01*
G01X4985766Y7330186D02*
G01X5050790Y7330186D01*
G01X4985766Y7330186D02*
G01X4985766Y7357872D01*
G01X4988814Y7367270D01*
G01X4991862Y7370318D01*
G01X4998212Y7373366D01*
G01X5004308Y7373366D01*
G01X5010404Y7370318D01*
G01X5013452Y7367270D01*
G01X5016754Y7357872D01*
G01X5016754Y7330186D02*
G01X5016754Y7357872D01*
G01X5019802Y7367270D01*
G01X5022850Y7370318D01*
G01X5028946Y7373366D01*
G01X5038344Y7373366D01*
G01X5044440Y7370318D01*
G01X5047742Y7367270D01*
G01X5050790Y7357872D01*
G01X5050790Y7330186D01*
G01X4985766Y7440676D02*
G01X4985766Y7409688D01*
G01X5013452Y7406640D01*
G01X5010404Y7409688D01*
G01X5007356Y7418832D01*
G01X5007356Y7428230D01*
G01X5010404Y7437628D01*
G01X5016754Y7443724D01*
G01X5025898Y7446772D01*
G01X5032248Y7446772D01*
G01X5041392Y7443724D01*
G01X5047742Y7437628D01*
G01X5050790Y7428230D01*
G01X5050790Y7418832D01*
G01X5047742Y7409688D01*
G01X5044440Y7406640D01*
G01X5038344Y7403592D01*
G01X5096002Y4612640D02*
G01X5092954Y4618990D01*
G01X5086604Y4625086D01*
G01X5080508Y4628134D01*
G01X5068062Y4628134D01*
G01X5061966Y4625086D01*
G01X5055616Y4618990D01*
G01X5052568Y4612640D01*
G01X5049520Y4603496D01*
G01X5049520Y4588002D01*
G01X5052568Y4578604D01*
G01X5055616Y4572508D01*
G01X5061966Y4566158D01*
G01X5068062Y4563110D01*
G01X5080508Y4563110D01*
G01X5086604Y4566158D01*
G01X5092954Y4572508D01*
G01X5096002Y4578604D01*
G01X5126228Y4615688D02*
G01X5132324Y4618990D01*
G01X5141468Y4628134D01*
G01X5141468Y4563110D01*
G01X5190236Y4628134D02*
G01X5180838Y4625086D01*
G01X5174742Y4615688D01*
G01X5171694Y4600448D01*
G01X5171694Y4591050D01*
G01X5174742Y4575556D01*
G01X5180838Y4566158D01*
G01X5190236Y4563110D01*
G01X5196332Y4563110D01*
G01X5205730Y4566158D01*
G01X5211826Y4575556D01*
G01X5214874Y4591050D01*
G01X5214874Y4600448D01*
G01X5211826Y4615688D01*
G01X5205730Y4625086D01*
G01X5196332Y4628134D01*
G01X5190236Y4628134D01*
G01X5096002Y4447540D02*
G01X5092954Y4453890D01*
G01X5086604Y4459986D01*
G01X5080508Y4463034D01*
G01X5068062Y4463034D01*
G01X5061966Y4459986D01*
G01X5055616Y4453890D01*
G01X5052568Y4447540D01*
G01X5049520Y4438396D01*
G01X5049520Y4422902D01*
G01X5052568Y4413504D01*
G01X5055616Y4407408D01*
G01X5061966Y4401058D01*
G01X5068062Y4398010D01*
G01X5080508Y4398010D01*
G01X5086604Y4401058D01*
G01X5092954Y4407408D01*
G01X5096002Y4413504D01*
G01X5126228Y4450588D02*
G01X5132324Y4453890D01*
G01X5141468Y4463034D01*
G01X5141468Y4398010D01*
G01X5171694Y4450588D02*
G01X5177790Y4453890D01*
G01X5186934Y4463034D01*
G01X5186934Y4398010D01*
G04 Text End*

G04 PolygonModel Start*
G54D11*
G01X6044245Y6380617D02*
G01X6044245Y6460614D01*
G01X6044199Y6324572D02*
G01X6044199Y6244575D01*
G01X6186213Y6380617D02*
G01X6186213Y6460614D01*
G01X6186165Y6324572D02*
G01X6186165Y6244575D01*
G01X6075228Y6491590D02*
G01X6155233Y6491590D01*
G01X6155179Y6213597D02*
G01X6075177Y6213597D01*
G01X6186165Y6244580D02*
G02X6155179Y6213597I-30983J0D01*
G01X6075182Y6213597D02*
G02X6044199Y6244580I0J30983D01*
G01X6044245Y6460609D02*
G02X6075228Y6491590I30983J-3D01*
G01X6155225Y6491590D02*
G02X6186213Y6460609I5J-30983D01*
G01X3872545Y6371516D02*
G01X3872545Y6451514D01*
G01X3872499Y6315471D02*
G01X3872499Y6235474D01*
G01X4014513Y6371516D02*
G01X4014513Y6451514D01*
G01X4014465Y6315471D02*
G01X4014465Y6235474D01*
G01X3903528Y6482489D02*
G01X3983533Y6482489D01*
G01X3983479Y6204496D02*
G01X3903477Y6204496D01*
G01X4014465Y6235479D02*
G02X3983479Y6204496I-30983J0D01*
G01X3903482Y6204496D02*
G02X3872499Y6235479I0J30983D01*
G01X3872545Y6451509D02*
G02X3903528Y6482489I30983J-3D01*
G01X3983525Y6482489D02*
G02X4014513Y6451509I5J-30983D01*
G01X2301319Y4922357D02*
G01X2381316Y4922357D01*
G01X2245274Y4922403D02*
G01X2165276Y4922403D01*
G01X2301319Y4780389D02*
G01X2381316Y4780389D01*
G01X2245274Y4780437D02*
G01X2165276Y4780437D01*
G01X2412291Y4891375D02*
G01X2412291Y4811370D01*
G01X2134299Y4811423D02*
G01X2134299Y4891425D01*
G01X2165281Y4780437D02*
G02X2134299Y4811423I0J30983D01*
G01X2134299Y4891420D02*
G02X2165281Y4922403I30983J0D01*
G01X2381311Y4922357D02*
G02X2412291Y4891375I-3J-30983D01*
G01X2412291Y4811377D02*
G02X2381311Y4780389I-30983J-5D01*
G01X7013019Y5874857D02*
G01X7093016Y5874857D01*
G01X6956974Y5874903D02*
G01X6876976Y5874903D01*
G01X7013019Y5732889D02*
G01X7093016Y5732889D01*
G01X6956974Y5732937D02*
G01X6876976Y5732937D01*
G01X7123991Y5843875D02*
G01X7123991Y5763870D01*
G01X6845999Y5763923D02*
G01X6845999Y5843925D01*
G01X6876981Y5732937D02*
G02X6845999Y5763923I0J30983D01*
G01X6845999Y5843920D02*
G02X6876981Y5874903I30983J0D01*
G01X7093011Y5874857D02*
G02X7123991Y5843875I-3J-30983D01*
G01X7123991Y5763877D02*
G02X7093011Y5732889I-30983J-5D01*
G01X4153855Y1019884D02*
G01X4153855Y939886D01*
G01X4153901Y1075929D02*
G01X4153901Y1155926D01*
G01X4011887Y1019884D02*
G01X4011887Y939886D01*
G01X4011935Y1075929D02*
G01X4011935Y1155926D01*
G01X4122872Y908911D02*
G01X4042867Y908911D01*
G01X4042921Y1186904D02*
G01X4122923Y1186904D01*
G01X4011935Y1155921D02*
G02X4042921Y1186904I30983J0D01*
G01X4122918Y1186904D02*
G02X4153901Y1155921I0J-30983D01*
G01X4153855Y939891D02*
G02X4122872Y908911I-30983J3D01*
G01X4042875Y908911D02*
G02X4011887Y939891I-5J30983D01*
G01X5058484Y5079045D02*
G01X4978486Y5079045D01*
G01X5114529Y5078999D02*
G01X5194526Y5078999D01*
G01X5058484Y5221013D02*
G01X4978486Y5221013D01*
G01X5114529Y5220965D02*
G01X5194526Y5220965D01*
G01X4947511Y5110028D02*
G01X4947511Y5190033D01*
G01X5225504Y5189979D02*
G01X5225504Y5109977D01*
G01X5194521Y5220965D02*
G02X5225504Y5189979I0J-30983D01*
G01X5225504Y5109982D02*
G02X5194521Y5078999I-30983J0D01*
G01X4978491Y5079045D02*
G02X4947511Y5110028I3J30983D01*
G01X4947511Y5190025D02*
G02X4978491Y5221013I30983J5D01*
G01X5058484Y4875845D02*
G01X4978486Y4875845D01*
G01X5114529Y4875799D02*
G01X5194526Y4875799D01*
G01X5058484Y5017813D02*
G01X4978486Y5017813D01*
G01X5114529Y5017765D02*
G01X5194526Y5017765D01*
G01X4947511Y4906828D02*
G01X4947511Y4986833D01*
G01X5225504Y4986779D02*
G01X5225504Y4906777D01*
G01X5194521Y5017765D02*
G02X5225504Y4986779I0J-30983D01*
G01X5225504Y4906782D02*
G02X5194521Y4875799I-30983J0D01*
G01X4978491Y4875845D02*
G02X4947511Y4906828I3J30983D01*
G01X4947511Y4986825D02*
G02X4978491Y5017813I30983J5D01*
G01X4969831Y5294382D02*
G01X4889834Y5294382D01*
G01X5025876Y5294337D02*
G01X5105874Y5294337D01*
G01X4969831Y5436351D02*
G01X4889834Y5436351D01*
G01X5025876Y5436302D02*
G01X5105874Y5436302D01*
G01X4858859Y5325365D02*
G01X4858859Y5405370D01*
G01X5136852Y5405317D02*
G01X5136852Y5325314D01*
G01X5105869Y5436302D02*
G02X5136852Y5405317I0J-30983D01*
G01X5136852Y5325320D02*
G02X5105869Y5294337I-30983J0D01*
G01X4889839Y5294382D02*
G02X4858859Y5325365I3J30983D01*
G01X4858859Y5405363D02*
G02X4889839Y5436351I30983J5D01*
G01X4969831Y5511085D02*
G01X4889834Y5511085D01*
G01X5025876Y5511039D02*
G01X5105874Y5511039D01*
G01X4969831Y5653053D02*
G01X4889834Y5653053D01*
G01X5025876Y5653005D02*
G01X5105874Y5653005D01*
G01X4858859Y5542068D02*
G01X4858859Y5622073D01*
G01X5136852Y5622019D02*
G01X5136852Y5542017D01*
G01X5105869Y5653005D02*
G02X5136852Y5622019I0J-30983D01*
G01X5136852Y5542022D02*
G02X5105869Y5511039I-30983J0D01*
G01X4889839Y5511085D02*
G02X4858859Y5542068I3J30983D01*
G01X4858859Y5622065D02*
G02X4889839Y5653053I30983J5D01*
G54D10*
G01X4436821Y1051540D02*
G01X4532709Y1051540D01*
G01X4532709Y1051540D02*
G01X4532709Y1183660D01*
G01X4532709Y1183660D02*
G01X4436821Y1183660D01*
G01X4351579Y1051540D02*
G01X4255691Y1051540D01*
G01X4255691Y1051540D02*
G01X4255691Y1183660D01*
G01X4255691Y1183660D02*
G01X4351579Y1183660D01*
G01X4671040Y1151179D02*
G01X4671040Y1055291D01*
G01X4671040Y1055291D02*
G01X4803160Y1055291D01*
G01X4803160Y1055291D02*
G01X4803160Y1151179D01*
G01X4671040Y1236421D02*
G01X4671040Y1332309D01*
G01X4671040Y1332309D02*
G01X4803160Y1332309D01*
G01X4803160Y1332309D02*
G01X4803160Y1236421D01*
G01X2517160Y5592521D02*
G01X2517160Y5688409D01*
G01X2517160Y5688409D02*
G01X2385040Y5688409D01*
G01X2385040Y5688409D02*
G01X2385040Y5592521D01*
G01X2517160Y5507279D02*
G01X2517160Y5411391D01*
G01X2517160Y5411391D02*
G01X2385040Y5411391D01*
G01X2385040Y5411391D02*
G01X2385040Y5507279D01*
G01X2293315Y5210424D02*
G01X2197428Y5210424D01*
G01X2197428Y5210424D02*
G01X2197428Y5078303D01*
G01X2197428Y5078303D02*
G01X2293315Y5078303D01*
G01X2378558Y5210424D02*
G01X2474445Y5210424D01*
G01X2474445Y5210424D02*
G01X2474445Y5078303D01*
G01X2474445Y5078303D02*
G01X2378558Y5078303D01*
G01X6841876Y5038242D02*
G01X6841876Y4942355D01*
G01X6841876Y4942355D02*
G01X6973997Y4942355D01*
G01X6973997Y4942355D02*
G01X6973997Y5038242D01*
G01X6841876Y5123485D02*
G01X6841876Y5219372D01*
G01X6841876Y5219372D02*
G01X6973997Y5219372D01*
G01X6973997Y5219372D02*
G01X6973997Y5123485D01*
G01X6845443Y5459105D02*
G01X6845443Y5363217D01*
G01X6845443Y5363217D02*
G01X6977564Y5363217D01*
G01X6977564Y5363217D02*
G01X6977564Y5459105D01*
G01X6845443Y5544347D02*
G01X6845443Y5640235D01*
G01X6845443Y5640235D02*
G01X6977564Y5640235D01*
G01X6977564Y5640235D02*
G01X6977564Y5544347D01*
G54D11*
G01X4258099Y4950000D02*
G01X4258099Y5030000D01*
G01X4258099Y5210000D02*
G01X4258099Y5130000D01*
G01X4708101Y4950000D02*
G01X4704212Y4950000D01*
G01X4258099Y4950000D02*
G01X4261985Y4950000D01*
G01X4704212Y5210000D02*
G01X4708101Y5210000D01*
G01X4258099Y5210000D02*
G01X4261988Y5210000D01*
G01X4708101Y5210000D02*
G01X4708101Y4950000D01*
G01X4258099Y5030000D02*
G03X4258056Y5130038I-377J50019D01*
G01X7696195Y5842008D02*
G01X7496800Y5842008D01*
G01X8039097Y5842008D02*
G01X7891800Y5842008D01*
G01X7695883Y4934809D02*
G01X7497110Y4934809D01*
G01X8053997Y4934809D02*
G01X7892113Y4934809D01*
G01X8053997Y5834807D02*
G01X8053997Y4934809D01*
G01X5105408Y444505D02*
G01X5105408Y643900D01*
G01X5105408Y101603D02*
G01X5105408Y248900D01*
G01X4198209Y444818D02*
G01X4198209Y643590D01*
G01X4198209Y86703D02*
G01X4198209Y248587D01*
G01X5098207Y86703D02*
G01X4198209Y86703D01*
G01X1603589Y4924796D02*
G01X1802984Y4924796D01*
G01X1260687Y4924796D02*
G01X1407984Y4924796D01*
G01X1603902Y5831995D02*
G01X1802674Y5831995D01*
G01X1245787Y5831995D02*
G01X1407671Y5831995D01*
G01X1245787Y4931996D02*
G01X1245787Y5831995D01*
G01X2921000Y7438324D02*
G01X2921000Y6870700D01*
G01X2921000Y6870700D02*
G01X3152287Y6870700D01*
G01X4241800Y7791668D02*
G01X4241800Y7874000D01*
G01X4241800Y7874000D02*
G01X2921000Y7874000D01*
G01X2921000Y7874000D02*
G01X2921000Y7791668D01*
G01X4010513Y6870703D02*
G01X4241800Y6870703D01*
G01X4241800Y6870703D02*
G01X4241800Y7438324D01*
G01X3402287Y6870703D02*
G01X3310514Y6870703D01*
G01X3602286Y6870703D02*
G01X3560514Y6870703D01*
G01X3852286Y6870703D02*
G01X3760513Y6870703D01*
G01X3323593Y7462543D02*
G01X3120591Y7462543D01*
G01X3337590Y7341527D02*
G01X3111576Y7341527D01*
G01X4011699Y7452634D02*
G01X3808705Y7452634D01*
G01X4025697Y7331636D02*
G01X3799688Y7331636D01*
G01X3730879Y7105109D02*
G01X3766436Y7679162D01*
G01X3766436Y7679162D02*
G01X4056002Y7679162D01*
G01X4056002Y7679162D02*
G01X4104259Y7105109D01*
G01X4104259Y7105109D02*
G01X4053459Y7105109D01*
G01X4053459Y7105109D02*
G01X4002938Y7618626D01*
G01X4002938Y7618626D02*
G01X3827910Y7618626D01*
G01X3827910Y7618626D02*
G01X3768979Y7105109D01*
G01X3768979Y7105109D02*
G01X3730879Y7105109D01*
G01X3048000Y7112003D02*
G01X3082801Y7685662D01*
G01X3082801Y7685662D02*
G01X3371324Y7685166D01*
G01X3371324Y7685166D02*
G01X3420821Y7111662D01*
G01X3420821Y7111662D02*
G01X3369948Y7112053D01*
G01X3369948Y7112053D02*
G01X3318916Y7566078D01*
G01X3318916Y7566078D02*
G01X3311401Y7633901D01*
G01X3311401Y7633901D02*
G01X3136417Y7632822D01*
G01X3136417Y7632822D02*
G01X3089021Y7155002D01*
G01X3089021Y7155002D02*
G01X3086026Y7112003D01*
G01X3086026Y7112003D02*
G01X3048000Y7112003D01*
G01X5105400Y7438324D02*
G01X5105400Y6870700D01*
G01X5105400Y6870700D02*
G01X5336687Y6870700D01*
G01X6426200Y7791668D02*
G01X6426200Y7874000D01*
G01X6426200Y7874000D02*
G01X5105400Y7874000D01*
G01X5105400Y7874000D02*
G01X5105400Y7791668D01*
G01X6194913Y6870703D02*
G01X6426200Y6870703D01*
G01X6426200Y6870703D02*
G01X6426200Y7438324D01*
G01X5586687Y6870703D02*
G01X5494914Y6870703D01*
G01X5786686Y6870703D02*
G01X5744914Y6870703D01*
G01X6036686Y6870703D02*
G01X5944913Y6870703D01*
G01X5507993Y7462543D02*
G01X5304991Y7462543D01*
G01X5521990Y7341527D02*
G01X5295976Y7341527D01*
G01X6196099Y7452634D02*
G01X5993105Y7452634D01*
G01X6210097Y7331636D02*
G01X5984088Y7331636D01*
G01X5915279Y7105109D02*
G01X5950836Y7679162D01*
G01X5950836Y7679162D02*
G01X6240402Y7679162D01*
G01X6240402Y7679162D02*
G01X6288659Y7105109D01*
G01X6288659Y7105109D02*
G01X6237859Y7105109D01*
G01X6237859Y7105109D02*
G01X6187338Y7618626D01*
G01X6187338Y7618626D02*
G01X6012310Y7618626D01*
G01X6012310Y7618626D02*
G01X5953379Y7105109D01*
G01X5953379Y7105109D02*
G01X5915279Y7105109D01*
G01X5232400Y7112003D02*
G01X5267201Y7685662D01*
G01X5267201Y7685662D02*
G01X5555724Y7685166D01*
G01X5555724Y7685166D02*
G01X5605221Y7111662D01*
G01X5605221Y7111662D02*
G01X5554348Y7112053D01*
G01X5554348Y7112053D02*
G01X5503316Y7566078D01*
G01X5503316Y7566078D02*
G01X5495801Y7633901D01*
G01X5495801Y7633901D02*
G01X5320817Y7632822D01*
G01X5320817Y7632822D02*
G01X5273421Y7155002D01*
G01X5273421Y7155002D02*
G01X5270426Y7112003D01*
G01X5270426Y7112003D02*
G01X5232400Y7112003D01*
G01X4848781Y4526443D02*
G01X4768784Y4526443D01*
G01X4904826Y4526397D02*
G01X4984824Y4526397D01*
G01X4848781Y4668411D02*
G01X4768784Y4668411D01*
G01X4904826Y4668363D02*
G01X4984824Y4668363D01*
G01X4737809Y4557425D02*
G01X4737809Y4637430D01*
G01X5015802Y4637377D02*
G01X5015802Y4557375D01*
G01X4984819Y4668363D02*
G02X5015802Y4637377I0J-30983D01*
G01X5015802Y4557380D02*
G02X4984819Y4526397I-30983J0D01*
G01X4768789Y4526443D02*
G02X4737809Y4557425I3J30983D01*
G01X4737809Y4637423D02*
G02X4768789Y4668411I30983J5D01*
G01X4843126Y4346935D02*
G01X4763129Y4346935D01*
G01X4899171Y4346889D02*
G01X4979169Y4346889D01*
G01X4843126Y4488903D02*
G01X4763129Y4488903D01*
G01X4899171Y4488855D02*
G01X4979169Y4488855D01*
G01X4732154Y4377918D02*
G01X4732154Y4457923D01*
G01X5010146Y4457869D02*
G01X5010146Y4377867D01*
G01X4979164Y4488855D02*
G02X5010146Y4457869I0J-30983D01*
G01X5010146Y4377872D02*
G02X4979164Y4346889I-30983J0D01*
G01X4763134Y4346935D02*
G02X4732154Y4377918I3J30983D01*
G01X4732154Y4457915D02*
G02X4763134Y4488903I30983J5D01*

G04 Circle Start*
G01X4238574Y4893996D02*
G03X4263619Y4893996I12522J0D01*
G03X4238574Y4893996I-12522J0D01*
G04 Circle End*

M02*

