G04 Layer: TopLayer*
G04 EasyEDA Pro v3.2.148, 2026-08-12 11:35:12*
G04 Gerber Generator version 0.3*
G04 Scale: 100 percent, Rotated: No, Reflected: No*
G04 Dimensions in millimeters*
G04 Leading zeros omitted, absolute positions, 4 integers and 5 decimals*
G04 Generated by one-click*
G04 Object Configs: Pad,Via,Track,Text,Image,Dimension,BoardOutline,BoardCutout,CopperFilled,SolidRegion,FPCStiffener,Line,PlaneZone,ComponentProperty,ComponentSilkscreen,TearDrop*
G04 Layer Configs: 1,2,3,4,5,6,7,8,9,10,11,13,14,56*
G04 Copper Areas: 53*
%FSLAX45Y45*%
%MOMM*%
%ADD10C,0.2032*%
%ADD11C,0.254*%
%ADD12R,0.9X0.8*%
%ADD13R,0.8X0.9*%
%ADD14R,0.80648X0.86401*%
%ADD15R,0.86401X0.80648*%
%ADD16R,0.25001X1.2*%
%ADD17R,1.1X0.55001*%
%ADD18R,1.1X0.3*%
%ADD19O,2.0085X1.1*%
%ADD20O,2.0X1.1*%
%ADD21O,1.8X1.2*%
%ADD22R,0.55001X1.1*%
%ADD23R,0.3X1.1*%
%ADD24O,1.1X2.0*%
%ADD25O,1.2X1.8*%
%ADD26R,1.11999X2.88*%
%ADD27O,1.2X2.49999*%
%ADD28C,0.61*%
G75*


G04 Copper Start*
G36*
G01X1475781Y5045319D02*
G01X1459694Y5043958D01*
G01X1444064Y5039916D01*
G01X1429334Y5033308D01*
G01X1415923Y5024319D01*
G01X1404211Y5013207D01*
G01X1396066Y5119121D01*
G01X1390364Y5225194D01*
G01X1387065Y5335414D01*
G01X1386470Y5445683D01*
G01X1388580Y5555932D01*
G01X1388580Y5555932D01*
G01X1391852Y5620505D01*
G01X1397602Y5684904D01*
G01X1405821Y5749035D01*
G01X1420585Y5736184D01*
G01X1437652Y5726601D01*
G01X1456311Y5720687D01*
G01X1475781Y5718688D01*
G01X1535781Y5718688D01*
G01X1554474Y5720529D01*
G01X1572448Y5725981D01*
G01X1589013Y5734835D01*
G01X1603532Y5746751D01*
G01X1615448Y5761270D01*
G01X1624302Y5777835D01*
G01X1629754Y5795809D01*
G01X1631595Y5814502D01*
G01X1629754Y5833194D01*
G01X1624302Y5851168D01*
G01X1615448Y5867733D01*
G01X1603532Y5882252D01*
G01X1589013Y5894168D01*
G01X1572448Y5903022D01*
G01X1554474Y5908475D01*
G01X1535781Y5910316D01*
G01X1475781Y5910316D01*
G01X1461405Y5909231D01*
G01X1447354Y5906001D01*
G01X1433946Y5900700D01*
G01X1449749Y5969942D01*
G01X1466042Y6031455D01*
G01X1472567Y6052410D01*
G01X1480086Y6073028D01*
G01X1484493Y6084643D01*
G01X1491084Y6102761D01*
G01X1498509Y6123527D01*
G01X1505815Y6144324D01*
G01X1514543Y6167629D01*
G01X1528645Y6201919D01*
G01X1544744Y6239260D01*
G01X1560523Y6274086D01*
G01X1575571Y6307132D01*
G01X1588392Y6336831D01*
G01X1598314Y6360983D01*
G01X1605573Y6366055D01*
G01X1611737Y6372413D01*
G01X1616574Y6379731D01*
G01X1620018Y6387799D01*
G01X1622244Y6398351D01*
G01X1633978Y6419421D01*
G01X1651086Y6448236D01*
G01X1661306Y6464300D01*
G01X1866494Y6464300D01*
G01X1868483Y6440300D01*
G01X1874395Y6416954D01*
G01X1884069Y6394900D01*
G01X1897240Y6374739D01*
G01X1913551Y6357021D01*
G01X1932555Y6342229D01*
G01X1953735Y6330767D01*
G01X1976513Y6322948D01*
G01X2000267Y6318984D01*
G01X2024349Y6318984D01*
G01X2048103Y6322948D01*
G01X2070881Y6330767D01*
G01X2092061Y6342229D01*
G01X2111065Y6357021D01*
G01X2127376Y6374739D01*
G01X2140548Y6394900D01*
G01X2150222Y6416954D01*
G01X2156133Y6440300D01*
G01X2158122Y6464300D01*
G01X2156133Y6488300D01*
G01X2150222Y6511646D01*
G01X2140548Y6533700D01*
G01X2127376Y6553861D01*
G01X2111065Y6571579D01*
G01X2092061Y6586371D01*
G01X2070881Y6597833D01*
G01X2048103Y6605652D01*
G01X2024349Y6609616D01*
G01X2000267Y6609616D01*
G01X1976513Y6605652D01*
G01X1953735Y6597833D01*
G01X1932555Y6586371D01*
G01X1913551Y6571579D01*
G01X1897240Y6553861D01*
G01X1884069Y6533700D01*
G01X1874395Y6511646D01*
G01X1868483Y6488300D01*
G01X1866494Y6464300D01*
G01X1866494Y6464300D01*
G01X1661306Y6464300D01*
G01X1671671Y6480591D01*
G01X1693079Y6513935D01*
G01X1711326Y6543742D01*
G01X1726156Y6569016D01*
G01X1728012Y6572560D01*
G01X1734227Y6577785D01*
G01X1743290Y6587889D01*
G01X1753157Y6601105D01*
G01X1762249Y6615594D01*
G01X1769444Y6627599D01*
G01X1776237Y6638203D01*
G01X1780996Y6645200D01*
G01X1787570Y6652064D01*
G01X1798409Y6665344D01*
G01X1811199Y6681432D01*
G01X1825057Y6699356D01*
G01X1839325Y6717432D01*
G01X1854871Y6736004D01*
G01X2968986Y6736004D01*
G01X2970764Y6720750D01*
G01X2976003Y6706315D01*
G01X2984422Y6693472D01*
G01X2995569Y6682909D01*
G01X3008847Y6675194D01*
G01X3023544Y6670740D01*
G01X3038871Y6669786D01*
G01X3054006Y6672383D01*
G01X3068139Y6678392D01*
G01X3080510Y6687490D01*
G01X3139600Y6687490D01*
G01X3139600Y6592004D01*
G01X3139600Y6592004D01*
G01X3141353Y6580936D01*
G01X3146440Y6570953D01*
G01X3154363Y6563029D01*
G01X3164347Y6557942D01*
G01X3175414Y6556190D01*
G01X3287413Y6556190D01*
G01X3298480Y6557942D01*
G01X3308464Y6563029D01*
G01X3316387Y6570953D01*
G01X3321474Y6580936D01*
G01X3323227Y6592004D01*
G01X3323227Y6880004D01*
G01X3321474Y6891071D01*
G01X3316387Y6901055D01*
G01X3308464Y6908978D01*
G01X3298480Y6914065D01*
G01X3287413Y6915818D01*
G01X3175414Y6915818D01*
G01X3164347Y6914065D01*
G01X3154363Y6908978D01*
G01X3146440Y6901055D01*
G01X3141353Y6891071D01*
G01X3139600Y6880004D01*
G01X3139600Y6784518D01*
G01X3080510Y6784518D01*
G01X3068139Y6793616D01*
G01X3054006Y6799625D01*
G01X3038871Y6802222D01*
G01X3023544Y6801267D01*
G01X3008847Y6796813D01*
G01X2995569Y6789098D01*
G01X2984422Y6778536D01*
G01X2976003Y6765693D01*
G01X2970764Y6751257D01*
G01X2968986Y6736004D01*
G01X1854871Y6736004D01*
G01X1855275Y6736486D01*
G01X1870322Y6753537D01*
G01X1880412Y6763926D01*
G01X1896698Y6781258D01*
G01X1904645Y6793375D01*
G01X1909408Y6807061D01*
G01X1910692Y6821539D01*
G01X1908392Y6835892D01*
G01X1900612Y6858264D01*
G01X1896004Y6870429D01*
G01X1891233Y6884863D01*
G01X1887213Y6898680D01*
G01X1885121Y6907771D01*
G01X1882157Y6921051D01*
G01X1878245Y6935021D01*
G01X1873843Y6948496D01*
G01X1869013Y6960661D01*
G01X1862989Y6978235D01*
G01X1853046Y7021633D01*
G01X1841799Y7079061D01*
G01X1829283Y7151886D01*
G01X1829283Y7151886D01*
G01X1823480Y7196887D01*
G01X1820750Y7242179D01*
G01X1820750Y7242179D01*
G01X1819094Y7327315D01*
G01X1818586Y7412465D01*
G01X1818586Y7412465D01*
G01X1818586Y7412465D01*
G01X1819233Y7497672D01*
G01X1821041Y7582863D01*
G01X1821041Y7582863D01*
G01X1823865Y7629291D01*
G01X1829716Y7675437D01*
G01X1835441Y7708900D01*
G01X1958086Y7708900D01*
G01X1960046Y7675255D01*
G01X1965898Y7642064D01*
G01X1975564Y7609778D01*
G01X1988913Y7578832D01*
G01X2005764Y7549645D01*
G01X2025890Y7522611D01*
G01X2049018Y7498097D01*
G01X2074835Y7476433D01*
G01X2102993Y7457914D01*
G01X2133111Y7442788D01*
G01X2164780Y7431261D01*
G01X2197574Y7423489D01*
G01X2231049Y7419576D01*
G01X2264751Y7419576D01*
G01X2298226Y7423489D01*
G01X2331020Y7431261D01*
G01X2362689Y7442788D01*
G01X2392807Y7457914D01*
G01X2420965Y7476433D01*
G01X2446782Y7498097D01*
G01X2469910Y7522611D01*
G01X2490036Y7549645D01*
G01X2506887Y7578832D01*
G01X2520236Y7609778D01*
G01X2529902Y7642064D01*
G01X2535754Y7675255D01*
G01X2536031Y7679996D01*
G01X2840579Y7679996D01*
G01X2840579Y7549996D01*
G01X2842420Y7531304D01*
G01X2847872Y7513330D01*
G01X2856726Y7496765D01*
G01X2868642Y7482246D01*
G01X2883161Y7470330D01*
G01X2899726Y7461476D01*
G01X2917700Y7456023D01*
G01X2936392Y7454182D01*
G01X2955085Y7456023D01*
G01X2973059Y7461476D01*
G01X2989624Y7470330D01*
G01X3004143Y7482246D01*
G01X3016059Y7496765D01*
G01X3024913Y7513330D01*
G01X3030365Y7531304D01*
G01X3032206Y7549996D01*
G01X3032206Y7549996D01*
G01X3032206Y7679996D01*
G01X3030365Y7698688D01*
G01X3024913Y7716662D01*
G01X3016059Y7733227D01*
G01X3004143Y7747747D01*
G01X2989624Y7759662D01*
G01X2973059Y7768517D01*
G01X2955085Y7773969D01*
G01X2936392Y7775810D01*
G01X2917700Y7773969D01*
G01X2899726Y7768517D01*
G01X2883161Y7759662D01*
G01X2868642Y7747747D01*
G01X2856726Y7733227D01*
G01X2847872Y7716662D01*
G01X2842420Y7698688D01*
G01X2840579Y7679996D01*
G01X2536031Y7679996D01*
G01X2537714Y7708900D01*
G01X2535754Y7742545D01*
G01X2529902Y7775736D01*
G01X2520236Y7808022D01*
G01X2506887Y7838968D01*
G01X2490036Y7868155D01*
G01X2469910Y7895189D01*
G01X2446782Y7919703D01*
G01X2420965Y7941367D01*
G01X2392807Y7959886D01*
G01X2362689Y7975012D01*
G01X2331020Y7986539D01*
G01X2298226Y7994311D01*
G01X2264751Y7998224D01*
G01X2231049Y7998224D01*
G01X2197574Y7994311D01*
G01X2164780Y7986539D01*
G01X2133111Y7975012D01*
G01X2102993Y7959886D01*
G01X2074835Y7941367D01*
G01X2049018Y7919703D01*
G01X2025890Y7895189D01*
G01X2005764Y7868155D01*
G01X1988913Y7838968D01*
G01X1975564Y7808022D01*
G01X1965898Y7775736D01*
G01X1960046Y7742545D01*
G01X1958086Y7708900D01*
G01X1958086Y7708900D01*
G01X1835441Y7708900D01*
G01X1843066Y7753468D01*
G01X1843066Y7753468D01*
G01X1857233Y7825918D01*
G01X1871562Y7889880D01*
G01X1885170Y7941011D01*
G01X1891995Y7965119D01*
G01X1898728Y7990635D01*
G01X1904507Y8014085D01*
G01X1908319Y8031909D01*
G01X1910505Y8040982D01*
G01X1910972Y8042472D01*
G01X1917964Y8048635D01*
G01X1923033Y8055275D01*
G01X1926975Y8062639D01*
G01X1931381Y8077460D01*
G01X1932514Y8091031D01*
G01X1933145Y8098844D01*
G01X1935020Y8106455D01*
G01X1940760Y8122012D01*
G01X1947463Y8137179D01*
G01X1960428Y8161262D01*
G01X1984451Y8165488D01*
G01X2008820Y8166547D01*
G01X2060474Y8164525D01*
G01X2112027Y8160722D01*
G01X2168325Y8154550D01*
G01X2224361Y8146323D01*
G01X2273604Y8136883D01*
G01X2322305Y8124960D01*
G01X2322305Y8124960D01*
G01X2384351Y8107790D01*
G01X2428431Y8094819D01*
G01X2459726Y8084754D01*
G01X2470143Y8080254D01*
G01X2482586Y8074644D01*
G01X2496308Y8069887D01*
G01X2511588Y8065348D01*
G01X2526731Y8061622D01*
G01X2536406Y8059051D01*
G01X2544558Y8056027D01*
G01X2546334Y8055229D01*
G01X2555097Y8047379D01*
G01X2566990Y8040826D01*
G01X2580051Y8036735D01*
G01X2593040Y8035293D01*
G01X2611954Y8028463D01*
G01X2635322Y8018963D01*
G01X2660555Y8007523D01*
G01X2660555Y8007523D01*
G01X2660555Y8007523D01*
G01X2764047Y7958031D01*
G01X2764047Y7958031D01*
G01X2853852Y7914257D01*
G01X2931730Y7875762D01*
G01X2931730Y7875762D01*
G01X2941064Y7868255D01*
G01X2951931Y7861494D01*
G01X2965214Y7853679D01*
G01X2979654Y7845658D01*
G01X3049136Y7807112D01*
G01X3115715Y7768295D01*
G01X3179376Y7729222D01*
G01X3240012Y7689961D01*
G01X3268854Y7671413D01*
G01X3298267Y7653783D01*
G01X3321302Y7641913D01*
G01X3345377Y7632326D01*
G01X3365293Y7627368D01*
G01X3385765Y7625917D01*
G01X3397044Y7627257D01*
G01X3407816Y7630862D01*
G01X3417630Y7636581D01*
G01X3426077Y7644176D01*
G01X3429760Y7644844D01*
G01X3436639Y7645286D01*
G01X3453953Y7646321D01*
G01X3471931Y7649110D01*
G01X3489802Y7653163D01*
G01X3506438Y7658544D01*
G01X3517803Y7662440D01*
G01X3535895Y7667580D01*
G01X3555581Y7672516D01*
G01X3573490Y7676342D01*
G01X3573490Y7676342D01*
G01X3752225Y7710621D01*
G01X3752225Y7710621D01*
G01X3840344Y7726628D01*
G01X3911551Y7737964D01*
G01X4006438Y7751203D01*
G01X4006438Y7751203D01*
G01X4085894Y7761196D01*
G01X4165492Y7769982D01*
G01X4208587Y7774138D01*
G01X4190446Y7768805D01*
G01X4173705Y7760013D01*
G01X4159017Y7748105D01*
G01X4146953Y7733544D01*
G01X4137985Y7716897D01*
G01X4132460Y7698813D01*
G01X4130594Y7679996D01*
G01X4130594Y7549996D01*
G01X4132435Y7531304D01*
G01X4137887Y7513330D01*
G01X4146741Y7496765D01*
G01X4158657Y7482246D01*
G01X4173176Y7470330D01*
G01X4189741Y7461476D01*
G01X4207715Y7456023D01*
G01X4226408Y7454182D01*
G01X4245100Y7456023D01*
G01X4263074Y7461476D01*
G01X4279639Y7470330D01*
G01X4294158Y7482246D01*
G01X4306074Y7496765D01*
G01X4314928Y7513330D01*
G01X4320380Y7531304D01*
G01X4322221Y7549996D01*
G01X4322221Y7679996D01*
G01X4320410Y7698539D01*
G01X4315044Y7716380D01*
G01X4306328Y7732846D01*
G01X4294589Y7747313D01*
G01X4280272Y7759236D01*
G01X4263919Y7768162D01*
G01X4246147Y7773755D01*
G01X4227629Y7775802D01*
G01X4308898Y7781721D01*
G01X4308898Y7781721D01*
G01X4384207Y7785587D01*
G01X4459576Y7787989D01*
G01X4550626Y7789494D01*
G01X4641687Y7789974D01*
G01X4641687Y7789974D01*
G01X4756119Y7789141D01*
G01X4870528Y7786723D01*
G01X4870528Y7786723D01*
G01X4964290Y7782940D01*
G01X5057930Y7776854D01*
G01X5099502Y7773414D01*
G01X5082033Y7767620D01*
G01X5065994Y7758592D01*
G01X5051977Y7746665D01*
G01X5040499Y7732277D01*
G01X5031984Y7715960D01*
G01X5026746Y7698316D01*
G01X5024979Y7679996D01*
G01X5024979Y7622975D01*
G01X4843961Y7622975D01*
G01X4831404Y7621321D01*
G01X4819704Y7616475D01*
G01X4809656Y7608765D01*
G01X4791695Y7590805D01*
G01X4783986Y7580757D01*
G01X4779139Y7569056D01*
G01X4777486Y7556500D01*
G01X4777486Y6769100D01*
G01X4779139Y6756544D01*
G01X4783986Y6744843D01*
G01X4791695Y6734795D01*
G01X4824792Y6701699D01*
G01X4834839Y6693989D01*
G01X4846540Y6689143D01*
G01X4859096Y6687490D01*
G01X5324000Y6687490D01*
G01X5324000Y6592004D01*
G01X5325753Y6580936D01*
G01X5330840Y6570953D01*
G01X5338763Y6563029D01*
G01X5348747Y6557942D01*
G01X5359814Y6556190D01*
G01X5471813Y6556190D01*
G01X5482880Y6557942D01*
G01X5492864Y6563029D01*
G01X5500787Y6570953D01*
G01X5505874Y6580936D01*
G01X5507627Y6592004D01*
G01X5507627Y6880004D01*
G01X5505874Y6891071D01*
G01X5500787Y6901055D01*
G01X5492864Y6908978D01*
G01X5482880Y6914065D01*
G01X5471813Y6915818D01*
G01X5359814Y6915818D01*
G01X5348747Y6914065D01*
G01X5338763Y6908978D01*
G01X5330840Y6901055D01*
G01X5325753Y6891071D01*
G01X5324000Y6880004D01*
G01X5324000Y6784518D01*
G01X4879191Y6784518D01*
G01X4874514Y6789195D01*
G01X4874514Y7525947D01*
G01X5028046Y7525947D01*
G01X5034361Y7508645D01*
G01X5043870Y7492871D01*
G01X5056221Y7479209D01*
G01X5070959Y7468162D01*
G01X5087538Y7460139D01*
G01X5105345Y7455436D01*
G01X5123724Y7454227D01*
G01X5141994Y7456558D01*
G01X5159480Y7462340D01*
G01X5175537Y7471362D01*
G01X5189572Y7483290D01*
G01X5201064Y7497683D01*
G01X5209591Y7514008D01*
G01X5214836Y7531664D01*
G01X5216606Y7549996D01*
G01X5216606Y7679996D01*
G01X5214836Y7698331D01*
G01X5209589Y7715989D01*
G01X5201060Y7732317D01*
G01X5189564Y7746710D01*
G01X5175527Y7758638D01*
G01X5159466Y7767658D01*
G01X5245788Y7757716D01*
G01X5361131Y7742340D01*
G01X5476260Y7725430D01*
G01X5476260Y7725430D01*
G01X5550041Y7712530D01*
G01X5654025Y7691294D01*
G01X5762283Y7667410D01*
G01X5852799Y7645442D01*
G01X5912082Y7631609D01*
G01X5931848Y7629170D01*
G01X5951742Y7630091D01*
G01X5971352Y7634694D01*
G01X5989662Y7643090D01*
G01X6032763Y7670449D01*
G01X6046627Y7679996D01*
G01X6314994Y7679996D01*
G01X6314994Y7549996D01*
G01X6316835Y7531304D01*
G01X6322287Y7513330D01*
G01X6331141Y7496765D01*
G01X6343057Y7482246D01*
G01X6357576Y7470330D01*
G01X6374141Y7461476D01*
G01X6392115Y7456023D01*
G01X6410808Y7454182D01*
G01X6429500Y7456023D01*
G01X6447474Y7461476D01*
G01X6464039Y7470330D01*
G01X6478558Y7482246D01*
G01X6490474Y7496765D01*
G01X6499328Y7513330D01*
G01X6504780Y7531304D01*
G01X6506621Y7549996D01*
G01X6506621Y7549996D01*
G01X6506621Y7679996D01*
G01X6504780Y7698688D01*
G01X6499328Y7716662D01*
G01X6490474Y7733227D01*
G01X6478558Y7747747D01*
G01X6464039Y7759662D01*
G01X6447474Y7768517D01*
G01X6429500Y7773969D01*
G01X6410808Y7775810D01*
G01X6392115Y7773969D01*
G01X6374141Y7768517D01*
G01X6357576Y7759662D01*
G01X6343057Y7747747D01*
G01X6331141Y7733227D01*
G01X6322287Y7716662D01*
G01X6316835Y7698688D01*
G01X6314994Y7679996D01*
G01X6046627Y7679996D01*
G01X6056273Y7686638D01*
G01X6077795Y7701561D01*
G01X6095784Y7714120D01*
G01X6103515Y7719729D01*
G01X6106970Y7722096D01*
G01X6117887Y7728766D01*
G01X6130834Y7736376D01*
G01X6144371Y7744028D01*
G01X6158778Y7752248D01*
G01X6172059Y7760323D01*
G01X6182903Y7767336D01*
G01X6192989Y7776009D01*
G01X6216590Y7789458D01*
G01X6252310Y7808870D01*
G01X6308259Y7838272D01*
G01X6328429Y7849056D01*
G01X6346586Y7859348D01*
G01X6361403Y7868217D01*
G01X6370852Y7875639D01*
G01X6372313Y7876361D01*
G01X6378177Y7878898D01*
G01X6384870Y7881238D01*
G01X6398200Y7886459D01*
G01X6411142Y7894151D01*
G01X6421885Y7903874D01*
G01X6424028Y7906482D01*
G01X6438579Y7910762D01*
G01X6469534Y7924339D01*
G01X6499914Y7939455D01*
G01X6511563Y7946783D01*
G01X6521998Y7955757D01*
G01X6524928Y7957808D01*
G01X6556761Y7971911D01*
G01X6589164Y7984765D01*
G01X6592039Y7985286D01*
G01X6607034Y7987287D01*
G01X6615104Y7990220D01*
G01X6622575Y7994451D01*
G01X6629751Y8000466D01*
G01X6635603Y8007776D01*
G01X6635793Y8008070D01*
G01X6645787Y8011105D01*
G01X6660167Y8016204D01*
G01X6674579Y8022132D01*
G01X6688437Y8028031D01*
G01X6705980Y8035145D01*
G01X6723860Y8042143D01*
G01X6738893Y8047753D01*
G01X6754883Y8053652D01*
G01X6773094Y8060578D01*
G01X6790828Y8067484D01*
G01X6805325Y8073321D01*
G01X6829124Y8082023D01*
G01X6869987Y8094634D01*
G01X6922200Y8109527D01*
G01X6985778Y8126579D01*
G01X7052557Y8142178D01*
G01X7120077Y8154178D01*
G01X7162520Y8159633D01*
G01X7205157Y8163275D01*
G01X7247911Y8165099D01*
G01X7294716Y8164779D01*
G01X7341429Y8161821D01*
G01X7342979Y8154273D01*
G01X7346732Y8141827D01*
G01X7351822Y8127559D01*
G01X7357732Y8113220D01*
G01X7370642Y8081946D01*
G01X7382020Y8050468D01*
G01X7393515Y8013950D01*
G01X7406894Y7966685D01*
G01X7406894Y7966685D01*
G01X7413895Y7941281D01*
G01X7421296Y7914983D01*
G01X7421296Y7914983D01*
G01X7428070Y7891380D01*
G01X7432928Y7875109D01*
G01X7436296Y7862524D01*
G01X7440544Y7842607D01*
G01X7444515Y7820895D01*
G01X7447486Y7800990D01*
G01X7450730Y7779515D01*
G01X7454778Y7758654D01*
G01X7459029Y7740847D01*
G01X7464877Y7725245D01*
G01X7470380Y7678385D01*
G01X7476005Y7622867D01*
G01X7481296Y7559502D01*
G01X7486942Y7470463D01*
G01X7488689Y7400903D01*
G01X7486878Y7333170D01*
G01X7486878Y7333170D01*
G01X7481216Y7250200D01*
G01X7475904Y7192138D01*
G01X7475904Y7192138D01*
G01X7470288Y7141972D01*
G01X7465280Y7103223D01*
G01X7465280Y7103223D01*
G01X7461768Y7096484D01*
G01X7459196Y7089334D01*
G01X7454866Y7072626D01*
G01X7450744Y7052483D01*
G01X7447482Y7031207D01*
G01X7441651Y6996092D01*
G01X7433210Y6960232D01*
G01X7423342Y6927934D01*
G01X7414087Y6905775D01*
G01X7408643Y6892538D01*
G01X7404232Y6878022D01*
G01X7400156Y6861882D01*
G01X7396966Y6845908D01*
G01X7395337Y6832191D01*
G01X7395147Y6818380D01*
G01X7397228Y6803338D01*
G01X7402229Y6789000D01*
G01X7409313Y6776050D01*
G01X7418037Y6764142D01*
G01X7442920Y6736062D01*
G01X7468225Y6707944D01*
G01X7492435Y6678878D01*
G01X7520773Y6642666D01*
G01X7548284Y6605822D01*
G01X7600178Y6532917D01*
G01X7600886Y6530655D01*
G01X7601728Y6521943D01*
G01X7604221Y6513554D01*
G01X7608301Y6505757D01*
G01X7613808Y6498893D01*
G01X7620327Y6493369D01*
G01X7627769Y6489170D01*
G01X7628186Y6487931D01*
G01X7632126Y6476663D01*
G01X7636841Y6465767D01*
G01X7641684Y6456560D01*
G01X7646713Y6449415D01*
G01X7652960Y6443308D01*
G01X7658353Y6437913D01*
G01X7662528Y6431530D01*
G01X7711024Y6335519D01*
G01X7758148Y6238288D01*
G01X7760193Y6232365D01*
G01X7760886Y6226137D01*
G01X7762822Y6211238D01*
G01X7765678Y6203175D01*
G01X7769815Y6195687D01*
G01X7775188Y6189002D01*
G01X7781675Y6183391D01*
G01X7782952Y6176639D01*
G01X7787134Y6161754D01*
G01X7792960Y6145981D01*
G01X7800007Y6130895D01*
G01X7804411Y6121478D01*
G01X7808260Y6111081D01*
G01X7810858Y6101863D01*
G01X7810902Y6099985D01*
G01X7811867Y6088973D01*
G01X7814632Y6076878D01*
G01X7818941Y6065712D01*
G01X7823298Y6058236D01*
G01X7828869Y6051615D01*
G01X7829538Y6050455D01*
G01X7848447Y5976545D01*
G01X7865034Y5903882D01*
G01X7851862Y5908973D01*
G01X7838085Y5912072D01*
G01X7824003Y5913112D01*
G01X7764003Y5913112D01*
G01X7745310Y5911271D01*
G01X7727336Y5905819D01*
G01X7710771Y5896965D01*
G01X7696252Y5885049D01*
G01X7684336Y5870530D01*
G01X7675482Y5853965D01*
G01X7670030Y5835991D01*
G01X7668189Y5817299D01*
G01X7670030Y5798606D01*
G01X7675482Y5780632D01*
G01X7684336Y5764067D01*
G01X7696252Y5749548D01*
G01X7710771Y5737632D01*
G01X7727336Y5728778D01*
G01X7745310Y5723326D01*
G01X7764003Y5721485D01*
G01X7824003Y5721485D01*
G01X7843210Y5723430D01*
G01X7861638Y5729185D01*
G01X7878537Y5738519D01*
G01X7893223Y5751050D01*
G01X7898584Y5723433D01*
G01X7903623Y5699308D01*
G01X7909395Y5664435D01*
G01X7911524Y5629151D01*
G01X7911524Y5629151D01*
G01X7912401Y5369690D01*
G01X7912401Y5369690D01*
G01X7910647Y5110654D01*
G01X7910647Y5110654D01*
G01X7908387Y5074470D01*
G01X7902493Y5038697D01*
G01X7897733Y5013491D01*
G01X7885908Y5025431D01*
G01X7872179Y5035122D01*
G01X7856968Y5042266D01*
G01X7840743Y5046642D01*
G01X7824003Y5048115D01*
G01X7764003Y5048115D01*
G01X7745310Y5046274D01*
G01X7727336Y5040822D01*
G01X7710771Y5031968D01*
G01X7696252Y5020052D01*
G01X7684336Y5005533D01*
G01X7675482Y4988968D01*
G01X7670030Y4970994D01*
G01X7668189Y4952302D01*
G01X7670030Y4933609D01*
G01X7675482Y4915635D01*
G01X7684336Y4899070D01*
G01X7696252Y4884551D01*
G01X7710771Y4872635D01*
G01X7727336Y4863781D01*
G01X7745310Y4858329D01*
G01X7764003Y4856488D01*
G01X7824003Y4856488D01*
G01X7843584Y4858510D01*
G01X7862340Y4864492D01*
G01X7879476Y4874180D01*
G01X7877222Y4855482D01*
G01X7871802Y4814228D01*
G01X7871802Y4814228D01*
G01X7866402Y4777104D01*
G01X7866402Y4777104D01*
G01X7862206Y4752965D01*
G01X7857608Y4728923D01*
G01X7857608Y4728923D01*
G01X7851907Y4698153D01*
G01X7851907Y4698153D01*
G01X7846066Y4665967D01*
G01X7840986Y4637246D01*
G01X7840986Y4637246D01*
G01X7836266Y4613107D01*
G01X7831055Y4591882D01*
G01X7826976Y4577983D01*
G01X7822580Y4571639D01*
G01X7819152Y4564724D01*
G01X7814726Y4551387D01*
G01X7811877Y4536588D01*
G01X7810935Y4521531D01*
G01X7808985Y4504660D01*
G01X7798124Y4463281D01*
G01X7784798Y4421403D01*
G01X7773541Y4394914D01*
G01X7768517Y4383379D01*
G01X7764737Y4371570D01*
G01X7762083Y4359875D01*
G01X7760887Y4346952D01*
G01X7757691Y4335655D01*
G01X7753033Y4322034D01*
G01X7747449Y4308171D01*
G01X7740344Y4291565D01*
G01X7732818Y4273588D01*
G01X7725928Y4256803D01*
G01X7720857Y4244016D01*
G01X7694227Y4180546D01*
G01X7651144Y4087880D01*
G01X7651144Y4087880D01*
G01X7604511Y3990851D01*
G01X7604511Y3990851D01*
G01X7602961Y3988893D01*
G01X7596713Y3982785D01*
G01X7591683Y3975639D01*
G01X7586841Y3966432D01*
G01X7582126Y3955538D01*
G01X7578186Y3944270D01*
G01X7577349Y3941868D01*
G01X7571465Y3937988D01*
G01X7561765Y3928366D01*
G01X7554253Y3916861D01*
G01X7549205Y3905000D01*
G01X7544240Y3893322D01*
G01X7534812Y3877053D01*
G01X7522356Y3859281D01*
G01X7507287Y3840890D01*
G01X7499208Y3831107D01*
G01X7491950Y3820977D01*
G01X7486467Y3812002D01*
G01X7482051Y3800717D01*
G01X7480936Y3799034D01*
G01X7475665Y3791736D01*
G01X7468907Y3783443D01*
G01X7468907Y3783443D01*
G01X7441690Y3751511D01*
G01X7441690Y3751511D01*
G01X7421562Y3727402D01*
G01X7402419Y3703771D01*
G01X7378635Y3673719D01*
G01X7362948Y3654672D01*
G01X7346395Y3636374D01*
G01X7295993Y3585050D01*
G01X7241460Y3533360D01*
G01X7194147Y3492616D01*
G01X7180135Y3481156D01*
G01X7167400Y3470522D01*
G01X7156857Y3461541D01*
G01X7150378Y3455288D01*
G01X7136351Y3442473D01*
G01X7103560Y3418312D01*
G01X7072203Y3396605D01*
G01X7063029Y3394705D01*
G01X7055302Y3391564D01*
G01X7048246Y3387114D01*
G01X7041668Y3380970D01*
G01X7036446Y3373638D01*
G01X7034321Y3369372D01*
G01X7025974Y3363509D01*
G01X7014718Y3356933D01*
G01X6999624Y3348267D01*
G01X6985942Y3339144D01*
G01X6975496Y3331045D01*
G01X6970733Y3326389D01*
G01X6966801Y3321012D01*
G01X6954593Y3315933D01*
G01X6939908Y3308530D01*
G01X6923682Y3299660D01*
G01X6907926Y3290335D01*
G01X6863401Y3264355D01*
G01X6815031Y3238900D01*
G01X6770002Y3217031D01*
G01X6769475Y3216914D01*
G01X6761541Y3216305D01*
G01X6753794Y3214493D01*
G01X6745722Y3211120D01*
G01X6738379Y3206365D01*
G01X6731994Y3200311D01*
G01X6726865Y3193164D01*
G01X6710914Y3186962D01*
G01X6690711Y3178356D01*
G01X6669218Y3168357D01*
G01X6649532Y3159167D01*
G01X6631908Y3151578D01*
G01X6619843Y3146767D01*
G01X6608275Y3144635D01*
G01X6596435Y3140817D01*
G01X6582653Y3135682D01*
G01X6568621Y3129751D01*
G01X6554361Y3123724D01*
G01X6533517Y3115589D01*
G01X6510934Y3107190D01*
G01X6490171Y3099893D01*
G01X6469368Y3092753D01*
G01X6448597Y3085492D01*
G01X6430474Y3079041D01*
G01X6418840Y3074715D01*
G01X6399707Y3068222D01*
G01X6353083Y3054726D01*
G01X6299916Y3040009D01*
G01X6247844Y3026338D01*
G01X6247844Y3026338D01*
G01X6159164Y3003920D01*
G01X6159164Y3003920D01*
G01X6114079Y2993289D01*
G01X6087073Y2988042D01*
G01X6073517Y2986914D01*
G01X6059844Y2986122D01*
G01X6046305Y2983702D01*
G01X6034203Y2979930D01*
G01X6022733Y2973637D01*
G01X6005558Y2969638D01*
G01X5978933Y2964281D01*
G01X5948083Y2959175D01*
G01X5948083Y2959175D01*
G01X5831000Y2941530D01*
G01X5831000Y2941530D01*
G01X5831000Y2941530D01*
G01X5765452Y2931753D01*
G01X5765452Y2931753D01*
G01X5717258Y2924732D01*
G01X5717258Y2924732D01*
G01X5668461Y2917830D01*
G01X5641490Y2913857D01*
G01X5617839Y2909895D01*
G01X5598070Y2906243D01*
G01X5586378Y2902150D01*
G01X5576412Y2894794D01*
G01X5569824Y2885924D01*
G01X5566082Y2875529D01*
G01X5565505Y2864496D01*
G01X5568143Y2853767D01*
G01X5573768Y2844258D01*
G01X5588000Y2826934D01*
G01X5605883Y2806249D01*
G01X5627282Y2782926D01*
G01X5648481Y2759420D01*
G01X5668738Y2735097D01*
G01X5687259Y2710886D01*
G01X5704714Y2685896D01*
G01X5721569Y2659428D01*
G01X5737296Y2632275D01*
G01X5753420Y2601855D01*
G01X5768529Y2570918D01*
G01X5780398Y2545781D01*
G01X5792627Y2520319D01*
G01X5792627Y2520319D01*
G01X5803591Y2497861D01*
G01X5811111Y2483012D01*
G01X5814895Y2474752D01*
G01X5818372Y2464830D01*
G01X5820708Y2455755D01*
G01X5820886Y2454057D01*
G01X5822034Y2440207D01*
G01X5825162Y2427137D01*
G01X5829956Y2415032D01*
G01X5834229Y2407671D01*
G01X5839574Y2401047D01*
G01X5842731Y2395266D01*
G01X5859134Y2324723D01*
G01X5875908Y2237556D01*
G01X5891659Y2135573D01*
G01X5896789Y2091338D01*
G01X5899860Y2046913D01*
G01X5900866Y2002393D01*
G01X5900866Y2002393D01*
G01X5899294Y1429237D01*
G01X5899294Y1429237D01*
G01X5899294Y1429237D01*
G01X5895855Y822782D01*
G01X5895855Y822782D01*
G01X5893756Y803863D01*
G01X5887796Y785786D01*
G01X5881515Y770702D01*
G01X5873603Y749568D01*
G01X5865118Y725712D01*
G01X5857214Y702218D01*
G01X5849376Y680484D01*
G01X5839033Y655915D01*
G01X5828192Y633038D01*
G01X5819622Y617771D01*
G01X5809874Y601349D01*
G01X5801389Y585230D01*
G01X5795032Y571415D01*
G01X5794538Y570225D01*
G01X5791238Y567880D01*
G01X5780892Y557583D01*
G01X5772946Y545178D01*
G01X5767684Y532311D01*
G01X5764915Y525992D01*
G01X5760882Y520394D01*
G01X5707153Y462152D01*
G01X5653321Y406619D01*
G01X5644819Y404972D01*
G01X5632657Y399858D01*
G01X5621976Y391764D01*
G01X5614273Y381693D01*
G01X5574376Y357050D01*
G01X5529466Y331106D01*
G01X5491622Y311936D01*
G01X5457615Y297279D01*
G01X5422851Y284521D01*
G01X5387436Y273702D01*
G01X5353402Y265471D01*
G01X5318917Y259409D01*
G01X5284117Y255538D01*
G01X5216221Y251144D01*
G01X5148226Y248725D01*
G01X5160234Y263270D01*
G01X5169159Y279886D01*
G01X5174656Y297928D01*
G01X5176512Y316697D01*
G01X5176512Y376697D01*
G01X5174671Y395390D01*
G01X5169219Y413364D01*
G01X5160365Y429929D01*
G01X5148449Y444448D01*
G01X5133930Y456364D01*
G01X5117365Y465218D01*
G01X5099391Y470670D01*
G01X5080699Y472511D01*
G01X5062006Y470670D01*
G01X5044032Y465218D01*
G01X5027467Y456364D01*
G01X5012948Y444448D01*
G01X5001032Y429929D01*
G01X4992178Y413364D01*
G01X4986726Y395390D01*
G01X4984885Y376697D01*
G01X4984885Y316697D01*
G01X4986810Y297585D01*
G01X4992510Y279240D01*
G01X5001754Y262401D01*
G01X5014172Y247745D01*
G01X5014172Y247745D01*
G01X4645029Y246914D01*
G01X4645029Y246914D01*
G01X4295909Y247455D01*
G01X4295909Y247455D01*
G01X4281983Y247509D01*
G01X4294501Y262191D01*
G01X4303824Y279084D01*
G01X4309573Y297501D01*
G01X4311515Y316697D01*
G01X4311515Y376697D01*
G01X4309674Y395390D01*
G01X4304222Y413364D01*
G01X4295368Y429929D01*
G01X4283452Y444448D01*
G01X4268933Y456364D01*
G01X4252368Y465218D01*
G01X4234394Y470670D01*
G01X4215702Y472511D01*
G01X4197009Y470670D01*
G01X4179035Y465218D01*
G01X4162470Y456364D01*
G01X4147951Y444448D01*
G01X4136035Y429929D01*
G01X4127181Y413364D01*
G01X4121729Y395390D01*
G01X4119888Y376697D01*
G01X4119888Y316697D01*
G01X4121717Y298062D01*
G01X4127136Y280139D01*
G01X4135938Y263612D01*
G01X4147786Y249112D01*
G01X4118040Y249734D01*
G01X4118040Y249734D01*
G01X4010330Y253967D01*
G01X3983453Y256650D01*
G01X3956909Y261652D01*
G01X3930914Y268048D01*
G01X3906807Y274632D01*
G01X3886700Y280686D01*
G01X3883023Y282215D01*
G01X3870661Y287702D01*
G01X3856956Y292396D01*
G01X3841684Y296893D01*
G01X3826555Y300603D01*
G01X3817773Y303010D01*
G01X3816488Y303459D01*
G01X3813965Y307156D01*
G01X3807787Y313814D01*
G01X3800458Y319178D01*
G01X3793114Y322815D01*
G01X3785301Y325288D01*
G01X3771219Y326914D01*
G01X3759390Y328252D01*
G01X3748159Y332200D01*
G01X3738093Y338556D01*
G01X3738093Y338556D01*
G01X3682078Y384954D01*
G01X3627558Y433100D01*
G01X3627558Y433100D01*
G01X3574347Y483087D01*
G01X3522653Y534642D01*
G01X3517147Y541988D01*
G01X3513692Y550494D01*
G01X3512514Y559599D01*
G01X3511900Y567302D01*
G01X3510073Y574811D01*
G01X3504154Y587114D01*
G01X3495187Y597519D01*
G01X3486851Y603434D01*
G01X3460571Y659795D01*
G01X3434607Y719354D01*
G01X3433042Y724472D01*
G01X3432514Y729798D01*
G01X3430566Y745884D01*
G01X3426053Y759542D01*
G01X3419461Y772356D01*
G01X3412968Y781209D01*
G01X3412968Y781209D01*
G01X3409127Y845613D01*
G01X3405526Y945632D01*
G01X3405526Y945632D01*
G01X3405526Y945632D01*
G01X3402510Y1109621D01*
G01X3402510Y1109621D01*
G01X3397510Y1446631D01*
G01X3395522Y1457878D01*
G01X3390094Y1467927D01*
G01X3381778Y1475757D01*
G01X3371420Y1480570D01*
G01X3360074Y1481877D01*
G01X3320074Y1480059D01*
G01X3296373Y1478155D01*
G01X3262238Y1473890D01*
G01X3223643Y1468325D01*
G01X3185557Y1462079D01*
G01X3128631Y1453286D01*
G01X3071411Y1446676D01*
G01X3003097Y1440916D01*
G01X2934667Y1436767D01*
G01X2865070Y1434184D01*
G01X2795432Y1433231D01*
G01X2734221Y1434137D01*
G01X2673075Y1437101D01*
G01X2572519Y1445376D01*
G01X2527466Y1450371D01*
G01X2482539Y1456393D01*
G01X2406847Y1468514D01*
G01X2406226Y1468839D01*
G01X2398391Y1475232D01*
G01X2389401Y1479863D01*
G01X2377368Y1483671D01*
G01X2363941Y1486112D01*
G01X2350372Y1486914D01*
G01X2340973Y1488133D01*
G01X2316620Y1495601D01*
G01X2286634Y1507316D01*
G01X2252125Y1523213D01*
G01X2240151Y1528219D01*
G01X2226600Y1532666D01*
G01X2211490Y1536985D01*
G01X2196555Y1540603D01*
G01X2187774Y1543010D01*
G01X2186505Y1543452D01*
G01X2184214Y1546854D01*
G01X2178088Y1553588D01*
G01X2170789Y1559030D01*
G01X2163451Y1562729D01*
G01X2155631Y1565251D01*
G01X2143870Y1566868D01*
G01X2133998Y1571027D01*
G01X2120146Y1577959D01*
G01X2105818Y1586384D01*
G01X2088592Y1596750D01*
G01X2071802Y1605764D01*
G01X2057487Y1612539D01*
G01X2055741Y1613277D01*
G01X2051885Y1618326D01*
G01X2041142Y1628049D01*
G01X2028200Y1635740D01*
G01X2014869Y1640962D01*
G01X2008302Y1643272D01*
G01X2002559Y1645796D01*
G01X2001403Y1646376D01*
G01X1995913Y1651582D01*
G01X1982621Y1662586D01*
G01X1966461Y1675555D01*
G01X1965373Y1676400D01*
G01X3606394Y1676400D01*
G01X3608383Y1652400D01*
G01X3614295Y1629054D01*
G01X3623969Y1607000D01*
G01X3637140Y1586839D01*
G01X3653451Y1569121D01*
G01X3672455Y1554329D01*
G01X3693635Y1542867D01*
G01X3716413Y1535048D01*
G01X3740167Y1531084D01*
G01X3764249Y1531084D01*
G01X3788003Y1535048D01*
G01X3810781Y1542867D01*
G01X3831961Y1554329D01*
G01X3850965Y1569121D01*
G01X3867276Y1586839D01*
G01X3880448Y1607000D01*
G01X3890122Y1629054D01*
G01X3896033Y1652400D01*
G01X3898022Y1676400D01*
G01X3896033Y1700400D01*
G01X3890122Y1723746D01*
G01X3880448Y1745800D01*
G01X3867276Y1765961D01*
G01X3850965Y1783679D01*
G01X3831961Y1798471D01*
G01X3810781Y1809933D01*
G01X3788003Y1817752D01*
G01X3764249Y1821716D01*
G01X3740167Y1821716D01*
G01X3716413Y1817752D01*
G01X3693635Y1809933D01*
G01X3672455Y1798471D01*
G01X3653451Y1783679D01*
G01X3637140Y1765961D01*
G01X3623969Y1745800D01*
G01X3614295Y1723746D01*
G01X3608383Y1700400D01*
G01X3606394Y1676400D01*
G01X3606394Y1676400D01*
G01X1965373Y1676400D01*
G01X1948480Y1689522D01*
G01X1923192Y1709938D01*
G01X1898974Y1731614D01*
G01X1869708Y1759977D01*
G01X1841260Y1789161D01*
G01X1813861Y1818917D01*
G01X1787320Y1849439D01*
G01X1767766Y1873906D01*
G01X1749576Y1899401D01*
G01X1734441Y1921706D01*
G01X1720788Y1941444D01*
G01X1710684Y1955800D01*
G01X1891894Y1955800D01*
G01X1893883Y1931800D01*
G01X1899795Y1908454D01*
G01X1909469Y1886400D01*
G01X1922640Y1866239D01*
G01X1938951Y1848521D01*
G01X1957955Y1833729D01*
G01X1979135Y1822267D01*
G01X2001913Y1814448D01*
G01X2025667Y1810484D01*
G01X2049749Y1810484D01*
G01X2073503Y1814448D01*
G01X2096281Y1822267D01*
G01X2117461Y1833729D01*
G01X2136465Y1848521D01*
G01X2152776Y1866239D01*
G01X2165948Y1886400D01*
G01X2175622Y1908454D01*
G01X2181533Y1931800D01*
G01X2183522Y1955800D01*
G01X2181533Y1979800D01*
G01X2175622Y2003146D01*
G01X2165948Y2025200D01*
G01X2152776Y2045361D01*
G01X2136465Y2063079D01*
G01X2117461Y2077871D01*
G01X2096281Y2089333D01*
G01X2073503Y2097152D01*
G01X2049749Y2101116D01*
G01X2025667Y2101116D01*
G01X2001913Y2097152D01*
G01X1979135Y2089333D01*
G01X1957955Y2077871D01*
G01X1938951Y2063079D01*
G01X1922640Y2045361D01*
G01X1909469Y2025200D01*
G01X1899795Y2003146D01*
G01X1893883Y1979800D01*
G01X1891894Y1955800D01*
G01X1891894Y1955800D01*
G01X1710684Y1955800D01*
G01X1709162Y1957963D01*
G01X1702024Y1966425D01*
G01X1700210Y1968929D01*
G01X1700210Y1968929D01*
G01X1675679Y2018063D01*
G01X1675679Y2018063D01*
G01X1652325Y2065988D01*
G01X1650877Y2077137D01*
G01X1647378Y2087822D01*
G01X1625710Y2137083D01*
G01X1598664Y2196324D01*
G01X1565271Y2266611D01*
G01X1549199Y2298599D01*
G01X1532081Y2330039D01*
G01X1485913Y2408790D01*
G01X1437686Y2487291D01*
G01X1430518Y2496740D01*
G01X1421734Y2504708D01*
G01X1418635Y2519473D01*
G01X1413252Y2533567D01*
G01X1405719Y2546638D01*
G01X1396223Y2558361D01*
G01X1334316Y2622671D01*
G01X1271573Y2686165D01*
G01X1208009Y2748830D01*
G01X1143631Y2810657D01*
G01X1129293Y2821864D01*
G01X1113093Y2830157D01*
G01X1095616Y2835234D01*
G01X1088953Y2843595D01*
G01X1082020Y2849244D01*
G01X1074124Y2853443D01*
G01X1067429Y2855622D01*
G01X1060479Y2856751D01*
G01X1029721Y2877755D01*
G01X993151Y2905065D01*
G01X957907Y2934408D01*
G01X943074Y2948141D01*
G01X928985Y2962636D01*
G01X915623Y2977911D01*
G01X903077Y2993864D01*
G01X883506Y3023392D01*
G01X879497Y3031508D01*
G01X876685Y3040112D01*
G01X876878Y3047483D01*
G01X880841Y3053701D01*
G01X896914Y3066320D01*
G01X914535Y3076667D01*
G01X933385Y3084556D01*
G01X963069Y3093177D01*
G01X993424Y3099010D01*
G01X1024188Y3102005D01*
G01X1060002Y3102622D01*
G01X1095776Y3100846D01*
G01X1131352Y3096684D01*
G01X1197899Y3085516D01*
G01X1250049Y3074218D01*
G01X1278171Y3066811D01*
G01X1282822Y3061341D01*
G01X1288379Y3056794D01*
G01X1295113Y3052848D01*
G01X1302304Y3049813D01*
G01X1317418Y3046228D01*
G01X1329154Y3045316D01*
G01X1337157Y3036618D01*
G01X1344407Y3031588D01*
G01X1352458Y3027973D01*
G01X1360419Y3025962D01*
G01X1368602Y3025286D01*
G01X1373813Y3024096D01*
G01X1427960Y2997000D01*
G01X1474424Y2972446D01*
G01X1476164Y2968918D01*
G01X1481260Y2961548D01*
G01X1487724Y2955343D01*
G01X1494730Y2950802D01*
G01X1502433Y2947581D01*
G01X1510327Y2945780D01*
G01X1517980Y2941173D01*
G01X1531915Y2931875D01*
G01X1547256Y2920410D01*
G01X1571147Y2900744D01*
G01X1594067Y2879953D01*
G01X1672141Y2803954D01*
G01X1751495Y2724520D01*
G01X1753945Y2715156D01*
G01X1758180Y2706453D01*
G01X1768183Y2691544D01*
G01X1783753Y2671441D01*
G01X1809136Y2640934D01*
G01X1811750Y2637647D01*
G01X1812268Y2636940D01*
G01X1814670Y2629875D01*
G01X1818187Y2623295D01*
G01X1818187Y2623295D01*
G01X1868961Y2544575D01*
G01X1868961Y2544575D01*
G01X1868961Y2544575D01*
G01X1915114Y2473755D01*
G01X1915114Y2473755D01*
G01X1944683Y2430416D01*
G01X1971597Y2395516D01*
G01X2001294Y2362950D01*
G01X2047306Y2317574D01*
G01X2094375Y2273296D01*
G01X2192278Y2185491D01*
G01X2203637Y2177163D01*
G01X2216259Y2170911D01*
G01X2229767Y2166923D01*
G01X2235896Y2160318D01*
G01X2251135Y2149277D01*
G01X2273518Y2137074D01*
G01X2273518Y2137074D01*
G01X2273518Y2137074D01*
G01X2327587Y2110140D01*
G01X2327587Y2110140D01*
G01X2371808Y2088874D01*
G01X2403509Y2075461D01*
G01X2435948Y2064488D01*
G01X2482301Y2051299D01*
G01X2507329Y2044436D01*
G01X2507329Y2044436D01*
G01X2533216Y2037227D01*
G01X2556373Y2030685D01*
G01X2571489Y2026287D01*
G01X2601749Y2019037D01*
G01X2632614Y2015089D01*
G01X2682811Y2011926D01*
G01X2733062Y2009798D01*
G01X2785052Y2008737D01*
G01X2837052Y2008883D01*
G01X2837052Y2008883D01*
G01X2876737Y2010580D01*
G01X2916262Y2014522D01*
G01X3013055Y2028349D01*
G01X3052915Y2035148D01*
G01X3092586Y2042973D01*
G01X3125713Y2050497D01*
G01X3158587Y2059056D01*
G01X3186922Y2067703D01*
G01X3214772Y2077800D01*
G01X3224809Y2081590D01*
G01X3242532Y2087967D01*
G01X3262896Y2095149D01*
G01X3283289Y2102196D01*
G01X3358415Y2129409D01*
G01X3372383Y2136242D01*
G01X3384913Y2145451D01*
G01X3395606Y2156741D01*
G01X3404013Y2169313D01*
G01X3410326Y2183056D01*
G01X3414388Y2197624D01*
G01X3414388Y2197624D01*
G01X3430496Y2286384D01*
G01X3430496Y2286384D01*
G01X3434608Y2307777D01*
G01X3439699Y2328860D01*
G01X3444933Y2346797D01*
G01X3447240Y2352265D01*
G01X3453498Y2366194D01*
G01X3458065Y2380614D01*
G01X3461224Y2395171D01*
G01X3462514Y2410578D01*
G01X3462812Y2415028D01*
G01X3464157Y2422553D01*
G01X3466104Y2429780D01*
G01X3467375Y2432947D01*
G01X3472010Y2442646D01*
G01X3478349Y2456405D01*
G01X3485302Y2471772D01*
G01X3491926Y2486691D01*
G01X3521307Y2550846D01*
G01X3553483Y2615943D01*
G01X3583338Y2672651D01*
G01X3589123Y2682219D01*
G01X3595797Y2691191D01*
G01X3603506Y2700654D01*
G01X3611253Y2710311D01*
G01X3618051Y2718912D01*
G01X3622758Y2725075D01*
G01X3626948Y2730484D01*
G01X3640038Y2746646D01*
G01X3655720Y2765851D01*
G01X3672892Y2786707D01*
G01X3689964Y2807955D01*
G01X3704211Y2827075D01*
G01X3715170Y2842838D01*
G01X3719825Y2852263D01*
G01X3721724Y2862603D01*
G01X3720721Y2873068D01*
G01X3716893Y2882859D01*
G01X3710532Y2891228D01*
G01X3703117Y2897229D01*
G01X3694641Y2901604D01*
G01X3685455Y2904173D01*
G01X3685455Y2904173D01*
G01X3627522Y2914038D01*
G01X3627522Y2914038D01*
G01X3559159Y2924999D01*
G01X3476791Y2937195D01*
G01X3476791Y2937195D01*
G01X3476791Y2937195D01*
G01X3377041Y2952003D01*
G01X3377041Y2952003D01*
G01X3308706Y2963432D01*
G01X3262537Y2972184D01*
G01X3256676Y2976316D01*
G01X3250276Y2979548D01*
G01X3238519Y2983514D01*
G01X3225561Y2986024D01*
G01X3212389Y2986830D01*
G01X3201518Y2987346D01*
G01X3190759Y2988976D01*
G01X3130218Y3002191D01*
G01X3069984Y3016980D01*
G01X3060021Y3020137D01*
G01X3050450Y3024335D01*
G01X3039166Y3029262D01*
G01X3027590Y3033026D01*
G01X3016197Y3035682D01*
G01X3002984Y3036914D01*
G01X2992722Y3038260D01*
G01X2946250Y3051257D01*
G01X2900667Y3065320D01*
G01X2881852Y3073166D01*
G01X2868305Y3078929D01*
G01X2853252Y3083666D01*
G01X2836352Y3088136D01*
G01X2819535Y3091729D01*
G01X2808361Y3094277D01*
G01X2804111Y3095572D01*
G01X2795607Y3103687D01*
G01X2784064Y3110450D01*
G01X2770168Y3115851D01*
G01X2756088Y3119365D01*
G01X2725958Y3126744D01*
G01X2694330Y3137457D01*
G01X2676606Y3144557D01*
G01X2673147Y3149382D01*
G01X2667078Y3155416D01*
G01X2660000Y3160230D01*
G01X2653106Y3163406D01*
G01X2645823Y3165547D01*
G01X2633025Y3166914D01*
G01X2630300Y3167535D01*
G01X2630300Y3167535D01*
G01X2630300Y3167535D01*
G01X2523701Y3219184D01*
G01X2523701Y3219184D01*
G01X2417587Y3271367D01*
G01X2417587Y3271367D01*
G01X2414631Y3273745D01*
G01X2405788Y3282460D01*
G01X2398690Y3287591D01*
G01X2390588Y3292612D01*
G01X2382133Y3297040D01*
G01X2363573Y3306562D01*
G01X2345586Y3317126D01*
G01X2283491Y3357259D01*
G01X2283491Y3357259D01*
G01X2220242Y3399953D01*
G01X2216258Y3406483D01*
G01X2211225Y3412243D01*
G01X2200788Y3420044D01*
G01X2188937Y3425000D01*
G01X2180947Y3426581D01*
G01X2179402Y3427620D01*
G01X2177556Y3429193D01*
G01X2168290Y3437840D01*
G01X2150008Y3454010D01*
G01X2128156Y3473095D01*
G01X2104744Y3493286D01*
G01X2048969Y3543073D01*
G01X1994902Y3595303D01*
G01X1946349Y3646122D01*
G01X1907865Y3690938D01*
G01X1892697Y3709700D01*
G01X1878987Y3726415D01*
G01X1867382Y3740376D01*
G01X1861119Y3747055D01*
G01X1850187Y3759200D01*
G01X2387194Y3759200D01*
G01X2389183Y3735200D01*
G01X2395095Y3711854D01*
G01X2404769Y3689800D01*
G01X2417940Y3669639D01*
G01X2434251Y3651921D01*
G01X2453255Y3637129D01*
G01X2474435Y3625667D01*
G01X2497213Y3617848D01*
G01X2520967Y3613884D01*
G01X2545049Y3613884D01*
G01X2568803Y3617848D01*
G01X2591581Y3625667D01*
G01X2612761Y3637129D01*
G01X2631765Y3651921D01*
G01X2648076Y3669639D01*
G01X2661248Y3689800D01*
G01X2670922Y3711854D01*
G01X2676833Y3735200D01*
G01X2678822Y3759200D01*
G01X2676833Y3783200D01*
G01X2670922Y3806546D01*
G01X2661248Y3828600D01*
G01X2648076Y3848761D01*
G01X2631765Y3866479D01*
G01X2612761Y3881271D01*
G01X2591581Y3892733D01*
G01X2568803Y3900552D01*
G01X2545049Y3904516D01*
G01X2520967Y3904516D01*
G01X2497213Y3900552D01*
G01X2474435Y3892733D01*
G01X2453255Y3881271D01*
G01X2434251Y3866479D01*
G01X2417940Y3848761D01*
G01X2404769Y3828600D01*
G01X2395095Y3806546D01*
G01X2389183Y3783200D01*
G01X2387194Y3759200D01*
G01X2387194Y3759200D01*
G01X1850187Y3759200D01*
G01X1847960Y3761674D01*
G01X1823809Y3794345D01*
G01X1802126Y3825387D01*
G01X1800131Y3834359D01*
G01X1794224Y3846824D01*
G01X1785194Y3857403D01*
G01X1775060Y3864313D01*
G01X1775060Y3864313D01*
G01X1775060Y3864313D01*
G01X1738877Y3922078D01*
G01X1702491Y3981924D01*
G01X1702491Y3981924D01*
G01X1700343Y3994752D01*
G01X1695091Y4006390D01*
G01X1687075Y4016460D01*
G01X1676856Y4023968D01*
G01X1676856Y4023968D01*
G01X1625445Y4132763D01*
G01X1625445Y4132763D01*
G01X1575329Y4241743D01*
G01X1573226Y4248120D01*
G01X1572514Y4254798D01*
G01X1571125Y4267781D01*
G01X1568015Y4278540D01*
G01X1563471Y4288782D01*
G01X1557317Y4298235D01*
G01X1551354Y4313509D01*
G01X1544185Y4333756D01*
G01X1536977Y4356452D01*
G01X1529209Y4381627D01*
G01X1521105Y4406820D01*
G01X1513730Y4428847D01*
G01X1508308Y4443622D01*
G01X1504851Y4453419D01*
G01X1500067Y4469450D01*
G01X1495356Y4487000D01*
G01X1491562Y4503122D01*
G01X1487009Y4523555D01*
G01X1480585Y4551398D01*
G01X1473505Y4581511D01*
G01X1466775Y4609549D01*
G01X1447429Y4696534D01*
G01X1431455Y4784200D01*
G01X1418878Y4872419D01*
G01X1431798Y4864382D01*
G01X1445828Y4858493D01*
G01X1460614Y4854899D01*
G01X1475781Y4853691D01*
G01X1535781Y4853691D01*
G01X1554474Y4855532D01*
G01X1572448Y4860984D01*
G01X1589013Y4869838D01*
G01X1603532Y4881754D01*
G01X1615448Y4896273D01*
G01X1624302Y4912838D01*
G01X1629754Y4930812D01*
G01X1631595Y4949505D01*
G01X1630911Y4956452D01*
G01X1790248Y4956452D01*
G01X1790741Y4937791D01*
G01X1795038Y4919625D01*
G01X1802960Y4902721D01*
G01X1814170Y4887795D01*
G01X1828195Y4875475D01*
G01X1844443Y4866284D01*
G01X1862227Y4860609D01*
G01X1880796Y4858691D01*
G01X1948000Y4858691D01*
G01X1989596Y4817095D01*
G01X1999643Y4809386D01*
G01X2011344Y4804539D01*
G01X2023900Y4802886D01*
G01X2127656Y4802886D01*
G01X2130211Y4792692D01*
G01X2135615Y4783678D01*
G01X2143402Y4776621D01*
G01X2152902Y4772128D01*
G01X2163298Y4770586D01*
G01X2243298Y4770586D01*
G01X2254938Y4772531D01*
G01X2265314Y4778153D01*
G01X2273300Y4786843D01*
G01X2281286Y4778153D01*
G01X2291662Y4772531D01*
G01X2303302Y4770586D01*
G01X2383302Y4770586D01*
G01X2394369Y4772339D01*
G01X2404353Y4777426D01*
G01X2412276Y4785349D01*
G01X2417363Y4795333D01*
G01X2419116Y4806400D01*
G01X2419116Y4896400D01*
G01X2417363Y4907467D01*
G01X2412276Y4917451D01*
G01X2404353Y4925374D01*
G01X2394369Y4930461D01*
G01X2383302Y4932214D01*
G01X2303302Y4932214D01*
G01X2291662Y4930269D01*
G01X2281286Y4924647D01*
G01X2273300Y4915957D01*
G01X2265314Y4924647D01*
G01X2254938Y4930269D01*
G01X2243298Y4932214D01*
G01X2163298Y4932214D01*
G01X2152902Y4930672D01*
G01X2143402Y4926179D01*
G01X2135615Y4919122D01*
G01X2130211Y4910108D01*
G01X2127656Y4899914D01*
G01X2046874Y4899914D01*
G01X2055042Y4915597D01*
G01X2060016Y4932565D01*
G01X2061607Y4950175D01*
G01X2059756Y4967761D01*
G01X2054532Y4984653D01*
G01X2046133Y5000214D01*
G01X2056377Y5005197D01*
G01X2064537Y5013146D01*
G01X2069789Y5023254D01*
G01X2071601Y5034501D01*
G01X2071601Y5089502D01*
G01X2071034Y5095848D01*
G01X2069351Y5101994D01*
G01X2071034Y5108139D01*
G01X2071601Y5114485D01*
G01X2071601Y5169486D01*
G01X2071510Y5172031D01*
G01X2081648Y5179792D01*
G01X2136541Y5234686D01*
G01X2329405Y5234686D01*
G01X2348568Y5215523D01*
G01X2342829Y5209743D01*
G01X2338544Y5202815D01*
G01X2335936Y5195098D01*
G01X2332629Y5204220D01*
G01X2326994Y5212119D01*
G01X2319446Y5218216D01*
G01X2310538Y5222063D01*
G01X2300924Y5223378D01*
G01X2220276Y5223378D01*
G01X2209209Y5221625D01*
G01X2199225Y5216538D01*
G01X2191302Y5208615D01*
G01X2186215Y5198631D01*
G01X2184462Y5187564D01*
G01X2184462Y5101163D01*
G01X2186215Y5090096D01*
G01X2191302Y5080112D01*
G01X2199225Y5072189D01*
G01X2209209Y5067102D01*
G01X2220276Y5065349D01*
G01X2300924Y5065349D01*
G01X2310538Y5066664D01*
G01X2319446Y5070511D01*
G01X2326994Y5076608D01*
G01X2332629Y5084507D01*
G01X2335936Y5093629D01*
G01X2339244Y5084507D01*
G01X2344879Y5076608D01*
G01X2352427Y5070511D01*
G01X2361335Y5066664D01*
G01X2370949Y5065349D01*
G01X2451597Y5065349D01*
G01X2462664Y5067102D01*
G01X2472648Y5072189D01*
G01X2480571Y5080112D01*
G01X2485658Y5090096D01*
G01X2487411Y5101163D01*
G01X2487411Y5187564D01*
G01X2485419Y5199342D01*
G01X2479664Y5209809D01*
G01X2470788Y5217802D01*
G01X2459776Y5222431D01*
G01X2457956Y5234629D01*
G01X2453119Y5245973D01*
G01X2445577Y5255732D01*
G01X2442813Y5258496D01*
G01X2614249Y5258496D01*
G01X2623770Y5259439D01*
G01X2632921Y5262233D01*
G01X2641346Y5266769D01*
G01X2641346Y4999666D01*
G01X2642999Y4987110D01*
G01X2647846Y4975409D01*
G01X2655555Y4965362D01*
G01X3091022Y4529895D01*
G01X3101070Y4522185D01*
G01X3112771Y4517338D01*
G01X3125327Y4515685D01*
G01X4408656Y4515685D01*
G01X4421212Y4517338D01*
G01X4432913Y4522185D01*
G01X4442960Y4529895D01*
G01X4467263Y4554197D01*
G01X4467263Y1453223D01*
G01X4468916Y1440667D01*
G01X4473763Y1428966D01*
G01X4481473Y1418918D01*
G01X4529836Y1370555D01*
G01X4529836Y1190526D01*
G01X4520302Y1195058D01*
G01X4509860Y1196614D01*
G01X4429213Y1196614D01*
G01X4419599Y1195300D01*
G01X4410691Y1191453D01*
G01X4403142Y1185356D01*
G01X4397507Y1177456D01*
G01X4394200Y1168334D01*
G01X4390893Y1177456D01*
G01X4385258Y1185356D01*
G01X4377709Y1191453D01*
G01X4368801Y1195300D01*
G01X4359187Y1196614D01*
G01X4278540Y1196614D01*
G01X4268551Y1195193D01*
G01X4259355Y1191043D01*
G01X4251682Y1184492D01*
G01X4246140Y1176061D01*
G01X4243169Y1166419D01*
G01X4162685Y1166419D01*
G01X4157997Y1177313D01*
G01X4150008Y1186079D01*
G01X4139594Y1191755D01*
G01X4127898Y1193719D01*
G01X4037898Y1193719D01*
G01X4026201Y1191755D01*
G01X4015788Y1186079D01*
G01X4007799Y1177313D01*
G01X4003110Y1166419D01*
G01X3823005Y1166419D01*
G01X3810448Y1164766D01*
G01X3798748Y1159919D01*
G01X3788700Y1152209D01*
G01X3775695Y1139205D01*
G01X3767986Y1129157D01*
G01X3763139Y1117456D01*
G01X3761486Y1104900D01*
G01X3761486Y762000D01*
G01X3763139Y749444D01*
G01X3767986Y737743D01*
G01X3775695Y727695D01*
G01X3793656Y709735D01*
G01X3803704Y702025D01*
G01X3815404Y697179D01*
G01X3827961Y695525D01*
G01X4128745Y695525D01*
G01X4135626Y678873D01*
G01X4145660Y663908D01*
G01X4158450Y651217D01*
G01X4173495Y641302D01*
G01X4190200Y634552D01*
G01X4207910Y631233D01*
G01X4225926Y631475D01*
G01X4243540Y635270D01*
G01X4260058Y642467D01*
G01X4274830Y652784D01*
G01X4287274Y665814D01*
G01X4296901Y681045D01*
G01X4305079Y669037D01*
G01X4315535Y658951D01*
G01X4327829Y651211D01*
G01X4341445Y646142D01*
G01X4355808Y643959D01*
G01X4370314Y644753D01*
G01X4384353Y648491D01*
G01X4397334Y655014D01*
G01X4408710Y664050D01*
G01X4418003Y675217D01*
G01X4424822Y688045D01*
G01X4428879Y701995D01*
G01X4430004Y716480D01*
G01X4428150Y730889D01*
G01X4435709Y730889D01*
G01X4446958Y732701D01*
G01X4458207Y730889D01*
G01X4488207Y730889D01*
G01X4498213Y732315D01*
G01X4508219Y730889D01*
G01X4538280Y730889D01*
G01X4545989Y720842D01*
G01X4562333Y704498D01*
G01X4572380Y696788D01*
G01X4584081Y691942D01*
G01X4596637Y690289D01*
G01X4649750Y690289D01*
G01X4662307Y691942D01*
G01X4674007Y696788D01*
G01X4684055Y704498D01*
G01X4700398Y720842D01*
G01X4708108Y730889D01*
G01X4738193Y730889D01*
G01X4748200Y732315D01*
G01X4758206Y730889D01*
G01X4788206Y730889D01*
G01X4798212Y732315D01*
G01X4808219Y730889D01*
G01X4838219Y730889D01*
G01X4849468Y732701D01*
G01X4860717Y730889D01*
G01X4868276Y730889D01*
G01X4866421Y716482D01*
G01X4867546Y701999D01*
G01X4871601Y688051D01*
G01X4878418Y675223D01*
G01X4887708Y664057D01*
G01X4899082Y655021D01*
G01X4912059Y648495D01*
G01X4926096Y644756D01*
G01X4940600Y643958D01*
G01X4954962Y646137D01*
G01X4968577Y651201D01*
G01X4980872Y658936D01*
G01X4991330Y669017D01*
G01X4999511Y681020D01*
G01X5009547Y665280D01*
G01X5022589Y651924D01*
G01X5038086Y641516D01*
G01X5055384Y634498D01*
G01X5073751Y631164D01*
G01X5092412Y631657D01*
G01X5110578Y635954D01*
G01X5127482Y643875D01*
G01X5142408Y655086D01*
G01X5154728Y669111D01*
G01X5163919Y685359D01*
G01X5169594Y703143D01*
G01X5171512Y721712D01*
G01X5171512Y811712D01*
G01X5169940Y828537D01*
G01X5165278Y844779D01*
G01X5157687Y859877D01*
G01X5147431Y873307D01*
G01X5134864Y884604D01*
G01X5134864Y1162050D01*
G01X5133211Y1174606D01*
G01X5128364Y1186307D01*
G01X5120655Y1196355D01*
G01X5013568Y1303441D01*
G01X5003521Y1311151D01*
G01X4991820Y1315997D01*
G01X4979264Y1317650D01*
G01X4815165Y1317650D01*
G01X4810534Y1328658D01*
G01X4802541Y1337531D01*
G01X4792075Y1343283D01*
G01X4780300Y1345274D01*
G01X4693900Y1345274D01*
G01X4684133Y1343917D01*
G01X4675106Y1339947D01*
G01X4667504Y1333666D01*
G01X4667504Y1407484D01*
G01X4665851Y1420040D01*
G01X4661004Y1431741D01*
G01X4653295Y1441788D01*
G01X4604931Y1490152D01*
G01X4604931Y1663700D01*
G01X5397094Y1663700D01*
G01X5399083Y1639700D01*
G01X5404995Y1616354D01*
G01X5414669Y1594300D01*
G01X5427840Y1574139D01*
G01X5444151Y1556421D01*
G01X5463155Y1541629D01*
G01X5484335Y1530167D01*
G01X5507113Y1522348D01*
G01X5530867Y1518384D01*
G01X5554949Y1518384D01*
G01X5578703Y1522348D01*
G01X5601481Y1530167D01*
G01X5622661Y1541629D01*
G01X5641665Y1556421D01*
G01X5657976Y1574139D01*
G01X5671148Y1594300D01*
G01X5680822Y1616354D01*
G01X5686733Y1639700D01*
G01X5688722Y1663700D01*
G01X5686733Y1687700D01*
G01X5680822Y1711046D01*
G01X5671148Y1733100D01*
G01X5657976Y1753261D01*
G01X5641665Y1770979D01*
G01X5622661Y1785771D01*
G01X5601481Y1797233D01*
G01X5578703Y1805052D01*
G01X5554949Y1809016D01*
G01X5530867Y1809016D01*
G01X5507113Y1805052D01*
G01X5484335Y1797233D01*
G01X5463155Y1785771D01*
G01X5444151Y1770979D01*
G01X5427840Y1753261D01*
G01X5414669Y1733100D01*
G01X5404995Y1711046D01*
G01X5399083Y1687700D01*
G01X5397094Y1663700D01*
G01X5397094Y1663700D01*
G01X4604931Y1663700D01*
G01X4604931Y3759200D01*
G01X6699486Y3759200D01*
G01X6701475Y3735200D01*
G01X6707387Y3711854D01*
G01X6717060Y3689800D01*
G01X6730232Y3669639D01*
G01X6746543Y3651921D01*
G01X6765547Y3637129D01*
G01X6786727Y3625667D01*
G01X6809505Y3617848D01*
G01X6833259Y3613884D01*
G01X6857341Y3613884D01*
G01X6881095Y3617848D01*
G01X6903873Y3625667D01*
G01X6925053Y3637129D01*
G01X6944057Y3651921D01*
G01X6960368Y3669639D01*
G01X6973540Y3689800D01*
G01X6983213Y3711854D01*
G01X6989125Y3735200D01*
G01X6991114Y3759200D01*
G01X6989125Y3783200D01*
G01X6983213Y3806546D01*
G01X6973540Y3828600D01*
G01X6960368Y3848761D01*
G01X6944057Y3866479D01*
G01X6925053Y3881271D01*
G01X6903873Y3892733D01*
G01X6881095Y3900552D01*
G01X6857341Y3904516D01*
G01X6833259Y3904516D01*
G01X6809505Y3900552D01*
G01X6786727Y3892733D01*
G01X6765547Y3881271D01*
G01X6746543Y3866479D01*
G01X6730232Y3848761D01*
G01X6717060Y3828600D01*
G01X6707387Y3806546D01*
G01X6701475Y3783200D01*
G01X6699486Y3759200D01*
G01X6699486Y3759200D01*
G01X4604931Y3759200D01*
G01X4604931Y4462892D01*
G01X4725329Y4462892D01*
G01X4725329Y4372892D01*
G01X4727082Y4361825D01*
G01X4732169Y4351841D01*
G01X4740092Y4343918D01*
G01X4750076Y4338831D01*
G01X4761143Y4337078D01*
G01X4841143Y4337078D01*
G01X4852783Y4339023D01*
G01X4863159Y4344645D01*
G01X4871145Y4353335D01*
G01X4876943Y4346495D01*
G01X4884259Y4341310D01*
G01X4892633Y4338105D01*
G01X4892633Y4287010D01*
G01X4883535Y4274639D01*
G01X4877526Y4260506D01*
G01X4874930Y4245371D01*
G01X4875884Y4230044D01*
G01X4880338Y4215347D01*
G01X4888053Y4202069D01*
G01X4898615Y4190922D01*
G01X4911459Y4182503D01*
G01X4925894Y4177264D01*
G01X4941147Y4175486D01*
G01X4956401Y4177264D01*
G01X4970836Y4182503D01*
G01X4983680Y4190922D01*
G01X4994242Y4202069D01*
G01X5001957Y4215347D01*
G01X5006411Y4230044D01*
G01X5007365Y4245371D01*
G01X5004768Y4260506D01*
G01X4998760Y4274639D01*
G01X4989661Y4287010D01*
G01X4989661Y4338105D01*
G01X5000556Y4342793D01*
G01X5009322Y4350782D01*
G01X5014998Y4361196D01*
G01X5016961Y4372892D01*
G01X5016961Y4462892D01*
G01X5015209Y4473959D01*
G01X5010121Y4483943D01*
G01X5002198Y4491866D01*
G01X4992214Y4496953D01*
G01X4981147Y4498706D01*
G01X4901148Y4498706D01*
G01X4889507Y4496762D01*
G01X4879131Y4491139D01*
G01X4871145Y4482449D01*
G01X4863159Y4491139D01*
G01X4852783Y4496762D01*
G01X4841143Y4498706D01*
G01X4841143Y4498706D01*
G01X4761143Y4498706D01*
G01X4750076Y4496953D01*
G01X4740092Y4491866D01*
G01X4732169Y4483943D01*
G01X4727082Y4473959D01*
G01X4725329Y4462892D01*
G01X4604931Y4462892D01*
G01X4604931Y4790887D01*
G01X4607948Y4797345D01*
G01X4609985Y4804176D01*
G01X4628112Y4804176D01*
G01X4635251Y4804895D01*
G01X4642104Y4807022D01*
G01X4648957Y4804895D01*
G01X4656096Y4804176D01*
G01X4681097Y4804176D01*
G01X4692164Y4805929D01*
G01X4702148Y4811016D01*
G01X4710071Y4818939D01*
G01X4715158Y4828923D01*
G01X4716911Y4839990D01*
G01X4716911Y4851476D01*
G01X4789217Y4851476D01*
G01X4880530Y4760164D01*
G01X4882954Y4744585D01*
G01X4888987Y4730020D01*
G01X4898288Y4717290D01*
G01X4898288Y4677187D01*
G01X4889914Y4673982D01*
G01X4882598Y4668797D01*
G01X4876800Y4661957D01*
G01X4868814Y4670647D01*
G01X4858438Y4676269D01*
G01X4846798Y4678214D01*
G01X4766798Y4678214D01*
G01X4755731Y4676461D01*
G01X4745747Y4671374D01*
G01X4737824Y4663451D01*
G01X4732737Y4653467D01*
G01X4730984Y4642400D01*
G01X4730984Y4552400D01*
G01X4732737Y4541333D01*
G01X4737824Y4531349D01*
G01X4745747Y4523426D01*
G01X4755731Y4518339D01*
G01X4766798Y4516586D01*
G01X4846798Y4516586D01*
G01X4858438Y4518531D01*
G01X4868814Y4524153D01*
G01X4876800Y4532843D01*
G01X4884786Y4524153D01*
G01X4895162Y4518531D01*
G01X4906802Y4516586D01*
G01X4986802Y4516586D01*
G01X4997869Y4518339D01*
G01X5007853Y4523426D01*
G01X5015776Y4531349D01*
G01X5020863Y4541333D01*
G01X5022616Y4552400D01*
G01X5022616Y4642400D01*
G01X5020653Y4654096D01*
G01X5014976Y4664510D01*
G01X5006211Y4672499D01*
G01X4995316Y4677187D01*
G01X4995316Y4717290D01*
G01X5004299Y4729458D01*
G01X5010290Y4743346D01*
G01X5012979Y4758229D01*
G01X5012225Y4773335D01*
G01X5008069Y4787877D01*
G01X5000725Y4801099D01*
G01X4990576Y4812314D01*
G01X4978151Y4820937D01*
G01X4964094Y4826520D01*
G01X4949139Y4828773D01*
G01X4843617Y4934295D01*
G01X4833569Y4942005D01*
G01X4821869Y4946851D01*
G01X4809312Y4948504D01*
G01X4716911Y4948504D01*
G01X4716911Y4959990D01*
G01X4715158Y4971057D01*
G01X4710071Y4981041D01*
G01X4702148Y4988964D01*
G01X4692164Y4994051D01*
G01X4681097Y4995804D01*
G01X4656096Y4995804D01*
G01X4648957Y4995085D01*
G01X4642104Y4992958D01*
G01X4635251Y4995085D01*
G01X4628112Y4995804D01*
G01X4603111Y4995804D01*
G01X4595965Y4995084D01*
G01X4589107Y4992953D01*
G01X4582248Y4995084D01*
G01X4575103Y4995804D01*
G01X4550101Y4995804D01*
G01X4542956Y4995084D01*
G01X4536097Y4992953D01*
G01X4529239Y4995084D01*
G01X4522093Y4995804D01*
G01X4497092Y4995804D01*
G01X4489953Y4995085D01*
G01X4483100Y4992958D01*
G01X4476247Y4995085D01*
G01X4469108Y4995804D01*
G01X4444107Y4995804D01*
G01X4436961Y4995084D01*
G01X4430103Y4992953D01*
G01X4423244Y4995084D01*
G01X4416099Y4995804D01*
G01X4391097Y4995804D01*
G01X4383958Y4995085D01*
G01X4377106Y4992958D01*
G01X4370253Y4995085D01*
G01X4363114Y4995804D01*
G01X4338113Y4995804D01*
G01X4330967Y4995084D01*
G01X4324109Y4992953D01*
G01X4317250Y4995084D01*
G01X4310104Y4995804D01*
G01X4285103Y4995804D01*
G01X4274036Y4994051D01*
G01X4264052Y4988964D01*
G01X4256129Y4981041D01*
G01X4251042Y4971057D01*
G01X4249289Y4959990D01*
G01X4249289Y4904384D01*
G01X4249090Y4899990D01*
G01X4249090Y4814590D01*
G01X4249222Y4811014D01*
G01X3929453Y4811014D01*
G01X3929453Y5600744D01*
G01X3982495Y5653786D01*
G01X4171778Y5653786D01*
G01X4159395Y5648617D01*
G01X4148307Y5641062D01*
G01X4138966Y5631429D01*
G01X4131756Y5620113D01*
G01X4126971Y5607577D01*
G01X4124808Y5594334D01*
G01X4125354Y5580927D01*
G01X4128589Y5567905D01*
G01X4134378Y5555800D01*
G01X4142486Y5545109D01*
G01X4142486Y5366614D01*
G01X4144139Y5354057D01*
G01X4148986Y5342357D01*
G01X4156695Y5332309D01*
G01X4249289Y5239715D01*
G01X4249289Y5200010D01*
G01X4251042Y5188943D01*
G01X4256129Y5178959D01*
G01X4264052Y5171036D01*
G01X4274036Y5165949D01*
G01X4285103Y5164196D01*
G01X4310104Y5164196D01*
G01X4317250Y5164916D01*
G01X4324109Y5167047D01*
G01X4330967Y5164916D01*
G01X4338113Y5164196D01*
G01X4363114Y5164196D01*
G01X4370253Y5164915D01*
G01X4377106Y5167042D01*
G01X4383958Y5164915D01*
G01X4391097Y5164196D01*
G01X4416099Y5164196D01*
G01X4423244Y5164916D01*
G01X4430103Y5167047D01*
G01X4436961Y5164916D01*
G01X4444107Y5164196D01*
G01X4469108Y5164196D01*
G01X4476247Y5164915D01*
G01X4483100Y5167042D01*
G01X4489953Y5164915D01*
G01X4497092Y5164196D01*
G01X4522093Y5164196D01*
G01X4529239Y5164916D01*
G01X4536097Y5167047D01*
G01X4542956Y5164916D01*
G01X4550101Y5164196D01*
G01X4575103Y5164196D01*
G01X4582248Y5164916D01*
G01X4589107Y5167047D01*
G01X4595965Y5164916D01*
G01X4603111Y5164196D01*
G01X4628112Y5164196D01*
G01X4635251Y5164915D01*
G01X4642104Y5167042D01*
G01X4648957Y5164915D01*
G01X4656096Y5164196D01*
G01X4681097Y5164196D01*
G01X4692164Y5165949D01*
G01X4702148Y5171036D01*
G01X4710071Y5178959D01*
G01X4715158Y5188943D01*
G01X4716911Y5200010D01*
G01X4716911Y5209286D01*
G01X4780505Y5209286D01*
G01X4874093Y5115698D01*
G01X4884141Y5107988D01*
G01X4895841Y5103141D01*
G01X4908398Y5101488D01*
G01X4940859Y5101488D01*
G01X4943603Y5090845D01*
G01X4949446Y5081535D01*
G01X4957837Y5074436D01*
G01X4967986Y5070215D01*
G01X4967986Y5026590D01*
G01X4957092Y5021901D01*
G01X4948326Y5013912D01*
G01X4942650Y5003499D01*
G01X4940686Y4991802D01*
G01X4940686Y4901802D01*
G01X4942439Y4890735D01*
G01X4947526Y4880752D01*
G01X4955449Y4872828D01*
G01X4965433Y4867741D01*
G01X4976500Y4865988D01*
G01X5056500Y4865988D01*
G01X5068140Y4867933D01*
G01X5078517Y4873555D01*
G01X5086502Y4882245D01*
G01X5094575Y4873488D01*
G01X5105074Y4867862D01*
G01X5097019Y4855308D01*
G01X5091973Y4841272D01*
G01X5090192Y4826464D01*
G01X5091766Y4811631D01*
G01X5096615Y4797526D01*
G01X5104494Y4784861D01*
G01X5115004Y4774278D01*
G01X5127613Y4766311D01*
G01X5141684Y4761363D01*
G01X5156505Y4759686D01*
G01X5171326Y4761363D01*
G01X5185397Y4766311D01*
G01X5198006Y4774278D01*
G01X5208516Y4784861D01*
G01X5216395Y4797526D01*
G01X5221243Y4811631D01*
G01X5222817Y4826464D01*
G01X5221036Y4841272D01*
G01X5215991Y4855308D01*
G01X5207936Y4867862D01*
G01X5217788Y4872998D01*
G01X5225591Y4880907D01*
G01X5230595Y4890827D01*
G01X5232319Y4901802D01*
G01X5232319Y4991802D01*
G01X5230566Y5002869D01*
G01X5225479Y5012853D01*
G01X5217556Y5020776D01*
G01X5207572Y5025863D01*
G01X5196505Y5027616D01*
G01X5116505Y5027616D01*
G01X5104864Y5025672D01*
G01X5094488Y5020049D01*
G01X5086502Y5011360D01*
G01X5080704Y5018199D01*
G01X5073388Y5023384D01*
G01X5065014Y5026590D01*
G01X5065014Y5070215D01*
G01X5073388Y5073420D01*
G01X5080704Y5078605D01*
G01X5086502Y5085445D01*
G01X5094488Y5076755D01*
G01X5104864Y5071133D01*
G01X5116505Y5069188D01*
G01X5196505Y5069188D01*
G01X5207572Y5070941D01*
G01X5217556Y5076028D01*
G01X5225479Y5083952D01*
G01X5230566Y5093935D01*
G01X5232319Y5105002D01*
G01X5232319Y5195002D01*
G01X5231115Y5204209D01*
G01X5227585Y5212797D01*
G01X5221966Y5220189D01*
G01X5214635Y5225888D01*
G01X5220322Y5239774D01*
G01X5222741Y5254584D01*
G01X5221768Y5269558D01*
G01X5217454Y5283930D01*
G01X5210019Y5296964D01*
G01X5199843Y5307993D01*
G01X5187449Y5316452D01*
G01X5173470Y5321907D01*
G01X5158622Y5324080D01*
G01X5143666Y5322859D01*
G01X5143666Y5372545D01*
G01X5158208Y5387086D01*
G01X5225290Y5387086D01*
G01X5237647Y5377996D01*
G01X5251763Y5371988D01*
G01X5266881Y5369385D01*
G01X5282193Y5370325D01*
G01X5296880Y5374759D01*
G01X5310154Y5382448D01*
G01X5321306Y5392982D01*
G01X5329740Y5405797D01*
G01X5335003Y5420207D01*
G01X5336814Y5435441D01*
G01X5335076Y5450683D01*
G01X5329882Y5465118D01*
G01X5344963Y5459777D01*
G01X5360883Y5458203D01*
G01X5376717Y5460487D01*
G01X5391544Y5466497D01*
G01X5404499Y5475883D01*
G01X5414830Y5488098D01*
G01X5421935Y5502432D01*
G01X5425400Y5518051D01*
G01X5425024Y5534044D01*
G01X5420828Y5549482D01*
G01X5413058Y5563467D01*
G01X5402164Y5575183D01*
G01X5388782Y5583950D01*
G01X5373690Y5589256D01*
G01X5357765Y5590794D01*
G01X5341937Y5588473D01*
G01X5327124Y5582429D01*
G01X5314190Y5573014D01*
G01X5145490Y5573014D01*
G01X5143666Y5574838D01*
G01X5143666Y5627042D01*
G01X5142261Y5636976D01*
G01X5138156Y5646130D01*
G01X5131673Y5653786D01*
G01X6266405Y5653786D01*
G01X6695899Y5224292D01*
G01X6705946Y5216582D01*
G01X6717647Y5211736D01*
G01X6730203Y5210083D01*
G01X6831588Y5210083D01*
G01X6829595Y5203433D01*
G01X6828922Y5196524D01*
G01X6828922Y5115876D01*
G01X6830237Y5106262D01*
G01X6834084Y5097354D01*
G01X6840181Y5089806D01*
G01X6848080Y5084171D01*
G01X6857202Y5080864D01*
G01X6848080Y5077556D01*
G01X6840181Y5071921D01*
G01X6834084Y5064373D01*
G01X6830237Y5055465D01*
G01X6828922Y5045851D01*
G01X6828922Y4965203D01*
G01X6830675Y4954136D01*
G01X6835762Y4944152D01*
G01X6843685Y4936229D01*
G01X6853669Y4931142D01*
G01X6864736Y4929389D01*
G01X6951137Y4929389D01*
G01X6962204Y4931142D01*
G01X6972188Y4936229D01*
G01X6980111Y4944152D01*
G01X6985198Y4954136D01*
G01X6986951Y4965203D01*
G01X6986951Y5045851D01*
G01X6985636Y5055465D01*
G01X6981789Y5064373D01*
G01X6975692Y5071921D01*
G01X6967793Y5077556D01*
G01X6958671Y5080864D01*
G01X6967793Y5084171D01*
G01X6975692Y5089806D01*
G01X6981789Y5097354D01*
G01X6985636Y5106262D01*
G01X6986951Y5115876D01*
G01X6986951Y5166605D01*
G01X7031651Y5211305D01*
G01X7228183Y5211305D01*
G01X7228183Y5194807D01*
G01X7229996Y5183558D01*
G01X7228183Y5172309D01*
G01X7228183Y5117308D01*
G01X7228751Y5110955D01*
G01X7230437Y5104803D01*
G01X7228751Y5098652D01*
G01X7228183Y5092299D01*
G01X7228183Y5037298D01*
G01X7229995Y5026051D01*
G01X7235247Y5015942D01*
G01X7243407Y5007994D01*
G01X7253651Y5003011D01*
G01X7245195Y4987313D01*
G01X7239969Y4970265D01*
G01X7238175Y4952525D01*
G01X7239881Y4934777D01*
G01X7245023Y4917704D01*
G01X7253402Y4901964D01*
G01X7264694Y4888166D01*
G01X7278465Y4876839D01*
G01X7294184Y4868422D01*
G01X7311244Y4863238D01*
G01X7328988Y4861488D01*
G01X7418988Y4861488D01*
G01X7437559Y4863407D01*
G01X7455345Y4869083D01*
G01X7471594Y4878276D01*
G01X7485620Y4890598D01*
G01X7496830Y4905527D01*
G01X7504750Y4922434D01*
G01X7509045Y4940602D01*
G01X7509535Y4959266D01*
G01X7506197Y4977634D01*
G01X7499174Y4994933D01*
G01X7488762Y5010429D01*
G01X7475401Y5023469D01*
G01X7459655Y5033501D01*
G01X7471663Y5041679D01*
G01X7481749Y5052135D01*
G01X7489489Y5064429D01*
G01X7494558Y5078045D01*
G01X7496741Y5092408D01*
G01X7495947Y5106914D01*
G01X7492209Y5120953D01*
G01X7485686Y5133934D01*
G01X7476650Y5145310D01*
G01X7465483Y5154603D01*
G01X7452655Y5161422D01*
G01X7438705Y5165479D01*
G01X7424220Y5166604D01*
G01X7409811Y5164750D01*
G01X7409811Y5172309D01*
G01X7407999Y5183558D01*
G01X7409811Y5194807D01*
G01X7409811Y5224807D01*
G01X7408385Y5234813D01*
G01X7409811Y5244819D01*
G01X7409811Y5274880D01*
G01X7419858Y5282589D01*
G01X7436202Y5298933D01*
G01X7443912Y5308980D01*
G01X7448758Y5320681D01*
G01X7450411Y5333237D01*
G01X7450411Y5386350D01*
G01X7448758Y5398907D01*
G01X7443912Y5410607D01*
G01X7436202Y5420655D01*
G01X7419858Y5436998D01*
G01X7409811Y5444708D01*
G01X7409811Y5474793D01*
G01X7408385Y5484800D01*
G01X7409811Y5494806D01*
G01X7409811Y5524806D01*
G01X7408385Y5534812D01*
G01X7409811Y5544819D01*
G01X7409811Y5574819D01*
G01X7407999Y5586068D01*
G01X7409811Y5597317D01*
G01X7409811Y5604876D01*
G01X7424218Y5603021D01*
G01X7438701Y5604146D01*
G01X7452649Y5608201D01*
G01X7465477Y5615018D01*
G01X7476643Y5624308D01*
G01X7485679Y5635682D01*
G01X7492205Y5648659D01*
G01X7495944Y5662696D01*
G01X7496742Y5677200D01*
G01X7494563Y5691562D01*
G01X7489499Y5705177D01*
G01X7481764Y5717472D01*
G01X7471683Y5727930D01*
G01X7459680Y5736111D01*
G01X7475420Y5746147D01*
G01X7488776Y5759189D01*
G01X7499184Y5774686D01*
G01X7506202Y5791984D01*
G01X7509536Y5810351D01*
G01X7509043Y5829012D01*
G01X7504746Y5847178D01*
G01X7496825Y5864082D01*
G01X7485614Y5879008D01*
G01X7471589Y5891328D01*
G01X7455341Y5900519D01*
G01X7437557Y5906194D01*
G01X7418988Y5908112D01*
G01X7351784Y5908112D01*
G01X7251331Y6008565D01*
G01X7241283Y6016275D01*
G01X7229583Y6021121D01*
G01X7217026Y6022775D01*
G01X6932958Y6022775D01*
G01X6920402Y6021121D01*
G01X6908701Y6016275D01*
G01X6898654Y6008565D01*
G01X6880693Y5990605D01*
G01X6872983Y5980557D01*
G01X6868137Y5968856D01*
G01X6866484Y5956300D01*
G01X6866484Y5883687D01*
G01X6855589Y5878999D01*
G01X6846824Y5871010D01*
G01X6841147Y5860596D01*
G01X6839184Y5848900D01*
G01X6839184Y5758900D01*
G01X6840937Y5747833D01*
G01X6846024Y5737849D01*
G01X6853947Y5729926D01*
G01X6863931Y5724839D01*
G01X6874998Y5723086D01*
G01X6954998Y5723086D01*
G01X6966638Y5725031D01*
G01X6977014Y5730653D01*
G01X6985000Y5739343D01*
G01X6992986Y5730653D01*
G01X7003362Y5725031D01*
G01X7015002Y5723086D01*
G01X7095002Y5723086D01*
G01X7106069Y5724839D01*
G01X7116053Y5729926D01*
G01X7123976Y5737849D01*
G01X7129063Y5747833D01*
G01X7130816Y5758900D01*
G01X7130816Y5848900D01*
G01X7129063Y5859967D01*
G01X7123976Y5869951D01*
G01X7116053Y5877874D01*
G01X7106069Y5882961D01*
G01X7095002Y5884714D01*
G01X7015002Y5884714D01*
G01X7003362Y5882769D01*
G01X6992986Y5877147D01*
G01X6985000Y5868457D01*
G01X6979202Y5875297D01*
G01X6971886Y5880482D01*
G01X6963512Y5883687D01*
G01X6963512Y5925747D01*
G01X7196931Y5925747D01*
G01X7254063Y5868615D01*
G01X7245403Y5852805D01*
G01X7240037Y5835595D01*
G01X7238175Y5817665D01*
G01X7239892Y5799721D01*
G01X7245119Y5782469D01*
G01X7253651Y5766589D01*
G01X7243407Y5761606D01*
G01X7235247Y5753658D01*
G01X7229995Y5743549D01*
G01X7228183Y5732302D01*
G01X7228183Y5677301D01*
G01X7228750Y5670955D01*
G01X7230433Y5664810D01*
G01X7228750Y5658664D01*
G01X7228183Y5652318D01*
G01X7228183Y5608333D01*
G01X6990518Y5608333D01*
G01X6990518Y5617386D01*
G01X6988765Y5628453D01*
G01X6983678Y5638437D01*
G01X6975755Y5646360D01*
G01X6965771Y5651447D01*
G01X6954704Y5653200D01*
G01X6868303Y5653200D01*
G01X6857236Y5651447D01*
G01X6847252Y5646360D01*
G01X6839329Y5638437D01*
G01X6834242Y5628453D01*
G01X6832489Y5617386D01*
G01X6832489Y5536738D01*
G01X6833803Y5527125D01*
G01X6837650Y5518217D01*
G01X6843747Y5510668D01*
G01X6851647Y5505033D01*
G01X6860769Y5501726D01*
G01X6851647Y5498418D01*
G01X6843747Y5492784D01*
G01X6837650Y5485235D01*
G01X6833803Y5476327D01*
G01X6832489Y5466713D01*
G01X6832489Y5386066D01*
G01X6834242Y5374999D01*
G01X6839329Y5365015D01*
G01X6847252Y5357092D01*
G01X6857236Y5352005D01*
G01X6868303Y5350252D01*
G01X6925559Y5350252D01*
G01X6923059Y5347751D01*
G01X6767132Y5347751D01*
G01X6337638Y5777245D01*
G01X6327591Y5784954D01*
G01X6315890Y5789801D01*
G01X6303334Y5791454D01*
G01X4651854Y5791454D01*
G01X4658808Y5804268D01*
G01X4662794Y5818291D01*
G01X4663619Y5832846D01*
G01X4661244Y5847231D01*
G01X4655783Y5860748D01*
G01X4647500Y5872746D01*
G01X4636796Y5882643D01*
G01X4624188Y5889963D01*
G01X4610285Y5894350D01*
G01X4591459Y5913176D01*
G01X4939383Y6261100D01*
G01X5864586Y6261100D01*
G01X5866364Y6245847D01*
G01X5871603Y6231411D01*
G01X5880022Y6218568D01*
G01X5891169Y6208006D01*
G01X5904447Y6200290D01*
G01X5919144Y6195836D01*
G01X5934471Y6194882D01*
G01X5949606Y6197479D01*
G01X5963739Y6203488D01*
G01X5976110Y6212586D01*
G01X6050657Y6212586D01*
G01X6060008Y6208264D01*
G01X6070202Y6206782D01*
G01X6160202Y6206782D01*
G01X6171269Y6208535D01*
G01X6181253Y6213622D01*
G01X6189176Y6221545D01*
G01X6194263Y6231529D01*
G01X6196016Y6242596D01*
G01X6196016Y6322596D01*
G01X6194072Y6334236D01*
G01X6188449Y6344613D01*
G01X6179760Y6352598D01*
G01X6188449Y6360584D01*
G01X6194072Y6370960D01*
G01X6196016Y6382601D01*
G01X6196016Y6462601D01*
G01X6195747Y6464300D01*
G01X7136994Y6464300D01*
G01X7138983Y6440300D01*
G01X7144895Y6416954D01*
G01X7154569Y6394900D01*
G01X7167740Y6374739D01*
G01X7184051Y6357021D01*
G01X7203055Y6342229D01*
G01X7224235Y6330767D01*
G01X7247013Y6322948D01*
G01X7270767Y6318984D01*
G01X7294849Y6318984D01*
G01X7318603Y6322948D01*
G01X7341381Y6330767D01*
G01X7362561Y6342229D01*
G01X7381565Y6357021D01*
G01X7397876Y6374739D01*
G01X7411048Y6394900D01*
G01X7420722Y6416954D01*
G01X7426633Y6440300D01*
G01X7428622Y6464300D01*
G01X7426633Y6488300D01*
G01X7420722Y6511646D01*
G01X7411048Y6533700D01*
G01X7397876Y6553861D01*
G01X7381565Y6571579D01*
G01X7362561Y6586371D01*
G01X7341381Y6597833D01*
G01X7318603Y6605652D01*
G01X7294849Y6609616D01*
G01X7270767Y6609616D01*
G01X7247013Y6605652D01*
G01X7224235Y6597833D01*
G01X7203055Y6586371D01*
G01X7184051Y6571579D01*
G01X7167740Y6553861D01*
G01X7154569Y6533700D01*
G01X7144895Y6511646D01*
G01X7138983Y6488300D01*
G01X7136994Y6464300D01*
G01X7136994Y6464300D01*
G01X6195747Y6464300D01*
G01X6194263Y6473668D01*
G01X6189176Y6483652D01*
G01X6181253Y6491575D01*
G01X6171269Y6496662D01*
G01X6160202Y6498415D01*
G01X6070202Y6498415D01*
G01X6059135Y6496662D01*
G01X6049152Y6491575D01*
G01X6041228Y6483652D01*
G01X6036141Y6473668D01*
G01X6034388Y6462601D01*
G01X6034388Y6382601D01*
G01X6036333Y6370960D01*
G01X6041955Y6360584D01*
G01X6050645Y6352598D01*
G01X6041955Y6344613D01*
G01X6036333Y6334236D01*
G01X6034388Y6322596D01*
G01X6034388Y6309614D01*
G01X5976110Y6309614D01*
G01X5963739Y6318712D01*
G01X5949606Y6324721D01*
G01X5934471Y6327318D01*
G01X5919144Y6326364D01*
G01X5904447Y6321910D01*
G01X5891169Y6314194D01*
G01X5880022Y6303632D01*
G01X5871603Y6290789D01*
G01X5866364Y6276353D01*
G01X5864586Y6261100D01*
G01X5864586Y6261100D01*
G01X4939383Y6261100D01*
G01X5032692Y6354409D01*
G01X5744353Y6354409D01*
G01X5756909Y6356062D01*
G01X5768610Y6360909D01*
G01X5778658Y6368619D01*
G01X5820425Y6410386D01*
G01X5828134Y6420433D01*
G01X5832981Y6432134D01*
G01X5834634Y6444690D01*
G01X5834634Y6466829D01*
G01X5900104Y6532299D01*
G01X5908355Y6543308D01*
G01X5913183Y6556190D01*
G01X5921799Y6556190D01*
G01X5932866Y6557942D01*
G01X5942850Y6563029D01*
G01X5950773Y6570953D01*
G01X5955860Y6580936D01*
G01X5957613Y6592004D01*
G01X5957613Y6880004D01*
G01X6023973Y6880004D01*
G01X6023973Y6592004D01*
G01X6025726Y6580936D01*
G01X6030813Y6570953D01*
G01X6038736Y6563029D01*
G01X6048720Y6557942D01*
G01X6059787Y6556190D01*
G01X6171786Y6556190D01*
G01X6182853Y6557942D01*
G01X6192837Y6563029D01*
G01X6200760Y6570953D01*
G01X6205847Y6580936D01*
G01X6207600Y6592004D01*
G01X6207600Y6880004D01*
G01X6207600Y6880004D01*
G01X6205847Y6891071D01*
G01X6200760Y6901055D01*
G01X6192837Y6908978D01*
G01X6182853Y6914065D01*
G01X6171786Y6915818D01*
G01X6059787Y6915818D01*
G01X6048720Y6914065D01*
G01X6038736Y6908978D01*
G01X6030813Y6901055D01*
G01X6025726Y6891071D01*
G01X6023973Y6880004D01*
G01X5957613Y6880004D01*
G01X5955860Y6891071D01*
G01X5950773Y6901055D01*
G01X5942850Y6908978D01*
G01X5932866Y6914065D01*
G01X5921799Y6915818D01*
G01X5809800Y6915818D01*
G01X5798733Y6914065D01*
G01X5788749Y6908978D01*
G01X5780826Y6901055D01*
G01X5775739Y6891071D01*
G01X5773986Y6880004D01*
G01X5773986Y6592004D01*
G01X5775192Y6582791D01*
G01X5778726Y6574198D01*
G01X5784353Y6566803D01*
G01X5791692Y6561105D01*
G01X5765800Y6535213D01*
G01X5739908Y6561105D01*
G01X5747247Y6566803D01*
G01X5752874Y6574198D01*
G01X5756408Y6582791D01*
G01X5757614Y6592004D01*
G01X5757614Y6880004D01*
G01X5755861Y6891071D01*
G01X5750774Y6901055D01*
G01X5742851Y6908978D01*
G01X5732867Y6914065D01*
G01X5721800Y6915818D01*
G01X5609801Y6915818D01*
G01X5598734Y6914065D01*
G01X5588750Y6908978D01*
G01X5580827Y6901055D01*
G01X5575740Y6891071D01*
G01X5573987Y6880004D01*
G01X5573987Y6592004D01*
G01X5575740Y6580936D01*
G01X5580827Y6570953D01*
G01X5588750Y6563029D01*
G01X5598734Y6557942D01*
G01X5609801Y6556190D01*
G01X5618417Y6556190D01*
G01X5623245Y6543308D01*
G01X5631496Y6532299D01*
G01X5671717Y6492077D01*
G01X4995763Y6492077D01*
G01X4983207Y6490424D01*
G01X4971506Y6485578D01*
G01X4961459Y6477868D01*
G01X4423395Y5939805D01*
G01X4415686Y5929757D01*
G01X4410839Y5918056D01*
G01X4409186Y5905500D01*
G01X4409186Y5887210D01*
G01X4400124Y5874903D01*
G01X4394121Y5860848D01*
G01X4391494Y5845791D01*
G01X4392385Y5830534D01*
G01X4396744Y5815885D01*
G01X4404342Y5802624D01*
G01X4414774Y5791454D01*
G01X4335526Y5791454D01*
G01X4346320Y5803119D01*
G01X4354028Y5817017D01*
G01X4358208Y5832349D01*
G01X4358620Y5848236D01*
G01X4355241Y5863765D01*
G01X4348263Y5878044D01*
G01X4338089Y5890253D01*
G01X4325302Y5899690D01*
G01X4310637Y5905814D01*
G01X4294936Y5908273D01*
G01X4290314Y5912895D01*
G01X4290314Y5918200D01*
G01X4289027Y5929301D01*
G01X4285234Y5939812D01*
G01X4285234Y5990914D01*
G01X4283581Y6003470D01*
G01X4278734Y6015171D01*
G01X4271025Y6025218D01*
G01X4229258Y6066985D01*
G01X4219210Y6074695D01*
G01X4207509Y6079542D01*
G01X4194953Y6081195D01*
G01X3624653Y6081195D01*
G01X3624653Y6273495D01*
G01X3654786Y6273495D01*
G01X3656564Y6258242D01*
G01X3661803Y6243806D01*
G01X3670222Y6230963D01*
G01X3681369Y6220401D01*
G01X3694647Y6212686D01*
G01X3709344Y6208232D01*
G01X3724671Y6207277D01*
G01X3739806Y6209874D01*
G01X3753939Y6215883D01*
G01X3766310Y6224981D01*
G01X3863715Y6224981D01*
G01X3868403Y6214087D01*
G01X3876392Y6205321D01*
G01X3886806Y6199645D01*
G01X3898502Y6197681D01*
G01X3988502Y6197681D01*
G01X3999569Y6199434D01*
G01X4009553Y6204521D01*
G01X4017476Y6212444D01*
G01X4022563Y6222428D01*
G01X4024316Y6233495D01*
G01X4024316Y6313495D01*
G01X4022372Y6325136D01*
G01X4016749Y6335512D01*
G01X4008060Y6343498D01*
G01X4016749Y6351483D01*
G01X4022372Y6361860D01*
G01X4024316Y6373500D01*
G01X4024316Y6453500D01*
G01X4022563Y6464567D01*
G01X4017476Y6474551D01*
G01X4009553Y6482474D01*
G01X3999569Y6487561D01*
G01X3988502Y6489314D01*
G01X3898502Y6489314D01*
G01X3887435Y6487561D01*
G01X3877452Y6482474D01*
G01X3869528Y6474551D01*
G01X3864441Y6464567D01*
G01X3862688Y6453500D01*
G01X3862688Y6373500D01*
G01X3864633Y6361860D01*
G01X3870255Y6351483D01*
G01X3878945Y6343498D01*
G01X3872105Y6337699D01*
G01X3866920Y6330384D01*
G01X3863715Y6322009D01*
G01X3766310Y6322009D01*
G01X3766310Y6322009D01*
G01X3753939Y6331107D01*
G01X3739806Y6337116D01*
G01X3724671Y6339713D01*
G01X3709344Y6338759D01*
G01X3694647Y6334305D01*
G01X3681369Y6326590D01*
G01X3670222Y6316027D01*
G01X3661803Y6303184D01*
G01X3656564Y6288749D01*
G01X3654786Y6273495D01*
G01X3624653Y6273495D01*
G01X3624653Y6382181D01*
G01X3636025Y6393552D01*
G01X3643734Y6403600D01*
G01X3648581Y6415300D01*
G01X3650234Y6427857D01*
G01X3650234Y6466829D01*
G01X3715704Y6532299D01*
G01X3723955Y6543308D01*
G01X3728783Y6556190D01*
G01X3737399Y6556190D01*
G01X3748466Y6557942D01*
G01X3758450Y6563029D01*
G01X3766373Y6570953D01*
G01X3771460Y6580936D01*
G01X3773213Y6592004D01*
G01X3773213Y6880004D01*
G01X3839573Y6880004D01*
G01X3839573Y6592004D01*
G01X3841326Y6580936D01*
G01X3846413Y6570953D01*
G01X3854336Y6563029D01*
G01X3864320Y6557942D01*
G01X3875387Y6556190D01*
G01X3987386Y6556190D01*
G01X3998453Y6557942D01*
G01X4008437Y6563029D01*
G01X4016360Y6570953D01*
G01X4021447Y6580936D01*
G01X4023200Y6592004D01*
G01X4023200Y6880004D01*
G01X4023200Y6880004D01*
G01X4021447Y6891071D01*
G01X4016360Y6901055D01*
G01X4008437Y6908978D01*
G01X3998453Y6914065D01*
G01X3987386Y6915818D01*
G01X3875387Y6915818D01*
G01X3864320Y6914065D01*
G01X3854336Y6908978D01*
G01X3846413Y6901055D01*
G01X3841326Y6891071D01*
G01X3839573Y6880004D01*
G01X3773213Y6880004D01*
G01X3771460Y6891071D01*
G01X3766373Y6901055D01*
G01X3758450Y6908978D01*
G01X3748466Y6914065D01*
G01X3737399Y6915818D01*
G01X3625400Y6915818D01*
G01X3614333Y6914065D01*
G01X3604349Y6908978D01*
G01X3596426Y6901055D01*
G01X3591339Y6891071D01*
G01X3589586Y6880004D01*
G01X3589586Y6592004D01*
G01X3590792Y6582791D01*
G01X3594326Y6574198D01*
G01X3599953Y6566803D01*
G01X3607292Y6561105D01*
G01X3581400Y6535213D01*
G01X3555508Y6561105D01*
G01X3562847Y6566803D01*
G01X3568474Y6574198D01*
G01X3572008Y6582791D01*
G01X3573214Y6592004D01*
G01X3573214Y6880004D01*
G01X3571461Y6891071D01*
G01X3566374Y6901055D01*
G01X3558451Y6908978D01*
G01X3548467Y6914065D01*
G01X3537400Y6915818D01*
G01X3425401Y6915818D01*
G01X3414334Y6914065D01*
G01X3404350Y6908978D01*
G01X3396427Y6901055D01*
G01X3391340Y6891071D01*
G01X3389587Y6880004D01*
G01X3389587Y6592004D01*
G01X3391340Y6580936D01*
G01X3396427Y6570953D01*
G01X3404350Y6563029D01*
G01X3414334Y6557942D01*
G01X3425401Y6556190D01*
G01X3434017Y6556190D01*
G01X3438845Y6543308D01*
G01X3447096Y6532299D01*
G01X3512566Y6466829D01*
G01X3512566Y6464785D01*
G01X3501195Y6453414D01*
G01X3493485Y6443367D01*
G01X3488638Y6431666D01*
G01X3486985Y6419110D01*
G01X3486985Y6033807D01*
G01X3488638Y6021251D01*
G01X3493485Y6009550D01*
G01X3501195Y5999503D01*
G01X3542962Y5957736D01*
G01X3553009Y5950026D01*
G01X3564710Y5945180D01*
G01X3577266Y5943527D01*
G01X4142486Y5943527D01*
G01X4142486Y5887210D01*
G01X4134398Y5876551D01*
G01X4128614Y5864486D01*
G01X4125371Y5851505D01*
G01X4124799Y5838137D01*
G01X4126922Y5824926D01*
G01X4131653Y5812411D01*
G01X4138801Y5801100D01*
G01X4148074Y5791454D01*
G01X3945566Y5791454D01*
G01X3933010Y5789801D01*
G01X3921309Y5784954D01*
G01X3911262Y5777245D01*
G01X3805995Y5671978D01*
G01X3805995Y5671978D01*
G01X3798285Y5661930D01*
G01X3793438Y5650229D01*
G01X3791785Y5637673D01*
G01X3791785Y4763627D01*
G01X3793438Y4751071D01*
G01X3798285Y4739370D01*
G01X3805995Y4729322D01*
G01X3847762Y4687555D01*
G01X3857809Y4679846D01*
G01X3869510Y4674999D01*
G01X3882066Y4673346D01*
G01X4300117Y4673346D01*
G01X4312673Y4674999D01*
G01X4324374Y4679846D01*
G01X4334421Y4687555D01*
G01X4361269Y4714403D01*
G01X4361269Y4653353D01*
G01X3162256Y4653353D01*
G01X2779014Y5036595D01*
G01X2779014Y5338134D01*
G01X2777361Y5350690D01*
G01X2772514Y5362391D01*
G01X2764805Y5372438D01*
G01X2723038Y5414205D01*
G01X2712990Y5421915D01*
G01X2701289Y5426762D01*
G01X2688733Y5428415D01*
G01X2529637Y5428415D01*
G01X2530114Y5434240D01*
G01X2530114Y5514887D01*
G01X2528800Y5524501D01*
G01X2524953Y5533409D01*
G01X2518856Y5540958D01*
G01X2510956Y5546593D01*
G01X2501834Y5549900D01*
G01X2510956Y5553207D01*
G01X2518856Y5558842D01*
G01X2524953Y5566391D01*
G01X2528800Y5575299D01*
G01X2530114Y5584913D01*
G01X2530114Y5665560D01*
G01X2528361Y5676627D01*
G01X2523274Y5686611D01*
G01X2515351Y5694534D01*
G01X2505367Y5699621D01*
G01X2494300Y5701374D01*
G01X2407900Y5701374D01*
G01X2396833Y5699621D01*
G01X2386849Y5694534D01*
G01X2378926Y5686611D01*
G01X2373839Y5676627D01*
G01X2372086Y5665560D01*
G01X2372086Y5584913D01*
G01X2373918Y5573605D01*
G01X2379227Y5563454D01*
G01X2387469Y5555498D01*
G01X2071601Y5555498D01*
G01X2071601Y5571996D01*
G01X2069788Y5583246D01*
G01X2071601Y5594495D01*
G01X2071601Y5649496D01*
G01X2071033Y5655849D01*
G01X2069347Y5662000D01*
G01X2071033Y5668152D01*
G01X2071601Y5674505D01*
G01X2071601Y5729506D01*
G01X2069789Y5740752D01*
G01X2064537Y5750861D01*
G01X2056377Y5758809D01*
G01X2046133Y5763793D01*
G01X2054589Y5779490D01*
G01X2059815Y5796538D01*
G01X2061609Y5814278D01*
G01X2059903Y5832026D01*
G01X2054761Y5849100D01*
G01X2046382Y5864839D01*
G01X2035090Y5878638D01*
G01X2021319Y5889964D01*
G01X2005600Y5898381D01*
G01X1988540Y5903565D01*
G01X1970796Y5905316D01*
G01X1880796Y5905316D01*
G01X1862225Y5903397D01*
G01X1844439Y5897720D01*
G01X1828190Y5888527D01*
G01X1814164Y5876206D01*
G01X1802954Y5861276D01*
G01X1795034Y5844370D01*
G01X1790739Y5826201D01*
G01X1790249Y5807538D01*
G01X1793587Y5789169D01*
G01X1800610Y5771871D01*
G01X1811022Y5756374D01*
G01X1824383Y5743334D01*
G01X1840129Y5733302D01*
G01X1828121Y5725124D01*
G01X1818035Y5714668D01*
G01X1810295Y5702374D01*
G01X1805226Y5688759D01*
G01X1803043Y5674396D01*
G01X1803837Y5659889D01*
G01X1807575Y5645850D01*
G01X1814098Y5632869D01*
G01X1823134Y5621493D01*
G01X1834301Y5612200D01*
G01X1847129Y5605381D01*
G01X1861079Y5601324D01*
G01X1875564Y5600199D01*
G01X1889973Y5602054D01*
G01X1889973Y5594495D01*
G01X1891785Y5583246D01*
G01X1889973Y5571996D01*
G01X1889973Y5541997D01*
G01X1891399Y5531990D01*
G01X1889973Y5521984D01*
G01X1889973Y5491984D01*
G01X1891395Y5481990D01*
G01X1889973Y5471997D01*
G01X1889973Y5441911D01*
G01X1879926Y5434202D01*
G01X1863582Y5417858D01*
G01X1855872Y5407810D01*
G01X1851026Y5396110D01*
G01X1849373Y5383553D01*
G01X1849373Y5330440D01*
G01X1851026Y5317884D01*
G01X1855872Y5306183D01*
G01X1863582Y5296136D01*
G01X1879926Y5279792D01*
G01X1889973Y5272083D01*
G01X1889973Y5241997D01*
G01X1891399Y5231991D01*
G01X1889973Y5221984D01*
G01X1889973Y5191985D01*
G01X1891785Y5180736D01*
G01X1889973Y5169486D01*
G01X1889973Y5161927D01*
G01X1875566Y5163782D01*
G01X1861083Y5162658D01*
G01X1847135Y5158602D01*
G01X1834307Y5151785D01*
G01X1823141Y5142495D01*
G01X1814105Y5131122D01*
G01X1807580Y5118144D01*
G01X1803840Y5104107D01*
G01X1803042Y5089603D01*
G01X1805221Y5075242D01*
G01X1810285Y5061627D01*
G01X1818020Y5049331D01*
G01X1828101Y5038873D01*
G01X1840104Y5030692D01*
G01X1824364Y5020656D01*
G01X1811008Y5007615D01*
G01X1800600Y4992117D01*
G01X1793582Y4974820D01*
G01X1790248Y4956452D01*
G01X1630911Y4956452D01*
G01X1629754Y4968197D01*
G01X1624302Y4986171D01*
G01X1615448Y5002736D01*
G01X1603532Y5017255D01*
G01X1589013Y5029171D01*
G01X1572448Y5038025D01*
G01X1554474Y5043478D01*
G01X1535781Y5045319D01*
G01X1475781Y5045319D01*
G37*
G36*
G01X4124888Y811712D02*
G01X4124888Y792553D01*
G01X3858514Y792553D01*
G01X3858514Y1069391D01*
G01X4003110Y1069391D01*
G01X4006316Y1061016D01*
G01X4011501Y1053701D01*
G01X4018340Y1047902D01*
G01X4009651Y1039917D01*
G01X4004028Y1029540D01*
G01X4002084Y1017900D01*
G01X4002084Y937900D01*
G01X4003837Y926833D01*
G01X4008924Y916849D01*
G01X4016847Y908926D01*
G01X4026831Y903839D01*
G01X4037898Y902086D01*
G01X4127898Y902086D01*
G01X4138965Y903839D01*
G01X4148948Y908926D01*
G01X4156872Y916849D01*
G01X4161959Y926833D01*
G01X4163712Y937900D01*
G01X4163712Y1017900D01*
G01X4161767Y1029540D01*
G01X4156145Y1039917D01*
G01X4147455Y1047902D01*
G01X4154295Y1053701D01*
G01X4159480Y1061016D01*
G01X4162685Y1069391D01*
G01X4243078Y1069391D01*
G01X4245933Y1059587D01*
G01X4251439Y1050987D01*
G01X4259147Y1044290D01*
G01X4268433Y1040041D01*
G01X4278540Y1038586D01*
G01X4359187Y1038586D01*
G01X4368801Y1039900D01*
G01X4377709Y1043747D01*
G01X4385258Y1049844D01*
G01X4390893Y1057744D01*
G01X4394200Y1066866D01*
G01X4397507Y1057744D01*
G01X4403142Y1049844D01*
G01X4410691Y1043747D01*
G01X4419599Y1039900D01*
G01X4429213Y1038586D01*
G01X4474705Y1038586D01*
G01X4474705Y912517D01*
G01X4458207Y912517D01*
G01X4446958Y910704D01*
G01X4435709Y912517D01*
G01X4380708Y912517D01*
G01X4374355Y911949D01*
G01X4368203Y910263D01*
G01X4362052Y911949D01*
G01X4355699Y912517D01*
G01X4300698Y912517D01*
G01X4289451Y910705D01*
G01X4279342Y905453D01*
G01X4271394Y897293D01*
G01X4266411Y887049D01*
G01X4250713Y895505D01*
G01X4233665Y900731D01*
G01X4215925Y902525D01*
G01X4198177Y900819D01*
G01X4181104Y895677D01*
G01X4165364Y887298D01*
G01X4151566Y876006D01*
G01X4140239Y862235D01*
G01X4131822Y846516D01*
G01X4126638Y829456D01*
G01X4124888Y811712D01*
G37*
G36*
G01X4815165Y1220622D02*
G01X4959168Y1220622D01*
G01X5037836Y1141955D01*
G01X5037836Y891774D01*
G01X5029989Y887049D01*
G01X5025006Y897293D01*
G01X5017058Y905453D01*
G01X5006949Y910705D01*
G01X4995702Y912517D01*
G01X4940701Y912517D01*
G01X4934355Y911950D01*
G01X4928210Y910267D01*
G01X4922064Y911950D01*
G01X4915718Y912517D01*
G01X4871733Y912517D01*
G01X4871733Y1032345D01*
G01X4870080Y1044901D01*
G01X4865233Y1056602D01*
G01X4857523Y1066649D01*
G01X4816114Y1108058D01*
G01X4816114Y1158787D01*
G01X4814800Y1168401D01*
G01X4810953Y1177309D01*
G01X4804856Y1184858D01*
G01X4796956Y1190493D01*
G01X4787834Y1193800D01*
G01X4797281Y1197280D01*
G01X4805386Y1203252D01*
G01X4811508Y1211243D01*
G01X4815165Y1220622D01*
G37*
G36*
G01X7228183Y5511305D02*
G01X7228184Y5494721D01*
G01X7218136Y5487011D01*
G01X7201793Y5470667D01*
G01X7194083Y5460620D01*
G01X7189236Y5448919D01*
G01X7187583Y5436363D01*
G01X7187583Y5408308D01*
G01X7003711Y5408308D01*
G01X6990518Y5406479D01*
G01X6990518Y5466713D01*
G01X6989203Y5476327D01*
G01X6985356Y5485235D01*
G01X6979259Y5492784D01*
G01X6971360Y5498418D01*
G01X6962237Y5501726D01*
G01X6971764Y5505249D01*
G01X6979918Y5511305D01*
G01X7228183Y5511305D01*
G37*
G54D10*
G01X1475781Y5045319D02*
G03X1404211Y5013207I0J-95814D01*
G02X1390364Y5225194I4592584J406435D01*
G02X1388580Y5555932I4491310J189595D01*
G02X1405821Y5749035I1681687J-52829D01*
G03X1475781Y5718688I69960J65467D01*
G01X1535781Y5718688D01*
G03X1535781Y5910316I0J95814D01*
G01X1475781Y5910316D01*
G03X1433946Y5900700I0J-95814D01*
G02X1449749Y5969942I2230014J-472499D01*
G02X1466042Y6031455I1627947J-398302D01*
G02X1480086Y6073028I441017J-125825D01*
G03X1484493Y6084643I-525150J205888D01*
G01X1491084Y6102761D01*
G01X1498509Y6123527D01*
G01X1505815Y6144324D01*
G02X1514543Y6167629I503491J-175289D01*
G02X1528645Y6201919I2031579J-815460D01*
G02X1544744Y6239260I2232933J-940520D01*
G02X1560523Y6274086I1752988J-773231D01*
G03X1575571Y6307132I-2041967J949840D01*
G03X1588392Y6336831I-1258872J561065D01*
G03X1598314Y6360983I-2011552J840497D01*
G03X1611737Y6372413I-22835J40414D01*
G03X1620018Y6387799I-37991J30368D01*
G03X1622244Y6398351I-48833J15811D01*
G02X1633978Y6419421I1114835J-607073D01*
G02X1651086Y6448236I802290J-456848D01*
G02X1671671Y6480591I1286050J-795480D01*
G03X1693079Y6513935I-1938735J1268254D01*
G03X1711326Y6543742I-1150061J724549D01*
G03X1726156Y6569016I-2154215J1281026D01*
G03X1728012Y6572560I-40886J23670D01*
G03X1734227Y6577785I-23469J34222D01*
G03X1743290Y6587889I-114109J111471D01*
G03X1753157Y6601105I-134718J110872D01*
G03X1762249Y6615594I-210883J142434D01*
G02X1769444Y6627599I460720J-267959D01*
G02X1776237Y6638203I321257J-198323D01*
G02X1780996Y6645200I325052J-215958D01*
G03X1787570Y6652064I-42876J47644D01*
G03X1798409Y6665344I-1312086J1082042D01*
G03X1811199Y6681432I-1018575J822886D01*
G03X1825057Y6699356I-1566061J1225085D01*
G02X1839325Y6717432I580362J-443431D01*
G02X1855275Y6736486I741904J-604828D01*
G02X1870322Y6753537I657086J-564712D01*
G02X1880412Y6763926I155078J-140516D01*
G03X1896698Y6781258I-161369J167954D01*
G03X1909408Y6807061I-45126J38259D01*
G03X1908392Y6835892I-57596J12405D01*
G03X1900612Y6858264I-218150J-63332D01*
G02X1896004Y6870429I242551J98812D01*
G02X1891233Y6884863I399780J140150D01*
G02X1887213Y6898680I378742J117699D01*
G02X1885121Y6907771I115985J31479D01*
G03X1882157Y6921051I-207719J-39383D01*
G03X1878245Y6935021I-330067J-84895D01*
G03X1873843Y6948496I-316552J-95949D01*
G03X1869013Y6960661I-151554J-53132D01*
G02X1862989Y6978235I96056J42746D01*
G02X1853046Y7021633I1306502J322178D01*
G02X1841799Y7079061I1873180J396683D01*
G02X1829283Y7151886I4588969J826152D01*
G02X1820750Y7242179I658177J107752D01*
G01X1820750Y7242179D01*
G02X1818586Y7412465I6315980J165411D01*
G01X1818586Y7412465D01*
G02X1821041Y7582863I6247208J-4811D01*
G02X1829716Y7675437I711334J-19959D01*
G02X1843066Y7753468I3670584J-587843D01*
G02X1857233Y7825918I2791391J-508236D01*
G02X1871562Y7889880I2249815J-470415D01*
G02X1885170Y7941011I1010462J-241544D01*
G03X1891995Y7965119I-1239481J363903D01*
G03X1898728Y7990635I-1560044J425347D01*
G03X1904507Y8014085I-1421126J362666D01*
G03X1908319Y8031909I-390262J92770D01*
G02X1910505Y8040982I94506J-17977D01*
G01X1910972Y8042472D01*
G03X1917964Y8048635I-22964J33098D01*
G03X1926975Y8062639I-38725J34820D01*
G03X1931381Y8077460I-58092J25333D01*
G03X1932514Y8091031I-80688J13571D01*
G02X1935020Y8106455I48718J0D01*
G02X1947463Y8137179I250973J-83764D01*
G02X1960428Y8161262I266255J-127794D01*
G02X2008820Y8166547I44306J-181500D01*
G02X2112027Y8160722I-32768J-1497691D01*
G02X2224361Y8146323I-140522J-1541736D01*
G02X2322305Y8124960I-161590J-976055D01*
G02X2384351Y8107790I-1860103J-6842415D01*
G02X2428431Y8094819I-533954J-1895955D01*
G02X2459726Y8084754I-361706J-1178291D01*
G02X2470143Y8080254I-21762J-64688D01*
G03X2482586Y8074644I47809J89423D01*
G03X2496308Y8069887I112167J301415D01*
G03X2511588Y8065348I109144J339462D01*
G03X2526731Y8061622I81811J299822D01*
G02X2536406Y8059051I-24646J-112214D01*
G02X2544558Y8056027I-25110J-80213D01*
G01X2546334Y8055229D01*
G03X2555097Y8047379I36021J31392D01*
G03X2566990Y8040826I37495J53979D01*
G03X2580051Y8036735I27648J65375D01*
G03X2593040Y8035293I13949J66417D01*
G02X2611954Y8028463I-183756J-538543D01*
G02X2635322Y8018963I-204177J-535657D01*
G02X2660555Y8007523I-314984J-728349D01*
G01X2660555Y8007523D01*
G01X2764047Y7958031D01*
G01X2764047Y7958031D01*
G02X2853852Y7914257I-4833576J-10030428D01*
G01X2931730Y7875762D01*
G01X2931730Y7875762D01*
G03X2941064Y7868255I38612J38455D01*
G03X2951931Y7861494I321760J505094D01*
G03X2965214Y7853679I285297J469724D01*
G03X2979654Y7845658I380555J668097D01*
G02X3049136Y7807112I-1853965J-3423773D01*
G02X3115715Y7768295I-1708264J-3006507D01*
G02X3179376Y7729222I-1668457J-2789812D01*
G02X3240012Y7689961I-1521938J-2416979D01*
G03X3298267Y7653783I602886J905788D01*
G03X3345377Y7632326I134009J231777D01*
G03X3385765Y7625917I38508J112217D01*
G03X3426077Y7644176I-880J55575D01*
G02X3429760Y7644844I8371J-35662D01*
G02X3436639Y7645286I6879J-53316D01*
G03X3453953Y7646321I-0J145402D01*
G03X3471931Y7649110I-31322J261174D01*
G03X3489802Y7653163I-49793J260977D01*
G03X3506438Y7658544I-40275J152921D01*
G02X3517803Y7662440I57115J-148071D01*
G02X3535895Y7667580I173240J-575428D01*
G02X3555581Y7672516I169485J-634268D01*
G02X3573490Y7676342I105902J-451856D01*
G01X3573490Y7676342D01*
G01X3752225Y7710621D01*
G01X3752225Y7710621D01*
G02X3840344Y7726628I982785J-5159579D01*
G02X3911551Y7737964I461549J-2669988D01*
G02X4006438Y7751203I1163747J-7994270D01*
G02X4165492Y7769982I698407J-5232143D01*
G02X4208587Y7774138I355468J-3460684D01*
G03X4130594Y7679996I17820J-94142D01*
G01X4130594Y7549996D01*
G03X4322221Y7549996I95814J0D01*
G01X4322221Y7679996D01*
G03X4227629Y7775802I-95814J0D01*
G02X4308898Y7781721I293331J-3466503D01*
G02X4459576Y7787989I236669J-3875086D01*
G02X4641687Y7789974I179215J-8089687D01*
G02X4870528Y7786723I-2949J-8265067D01*
G01X4870528Y7786723D01*
G02X5057930Y7776854I-107124J-3818371D01*
G02X5099502Y7773414I-299055J-3867082D01*
G03X5024979Y7679996I21291J-93418D01*
G01X5024979Y7622975D01*
G01X4843961Y7622975D01*
G03X4809656Y7608765I0J-48514D01*
G01X4791695Y7590805D01*
G03X4777486Y7556500I34305J-34305D01*
G01X4777486Y6769100D01*
G03X4791695Y6734795I48514J0D01*
G01X4824792Y6701699D01*
G03X4859096Y6687490I34305J34305D01*
G01X5324000Y6687490D01*
G01X5324000Y6592004D01*
G03X5359814Y6556190I35814J0D01*
G01X5471813Y6556190D01*
G03X5507627Y6592004I0J35814D01*
G01X5507627Y6880004D01*
G03X5471813Y6915818I-35814J0D01*
G01X5359814Y6915818D01*
G03X5324000Y6880004I0J-35814D01*
G01X5324000Y6784518D01*
G01X4879191Y6784518D01*
G01X4874514Y6789195D01*
G01X4874514Y7525947D01*
G01X5028046Y7525947D01*
G03X5216606Y7549996I92746J24050D01*
G01X5216606Y7679996D01*
G03X5159466Y7767658I-95814J0D01*
G02X5245788Y7757716I-400591J-3857886D01*
G02X5476260Y7725430I-1097261J-8671290D01*
G02X5550041Y7712530I-276404J-1798439D01*
G02X5654025Y7691294I-1310366J-6681451D01*
G02X5762283Y7667410I-1458274J-6867147D01*
G02X5852799Y7645442I-796011J-3477284D01*
G03X5912082Y7631609I345191J1345416D01*
G03X5951742Y7630091I24274J115401D01*
G03X5989662Y7643090I-13203J100328D01*
G03X6032763Y7670449I-358379J612195D01*
G01X6056273Y7686638D01*
G01X6077795Y7701561D01*
G01X6095784Y7714120D01*
G03X6103515Y7719729I-163129J232977D01*
G02X6106970Y7722096I28699J-38191D01*
G02X6117887Y7728766I408631J-656515D01*
G02X6130834Y7736376I437488J-729493D01*
G02X6144371Y7744028I481104J-835316D01*
G03X6158778Y7752248I-332748J599906D01*
G03X6172059Y7760323I-251267J428253D01*
G03X6182903Y7767336I-281680J447399D01*
G03X6192989Y7776009I-29783J44837D01*
G02X6216590Y7789458I727825J-1249784D01*
G02X6252310Y7808870I919078J-1648630D01*
G01X6308259Y7838272D01*
G03X6328429Y7849056I-511376J980701D01*
G03X6346586Y7859348I-350097J638822D01*
G03X6361403Y7868217I-464345J792519D01*
G03X6370852Y7875639I-26841J43900D01*
G01X6372313Y7876361D01*
G02X6378177Y7878898I36062J-75279D01*
G02X6384870Y7881238I37903J-97667D01*
G03X6398200Y7886459I-30141J96587D01*
G03X6411142Y7894151I-35162J73899D01*
G03X6421885Y7903874I-39783J54754D01*
G03X6424028Y7906482I-31304J27900D01*
G03X6438579Y7910762I-13139J71552D01*
G03X6469534Y7924339I-281143J683051D01*
G03X6499914Y7939455I-281621J604088D01*
G03X6521998Y7955757I-43350J81834D01*
G02X6524928Y7957808I7305J-7316D01*
G02X6556761Y7971911I371649J-795912D01*
G02X6589164Y7984765I344935J-822213D01*
G02X6592039Y7985286I2876J-7683D01*
G03X6607034Y7987287I1J57187D01*
G03X6622575Y7994451I-13526J49778D01*
G03X6635603Y8007776I-26685J39123D01*
G01X6635793Y8008070D01*
G03X6645787Y8011105I-71851J254575D01*
G03X6660167Y8016204I-90130J277034D01*
G03X6674579Y8022132I-120033J312311D01*
G02X6688437Y8028031I273441J-623151D01*
G02X6705980Y8035145I590595J-1431116D01*
G02X6723860Y8042143I583091J-1463524D01*
G02X6738893Y8047753I294093J-765113D01*
G03X6754883Y8053652I-479050J1323045D01*
G01X6773094Y8060578D01*
G01X6790828Y8067484D01*
G03X6805325Y8073321I-381487J968399D01*
G02X6829124Y8082023I121324J-294915D01*
G02X6869987Y8094634I570851J-1777177D01*
G02X6922200Y8109527I768204J-2594262D01*
G02X6985778Y8126579I1506295J-5489075D01*
G02X7120077Y8154178I324478J-1238363D01*
G02X7247911Y8165099I149272J-993667D01*
G02X7341429Y8161821I17716J-830195D01*
G03X7342979Y8154273I57789J7938D01*
G03X7346732Y8141827I259569J71479D01*
G03X7351822Y8127559I280331J91970D01*
G03X7357732Y8113220I320429J123676D01*
G02X7370642Y8081946I-703592J-308745D01*
G02X7382020Y8050468I-689854J-267153D01*
G02X7393515Y8013950I-941481J-316416D01*
G02X7406894Y7966685I-2397435J-704159D01*
G01X7406894Y7966685D01*
G01X7413895Y7941281D01*
G01X7421296Y7914983D01*
G01X7428070Y7891380D01*
G03X7432928Y7875109I1012753J293494D01*
G02X7436296Y7862524I-169863J-52207D01*
G02X7440544Y7842607I-674975J-154380D01*
G02X7444515Y7820895I-745124J-147505D01*
G02X7447486Y7800990I-544764J-91485D01*
G03X7450730Y7779515I539849J70548D01*
G03X7454778Y7758654I479500J82226D01*
G03X7459029Y7740847I429434J93112D01*
G03X7464877Y7725245I78094J20372D01*
G02X7470380Y7678385I-4283047J-526753D01*
G02X7476005Y7622867I-2649911J-296536D01*
G02X7481296Y7559502I-4397356J-399094D01*
G02X7486942Y7470463I-3477851J-265215D01*
G02X7488689Y7400903I-1366824J-69125D01*
G02X7486878Y7333170I-1283400J410D01*
G01X7486878Y7333170D01*
G02X7481216Y7250200I-2764210J146968D01*
G01X7481216Y7250200D01*
G02X7475904Y7192138I-3596313J299762D01*
G01X7475904Y7192138D01*
G02X7470288Y7141972I-2067148J205989D01*
G02X7465280Y7103223I-3953013J491179D01*
G03X7459196Y7089334I48047J-29327D01*
G03X7454866Y7072626I341592J-97429D01*
G03X7450744Y7052483I365377J-85264D01*
G03X7447482Y7031207I475557J-83808D01*
G02X7441651Y6996092I-508948J66467D01*
G02X7433210Y6960232I-564951J114063D01*
G02X7423342Y6927934I-488821J131693D01*
G02X7414087Y6905775I-172900J59199D01*
G03X7408643Y6892538I90080J-44785D01*
G03X7404232Y6878022I300657J-99297D01*
G03X7400156Y6861882I338396J-94038D01*
G03X7396966Y6845908I298679J-67944D01*
G03X7395147Y6818380I130359J-22441D01*
G03X7402229Y6789000I76728J2952D01*
G03X7418037Y6764142I101648J47187D01*
G03X7442920Y6736062I535368J449348D01*
G02X7492435Y6678878I-721385J-674662D01*
G02X7548284Y6605822I-1585317J-1269814D01*
G02X7600178Y6532917I-3153615J-2299630D01*
G01X7600886Y6530655D01*
G03X7604221Y6513554I45523J1D01*
G03X7613808Y6498893I42093J17062D01*
G03X7627769Y6489170I32368J31591D01*
G01X7628186Y6487931D01*
G03X7632126Y6476663I168379J52545D01*
G03X7636841Y6465767I144604J56116D01*
G03X7641684Y6456560I125332J60045D01*
G03X7652960Y6443308I41368J23775D01*
G02X7662528Y6431530I-23384J-28773D01*
G02X7711024Y6335519I-5671445J-2924966D01*
G02X7758148Y6238288I-6053426J-2993884D01*
G02X7760886Y6226137I-25591J-12150D01*
G03X7762822Y6211238I58317J2D01*
G03X7769815Y6195687I50413J13322D01*
G03X7781675Y6183391I39611J26340D01*
G03X7782952Y6176639I73161J10343D01*
G03X7787134Y6161754I186154J44267D01*
G03X7792960Y6145981I202441J65813D01*
G03X7800007Y6130895I175994J73024D01*
G02X7804411Y6121478I-106468J-55530D01*
G02X7808260Y6111081I-129532J-53866D01*
G02X7810858Y6101863I-112669J-36723D01*
G01X7810902Y6099985D01*
G03X7811867Y6088973I82068J1638D01*
G03X7814632Y6076878I87641J13672D01*
G03X7818941Y6065712I77910J23651D01*
G03X7828869Y6051615I45593J21568D01*
G01X7829538Y6050455D01*
G02X7848447Y5976545I-3877956J-1031536D01*
G02X7865034Y5903882I-2187022J-537441D01*
G03X7824003Y5913112I-41031J-86584D01*
G01X7764003Y5913112D01*
G03X7764003Y5721485I0J-95814D01*
G01X7824003Y5721485D01*
G03X7893223Y5751050I0J95814D01*
G01X7898584Y5723433D01*
G03X7903623Y5699308I1212094J240610D01*
G02X7911524Y5629151I-332952J-73021D01*
G01X7911524Y5629151D01*
G02X7912401Y5369690I-25799424J-216922D01*
G01X7912401Y5369690D01*
G02X7910647Y5110654I-25267444J41634D01*
G01X7910647Y5110654D01*
G02X7902493Y5038697I-359329J4275D01*
G03X7897733Y5013491I462200J-100334D01*
G03X7824003Y5048115I-73731J-61189D01*
G01X7764003Y5048115D01*
G03X7764003Y4856488I0J-95814D01*
G01X7824003Y4856488D01*
G03X7879476Y4874180I0J95814D01*
G01X7877222Y4855482D01*
G02X7871802Y4814228I-2994646J372426D01*
G02X7866402Y4777104I-2681279J371034D01*
G02X7862206Y4752965I-583867J89065D01*
G01X7857608Y4728923D01*
G01X7851907Y4698153D01*
G01X7846066Y4665967D01*
G01X7840986Y4637246D01*
G02X7836266Y4613107I-587974J102428D01*
G02X7831055Y4591882I-394411J85583D01*
G02X7826976Y4577983I-396470J108810D01*
G03X7819152Y4564724I41206J-33252D01*
G03X7814726Y4551387I97516J-39765D01*
G03X7811877Y4536588I115078J-29832D01*
G03X7810935Y4521531I116334J-14830D01*
G02X7808985Y4504660I-72696J-142D01*
G02X7798124Y4463281I-851138J201282D01*
G02X7784798Y4421403I-783948J226394D01*
G02X7773541Y4394914I-203428J70818D01*
G03X7768517Y4383379I96885J-49057D01*
G03X7764737Y4371570I135451J-49873D01*
G03X7762083Y4359875I132346J-36183D01*
G03X7760887Y4346952I73322J-13301D01*
G02X7757691Y4335655I-217710J55481D01*
G02X7753033Y4322034I-248124J77244D01*
G02X7747449Y4308171I-272117J101560D01*
G03X7740344Y4291565I1892206J-819410D01*
G01X7732818Y4273588D01*
G01X7725928Y4256803D01*
G03X7720857Y4244016I744739J-302718D01*
G02X7694227Y4180546I-1134492J438672D01*
G02X7651144Y4087880I-4824946J2186920D01*
G01X7651144Y4087880D01*
G01X7604511Y3990851D01*
G01X7604511Y3990851D01*
G01X7602961Y3988893D01*
G03X7591683Y3975639I30098J-37034D01*
G03X7586841Y3966432I120494J-69247D01*
G03X7582126Y3955538I139859J-66998D01*
G03X7578186Y3944270I164439J-63818D01*
G02X7577349Y3941868I-36907J11517D01*
G03X7571465Y3937988I19843J-36495D01*
G03X7561765Y3928366I37370J-47376D01*
G03X7554253Y3916861I54999J-44111D01*
G03X7549205Y3905000I72944J-38050D01*
G02X7544240Y3893322I-77068J25877D01*
G02X7534812Y3877053I-185272J96501D01*
G02X7522356Y3859281I-222577J142739D01*
G02X7507287Y3840890I-277108J211681D01*
G03X7499208Y3831107I157808J-138554D01*
G03X7491950Y3820977I128307J-99601D01*
G03X7486467Y3812002I125604J-82898D01*
G03X7482051Y3800717I37695J-21257D01*
G01X7480936Y3799034D01*
G02X7475665Y3791736I-112670J75834D01*
G02X7468907Y3783443I-168826J130685D01*
G01X7468907Y3783443D01*
G01X7441690Y3751511D01*
G01X7441690Y3751511D01*
G03X7421562Y3727402I1663248J-1409071D01*
G03X7402419Y3703771I1542547J-1269124D01*
G01X7378635Y3673719D01*
G02X7346395Y3636374I-418421J328631D01*
G02X7295993Y3585050I-1466258J1389523D01*
G02X7241460Y3533360I-1462618J1488440D01*
G02X7194147Y3492616I-709115J775609D01*
G01X7180135Y3481156D01*
G03X7167400Y3470522I913137J-1106560D01*
G01X7156857Y3461541D01*
G03X7150378Y3455288I50633J-58946D01*
G02X7136351Y3442473I-81913J75575D01*
G02X7103560Y3418312I-622674J810750D01*
G02X7072203Y3396605I-1147328J1623906D01*
G03X7063029Y3394705I5558J-49911D01*
G03X7048246Y3387114I13876J-45213D01*
G03X7036446Y3373638I27230J-35748D01*
G03X7034321Y3369372I36733J-20961D01*
G02X7025974Y3363509I-64351J82750D01*
G02X7014718Y3356933I-100067J158341D01*
G03X6999624Y3348267I152126J-282476D01*
G03X6985942Y3339144I107598J-176185D01*
G03X6975496Y3331045I122661J-168970D01*
G03X6966801Y3321012I25695J-31053D01*
G03X6954593Y3315933I39175J-111364D01*
G03X6939908Y3308530I215301J-445356D01*
G03X6923682Y3299660I257345J-490040D01*
G03X6907926Y3290335I260076J-457440D01*
G02X6863401Y3264355I-572943J930790D01*
G02X6815031Y3238900I-655451J1186798D01*
G02X6770002Y3217031I-920536J1838152D01*
G01X6769475Y3216914D01*
G03X6753794Y3214493I1J-51999D01*
G03X6738379Y3206365I14767J-46688D01*
G03X6726865Y3193164I28668J-36626D01*
G03X6710914Y3186962I227190J-607939D01*
G03X6690711Y3178356I219913J-544256D01*
G03X6669218Y3168357I345474J-770679D01*
G02X6649532Y3159167I-370131J767253D01*
G02X6631908Y3151578I-227687J504465D01*
G02X6619843Y3146767I-249591J608375D01*
G03X6608275Y3144635I3997J-54137D01*
G03X6596435Y3140817I84377J-281925D01*
G03X6582653Y3135682I102050J-294955D01*
G03X6568621Y3129751I143582J-359258D01*
G02X6554361Y3123724I-159957J358591D01*
G02X6533517Y3115589I-515069J1288961D01*
G02X6510934Y3107190I-538200J1412513D01*
G02X6490171Y3099893I-369094J1017140D01*
G01X6469368Y3092753D01*
G01X6448597Y3085492D01*
G01X6430474Y3079041D01*
G03X6418840Y3074715I186056J-518173D01*
G02X6399707Y3068222I-90468J235142D01*
G02X6353083Y3054726I-1298077J4397081D01*
G02X6299916Y3040009I-1173207J4134853D01*
G02X6247844Y3026338I-1018407J3773038D01*
G01X6247844Y3026338D01*
G01X6159164Y3003920D01*
G01X6159164Y3003920D01*
G02X6114079Y2993289I-408026J1629511D01*
G02X6087073Y2988042I-114891J519216D01*
G02X6073517Y2986914I-13556J80889D01*
G03X6059844Y2986122I1J-118367D01*
G03X6046305Y2983702I13011J-111884D01*
G03X6034203Y2979930I23297J-96060D01*
G03X6022733Y2973637I17341J-45206D01*
G02X6005558Y2969638I-211726J870475D01*
G02X5978933Y2964281I-144928J651410D01*
G02X5948083Y2959175I-195279J1084104D01*
G01X5948083Y2959175D01*
G01X5831000Y2941530D01*
G01X5831000Y2941530D01*
G01X5765452Y2931753D01*
G01X5765452Y2931753D01*
G01X5717258Y2924732D01*
G01X5717258Y2924732D01*
G01X5668461Y2917830D01*
G03X5641490Y2913857I241514J-1733043D01*
G03X5617839Y2909895I153802J-990556D01*
G03X5598070Y2906243I382011J-2123731D01*
G03X5576412Y2894794I7740J-40850D01*
G03X5573768Y2844258I26734J-26735D01*
G03X5588000Y2826934I1289735J1044959D01*
G03X5605883Y2806249I569820J474558D01*
G03X5627282Y2782926I1060107J951225D01*
G02X5668738Y2735097I-585705J-549529D01*
G02X5704714Y2685896I-549305J-439418D01*
G02X5737296Y2632275I-621138J-414126D01*
G02X5768529Y2570918I-910689J-502213D01*
G01X5780398Y2545781D01*
G01X5792627Y2520319D01*
G01X5803591Y2497861D01*
G03X5811111Y2483012I653179J321462D01*
G02X5814895Y2474752I-79665J-41495D01*
G02X5818372Y2464830I-116282J-46315D01*
G02X5820708Y2455755I-104208J-31664D01*
G01X5820886Y2454057D01*
G03X5822034Y2440207I84143J-1D01*
G03X5825162Y2427137I95276J15899D01*
G03X5829956Y2415032I85810J26977D01*
G03X5839574Y2401047I50167J24201D01*
G02X5842731Y2395266I-9488J-8935D01*
G02X5859134Y2324723I-2190422J-546492D01*
G02X5875908Y2237556I-1945459J-419575D01*
G02X5891659Y2135573I-3490802J-591351D01*
G02X5900866Y2002393I-950061J-132589D01*
G01X5900866Y2002393D01*
G01X5899294Y1429237D01*
G01X5899294Y1429237D01*
G01X5895855Y822782D01*
G01X5895855Y822782D01*
G02X5887796Y785786I-91667J593D01*
G03X5881515Y770702I266111J-119642D01*
G03X5873603Y749568I1275869J-489749D01*
G03X5865118Y725712I1436338J-524293D01*
G03X5857214Y702218I1317920J-456478D01*
G02X5849376Y680484I-360778J117824D01*
G02X5839033Y655915I-565759J223710D01*
G02X5828192Y633038I-521469J233107D01*
G02X5819622Y617771I-167255J83847D01*
G03X5809874Y601349I358151J-223700D01*
G03X5801389Y585230I278120J-156691D01*
G03X5795032Y571415I276045J-135397D01*
G01X5794538Y570225D01*
G03X5791238Y567880I22836J-35636D01*
G03X5780892Y557583I38445J-48972D01*
G03X5772946Y545178I57499J-45578D01*
G03X5767684Y532311I76720J-38886D01*
G02X5760882Y520394I-31180J9896D01*
G02X5707153Y462152I-1947418J1742592D01*
G02X5653321Y406619I-2921854J2778578D01*
G03X5644819Y404972I5496J-51104D01*
G03X5632657Y399858I14738J-52078D01*
G03X5621976Y391764I26013J-45417D01*
G03X5614273Y381693I31641J-32183D01*
G02X5574376Y357050I-1408505J2235791D01*
G02X5529466Y331106I-652648J1077932D01*
G02X5491622Y311936I-297780J540882D01*
G02X5387436Y273702I-282383J608416D01*
G02X5284117Y255538I-147104J533819D01*
G02X5148226Y248725I-185119J2333757D01*
G03X5176512Y316697I-67528J67973D01*
G01X5176512Y376697D01*
G03X4984885Y376697I-95814J0D01*
G01X4984885Y316697D01*
G03X5014172Y247745I95814J0D01*
G01X5014172Y247745D01*
G01X4645029Y246914D01*
G01X4645029Y246914D01*
G01X4295909Y247455D01*
G01X4295909Y247455D01*
G01X4281983Y247509D01*
G03X4311515Y316697I-66282J69188D01*
G01X4311515Y376697D01*
G03X4119888Y376697I-95814J0D01*
G01X4119888Y316697D01*
G03X4147786Y249112I95814J0D01*
G01X4118040Y249734D01*
G01X4118040Y249734D01*
G02X4010330Y253967I72350J3212864D01*
G02X3956909Y261652I17437J310733D01*
G02X3930914Y268048I264039J1129255D01*
G02X3906807Y274632I226015J874971D01*
G02X3886700Y280686I241226J837539D01*
G02X3883023Y282215I6678J21247D01*
G03X3870661Y287702I-47784J-90990D01*
G03X3856956Y292396I-114058J-310663D01*
G03X3841684Y296893I-111339J-349866D01*
G03X3826555Y300603I-84007J-309891D01*
G02X3817773Y303010I19048J86721D01*
G01X3816488Y303459D01*
G03X3813965Y307156I-35570J-21565D01*
G03X3800458Y319178I-37869J-28947D01*
G03X3785301Y325288I-27352J-45997D01*
G03X3771219Y326914I-14081J-60171D01*
G02X3738093Y338556I0J52948D01*
G02X3627558Y433100I1438316J1793493D01*
G02X3522653Y534642I1645309J1804756D01*
G02X3512514Y559599I25646J24957D01*
G03X3510073Y574811I-48626J1D01*
G03X3504154Y587114I-49900J-16434D01*
G03X3495187Y597519I-43505J-28427D01*
G03X3486851Y603434I-31008J-34864D01*
G02X3460571Y659795I2927157J1399188D01*
G02X3434607Y719354I1893893J861070D01*
G02X3432514Y729798I25017J10445D01*
G03X3430566Y745884I-67398J-1D01*
G03X3426053Y759542I-89478J-21991D01*
G03X3419461Y772356I-85344J-35807D01*
G03X3412968Y781209I-58745J-36270D01*
G02X3409127Y845613I3372359J233450D01*
G02X3405526Y945632I3559366J178217D01*
G01X3405526Y945632D01*
G01X3402510Y1109621D01*
G01X3402510Y1109621D01*
G01X3397510Y1446631D01*
G03X3360074Y1481877I-35810J-531D01*
G01X3320074Y1480059D01*
G03X3296373Y1478155I15537J-341850D01*
G03X3262238Y1473890I209797J-1817699D01*
G03X3223643Y1468325I273471J-2033164D01*
G03X3185557Y1462079I298759J-1941014D01*
G02X3071411Y1446676I-258389J1484161D01*
G02X2934667Y1436767I-278638J2896634D01*
G02X2795432Y1433231I-145185J2973954D01*
G02X2673075Y1437101I-3635J1821361D01*
G02X2572519Y1445376I194800J2982116D01*
G02X2482539Y1456393I196171J1975231D01*
G02X2406847Y1468514I391061J2684276D01*
G01X2406226Y1468839D01*
G03X2389401Y1479863I-34439J-34206D01*
G03X2377368Y1483671I-35306J-90658D01*
G03X2363941Y1486112I-26460J-107401D01*
G03X2350372Y1486914I-13569J-114357D01*
G02X2340973Y1488133I0J36840D01*
G02X2316620Y1495601I82205J311549D01*
G02X2286634Y1507316I150339J429012D01*
G02X2252125Y1523213I316967J733506D01*
G03X2240151Y1528219I-48041J-98085D01*
G03X2226600Y1532666I-121235J-346522D01*
G03X2211490Y1536985I-119551J-389660D01*
G03X2196555Y1540603I-91725J-345995D01*
G02X2187774Y1543010I19044J86718D01*
G01X2186505Y1543452D01*
G03X2184214Y1546854I-35665J-21557D01*
G03X2170789Y1559030I-38023J-28434D01*
G03X2155631Y1565251I-27471J-45357D01*
G03X2143870Y1566868I-14129J-59183D01*
G02X2133998Y1571027I66208J170934D01*
G02X2120146Y1577959I89306J195759D01*
G02X2105818Y1586384I126304J231203D01*
G03X2088592Y1596750I-250376J-396613D01*
G03X2071802Y1605764I-172282J-300740D01*
G03X2057487Y1612539I-153048J-304881D01*
G01X2055741Y1613277D01*
G03X2051885Y1618326I-35160J-22851D01*
G03X2041142Y1628049I-50528J-45033D01*
G03X2028200Y1635740I-48101J-66203D01*
G03X2014869Y1640962I-43478J-91376D01*
G02X2008302Y1643272I29020J92995D01*
G02X2002559Y1645796I28517J72667D01*
G01X2001403Y1646376D01*
G03X1995913Y1651582I-45155J-42121D01*
G03X1982621Y1662586I-918082J-1095473D01*
G03X1966461Y1675555I-715717J-875242D01*
G03X1948480Y1689522I-1052187J-1335975D01*
G02X1898974Y1731614I388488J507080D01*
G02X1841260Y1789161I982805J1043376D01*
G02X1787320Y1849439I1032130J977877D01*
G02X1749576Y1899401I438846J370771D01*
G01X1734441Y1921706D01*
G03X1720788Y1941444I-1864122J-1274898D01*
G01X1709162Y1957963D01*
G03X1702024Y1966425I-53421J-37822D01*
G02X1700210Y1968929I6933J6932D01*
G02X1675679Y2018063I4310147J2182535D01*
G01X1675679Y2018063D01*
G01X1652325Y2065988D01*
G03X1647378Y2087822I-60079J-2136D01*
G01X1625710Y2137083D01*
G03X1598664Y2196324I-3086852J-1373516D01*
G03X1565271Y2266611I-6303121J-2951477D01*
G03X1532081Y2330039I-977715J-471217D01*
G03X1485913Y2408790I-2619165J-1482570D01*
G03X1437686Y2487291I-7173630J-4353048D01*
G03X1421734Y2504708I-54477J-33881D01*
G03X1396223Y2558361I-94808J-12189D01*
G03X1271573Y2686165I-4949026J-4702185D01*
G03X1143631Y2810657I-4819546J-4825146D01*
G03X1095616Y2835234I-65870J-69493D01*
G03X1088953Y2843595I-38970J-24224D01*
G03X1074124Y2853443I-32364J-32644D01*
G03X1060479Y2856751I-17511J-42435D01*
G02X1029721Y2877755I651020J986399D01*
G02X993151Y2905065I495484J701605D01*
G02X957907Y2934408I541138J685809D01*
G02X928985Y2962636I253014J288164D01*
G02X903077Y2993864I285526J263247D01*
G02X883506Y3023392I258421J192524D01*
G02X876685Y3040112I54678J32059D01*
G02X880841Y3053701I13383J3338D01*
G02X933385Y3084556I101639J-112919D01*
G02X1024188Y3102005I107672J-315324D01*
G02X1131352Y3096684I27134J-535256D01*
G02X1197899Y3085516I-307285J-2034819D01*
G02X1250049Y3074218I-158118J-855905D01*
G02X1278171Y3066811I-258827J-1039683D01*
G03X1288379Y3056794I32551J22964D01*
G03X1302304Y3049813I33514J49469D01*
G03X1317418Y3046228I25221J72688D01*
G03X1329154Y3045316I14283J107760D01*
G03X1337157Y3036618I37741J26694D01*
G03X1352458Y3027973I30815J36675D01*
G03X1368602Y3025286I16144J47163D01*
G02X1373813Y3024096I0J-12003D01*
G02X1427960Y2997000I-879115J-1824424D01*
G02X1474424Y2972446I-1674954J-3225743D01*
G03X1476164Y2968918I38813J16947D01*
G03X1487724Y2955343I39118J21602D01*
G03X1502433Y2947581I28810J36776D01*
G03X1510327Y2945780I14853J46918D01*
G02X1517980Y2941173I-138584J-238857D01*
G02X1531915Y2931875I-146066J-233977D01*
G02X1547256Y2920410I-242277J-340209D01*
G02X1594067Y2879953I-397363J-507080D01*
G02X1672141Y2803954I-3362171J-3532079D01*
G01X1751495Y2724520D01*
G03X1758180Y2706453I48633J7723D01*
G03X1768183Y2691544I192477J118334D01*
G03X1783753Y2671441I362656J264808D01*
G03X1809136Y2640934I2314098J1899589D01*
G02X1811750Y2637647I-55609J-46895D01*
G01X1812268Y2636940D01*
G03X1818187Y2623295I44433J11168D01*
G01X1818187Y2623295D01*
G01X1868961Y2544575D01*
G01X1868961Y2544575D01*
G01X1915114Y2473755D01*
G03X1944683Y2430416I1290411J848648D01*
G03X2001294Y2362950I436614J308884D01*
G03X2094375Y2273296I1947367J1928643D01*
G03X2192278Y2185491I3708640J4036688D01*
G03X2229767Y2166923I53755J61404D01*
G03X2235896Y2160318I35239J26548D01*
G03X2251135Y2149277I66429J75657D01*
G03X2273518Y2137074I189539J321009D01*
G01X2273518Y2137074D01*
G01X2327587Y2110140D01*
G01X2327587Y2110140D01*
G03X2371808Y2088874I977384J1975885D01*
G03X2403509Y2075461I197929J423607D01*
G03X2435948Y2064488I163246J429182D01*
G03X2482301Y2051299I588916J1981628D01*
G01X2507329Y2044436D01*
G01X2533216Y2037227D01*
G01X2556373Y2030685D01*
G02X2571489Y2026287I-361194J-1269488D01*
G03X2632614Y2015089I82226J276425D01*
G03X2733062Y2009798I178590J2434241D01*
G03X2837052Y2008883I71702J2238468D01*
G03X2916262Y2014522I-10110J701124D01*
G03X3013055Y2028349I-439746J3424126D01*
G03X3092586Y2042973I-243602J1548350D01*
G03X3158587Y2059056I-223292J1059841D01*
G03X3214772Y2077800I-153274J552997D01*
G02X3224809Y2081590I155713J-397166D01*
G01X3242532Y2087967D01*
G01X3262896Y2095149D01*
G01X3283289Y2102196D01*
G03X3358415Y2129409I-717633J2098455D01*
G03X3395606Y2156741I-31126J81323D01*
G03X3414388Y2197624I-74813J59126D01*
G03X3430496Y2286384I-3412476J665119D01*
G02X3434608Y2307777I459368J-77216D01*
G02X3439699Y2328860I448783J-97210D01*
G02X3444933Y2346797I386558J-103058D01*
G02X3447240Y2352265I30765J-9762D01*
G03X3453498Y2366194I-97372J52113D01*
G03X3458065Y2380614I-153343J56499D01*
G03X3461224Y2395171I-154196J41089D01*
G03X3462514Y2410578I-91372J15408D01*
G02X3462812Y2415028I33356J-1D01*
G02X3464157Y2422553I88018J-11846D01*
G02X3466104Y2429780I84449J-18876D01*
G02X3467375Y2432947I21693J-6863D01*
G03X3472010Y2442646I-450055J221046D01*
G01X3478349Y2456405D01*
G01X3485302Y2471772D01*
G01X3491926Y2486691D01*
G02X3521307Y2550846I2097263J-921665D01*
G02X3553483Y2615943I2307815J-1100193D01*
G02X3583338Y2672651I2515668J-1288222D01*
G02X3595797Y2691191I102754J-55594D01*
G01X3603506Y2700654D01*
G01X3611253Y2710311D01*
G01X3618051Y2718912D01*
G03X3622758Y2725075I-234099J183669D01*
G02X3626948Y2730484I138023J-102587D01*
G01X3640038Y2746646D01*
G01X3655720Y2765851D01*
G01X3672892Y2786707D01*
G03X3689964Y2807955I-761734J629499D01*
G03X3704211Y2827075I-414272J323547D01*
G03X3715170Y2842838I-770513J547382D01*
G03X3710532Y2891228I-31461J21402D01*
G03X3685455Y2904173I-33039J-33243D01*
G01X3627522Y2914038D01*
G03X3559159Y2924999I-752641J-4475506D01*
G01X3476791Y2937195D01*
G01X3476791Y2937195D01*
G02X3377041Y2952003I1512050J10528743D01*
G01X3377041Y2952003D01*
G02X3308706Y2963432I385843J2516829D01*
G02X3262537Y2972184I523421J2887481D01*
G03X3250276Y2979548I-31068J-37842D01*
G03X3238519Y2983514I-34637J-83258D01*
G03X3225561Y2986024I-25705J-97991D01*
G03X3212389Y2986830I-12763J-100629D01*
G02X3190759Y2988976I-426J105752D01*
G02X3130218Y3002191I476857J2329957D01*
G02X3069984Y3016980I546468J2355802D01*
G02X3050450Y3024335I24615J94980D01*
G03X3039166Y3029262I-50349J-99934D01*
G03X3027590Y3033026I-50312J-135044D01*
G03X3016197Y3035682I-36494J-130788D01*
G03X3002984Y3036914I-13213J-70238D01*
G02X2992722Y3038260I0J39794D01*
G02X2946250Y3051257I523283J1960670D01*
G02X2900667Y3065320I456767J1561424D01*
G02X2881852Y3073166I38810J119543D01*
G03X2868305Y3078929I-45591J-88369D01*
G03X2853252Y3083666I-109458J-321555D01*
G03X2836352Y3088136I-105309J-363970D01*
G03X2819535Y3091729I-80169J-334091D01*
G02X2808361Y3094277I27231J145156D01*
G02X2804111Y3095572I17717J65791D01*
G03X2795607Y3103687I-31495J-24492D01*
G03X2784064Y3110450I-45847J-65019D01*
G03X2770168Y3115851I-42845J-89658D01*
G03X2756088Y3119365I-41430J-136031D01*
G02X2725958Y3126744I63985J326458D01*
G02X2694330Y3137457I118805J402792D01*
G02X2676606Y3144557I233566J608752D01*
G03X2673147Y3149382I-34403J-21010D01*
G03X2660000Y3160230I-35522J-29656D01*
G03X2645823Y3165547I-25181J-45588D01*
G03X2633025Y3166914I-12797J-59206D01*
G02X2630300Y3167535I1J6286D01*
G01X2630300Y3167535D01*
G01X2523701Y3219184D01*
G01X2523701Y3219184D01*
G01X2417587Y3271367D01*
G01X2417587Y3271367D01*
G02X2414631Y3273745I3908J7886D01*
G03X2405788Y3282460I-41684J-33454D01*
G03X2398690Y3287591I-75136J-96467D01*
G03X2390588Y3292612I-75124J-112183D01*
G03X2382133Y3297040I-64081J-112058D01*
G02X2345586Y3317126I157606J330056D01*
G02X2283491Y3357259I1383019J2207988D01*
G01X2283491Y3357259D01*
G02X2220242Y3399953I3644931J5467891D01*
G03X2211225Y3412243I-40237J-20070D01*
G03X2200788Y3420044I-36106J-37423D01*
G03X2188937Y3425000I-26454J-46610D01*
G03X2180947Y3426581I-13784J-48678D01*
G01X2179402Y3427620D01*
G01X2177556Y3429193D01*
G03X2168290Y3437840I-185770J-189770D01*
G01X2150008Y3454010D01*
G01X2128156Y3473095D01*
G01X2104744Y3493286D01*
G02X2048969Y3543073I1225811J1429403D01*
G02X1994902Y3595303I1308532J1408622D01*
G02X1946349Y3646122I1214838J1209295D01*
G02X1907865Y3690938I668150J612672D01*
G01X1892697Y3709700D01*
G01X1878987Y3726415D01*
G01X1867382Y3740376D01*
G03X1861119Y3747055I-61304J-51210D01*
G02X1847960Y3761674I87300J91812D01*
G02X1823809Y3794345I866636J665913D01*
G02X1802126Y3825387I1868306J1328142D01*
G03X1800131Y3834359I-48968J-6181D01*
G03X1794224Y3846824I-50449J-16272D01*
G03X1785194Y3857403I-43862J-28299D01*
G03X1775060Y3864313I-31068J-34677D01*
G01X1775060Y3864313D01*
G02X1738877Y3922078I4710459J2990748D01*
G02X1702491Y3981924I4132916J2553760D01*
G03X1700343Y3994752I-48217J-1481D01*
G03X1695091Y4006390I-49784J-15463D01*
G03X1687075Y4016460I-43897J-26715D01*
G03X1676856Y4023968I-31860J-32661D01*
G01X1676856Y4023968D01*
G01X1625445Y4132763D01*
G01X1625445Y4132763D01*
G02X1575329Y4241743I8645934J4041999D01*
G02X1572514Y4254798I28866J13055D01*
G03X1571125Y4267781I-61353J-0D01*
G03X1568015Y4278540I-80380J-17404D01*
G03X1563471Y4288782I-77371J-28197D01*
G03X1557317Y4298235I-54625J-28833D01*
G02X1551354Y4313509I567061J230156D01*
G02X1544185Y4333756I544480J204178D01*
G02X1536977Y4356452I789937J263382D01*
G03X1529209Y4381627I-2089199J-630810D01*
G03X1521105Y4406820I-2120496J-668283D01*
G03X1513730Y4428847I-1887649J-619709D01*
G03X1508308Y4443622I-326655J-111486D01*
G02X1504851Y4453419I137233J53940D01*
G02X1500067Y4469450I570324J178937D01*
G02X1495356Y4487000I632112J179063D01*
G02X1491562Y4503122I465368J118023D01*
G03X1487009Y4523555I-1897810J-412190D01*
G01X1480585Y4551398D01*
G01X1473505Y4581511D01*
G01X1466775Y4609549D01*
G02X1418878Y4872419I2242977J544486D01*
G03X1475781Y4853691I56904J77086D01*
G01X1535781Y4853691D01*
G03X1535781Y5045319I0J95814D01*
G01X1475781Y5045319D01*
G01X3805995Y5671978D02*
G03X3791785Y5637673I34305J-34305D01*
G01X3791785Y4763627D01*
G03X3805995Y4729322I48514J0D01*
G01X3847762Y4687555D01*
G03X3882066Y4673346I34305J34305D01*
G01X4300117Y4673346D01*
G03X4334421Y4687555I0J48514D01*
G01X4361269Y4714403D01*
G01X4361269Y4653353D01*
G01X3162256Y4653353D01*
G01X2779014Y5036595D01*
G01X2779014Y5338134D01*
G03X2764805Y5372438I-48514J0D01*
G01X2723038Y5414205D01*
G03X2688733Y5428415I-34305J-34305D01*
G01X2529637Y5428415D01*
G03X2530114Y5434240I-35337J5825D01*
G01X2530114Y5514887D01*
G03X2501834Y5549900I-35814J0D01*
G03X2530114Y5584913I-7534J35013D01*
G01X2530114Y5665560D01*
G03X2494300Y5701374I-35814J0D01*
G01X2407900Y5701374D01*
G03X2372086Y5665560I0J-35814D01*
G01X2372086Y5584913D01*
G03X2387469Y5555498I35814J0D01*
G01X2071601Y5555498D01*
G01X2071601Y5571996D01*
G03X2069788Y5583246I-35814J0D01*
G03X2071601Y5594495I-34002J11249D01*
G01X2071601Y5649496D01*
G03X2069347Y5662000I-35814J0D01*
G03X2071601Y5674505I-33560J12504D01*
G01X2071601Y5729506D01*
G03X2046133Y5763793I-35814J0D01*
G03X1970796Y5905316I-75338J50709D01*
G01X1880796Y5905316D01*
G03X1840129Y5733302I0J-90814D01*
G03X1807575Y5645850I33648J-62311D01*
G03X1889973Y5602054I66202J25141D01*
G01X1889973Y5594495D01*
G03X1891785Y5583246I35814J0D01*
G03X1889973Y5571996I34002J-11249D01*
G01X1889973Y5541997D01*
G03X1891399Y5531990I35814J0D01*
G03X1889973Y5521984I34388J-10006D01*
G01X1889973Y5491984D01*
G03X1891395Y5481990I35814J0D01*
G03X1889973Y5471997I34391J-9994D01*
G01X1889973Y5441911D01*
G03X1879926Y5434202I24257J-42014D01*
G01X1863582Y5417858D01*
G03X1849373Y5383553I34305J-34305D01*
G01X1849373Y5330440D01*
G03X1863582Y5296136I48514J0D01*
G01X1879926Y5279792D01*
G03X1889973Y5272083I34305J34305D01*
G01X1889973Y5241997D01*
G03X1891399Y5231991I35814J0D01*
G03X1889973Y5221984I34388J-10006D01*
G01X1889973Y5191985D01*
G03X1891785Y5180736I35814J0D01*
G03X1889973Y5169486I34002J-11249D01*
G01X1889973Y5161927D01*
G03X1807580Y5118144I-16196J-68938D01*
G03X1840104Y5030692I66197J-25154D01*
G03X1880796Y4858691I40692J-81187D01*
G01X1948000Y4858691D01*
G01X1989596Y4817095D01*
G03X2023900Y4802886I34305J34305D01*
G01X2127656Y4802886D01*
G03X2163298Y4770586I35641J3514D01*
G01X2243298Y4770586D01*
G03X2273300Y4786843I0J35814D01*
G03X2303302Y4770586I30002J19557D01*
G01X2383302Y4770586D01*
G03X2419116Y4806400I0J35814D01*
G01X2419116Y4896400D01*
G03X2383302Y4932214I-35814J0D01*
G01X2303302Y4932214D01*
G03X2273300Y4915957I0J-35814D01*
G03X2243298Y4932214I-30002J-19557D01*
G01X2163298Y4932214D01*
G03X2127656Y4899914I0J-35814D01*
G01X2046874Y4899914D01*
G03X2046133Y5000214I-76078J49591D01*
G03X2071601Y5034501I-10347J34287D01*
G01X2071601Y5089502D01*
G03X2069351Y5101994I-35814J0D01*
G03X2071601Y5114485I-33565J12492D01*
G01X2071601Y5169486D01*
G03X2071510Y5172031I-35814J0D01*
G03X2081648Y5179792I-24167J42066D01*
G01X2136541Y5234686D01*
G01X2329405Y5234686D01*
G01X2348568Y5215523D01*
G03X2335936Y5195098I22381J-27959D01*
G03X2300924Y5223378I-35013J-7534D01*
G01X2220276Y5223378D01*
G03X2184462Y5187564I0J-35814D01*
G01X2184462Y5101163D01*
G03X2220276Y5065349I35814J0D01*
G01X2300924Y5065349D01*
G03X2335936Y5093629I0J35814D01*
G03X2370949Y5065349I35013J7534D01*
G01X2451597Y5065349D01*
G03X2487411Y5101163I0J35814D01*
G01X2487411Y5187564D01*
G03X2459776Y5222431I-35814J0D01*
G03X2445577Y5255732I-48504J-1004D01*
G01X2442813Y5258496D01*
G01X2614249Y5258496D01*
G03X2641346Y5266769I0J48514D01*
G01X2641346Y4999666D01*
G03X2655555Y4965362I48514J0D01*
G01X3091022Y4529895D01*
G03X3125327Y4515685I34305J34305D01*
G01X4408656Y4515685D01*
G03X4442960Y4529895I0J48514D01*
G01X4467263Y4554197D01*
G01X4467263Y1453223D01*
G03X4481473Y1418918I48514J0D01*
G01X4529836Y1370555D01*
G01X4529836Y1190526D01*
G03X4509860Y1196614I-19976J-29726D01*
G01X4429213Y1196614D01*
G03X4394200Y1168334I0J-35814D01*
G03X4359187Y1196614I-35013J-7534D01*
G01X4278540Y1196614D01*
G03X4243169Y1166419I0J-35814D01*
G01X4162685Y1166419D01*
G03X4127898Y1193719I-34787J-8514D01*
G01X4037898Y1193719D01*
G03X4003110Y1166419I0J-35814D01*
G01X3823005Y1166419D01*
G03X3788700Y1152209I0J-48514D01*
G01X3775695Y1139205D01*
G03X3761486Y1104900I34305J-34305D01*
G01X3761486Y762000D01*
G03X3775695Y727695I48514J0D01*
G01X3793656Y709735D01*
G03X3827961Y695525I34305J34305D01*
G01X4128745Y695525D01*
G03X4296901Y681045I86957J26186D01*
G03X4384353Y648491I62311J33648D01*
G03X4428150Y730889I-25141J66202D01*
G01X4435709Y730889D01*
G03X4446958Y732701I0J35814D01*
G03X4458207Y730889I11249J34002D01*
G01X4488207Y730889D01*
G03X4498213Y732315I0J35814D01*
G03X4508219Y730889I10006J34388D01*
G01X4538280Y730889D01*
G03X4545989Y720842I42014J24257D01*
G01X4562333Y704498D01*
G03X4596637Y690289I34305J34305D01*
G01X4649750Y690289D01*
G03X4684055Y704498I0J48514D01*
G01X4700398Y720842D01*
G03X4708108Y730889I-34305J34305D01*
G01X4738193Y730889D01*
G03X4748200Y732315I0J35814D01*
G03X4758206Y730889I10006J34388D01*
G01X4788206Y730889D01*
G03X4798212Y732315I0J35814D01*
G03X4808219Y730889I10006J34388D01*
G01X4838219Y730889D01*
G03X4849468Y732701I0J35814D01*
G03X4860717Y730889I11249J34002D01*
G01X4868276Y730889D01*
G03X4912059Y648495I68938J-16196D01*
G03X4999511Y681020I25154J66197D01*
G03X5171512Y721712I81187J40692D01*
G01X5171512Y811712D01*
G03X5134864Y884604I-90814J0D01*
G01X5134864Y1162050D01*
G03X5120655Y1196355I-48514J0D01*
G01X5013568Y1303441D01*
G03X4979264Y1317650I-34305J-34305D01*
G01X4815165Y1317650D01*
G03X4780300Y1345274I-34865J-8190D01*
G01X4693900Y1345274D01*
G03X4667504Y1333666I0J-35814D01*
G01X4667504Y1407484D01*
G03X4653295Y1441788I-48514J0D01*
G01X4604931Y1490152D01*
G01X4604931Y4790887D01*
G03X4609985Y4804176I-42329J23703D01*
G01X4628112Y4804176D01*
G03X4642104Y4807022I0J35814D01*
G03X4656096Y4804176I13992J32968D01*
G01X4681097Y4804176D01*
G03X4716911Y4839990I0J35814D01*
G01X4716911Y4851476D01*
G01X4789217Y4851476D01*
G01X4880530Y4760164D01*
G03X4898288Y4717290I66273J2336D01*
G01X4898288Y4677187D01*
G03X4876800Y4661957I8514J-34787D01*
G03X4846798Y4678214I-30002J-19557D01*
G01X4766798Y4678214D01*
G03X4730984Y4642400I0J-35814D01*
G01X4730984Y4552400D01*
G03X4766798Y4516586I35814J0D01*
G01X4846798Y4516586D01*
G03X4876800Y4532843I0J35814D01*
G03X4906802Y4516586I30002J19557D01*
G01X4986802Y4516586D01*
G03X5022616Y4552400I0J35814D01*
G01X5022616Y4642400D01*
G03X4995316Y4677187I-35814J0D01*
G01X4995316Y4717290D01*
G03X4949139Y4828773I-48514J45210D01*
G01X4843617Y4934295D01*
G03X4809312Y4948504I-34305J-34305D01*
G01X4716911Y4948504D01*
G01X4716911Y4959990D01*
G03X4681097Y4995804I-35814J0D01*
G01X4656096Y4995804D01*
G03X4642104Y4992958I0J-35814D01*
G03X4628112Y4995804I-13992J-32968D01*
G01X4603111Y4995804D01*
G03X4589107Y4992953I0J-35814D01*
G03X4575103Y4995804I-14004J-32962D01*
G01X4550101Y4995804D01*
G03X4536097Y4992953I0J-35814D01*
G03X4522093Y4995804I-14004J-32962D01*
G01X4497092Y4995804D01*
G03X4483100Y4992958I0J-35814D01*
G03X4469108Y4995804I-13992J-32968D01*
G01X4444107Y4995804D01*
G03X4430103Y4992953I0J-35814D01*
G03X4416099Y4995804I-14004J-32962D01*
G01X4391097Y4995804D01*
G03X4377106Y4992958I0J-35814D01*
G03X4363114Y4995804I-13992J-32968D01*
G01X4338113Y4995804D01*
G03X4324109Y4992953I0J-35814D01*
G03X4310104Y4995804I-14004J-32962D01*
G01X4285103Y4995804D01*
G03X4249289Y4959990I0J-35814D01*
G01X4249289Y4904384D01*
G03X4249090Y4899990I48315J-4394D01*
G01X4249090Y4814590D01*
G03X4249222Y4811014I48514J0D01*
G01X3929453Y4811014D01*
G01X3929453Y5600744D01*
G01X3982495Y5653786D01*
G01X4171778Y5653786D01*
G03X4126971Y5607577I19222J-63467D01*
G03X4142486Y5545109I64029J-17258D01*
G01X4142486Y5366614D01*
G03X4156695Y5332309I48514J0D01*
G01X4249289Y5239715D01*
G01X4249289Y5200010D01*
G03X4285103Y5164196I35814J0D01*
G01X4310104Y5164196D01*
G03X4324109Y5167047I0J35814D01*
G03X4338113Y5164196I14004J32962D01*
G01X4363114Y5164196D01*
G03X4377106Y5167042I0J35814D01*
G03X4391097Y5164196I13992J32968D01*
G01X4416099Y5164196D01*
G03X4430103Y5167047I0J35814D01*
G03X4444107Y5164196I14004J32962D01*
G01X4469108Y5164196D01*
G03X4483100Y5167042I0J35814D01*
G03X4497092Y5164196I13992J32968D01*
G01X4522093Y5164196D01*
G03X4536097Y5167047I0J35814D01*
G03X4550101Y5164196I14004J32962D01*
G01X4575103Y5164196D01*
G03X4589107Y5167047I0J35814D01*
G03X4603111Y5164196I14004J32962D01*
G01X4628112Y5164196D01*
G03X4642104Y5167042I0J35814D01*
G03X4656096Y5164196I13992J32968D01*
G01X4681097Y5164196D01*
G03X4716911Y5200010I0J35814D01*
G01X4716911Y5209286D01*
G01X4780505Y5209286D01*
G01X4874093Y5115698D01*
G03X4908398Y5101488I34305J34305D01*
G01X4940859Y5101488D01*
G03X4967986Y5070215I35641J3514D01*
G01X4967986Y5026590D01*
G03X4940686Y4991802I8514J-34787D01*
G01X4940686Y4901802D01*
G03X4976500Y4865988I35814J0D01*
G01X5056500Y4865988D01*
G03X5086502Y4882245I0J35814D01*
G03X5105074Y4867862I30002J19557D01*
G03X5156505Y4759686I51431J-41862D01*
G03X5207936Y4867862I0J66314D01*
G03X5232319Y4901802I-11431J33941D01*
G01X5232319Y4991802D01*
G03X5196505Y5027616I-35814J0D01*
G01X5116505Y5027616D01*
G03X5086502Y5011360I0J-35814D01*
G03X5065014Y5026590I-30002J-19557D01*
G01X5065014Y5070215D01*
G03X5086502Y5085445I-8514J34787D01*
G03X5116505Y5069188I30002J19557D01*
G01X5196505Y5069188D01*
G03X5232319Y5105002I0J35814D01*
G01X5232319Y5195002D01*
G03X5214635Y5225888I-35814J0D01*
G03X5210019Y5296964I-58131J31912D01*
G03X5143666Y5322859I-53514J-39164D01*
G01X5143666Y5372545D01*
G01X5158208Y5387086D01*
G01X5225290Y5387086D01*
G03X5310154Y5382448I45210J48514D01*
G03X5329882Y5465118I-39654J53152D01*
G03X5425024Y5534044I29518J59382D01*
G03X5314190Y5573014I-65624J-9544D01*
G01X5145490Y5573014D01*
G01X5143666Y5574838D01*
G01X5143666Y5627042D01*
G03X5131673Y5653786I-35814J0D01*
G01X6266405Y5653786D01*
G01X6695899Y5224292D01*
G03X6730203Y5210083I34305J34305D01*
G01X6831588Y5210083D01*
G03X6828922Y5196524I33148J-13559D01*
G01X6828922Y5115876D01*
G03X6857202Y5080864I35814J0D01*
G03X6828922Y5045851I7534J-35013D01*
G01X6828922Y4965203D01*
G03X6864736Y4929389I35814J0D01*
G01X6951137Y4929389D01*
G03X6986951Y4965203I0J35814D01*
G01X6986951Y5045851D01*
G03X6958671Y5080864I-35814J0D01*
G03X6986951Y5115876I-7534J35013D01*
G01X6986951Y5166605D01*
G01X7031651Y5211305D01*
G01X7228183Y5211305D01*
G01X7228183Y5194807D01*
G03X7229996Y5183558I35814J0D01*
G03X7228183Y5172309I34002J-11249D01*
G01X7228183Y5117308D01*
G03X7230437Y5104803I35814J0D01*
G03X7228183Y5092299I33560J-12504D01*
G01X7228183Y5037298D01*
G03X7253651Y5003011I35814J0D01*
G03X7328988Y4861488I75338J-50709D01*
G01X7418988Y4861488D01*
G03X7459655Y5033501I0J90814D01*
G03X7492209Y5120953I-33648J62311D01*
G03X7409811Y5164750I-66202J-25141D01*
G01X7409811Y5172309D01*
G03X7407999Y5183558I-35814J0D01*
G03X7409811Y5194807I-34002J11249D01*
G01X7409811Y5224807D01*
G03X7408385Y5234813I-35814J0D01*
G03X7409811Y5244819I-34388J10006D01*
G01X7409811Y5274880D01*
G03X7419858Y5282589I-24257J42014D01*
G01X7436202Y5298933D01*
G03X7450411Y5333237I-34305J34305D01*
G01X7450411Y5386350D01*
G03X7436202Y5420655I-48514J0D01*
G01X7419858Y5436998D01*
G03X7409811Y5444708I-34305J-34305D01*
G01X7409811Y5474793D01*
G03X7408385Y5484800I-35814J0D01*
G03X7409811Y5494806I-34388J10006D01*
G01X7409811Y5524806D01*
G03X7408385Y5534812I-35814J0D01*
G03X7409811Y5544819I-34388J10006D01*
G01X7409811Y5574819D01*
G03X7407999Y5586068I-35814J0D01*
G03X7409811Y5597317I-34002J11249D01*
G01X7409811Y5604876D01*
G03X7492205Y5648659I16196J68938D01*
G03X7459680Y5736111I-66197J25154D01*
G03X7418988Y5908112I-40692J81187D01*
G01X7351784Y5908112D01*
G01X7251331Y6008565D01*
G03X7217026Y6022775I-34305J-34305D01*
G01X6932958Y6022775D01*
G03X6898654Y6008565I0J-48514D01*
G01X6880693Y5990605D01*
G03X6866484Y5956300I34305J-34305D01*
G01X6866484Y5883687D01*
G03X6839184Y5848900I8514J-34787D01*
G01X6839184Y5758900D01*
G03X6874998Y5723086I35814J0D01*
G01X6954998Y5723086D01*
G03X6985000Y5739343I0J35814D01*
G03X7015002Y5723086I30002J19557D01*
G01X7095002Y5723086D01*
G03X7130816Y5758900I0J35814D01*
G01X7130816Y5848900D01*
G03X7095002Y5884714I-35814J0D01*
G01X7015002Y5884714D01*
G03X6985000Y5868457I0J-35814D01*
G03X6963512Y5883687I-30002J-19557D01*
G01X6963512Y5925747D01*
G01X7196931Y5925747D01*
G01X7254063Y5868615D01*
G03X7253651Y5766589I74925J-51316D01*
G03X7228183Y5732302I10347J-34287D01*
G01X7228183Y5677301D01*
G03X7230433Y5664810I35814J0D01*
G03X7228183Y5652318I33565J-12492D01*
G01X7228183Y5608333D01*
G01X6990518Y5608333D01*
G01X6990518Y5617386D01*
G03X6954704Y5653200I-35814J0D01*
G01X6868303Y5653200D01*
G03X6832489Y5617386I0J-35814D01*
G01X6832489Y5536738D01*
G03X6860769Y5501726I35814J0D01*
G03X6832489Y5466713I7534J-35013D01*
G01X6832489Y5386066D01*
G03X6868303Y5350252I35814J0D01*
G01X6925559Y5350252D01*
G01X6923059Y5347751D01*
G01X6767132Y5347751D01*
G01X6337638Y5777245D01*
G03X6303334Y5791454I-34305J-34305D01*
G01X4651854Y5791454D01*
G03X4610285Y5894350I-54454J37846D01*
G01X4591459Y5913176D01*
G01X5032692Y6354409D01*
G01X5744353Y6354409D01*
G03X5778658Y6368619I0J48514D01*
G01X5820425Y6410386D01*
G03X5834634Y6444690I-34305J34305D01*
G01X5834634Y6466829D01*
G01X5900104Y6532299D01*
G03X5913183Y6556190I-34305J34305D01*
G01X5921799Y6556190D01*
G03X5957613Y6592004I0J35814D01*
G01X5957613Y6880004D01*
G03X5921799Y6915818I-35814J0D01*
G01X5809800Y6915818D01*
G03X5773986Y6880004I0J-35814D01*
G01X5773986Y6592004D01*
G03X5791692Y6561105I35814J0D01*
G01X5765800Y6535213D01*
G01X5739908Y6561105D01*
G03X5757614Y6592004I-18108J30899D01*
G01X5757614Y6880004D01*
G03X5721800Y6915818I-35814J0D01*
G01X5609801Y6915818D01*
G03X5573987Y6880004I0J-35814D01*
G01X5573987Y6592004D01*
G03X5609801Y6556190I35814J0D01*
G01X5618417Y6556190D01*
G03X5631496Y6532299I47383J10414D01*
G01X5671717Y6492077D01*
G01X4995763Y6492077D01*
G03X4961459Y6477868I0J-48514D01*
G01X4423395Y5939805D01*
G03X4409186Y5905500I34305J-34305D01*
G01X4409186Y5887210D01*
G03X4414774Y5791454I48514J-45210D01*
G01X4335526Y5791454D01*
G03X4355241Y5863765I-42926J50546D01*
G03X4294936Y5908273I-62641J-21765D01*
G01X4290314Y5912895D01*
G01X4290314Y5918200D01*
G03X4285234Y5939812I-48514J0D01*
G01X4285234Y5990914D01*
G03X4271025Y6025218I-48514J0D01*
G01X4229258Y6066985D01*
G03X4194953Y6081195I-34305J-34305D01*
G01X3624653Y6081195D01*
G01X3624653Y6382181D01*
G01X3636025Y6393552D01*
G03X3650234Y6427857I-34305J34305D01*
G01X3650234Y6466829D01*
G01X3715704Y6532299D01*
G03X3728783Y6556190I-34305J34305D01*
G01X3737399Y6556190D01*
G03X3773213Y6592004I0J35814D01*
G01X3773213Y6880004D01*
G03X3737399Y6915818I-35814J0D01*
G01X3625400Y6915818D01*
G03X3589586Y6880004I0J-35814D01*
G01X3589586Y6592004D01*
G03X3607292Y6561105I35814J0D01*
G01X3581400Y6535213D01*
G01X3555508Y6561105D01*
G03X3573214Y6592004I-18108J30899D01*
G01X3573214Y6880004D01*
G03X3537400Y6915818I-35814J0D01*
G01X3425401Y6915818D01*
G03X3389587Y6880004I0J-35814D01*
G01X3389587Y6592004D01*
G03X3425401Y6556190I35814J0D01*
G01X3434017Y6556190D01*
G03X3447096Y6532299I47383J10414D01*
G01X3512566Y6466829D01*
G01X3512566Y6464785D01*
G01X3501195Y6453414D01*
G03X3486985Y6419110I34305J-34305D01*
G01X3486985Y6033807D01*
G03X3501195Y5999503I48514J0D01*
G01X3542962Y5957736D01*
G03X3577266Y5943527I34304J34305D01*
G01X4142486Y5943527D01*
G01X4142486Y5887210D01*
G03X4124799Y5838137I48514J-45210D01*
G03X4148074Y5791454I66201J3863D01*
G01X3945566Y5791454D01*
G03X3911262Y5777245I0J-48514D01*
G01X3805995Y5671978D01*
G01X1866494Y6464300D02*
G03X2158122Y6464300I145814J0D01*
G03X1866494Y6464300I-145814J0D01*
G01X1891894Y1955800D02*
G03X2183522Y1955800I145814J0D01*
G03X1891894Y1955800I-145814J0D01*
G01X1958086Y7708900D02*
G03X2537714Y7708900I289814J0D01*
G03X1958086Y7708900I-289814J0D01*
G01X2387194Y3759200D02*
G03X2678822Y3759200I145814J0D01*
G03X2387194Y3759200I-145814J0D01*
G01X3032206Y7549996D02*
G01X3032206Y7679996D01*
G03X2840579Y7679996I-95814J0D01*
G01X2840579Y7549996D01*
G03X3032206Y7549996I95814J0D01*
G01X3139600Y6592004D02*
G03X3175414Y6556190I35814J0D01*
G01X3287413Y6556190D01*
G03X3323227Y6592004I0J35814D01*
G01X3323227Y6880004D01*
G03X3287413Y6915818I-35814J0D01*
G01X3175414Y6915818D01*
G03X3139600Y6880004I0J-35814D01*
G01X3139600Y6784518D01*
G01X3080510Y6784518D01*
G03X2968986Y6736004I-45210J-48514D01*
G03X3080510Y6687490I66314J0D01*
G01X3139600Y6687490D01*
G01X3139600Y6592004D01*
G01X3606394Y1676400D02*
G03X3898022Y1676400I145814J0D01*
G03X3606394Y1676400I-145814J0D01*
G01X3766310Y6322009D02*
G03X3654786Y6273495I-45210J-48514D01*
G03X3766310Y6224981I66314J0D01*
G01X3863715Y6224981D01*
G03X3898502Y6197681I34787J8514D01*
G01X3988502Y6197681D01*
G03X4024316Y6233495I0J35814D01*
G01X4024316Y6313495D01*
G03X4008060Y6343498I-35814J0D01*
G03X4024316Y6373500I-19557J30002D01*
G01X4024316Y6453500D01*
G03X3988502Y6489314I-35814J0D01*
G01X3898502Y6489314D01*
G03X3862688Y6453500I0J-35814D01*
G01X3862688Y6373500D01*
G03X3878945Y6343498I35814J0D01*
G03X3863715Y6322009I19557J-30002D01*
G01X3766310Y6322009D01*
G01X4023200Y6880004D02*
G03X3987386Y6915818I-35814J0D01*
G01X3875387Y6915818D01*
G03X3839573Y6880004I0J-35814D01*
G01X3839573Y6592004D01*
G03X3875387Y6556190I35814J0D01*
G01X3987386Y6556190D01*
G03X4023200Y6592004I0J35814D01*
G01X4023200Y6880004D01*
G01X4841143Y4498706D02*
G01X4761143Y4498706D01*
G03X4725329Y4462892I0J-35814D01*
G01X4725329Y4372892D01*
G03X4761143Y4337078I35814J0D01*
G01X4841143Y4337078D01*
G03X4871145Y4353335I0J35814D01*
G03X4892633Y4338105I30002J19557D01*
G01X4892633Y4287010D01*
G03X4941147Y4175486I48514J-45210D01*
G03X4989661Y4287010I0J66314D01*
G01X4989661Y4338105D01*
G03X5016961Y4372892I-8514J34787D01*
G01X5016961Y4462892D01*
G03X4981147Y4498706I-35814J0D01*
G01X4901148Y4498706D01*
G03X4871145Y4482449I0J-35814D01*
G03X4841143Y4498706I-30002J-19557D01*
G01X5397094Y1663700D02*
G03X5688722Y1663700I145814J0D01*
G03X5397094Y1663700I-145814J0D01*
G01X5864586Y6261100D02*
G03X5976110Y6212586I66314J0D01*
G01X6050657Y6212586D01*
G03X6070202Y6206782I19546J30010D01*
G01X6160202Y6206782D01*
G03X6196016Y6242596I0J35814D01*
G01X6196016Y6322596D01*
G03X6179760Y6352598I-35814J0D01*
G03X6196016Y6382601I-19557J30002D01*
G01X6196016Y6462601D01*
G03X6160202Y6498415I-35814J0D01*
G01X6070202Y6498415D01*
G03X6034388Y6462601I0J-35814D01*
G01X6034388Y6382601D01*
G03X6050645Y6352598I35814J0D01*
G03X6034388Y6322596I19557J-30002D01*
G01X6034388Y6309614D01*
G01X5976110Y6309614D01*
G03X5864586Y6261100I-45210J-48514D01*
G01X6207600Y6880004D02*
G03X6171786Y6915818I-35814J0D01*
G01X6059787Y6915818D01*
G03X6023973Y6880004I0J-35814D01*
G01X6023973Y6592004D01*
G03X6059787Y6556190I35814J0D01*
G01X6171786Y6556190D01*
G03X6207600Y6592004I0J35814D01*
G01X6207600Y6880004D01*
G01X6506621Y7549996D02*
G01X6506621Y7679996D01*
G03X6314994Y7679996I-95814J0D01*
G01X6314994Y7549996D01*
G03X6506621Y7549996I95814J0D01*
G01X6699486Y3759200D02*
G03X6991114Y3759200I145814J0D01*
G03X6699486Y3759200I-145814J0D01*
G01X7136994Y6464300D02*
G03X7428622Y6464300I145814J0D01*
G03X7136994Y6464300I-145814J0D01*
G01X4124888Y811712D02*
G01X4124888Y792553D01*
G01X3858514Y792553D01*
G01X3858514Y1069391D01*
G01X4003110Y1069391D01*
G03X4018340Y1047902I34787J8514D01*
G03X4002084Y1017900I19557J-30002D01*
G01X4002084Y937900D01*
G03X4037898Y902086I35814J0D01*
G01X4127898Y902086D01*
G03X4163712Y937900I0J35814D01*
G01X4163712Y1017900D01*
G03X4147455Y1047902I-35814J0D01*
G03X4162685Y1069391I-19557J30002D01*
G01X4243078Y1069391D01*
G03X4278540Y1038586I35462J5009D01*
G01X4359187Y1038586D01*
G03X4394200Y1066866I0J35814D01*
G03X4429213Y1038586I35013J7534D01*
G01X4474705Y1038586D01*
G01X4474705Y912517D01*
G01X4458207Y912517D01*
G03X4446958Y910704I0J-35814D01*
G03X4435709Y912517I-11249J-34002D01*
G01X4380708Y912517D01*
G03X4368203Y910263I0J-35814D01*
G03X4355699Y912517I-12504J-33560D01*
G01X4300698Y912517D01*
G03X4266411Y887049I0J-35814D01*
G03X4124888Y811712I-50709J-75338D01*
G01X4815165Y1220622D02*
G01X4959168Y1220622D01*
G01X5037836Y1141955D01*
G01X5037836Y891774D01*
G03X5029989Y887049I42863J-80062D01*
G03X4995702Y912517I-34287J-10347D01*
G01X4940701Y912517D01*
G03X4928210Y910267I0J-35814D01*
G03X4915718Y912517I-12492J-33565D01*
G01X4871733Y912517D01*
G01X4871733Y1032345D01*
G03X4857523Y1066649I-48514J0D01*
G01X4816114Y1108058D01*
G01X4816114Y1158787D01*
G03X4787834Y1193800I-35814J0D01*
G03X4815165Y1220622I-7534J35013D01*
G01X7228183Y5511305D02*
G01X7228184Y5494721D01*
G03X7218136Y5487011I24257J-42014D01*
G01X7201793Y5470667D01*
G03X7187583Y5436363I34305J-34305D01*
G01X7187583Y5408308D01*
G01X7003711Y5408308D01*
G03X6990518Y5406479I0J-48514D01*
G01X6990518Y5466713D01*
G03X6962237Y5501726I-35814J0D01*
G03X6979918Y5511305I-7534J35013D01*
G01X7228183Y5511305D01*
G54D11*
G01X1980787Y5621995D02*
G01X2061441Y5621995D01*
G01X1980787Y5141986D02*
G01X2061441Y5141986D01*
G01X2260600Y5144364D02*
G01X2194622Y5144364D01*
G01X2260600Y5144364D02*
G01X2260600Y5075509D01*
G01X2260600Y5144364D02*
G01X2260600Y5213218D01*
G01X2343302Y4851400D02*
G01X2408956Y4851400D01*
G01X2343302Y4851400D02*
G01X2343302Y4780746D01*
G01X2343302Y4851400D02*
G01X2343302Y4922054D01*
G01X2451100Y5625236D02*
G01X2451100Y5691214D01*
G01X2451100Y5625236D02*
G01X2382246Y5625236D01*
G01X2451100Y5625236D02*
G01X2519954Y5625236D01*
G01X3931387Y6736004D02*
G01X4013040Y6736004D01*
G01X3931387Y6736004D02*
G01X3849733Y6736004D01*
G01X3931387Y6736004D02*
G01X3931387Y6566350D01*
G01X3931387Y6736004D02*
G01X3931387Y6905658D01*
G01X3943502Y6413500D02*
G01X3943502Y6479154D01*
G01X3943502Y6413500D02*
G01X4014156Y6413500D01*
G01X3943502Y6413500D02*
G01X3872848Y6413500D01*
G01X4082898Y977900D02*
G01X4082898Y912246D01*
G01X4082898Y977900D02*
G01X4012244Y977900D01*
G01X4082898Y977900D02*
G01X4153552Y977900D01*
G01X4408208Y821703D02*
G01X4408208Y902357D01*
G01X4615612Y4899990D02*
G01X4615612Y4814336D01*
G01X4615612Y4899990D02*
G01X4615612Y4985644D01*
G01X4801143Y4417892D02*
G01X4735489Y4417892D01*
G01X4801143Y4417892D02*
G01X4801143Y4488546D01*
G01X4801143Y4417892D02*
G01X4801143Y4347238D01*
G01X4806798Y4597400D02*
G01X4741144Y4597400D01*
G01X4806798Y4597400D02*
G01X4806798Y4668054D01*
G01X4806798Y4597400D02*
G01X4806798Y4526746D01*
G01X4888217Y821703D02*
G01X4888217Y902357D01*
G01X6115202Y6422601D02*
G01X6115202Y6488255D01*
G01X6115202Y6422601D02*
G01X6185856Y6422601D01*
G01X6115202Y6422601D02*
G01X6044548Y6422601D01*
G01X6115787Y6736004D02*
G01X6197440Y6736004D01*
G01X6115787Y6736004D02*
G01X6034133Y6736004D01*
G01X6115787Y6736004D02*
G01X6115787Y6566350D01*
G01X6115787Y6736004D02*
G01X6115787Y6905658D01*
G01X6907936Y5005527D02*
G01X6907936Y4939549D01*
G01X6907936Y5005527D02*
G01X6976791Y5005527D01*
G01X6907936Y5005527D02*
G01X6839082Y5005527D01*
G01X6911503Y5426389D02*
G01X6911503Y5360412D01*
G01X6911503Y5426389D02*
G01X6980358Y5426389D01*
G01X6911503Y5426389D02*
G01X6842649Y5426389D01*
G01X7055002Y5803900D02*
G01X7120656Y5803900D01*
G01X7055002Y5803900D02*
G01X7055002Y5733246D01*
G01X7055002Y5803900D02*
G01X7055002Y5874554D01*
G01X7318997Y5624817D02*
G01X7238343Y5624817D01*
G01X7318997Y5144808D02*
G01X7238343Y5144808D01*
G04 Copper End*

G04 Pad Start*
G54D12*
G01X6115202Y6282596D03*
G01X6115202Y6422601D03*
G01X3943502Y6273495D03*
G01X3943502Y6413500D03*
G54D13*
G01X2203298Y4851400D03*
G01X2343302Y4851400D03*
G01X6914998Y5803900D03*
G01X7055002Y5803900D03*
G54D12*
G01X4082898Y1117905D03*
G01X4082898Y977900D03*
G54D13*
G01X5156505Y5150002D03*
G01X5016500Y5150002D03*
G01X5156505Y4946802D03*
G01X5016500Y4946802D03*
G01X5067852Y5365340D03*
G01X4927848Y5365340D03*
G01X5067852Y5582042D03*
G01X4927848Y5582042D03*
G54D14*
G01X4469536Y1117600D03*
G01X4318864Y1117600D03*
G54D15*
G01X4737100Y1118464D03*
G01X4737100Y1269136D03*
G01X2451100Y5625236D03*
G01X2451100Y5474564D03*
G54D14*
G01X2260600Y5144364D03*
G01X2411273Y5144364D03*
G54D15*
G01X6907936Y5005527D03*
G01X6907936Y5156200D03*
G01X6911503Y5426389D03*
G01X6911503Y5577062D03*
G54D16*
G01X4297604Y4899990D03*
G01X4350614Y4899990D03*
G01X4403598Y4899990D03*
G01X4456608Y4899990D03*
G01X4509592Y4899990D03*
G01X4562602Y4899990D03*
G01X4615612Y4899990D03*
G01X4668596Y4899990D03*
G01X4668596Y5260010D03*
G01X4615612Y5260010D03*
G01X4562602Y5260010D03*
G01X4509592Y5260010D03*
G01X4456608Y5260010D03*
G01X4403598Y5260010D03*
G01X4350614Y5260010D03*
G01X4297604Y5260010D03*
G54D17*
G01X7318997Y5064798D03*
G01X7318997Y5144808D03*
G54D18*
G01X7318997Y5209807D03*
G01X7318997Y5259819D03*
G01X7318997Y5309807D03*
G01X7318997Y5359794D03*
G01X7318997Y5409806D03*
G01X7318997Y5459794D03*
G01X7318997Y5509806D03*
G01X7318997Y5559819D03*
G54D17*
G01X7318997Y5624817D03*
G01X7318997Y5704802D03*
G54D20*
G01X7373988Y4952302D03*
G01X7373988Y5817299D03*
G54D21*
G01X7794003Y4952302D03*
G01X7794003Y5817299D03*
G54D22*
G01X4328198Y821703D03*
G01X4408208Y821703D03*
G54D23*
G01X4473207Y821703D03*
G01X4523219Y821703D03*
G01X4573207Y821703D03*
G01X4623194Y821703D03*
G01X4673206Y821703D03*
G01X4723194Y821703D03*
G01X4773206Y821703D03*
G01X4823219Y821703D03*
G54D22*
G01X4888217Y821703D03*
G01X4968202Y821703D03*
G54D24*
G01X4215702Y766712D03*
G01X5080699Y766712D03*
G54D25*
G01X4215702Y346697D03*
G01X5080699Y346697D03*
G54D17*
G01X1980787Y5702005D03*
G01X1980787Y5621995D03*
G54D18*
G01X1980787Y5556997D03*
G01X1980787Y5506984D03*
G01X1980787Y5456997D03*
G01X1980787Y5407010D03*
G01X1980787Y5356997D03*
G01X1980787Y5307010D03*
G01X1980787Y5256997D03*
G01X1980787Y5206985D03*
G54D17*
G01X1980787Y5141986D03*
G01X1980787Y5062001D03*
G54D20*
G01X1925796Y5814502D03*
G01X1925796Y4949505D03*
G54D21*
G01X1505781Y5814502D03*
G01X1505781Y4949505D03*
G54D26*
G01X3231413Y6736004D03*
G01X3481400Y6736004D03*
G01X3681400Y6736004D03*
G01X3931387Y6736004D03*
G54D27*
G01X2936392Y7614996D03*
G01X4226408Y7614996D03*
G54D26*
G01X5415813Y6736004D03*
G01X5665800Y6736004D03*
G01X5865800Y6736004D03*
G01X6115787Y6736004D03*
G54D27*
G01X5120792Y7614996D03*
G01X6410808Y7614996D03*
G54D13*
G01X4946802Y4597400D03*
G01X4806798Y4597400D03*
G01X4941147Y4417892D03*
G01X4801143Y4417892D03*
G04 Pad End*

G04 Via Start*
G54D28*
G01X4191000Y5590319D03*
G01X4292600Y5588000D03*
G01X4409783Y5600700D03*
G01X4533900Y5600700D03*
G01X4191000Y5842000D03*
G01X4292600Y5842000D03*
G01X4457700Y5842000D03*
G01X4597400Y5829300D03*
G01X3035300Y6736004D03*
G01X3721100Y6273495D03*
G01X5930900Y6261100D03*
G01X5359400Y5524500D03*
G01X5270500Y5435600D03*
G01X5156505Y5257800D03*
G01X5156505Y4826000D03*
G01X4946802Y4762500D03*
G01X4941147Y4241800D03*
G01X4661969Y5495877D03*
G01X3924300Y977900D03*
G01X3683000Y977900D03*
G04 Via End*

G04 Track Start*
G54D11*
G01X4823219Y821703D02*
G01X4823219Y1032345D01*
G01X4737100Y1118464D01*
G01X4523219Y821703D02*
G01X4523219Y1063917D01*
G01X4469536Y1117600D01*
G01X7318997Y5624817D02*
G01X7234085Y5624817D01*
G01X7055002Y5803900D01*
G01X7318997Y5559819D02*
G01X6928747Y5559819D01*
G01X6911503Y5577062D01*
G01X7318997Y5259819D02*
G01X7011556Y5259819D01*
G01X6907936Y5156200D01*
G01X1980787Y5141986D02*
G01X2052716Y5141986D01*
G01X2343302Y4851400D01*
G01X1980787Y5206985D02*
G01X1987899Y5214097D01*
G01X2047343Y5214097D01*
G01X2116446Y5283200D01*
G01X2349500Y5283200D01*
G01X2411273Y5221427D01*
G01X2411273Y5144364D01*
G01X1980787Y5506984D02*
G01X2418680Y5506984D01*
G01X2451100Y5474564D01*
G01X3943502Y6413500D02*
G01X3943502Y6723888D01*
G01X3931387Y6736004D01*
G01X6115202Y6422601D02*
G01X6115787Y6423185D01*
G01X6115787Y6736004D01*
G01X4408208Y821703D02*
G01X4408208Y938492D01*
G01X4394200Y952500D01*
G01X4108298Y952500D01*
G01X4082898Y977900D01*
G01X4562602Y4899990D02*
G01X4562602Y4814590D01*
G01X4509592Y4899990D02*
G01X4509592Y4814590D01*
G01X4562602Y4814590D02*
G01X4556417Y4808405D01*
G01X4509592Y4814590D02*
G01X4515777Y4808405D01*
G01X4556417Y4808405D02*
G01X4556417Y1470056D01*
G01X4515777Y4808405D02*
G01X4515777Y1453223D01*
G01X4618990Y1407484D02*
G01X4618990Y949480D01*
G01X4573207Y902103D02*
G01X4573207Y821703D01*
G01X4618520Y906776D02*
G01X4623194Y902103D01*
G01X4577880Y906776D02*
G01X4573207Y902103D01*
G01X4618990Y949480D02*
G01X4618520Y949010D01*
G01X4618520Y906776D01*
G01X4578350Y1390650D02*
G01X4578350Y966313D01*
G01X4577880Y965843D01*
G01X4577880Y906776D01*
G01X4556417Y1470056D02*
G01X4618990Y1407484D01*
G01X4515777Y1453223D02*
G01X4578350Y1390650D01*
G01X4623194Y821703D02*
G01X4623194Y881147D01*
G01X4646650Y904603D01*
G01X4651103Y904603D02*
G01X4660900Y914400D01*
G01X4646650Y904603D02*
G01X4651103Y904603D01*
G01X4660900Y914400D02*
G01X4686300Y914400D01*
G01X4723194Y877507D02*
G01X4723194Y821703D01*
G01X4686300Y914400D02*
G01X4696097Y904603D01*
G01X4699763Y904603D01*
G01X4716106Y888259D01*
G01X4716106Y884594D01*
G01X4723194Y877507D01*
G01X4623194Y902103D02*
G01X4623194Y881147D01*
G01X4573207Y821703D02*
G01X4580294Y814616D01*
G01X4580294Y755146D01*
G01X4596637Y738803D01*
G01X4649750Y738803D01*
G01X4666094Y755146D01*
G01X4666094Y814590D01*
G01X4673206Y821703D01*
G01X4456608Y4899990D02*
G01X4456608Y4814590D01*
G01X4403598Y4899990D02*
G01X4403598Y4814590D01*
G01X4456608Y4814590D02*
G01X4450423Y4808405D01*
G01X4403598Y4814590D02*
G01X4409783Y4808405D01*
G01X4409783Y4622800D01*
G01X4450423Y4605966D02*
G01X4408656Y4564199D01*
G01X3125327Y4564199D01*
G01X4409783Y4622800D02*
G01X4391822Y4604839D01*
G01X3142161Y4604839D01*
G01X2689860Y4999666D02*
G01X2689860Y5321300D01*
G01X2671899Y5339261D01*
G01X2646499Y5339261D01*
G01X2614249Y5307010D01*
G01X2730500Y5338134D02*
G01X2688733Y5379901D01*
G01X2614249Y5307010D02*
G01X2376036Y5307010D01*
G01X2364246Y5318800D01*
G01X2101700Y5318800D01*
G01X2089910Y5307010D01*
G01X1980787Y5307010D01*
G01X2082424Y5356997D02*
G01X1980787Y5356997D01*
G01X2688733Y5379901D02*
G01X2105327Y5379901D01*
G01X2082424Y5356997D01*
G01X4450423Y4808405D02*
G01X4450423Y4605966D01*
G01X3125327Y4564199D02*
G01X2689860Y4999666D01*
G01X3142161Y4604839D02*
G01X2730500Y5016500D01*
G01X2730500Y5338134D01*
G01X4297604Y4899990D02*
G01X4297604Y4814590D01*
G01X4303789Y4783005D02*
G01X4283283Y4762500D01*
G01X4297604Y4814590D02*
G01X4303789Y4808405D01*
G01X4303789Y4783005D01*
G01X3898900Y4762500D02*
G01X3880939Y4780461D01*
G01X3880939Y5620839D01*
G01X3840299Y4763627D02*
G01X3840299Y5637673D01*
G01X3882066Y4721860D02*
G01X3840299Y4763627D01*
G01X4344429Y4766172D02*
G01X4300117Y4721860D01*
G01X4344429Y4808405D02*
G01X4344429Y4766172D01*
G01X4350614Y4814590D02*
G01X4344429Y4808405D01*
G01X4350614Y4899990D02*
G01X4350614Y4814590D01*
G01X3880939Y5620839D02*
G01X3962400Y5702300D01*
G01X3945566Y5742940D02*
G01X6303334Y5742940D01*
G01X3962400Y5702300D02*
G01X6286500Y5702300D01*
G01X6303334Y5742940D02*
G01X6747037Y5299237D01*
G01X6730203Y5258597D02*
G01X6959987Y5258597D01*
G01X6747037Y5299237D02*
G01X6943154Y5299237D01*
G01X7003711Y5359794D01*
G01X6959987Y5258597D02*
G01X7011197Y5309807D01*
G01X7318997Y5309807D01*
G01X4283283Y4762500D02*
G01X3898900Y4762500D01*
G01X3840299Y5637673D02*
G01X3945566Y5742940D01*
G01X4300117Y4721860D02*
G01X3882066Y4721860D01*
G01X6286500Y5702300D02*
G01X6730203Y5258597D01*
G01X7318997Y5459794D02*
G01X7311910Y5452706D01*
G01X7252441Y5452706D01*
G01X7236097Y5436363D01*
G01X7236097Y5383250D01*
G01X7255108Y5364239D01*
G01X7255108Y5359794D01*
G01X7003711Y5359794D02*
G01X7255108Y5359794D01*
G01X7318997Y5359794D01*
G01X7318997Y5309807D02*
G01X7326084Y5316894D01*
G01X7385554Y5316894D01*
G01X7401897Y5333237D01*
G01X7401897Y5386350D01*
G01X7385554Y5402694D01*
G01X7326110Y5402694D01*
G01X7318997Y5409806D01*
G01X1980787Y5307010D02*
G01X1973700Y5314097D01*
G01X1914230Y5314097D01*
G01X1897887Y5330440D01*
G01X1897887Y5383553D01*
G01X1914230Y5399897D01*
G01X1973674Y5399897D01*
G01X1980787Y5407010D01*
G01X1980787Y5356997D02*
G01X1983047Y5359257D01*
G01X1990508Y5359257D01*
G01X1995360Y5364109D01*
G01X2047343Y5364109D01*
G01X2063687Y5380453D01*
G01X2063687Y5433566D01*
G01X2047343Y5449910D01*
G01X1987874Y5449910D01*
G01X1980787Y5456997D01*
G01X4350614Y5260010D02*
G01X4350614Y5345410D01*
G01X4403598Y5260010D02*
G01X4403598Y5345410D01*
G01X4456608Y5260010D02*
G01X4456608Y5345410D01*
G01X4403598Y5345410D02*
G01X4409783Y5351595D01*
G01X4456608Y5345410D02*
G01X4450423Y5351595D01*
G01X4297604Y5260010D02*
G01X4191000Y5366614D01*
G01X4191000Y5590319D01*
G01X4350614Y5345410D02*
G01X4292600Y5403423D01*
G01X4292600Y5588000D01*
G01X4409783Y5351595D02*
G01X4409783Y5600700D01*
G01X4450423Y5351595D02*
G01X4533900Y5435072D01*
G01X4533900Y5600700D01*
G01X4292600Y5842000D02*
G01X4241800Y5892800D01*
G01X4196080Y5974080D02*
G01X4178119Y5992041D01*
G01X4241800Y5892800D02*
G01X4241800Y5918200D01*
G01X4236720Y5990914D02*
G01X4194953Y6032681D01*
G01X3594100Y6032681D01*
G01X4191000Y5943600D02*
G01X4196080Y5948680D01*
G01X4196080Y5974080D01*
G01X4241800Y5918200D02*
G01X4236720Y5923280D01*
G01X4236720Y5990914D01*
G01X3577266Y5992041D02*
G01X3535499Y6033807D01*
G01X3535499Y6419110D01*
G01X3594100Y6032681D02*
G01X3576139Y6050641D01*
G01X3481400Y6566604D02*
G01X3481400Y6736004D01*
G01X3681400Y6566604D02*
G01X3681400Y6736004D01*
G01X3561080Y6486924D02*
G01X3481400Y6566604D01*
G01X3601720Y6486924D02*
G01X3681400Y6566604D01*
G01X3535499Y6419110D02*
G01X3561080Y6444690D01*
G01X3561080Y6486924D01*
G01X3576139Y6050641D02*
G01X3576139Y6402276D01*
G01X3601720Y6427857D01*
G01X3601720Y6486924D01*
G01X4191000Y5943600D02*
G01X4191000Y5842000D01*
G01X4178119Y5992041D02*
G01X3577266Y5992041D01*
G01X4597400Y5829300D02*
G01X4597400Y5838626D01*
G01X4543226Y5892800D01*
G01X4502474Y5892800D01*
G01X4995763Y6443563D02*
G01X5727519Y6443563D01*
G01X4502474Y5892800D02*
G01X5012597Y6402923D01*
G01X5744353Y6402923D01*
G01X5727519Y6443563D02*
G01X5745480Y6461524D01*
G01X5665800Y6566604D02*
G01X5665800Y6736004D01*
G01X5865800Y6566604D02*
G01X5865800Y6736004D01*
G01X5745480Y6461524D02*
G01X5745480Y6486924D01*
G01X5665800Y6566604D01*
G01X5786120Y6486924D02*
G01X5865800Y6566604D01*
G01X4457700Y5842000D02*
G01X4457700Y5905500D01*
G01X4995763Y6443563D01*
G01X5744353Y6402923D02*
G01X5786120Y6444690D01*
G01X5786120Y6486924D01*
G01X4615612Y4899990D02*
G01X4615612Y4788586D01*
G01X4806798Y4597400D01*
G01X4806798Y4423547D01*
G01X4801143Y4417892D01*
G01X4927848Y5582042D02*
G01X4927848Y5365340D01*
G01X4628195Y5331566D02*
G01X4628195Y5272593D01*
G01X4615612Y5260010D01*
G01X4927848Y5365340D02*
G01X4661969Y5365340D01*
G01X4628195Y5331566D01*
G01X5016500Y5150002D02*
G01X4908398Y5150002D01*
G01X4800600Y5257800D01*
G01X4670806Y5257800D01*
G01X4668596Y5260010D01*
G01X5016500Y4946802D02*
G01X5016500Y5150002D01*
G01X4737100Y1269136D02*
G01X4979264Y1269136D01*
G01X5086350Y1162050D02*
G01X5086350Y772363D01*
G01X5080699Y766712D01*
G01X4979264Y1269136D02*
G01X5086350Y1162050D01*
G01X4082898Y1117905D02*
G01X3823005Y1117905D01*
G01X3810000Y1104900D01*
G01X3810000Y762000D01*
G01X3827961Y744039D01*
G01X4193029Y744039D01*
G01X4215702Y766712D01*
G01X4082898Y1117905D02*
G01X4318559Y1117905D01*
G01X4318864Y1117600D01*
G01X2203298Y4851400D02*
G01X2023900Y4851400D01*
G01X1925796Y4949505D01*
G01X1980787Y5062001D02*
G01X1980787Y5004496D01*
G01X1925796Y4949505D01*
G01X1980787Y5702005D02*
G01X1925796Y5756996D01*
G01X1925796Y5814502D01*
G01X4328198Y821703D02*
G01X4273207Y766712D01*
G01X4215702Y766712D01*
G01X4968202Y821703D02*
G01X5025708Y821703D01*
G01X5080699Y766712D01*
G01X3231413Y6736004D02*
G01X3035300Y6736004D01*
G01X3943502Y6273495D02*
G01X3721100Y6273495D01*
G01X4826000Y6769100D02*
G01X4826000Y7556500D01*
G01X5415813Y6736004D02*
G01X4859096Y6736004D01*
G01X4826000Y6769100D01*
G01X4826000Y7556500D02*
G01X4843961Y7574461D01*
G01X5080257Y7574461D01*
G01X5120792Y7614996D01*
G01X6115202Y6282596D02*
G01X6093706Y6261100D01*
G01X5930900Y6261100D01*
G01X6914998Y5803900D02*
G01X6914998Y5956300D01*
G01X6932958Y5974261D01*
G01X7217026Y5974261D01*
G01X7373988Y5817299D01*
G01X7318997Y5704802D02*
G01X7373988Y5759793D01*
G01X7373988Y5817299D01*
G01X7318997Y5064798D02*
G01X7373988Y5009807D01*
G01X7373988Y4952302D01*
G01X4946802Y4597400D02*
G01X4946802Y4762500D01*
G01X4941147Y4417892D02*
G01X4941147Y4241800D01*
G01X5156505Y4946802D02*
G01X5156505Y4826000D01*
G01X5156505Y5150002D02*
G01X5156505Y5257800D01*
G01X5067852Y5365340D02*
G01X5138113Y5435600D01*
G01X5270500Y5435600D01*
G01X5067852Y5582042D02*
G01X5125395Y5524500D01*
G01X5359400Y5524500D01*
G01X4946802Y4762500D02*
G01X4809312Y4899990D01*
G01X4668596Y4899990D01*
G01X4509592Y5260010D02*
G01X4522201Y5272619D01*
G01X4522201Y5331566D01*
G01X4660900Y5470265D01*
G01X4660900Y5499100D01*
G01X4082898Y977900D02*
G01X3924300Y977900D01*
G01X4888217Y821703D02*
G01X4866119Y799604D01*
G01X4866119Y755146D01*
G01X4430307Y755146D02*
G01X4430307Y799604D01*
G01X4408208Y821703D01*
G01X4866119Y755146D02*
G01X4814175Y703203D01*
G01X4482250Y703203D01*
G01X4430307Y755146D01*
G04 Track End*

M02*

